<svg viewBox="0 0 124 24" fill="none" xmlns="http://www.w3.org/2000/svg">
<path fill-rule="evenodd" clip-rule="evenodd" d="M10.4623 3.26147C10.4623 3.26147 10.4623 9.10763 10.4623 9.16917C10.4623 9.47686 10.1491 9.75379 9.86714 9.75379H8.80209C8.52017 9.78456 8.20692 9.47686 8.20692 9.16917C8.20692 9.10763 8.20692 3.26147 8.20692 3.26147H3.00702C3.00702 3.26147 3.00702 9.32302 3.00702 9.75379C3.00702 11.8769 3.22629 13.2923 6.60936 13.2923H9.30329C10.0551 13.2923 10.431 12.923 10.431 12.923V20.5538H10.4936C10.4936 20.5538 12.4671 19.723 14.096 18.123C15.2237 17.0153 16.1947 15.6307 16.1947 13.8461C16.1947 13.4769 16.1947 3.29224 16.1947 3.29224H10.4623V3.26147ZM5.57565 14.7999C3.63351 14.7999 3.00702 13.1076 3.00702 13.1692C3.00702 13.1692 3.00702 13.5076 3.00702 13.8461C3.00702 15.6307 3.85279 16.9846 5.10577 18.123C6.92261 19.8153 8.86474 20.5538 8.86474 20.5538H8.92739V14.7999C8.92739 14.7999 8.70812 14.7999 8.5515 14.7999H5.57565Z" fill="white"/>
<path fill-rule="evenodd" clip-rule="evenodd" d="M0 0C0 0 0 13.8769 0 14.1846C0 20.8 9.02152 23.9385 9.02152 23.9385C9.02152 23.9385 9.33476 24 9.64801 24C9.96126 24 10.2745 23.9385 10.2745 23.9385C10.2745 23.9385 19.296 20.8 19.296 14.1846C19.296 7.72308 19.296 0 19.296 0H0ZM17.7611 13.5385C17.7611 19.9077 10.0239 22.4615 10.0239 22.4615C10.0239 22.4615 9.86728 22.5231 9.64801 22.5231C9.42874 22.5231 9.27212 22.4615 9.27212 22.4615C9.27212 22.4615 1.53491 19.8769 1.53491 13.5385C1.53491 13.0769 1.53491 1.50769 1.53491 1.50769H17.7611C17.7611 1.47692 17.7611 13.1077 17.7611 13.5385Z" fill="white"/>
<path d="M32.6718 11.1384C32.3899 11.2922 31.8573 11.5076 31.4814 11.5999C31.1055 11.723 30.7296 11.7537 30.3851 11.7537C29.6959 11.7537 29.1634 11.5999 28.8188 11.2922C28.4743 10.9845 28.0357 10.4922 28.0357 9.81528V6.5845H26.0623V9.84604C26.0623 10.4614 26.1562 11.2307 26.3442 11.6922C26.5321 12.123 26.814 12.523 27.1586 12.8307C27.5032 13.1076 27.9104 13.323 28.3803 13.4768C28.8502 13.6307 29.508 13.7845 30.0405 13.7845C31.0116 13.7845 32.0453 13.4768 32.7031 13.1384V17.6922H34.6766V6.61527H32.7031V11.1384H32.6718ZM37.3078 17.6614H44.6065V15.723H39.3126V13.1076H43.9487V11.1691H39.3126V8.55374H44.6065V6.61527H37.3078V17.6614ZM55.8834 6.92296L52.6883 13.1076H52.4063L49.2425 6.92296L49.1799 6.5845H47.2378V17.6614H49.2112V12.123L49.0859 11.5384L49.2112 11.7845L51.8738 16.3384H53.1895L55.8521 11.7845L56.0087 11.5384L55.8521 12.123V17.6614H57.8255V6.5845H55.9147L55.8834 6.92296ZM60.5194 17.6614H62.4929V8.55374H67.129V17.6614H69.1024V6.5845H60.5194V17.6614ZM78.4372 6.89219L73.7072 14.123L73.8011 13.7537V6.5845H71.7963V17.6614H73.7072L73.8011 17.3537C73.8011 17.3537 74.5216 16.3076 74.7409 15.9691C74.9601 15.6307 75.1794 15.2614 75.43 14.923C75.6806 14.5537 75.8999 14.2153 76.1192 13.8768C76.3384 13.5384 76.5577 13.1999 76.7457 12.923C76.9336 12.6153 77.0902 12.3691 77.2155 12.1845L78.4998 10.123L78.3745 10.4922L78.4059 17.723H80.3793V6.64604H78.4685L78.4372 6.89219ZM90.3719 7.41527C89.9647 7.10758 89.5261 6.86143 88.9936 6.70758C88.4611 6.55373 87.9286 6.46143 87.3961 6.46143C86.8322 6.46143 86.2997 6.52296 85.7985 6.67681C85.266 6.83066 84.8274 7.04604 84.4202 7.35373C84.013 7.66143 83.6997 8.03066 83.4491 8.4922C83.1986 8.95374 83.1046 9.47681 83.1046 10.0614V14.123C83.1046 14.7384 83.2299 15.2614 83.4491 15.6922C83.6684 16.1537 83.9817 16.523 84.3889 16.8307C84.7648 17.1384 85.2347 17.3845 85.7672 17.5384C86.2997 17.6922 86.8322 17.7845 87.4274 17.7845C88.0226 17.7845 88.5551 17.6922 89.0876 17.5384C89.6201 17.3845 90.0587 17.1384 90.4659 16.8307C90.8418 16.523 91.155 16.1537 91.4056 15.6922C91.6249 15.2307 91.7502 14.7076 91.7502 14.123V10.123C91.7502 9.53835 91.6249 9.01528 91.4056 8.55374C91.0924 8.0922 90.7478 7.72297 90.3719 7.41527ZM89.6828 13.7537C89.6828 14.123 89.6201 14.4307 89.4948 14.7076C89.3695 14.9537 89.1816 15.1691 88.9623 15.3537C88.743 15.5076 88.4924 15.6307 88.2105 15.6922C87.9286 15.7537 87.6467 15.7845 87.3647 15.7845C87.0828 15.7845 86.8009 15.7537 86.519 15.6922C86.237 15.6307 85.9864 15.5076 85.7672 15.3537C85.5479 15.1999 85.36 14.9845 85.2346 14.7076C85.1094 14.4614 85.0467 14.123 85.0467 13.7537V10.4922C85.0467 10.123 85.1094 9.81528 85.2346 9.56912C85.36 9.32297 85.5479 9.10758 85.7672 8.95374C85.9864 8.79989 86.237 8.67681 86.519 8.5845C86.8009 8.52297 87.0828 8.46143 87.3647 8.46143C87.6467 8.46143 87.9286 8.4922 88.2105 8.5845C88.4924 8.64604 88.743 8.76912 88.9623 8.95374C89.1816 9.10758 89.3695 9.32297 89.4948 9.56912C89.6201 9.81528 89.6828 10.123 89.6828 10.4922V13.7537ZM100.96 11.1384H96.3236V6.5845H94.3188V17.6614H96.3236V13.1076H100.96V17.6614H102.933V6.5845H100.96V11.1384ZM108.916 6.5845L104.625 17.6614H106.943L107.945 15.0461H111.798L112.894 17.6614H115.181L110.921 6.5845H108.916ZM108.509 13.1076L108.916 11.8153L109.825 9.19989H109.887L110.89 11.8153L111.359 13.1076H108.509ZM114.868 6.5845V8.55374H118.188V17.6614H120.162V8.55374H123.482V6.61527H114.868V6.5845Z" fill="white"/>
</svg>
