<svg viewBox="0 0 67 19" fill="none" xmlns="http://www.w3.org/2000/svg">
<path d="M10.2801 17.0072C9.17102 18.217 7.67466 18.8089 6.05508 18.8089C4.40909 18.8089 3.07117 18.2344 2.09414 17.2683C0.606589 15.7974 0.509766 14.4309 0.509766 10.845C0.509766 7.25907 0.597786 5.89259 2.09414 4.42166C3.07117 3.45555 4.40909 2.8811 6.05508 2.8811C9.03899 2.8811 11.1515 4.86555 11.6004 7.5724H9.91039C9.46148 5.57055 8.04435 4.37814 6.06388 4.37814C4.97242 4.37814 4.0394 4.7524 3.32643 5.47481C2.32299 6.48444 2.21737 7.63333 2.21737 10.845C2.21737 14.0567 2.3318 15.2056 3.32643 16.2152C4.0394 16.9376 4.97242 17.3119 6.06388 17.3119C7.21695 17.3119 8.33482 16.8506 9.06539 15.9715C9.70794 15.1794 9.9544 14.3178 9.9544 13.1341V11.9243H6.05508V10.4968H11.6444V12.9861C11.6356 14.7878 11.3011 15.8844 10.2801 17.0072Z" fill="white"/>
<path d="M23.1311 18.6784L19.5223 11.7241H15.7198V18.6784H14.0298V3.01172H20.1032C22.8671 3.01172 24.8035 4.66542 24.8035 7.37227C24.8035 9.66134 23.404 11.1584 21.3531 11.5761L25.1116 18.6871H23.1311V18.6784ZM19.9448 4.50875H15.7198V10.2532H19.9448C21.7932 10.2532 23.1047 9.30449 23.1047 7.38968C23.1047 5.47486 21.7932 4.50875 19.9448 4.50875Z" fill="white"/>
<path d="M43.8336 18.6784H42.4517L37.2408 3.01172H39.0189L43.1383 15.6843L47.2576 3.01172H49.0357L43.8336 18.6784Z" fill="white"/>
<path d="M50.6024 18.6784V3.01172H52.2924V18.6784H50.6024Z" fill="white"/>
<path d="M64.6858 18.6784L63.4183 15.136H56.4998L55.2323 18.6784H53.4279L59.2637 3.01172H60.6896L66.499 18.6784H64.6858ZM59.9943 5.41394L57.0104 13.6912H62.9342L59.9943 5.41394Z" fill="white"/>
<path d="M32.4173 0.548584L25.8774 18.6784H27.6818L28.9493 15.136H35.8678L37.1353 18.6784H38.9397L32.4173 0.548584ZM29.4598 13.6825L32.4437 5.40525L35.3837 13.6825H29.4598Z" fill="white"/>
</svg>
