<svg xmlns="http://www.w3.org/2000/svg"
	 viewBox="0 0 769.3 754" style="enable-background:new 0 0 769.3 754;">
<path class="question-one-svg" stroke="#ffffff" stroke-width="3" style="stroke-dasharray: 18283; stroke-dashoffset: 18283;" fill="transparent" d="M733.3,475.6c-3.9-6.5-9.7-16.4-10.1-46.2c-0.5-40.3-9.5-42.6-16-44.3c-3.5-0.9-5.6-1.4-5.3-9.6
	c0.3-6.5,0.8-9.1,1.1-11.1c1-5.2,1-5.2-6.2-53.2l-0.8-5c-10-67-28.5-69.2-44.8-71.1l-0.5-0.1c-1.5-0.2-2.8-0.3-4.2-0.6
	c-12.3-2-52.9-16.4-77.2-25l-0.5-0.2c-8.1-2.9-14.6-5.2-17.9-6.2c-3.1-1-6.8,0.8-11.3,5.2c0-15.9-8.7-27.7-12.5-32.9
	c-3.1-4.2-6.6-6.5-10.2-6.8c-4.1-0.4-6.9,2-7.4,2.5c-0.4,0.4-0.5,0.9-0.3,1.4c0.2,0.5,0.6,0.9,1.1,0.9c3.4,0.4,5.7,2,6.7,4.7
	c3.9,10.4-9.4,35.3-32.3,60.5c-25.8,28.4-50.8,24.9-69,22.4l-0.5-0.1c-2.9-0.4-5.6-0.8-8.2-1c-11.7-1-19.1-1.5-22.2,2.3
	c-2,2.5-2,6.4,0,13.2c2.9,9.5,0.9,26-0.8,40.5l0,0.3c-1,8.3-1.9,16.2-1.9,22c-0.7-8.7,0.2-16.9,1.1-25.3c1.2-11.6,2.5-23.5-0.4-37.6
	c-1.8-8.7-1.5-14,0.9-16.5c3.4-3.5,11.5-2.3,21.9-0.6c10.9,1.7,24.4,3.8,39.2,1.6c0.3,0,0.6-0.1,0.8-0.1
	c39.4-6.6,66.9-64.9,67.1-65.5c0.2-0.5,0.2-1-0.2-1.5c-13.1-15.7-2.4-55.6-2.3-56c0.2-0.6-0.1-1.3-0.7-1.6c-0.3-0.2-0.6-0.2-1-0.1
	c26.2-28.3,25-65-3.5-101.2c-27.6-35.1-63-25-97.4-15.2c-12,3.4-23.4,6.7-34.4,8c-20.3,2.5-26.9,12.2-26.4,20.5
	c1,14.2,21.4,28.5,54.1,28c17.8-0.3,29.6,3.8,35.2,12.1c2.1,3.1,3.1,6.6,3.5,10c-0.7-4-2.2-8-5.4-11.3c-6.1-6.2-17.2-9.1-33.8-8.9
	c-22.4,0.3-34.4-3.5-40.4-6.7c-6.5-3.5-7.8-7.2-7.8-7.2c-0.1-0.4-0.5-0.8-0.9-0.9c-0.4-0.1-0.9-0.1-1.3,0.2
	c-16.4,12.7-12.2,52.7-11.5,58.2c-0.7,0.9-0.9,2-0.8,3.1c0.5,4.4,7,9.3,10.2,11.6c-2.7,3-3.7,7.3-4.6,11.4l-0.1,0.2
	c-0.3,1.4-0.6,2.8-1,4.1c-0.6,2.1-1.9,4.3-3.3,6.6c-2.5,4.1-5.2,8.7-5.5,14.9c-0.1,2,0.4,3.7,1.6,4.8c2.3,2.4,6.3,2.3,10.2,2.3
	c2.5,0,5.4-0.1,6.4,0.8c1.8,1.7,0.6,6-0.5,9.9l0,0.2c-0.6,2.1-1.1,4.1-1.2,5.8c0,1.1,0.4,2.6,2.8,3.7c0.9,0.4,2,0.7,3.3,1
	c-0.7,0.4-1.3,0.7-1.8,1.1c-1.3,0.9-1.4,2-1.4,2.6c0.1,2.3,3,4.2,6.4,6.5c2.2,1.4,6.2,4.1,5.9,5.3c-0.3,0.9-2.5,9.2,2.9,15.1
	c5.4,5.8,16.1,7.1,31.8,3.8c12.1-2.5,21.7-1.3,28.4,3.7c2.3,1.7,4,3.6,5.3,5.6c-9.3-10.7-20.4-11.3-34.1-8.8
	c-17.2,3.2-24.9,0.5-25,0.4c-0.2-0.1-0.4-0.1-0.6-0.1c-17.5,2.1-37.6,9.2-63.2,22.3c-16.9,8.6-19.6,46.8-21.8,77.6
	c-1.3,18.7-2.7,38-7.3,39.8c-6.8,2.7-6.3,16.6-5.8,31.4c0.5,13.3,1,27.1-3.8,32c-1.1,1.2-2.6,1.8-4.3,1.8c-4.2,0-6.8,0.9-8.2,2.7
	c-1.9,2.5-0.8,6,0.3,9.8c1.8,5.8,3.3,10.8-4.2,13.3c-4.3,1.5-7.4,4.2-9.2,8.1c-4.8,10.3,0.9,25.4,1.2,26c0.2,0.5,0.7,0.9,1.3,0.9
	c0.6,0,1.1-0.4,1.3-0.9c4.3-13,11.2-21.2,20.4-24.5c4.3-1.5,9.2-1.9,14.4-1.2c-14.1,0-25.3,7.5-31.9,21.4c-9,19.1-5.3,43.3,7.5,49.9
	c4.4,2.2,8.8,2.4,12.8,0.6c1.1,1.9,2.3,3.9,3.7,5.8c10.8,15.2,29.7,23,45,29.4c12.3,5.1,21.9,9.2,22.3,14.7
	c0.9,15.1,21.1,30.7,34.6,30.4c2.1-0.1,3.7-0.6,4.6-1.6c6,3.2,13.2,5.9,17.5,6.6c1.2,0.2,4.7,0.7,5.3-1.7c0.4-1.8-0.4-4.4-2.6-7.9
	c1.2,1.1,2.1,2,2.8,2.8c4.9,5.7,9.7,8.7,14.3,8.9l0.1,0c4.2,0.1,7.2-2,8.9-3.9c0.8-0.9,1.2-2,1.1-3.3c0-0.4-0.1-0.8-0.2-1.2
	c0.4-0.5,0.7-1.1,0.8-1.8c0.8,5,2.3,10.5,3.7,15.9c1.2,4.7,2.5,9.5,3.3,13.7c1.6,8.9-0.8,11.4-4.3,14.8c-2.1,2.1-4.6,4.6-6.1,8.9
	c-0.6,1.6-0.9,3.4-1,5.4c-0.6-6.1,0.6-9.7,2.4-11.3c8.2-7.1,7.4-12.4,7.3-12.6c-0.1-0.6-0.6-1.1-1.3-1.1c-3.3-0.1-80.5-2.1-89.7,14
	c-1.5,2.7-1.3,5.7,0.7,8.8c4.9,7.6,22.9,18.3,79.1,28.2c-57.2-8.2-75.1-22-75.9-22.6c-0.4-0.3-1-0.4-1.5-0.2
	c-0.5,0.2-0.8,0.7-0.8,1.3c0.8,19.7,14.2,41.9,34.1,56.4c10.1,7.4,26.1,13.1,47.6,17l-78.1-3.3c-1.8-8.6-13.8-68.8-6.2-101.3
	c3,0.8,9.7,2.6,16.8,3.3c0.7,0,1.3-0.4,1.5-1c0.2-0.7-0.2-1.4-0.8-1.6c-0.2-0.1-21.4-8.3-25.8-16.5c0.1-2.6,1.6-32.1,5.2-42.2
	c0.2-0.7-0.1-1.5-0.8-1.8c-0.7-0.3-1.5,0.1-1.8,0.8c-0.3,0.8-6.1,15.9-8.6,34.3H37.6v3h292.9c-0.4,3.4-0.6,7-0.7,10.5
	c0,0.4,0.2,0.9,0.6,1.1c0.2,0.1,4.7,3.6,7.1,5.5c-2.3,7.1-12,41.5-5.6,105.8l0.5,0c0,0,0,0,0,0l0.9,1.8c0,0,0,0,0,0l0,0.5
	c0.4,0,0.8-0.1,1.1-0.4c0.3-0.3,0.4-0.7,0.4-1.1c-7.3-71,5.5-106.2,5.6-106.5c0.2-0.5,0-1.2-0.4-1.5c-1.8-1.5-5.8-4.6-7.4-5.8
	c0.2-7.3,1.1-15,2.9-23.2c-0.9,9.9-1.3,18.9-1.3,19.3c0,0.2,0,0.5,0.1,0.7c2.5,5.2,10.3,10.1,17.5,13.7c-4.2-0.9-7.1-1.8-7.1-1.8
	c-0.4-0.1-0.8-0.1-1.1,0.1c-0.3,0.2-0.6,0.5-0.7,0.9c-9.1,35.3,5.9,104.3,6.1,105c0.1,0.6,0.7,1.1,1.3,1.1l111.2,4.7
	c18.8,1.6,33.6,1.5,35.3,1.5c0.7,0,1.3-0.6,1.4-1.4c0-0.7-0.6-1.4-1.3-1.4l-35.4-1.5c-25.6-2.2-59.9-7.5-77.8-20.6
	c-18.1-13.2-30.9-33.3-32.8-51.5c9.4,5.9,43.4,22.7,132.5,26.7c0.7,0,1.4-0.5,1.4-1.3c0.1-0.7-0.5-1.4-1.3-1.5
	c-4.9-0.5-120-12.4-134.2-34.8c-1.5-2.3-1.7-4.2-0.7-6c7.7-13.6,75.5-12.9,85.8-12.7c-0.3,1.6-1.6,4.9-6.3,9
	c-5.8,5.1-4.2,19.3,3.8,35.4c0.3,0.7,1.1,0.9,1.8,0.6c0.7-0.3,1-1.1,0.7-1.8c-0.3-0.6-6.5-15.6-3.2-25.4c1.3-3.8,3.4-5.8,5.4-7.9
	c3.6-3.5,6.9-6.8,5-17.2c-0.8-4.3-2.1-9.2-3.3-13.9c-1.7-6.7-3.7-14.2-4.2-20.1c0.5,0.1,1,0.2,1.5,0.2c3.4,0.3,5.8-1.4,7.7-3
	c3.5-3.1,3.5-7.1,1.6-9.4c-1.9-2.3-5.8-3-10.3,0.6c-1.9,1.5-3,4-3.2,7.6c-3.5-2-7.7-5.8-12.8-11.7c-5.9-6.8-9.8-12.6-11.7-17.2
	c3.7-2.4,5.5-6.5,4.9-8.9c-0.4-1.4-1.6-2.3-3.3-2.2c-3.2,0.2-4.6,1.8-5.2,3.2c-0.7,1.7-0.7,3.9,0.1,6.6c-1.5,0.5-3,0.6-4.6,0.3
	c-1.3-2.7-3.1-5.2-4.5-7.1l-0.3-0.5c-0.2-0.2-0.3-0.4-0.4-0.6c-1.7-2.3-9-8.5-11.7-8.1c-0.7,0.1-1.2,0.5-1.4,1.1
	c-0.3,0.9-0.8,2.1,6.8,10.6c3.2,3.6,6.4,5.9,9.6,6.9c0.5,1.2,0.7,2.3,0.8,3.3c-2.8-0.4-5.4,0.3-7.4,1.9c-1.8,1.5-5.4,6.6-3.6,9.1
	c1.6,2.2,5.2,0.4,8.2-1.5c2.7-1.7,4.4-3.7,5.1-6.1c2.7,1.1,5.5,3.1,8.3,6.2c2.5,2.7,5.6,5.6,8.6,8.4c4.1,3.8,9.4,8.8,11.5,12.1
	c-0.9-1-1.8-1.8-2.5-2.3c-1.7-1.2-4.4-0.9-6.5,0.8c-2,1.6-3.7,4.5-2.3,8.1c1,2.6,2.8,3.5,4.2,3.7c0.5,0.1,1,0.1,1.5,0
	c-0.4,0.1-0.9,0.1-1.4,0.1c-3.8-0.2-8-2.8-12.4-7.9c-1.9-2.2-5.6-5.3-11.5-9.6c-9.1-10.5-23-22.4-28.1-24.2
	c-2.2-0.8-3.1,0.4-3.3,0.9c-1.4,3.1,4.5,7.7,20.4,18.9l1,0.7c2.6,1.8,5.3,3.7,7.8,5.5c6.7,7.7,8.9,12.1,8.7,13.8
	c-0.9,0.2-5.4-0.3-13.8-4c-1.7-0.8-3.5-1.6-5.2-2.5c0-0.2,0-0.4,0-0.5c0-5.3-7.3-13.3-11.4-13.4c-1.4,0-3,0.8-3.1,3.2
	c-0.3,4.3,5.5,8.7,10.7,11.8c-0.5,0.2-1.2,0.3-2,0.4c-14.2,0.4-31.1-16.3-31.8-27.8c-0.4-7.3-10.8-11.6-24-17.1
	c-14.9-6.2-33.4-13.9-43.7-28.4c-1.3-1.8-2.5-3.6-3.5-5.5c0.6-0.4,1.2-0.9,1.7-1.4c10.7-9.3,15.3-33.5,12-42.8
	c-1.3-3.6-3.4-4.5-5-4.5c-4.8-0.2-9.9,3.6-13.4,9.9c-5.8,10.7-5.5,24.8,0.9,37.7c-3.2,1.4-6.6,1.2-10.2-0.6
	c-11.6-6-14.7-28.4-6.3-46.3c4.3-9.2,17.8-29,49.6-15.3c0.7,0.3,1.4,0,1.8-0.6c0.3-0.6,0.1-1.4-0.5-1.8c-0.8-0.5-19.3-12.4-36.8-6.3
	c-9.1,3.2-16.1,10.7-20.7,22.4c-1.3-4.7-3-13.7-0.1-20.1c1.5-3.2,4.1-5.5,7.6-6.7c10-3.4,7.6-11.1,5.9-16.7c-0.9-3-1.8-5.9-0.7-7.3
	c0.8-1.1,2.9-1.6,6-1.6c2.5,0,4.6-0.9,6.3-2.6c5.5-5.7,5-20.1,4.5-34c-0.4-12.5-0.9-26.7,4.1-28.7c6.1-2.5,7.4-20,9-42.2
	c2.1-30,4.8-67.4,20.3-75.3c25.2-12.9,44.9-19.8,62-22c1.7,0.5,9.8,2.6,26.1-0.4c16.7-3.1,28.3-1.2,38,17.9c0.3,0.6,1,0.9,1.6,0.7
	c0.6-0.2,1.1-0.8,1-1.4c0-0.1-0.9-11.6-10.7-18.8c-5.5-4.1-12.7-5.9-21.3-5.5c5.9-1.3,34.7-8.4,47.1-28.5c5.5-8.9,6.9-19.2,4.1-30.5
	c1.2,0,2.9-0.3,4.9-1.2c4.2-2,10.2-7.6,15.6-22.7c1.3,1.2,3.4,2.5,6.2,2.8c5.7,0.6,12.3-2.9,19.6-10.3c-7.5,33.3-0.2,47.7,3.5,52.7
	c-3.4,7-29.1,57.2-64.7,63.2l-0.8,0.1c-14.4,2.1-27.7,0-38.4-1.7c-11.5-1.8-19.9-3.1-24.3,1.5c-3.1,3.3-3.6,9.3-1.6,19
	c2.9,13.7,1.6,25.4,0.4,36.8c-2,19-4.2,38.6,13.5,66.9c0.4,0.6,1.2,0.8,1.8,0.5c0.6-0.4,0.9-1.1,0.6-1.8
	c-0.1-0.2-11.3-24.2-11.6-39.9c-0.1-5.8,0.9-13.7,1.9-22.2c1.8-14.8,3.8-31.6,0.7-41.6c-1.7-5.6-1.9-9-0.5-10.6
	c2.2-2.7,9.2-2.2,19.8-1.3c2.7,0.2,5.7,0.7,8.5,1.1c18.8,2.6,44.6,6.3,71.4-23.3c23.9-26.3,37.1-51.8,32.8-63.3
	c-1-2.6-2.8-4.5-5.4-5.6c0.7-0.2,1.6-0.4,2.6-0.3c2.8,0.2,5.6,2.2,8.2,5.7c4,5.3,13.2,17.8,11.8,34.5c-6.1,7.3-12.1,17.8-15.4,25.1
	c-3.6,8-2.8,9.3-1.7,9.9c1.4,0.8,3.3-0.1,8.6-7.3c6.5-8.7,10.2-17.6,11.1-26.6c1-1.1,1.9-2.1,2.7-2.9c3.3-3.2,6.1-4.6,7.9-4
	c3.1,1,9,3.1,16.5,5.8l1.5,0.5c24.5,8.6,65.4,23.1,77.9,25.2c1.4,0.2,2.8,0.4,4.3,0.6l0.5,0.1c15.3,1.8,32.6,3.9,42.4,68.8l0.8,5
	c7.1,47.5,7.1,47.5,6.2,52.3c-0.4,2-0.9,4.8-1.2,11.4c-0.4,10.4,3.3,11.3,7.4,12.4c5.7,1.5,13.5,3.5,14,41.7
	c0.4,30.6,6.4,40.8,10.5,47.6c4.1,7,6,10.1-4.1,31.7c-0.1,0.2-0.2,0.5-0.1,0.7c0,0.2,1.4,15.9-8.1,26.6c-5.2,5.9-12.7,9.3-22.3,10.1
	c4.8-5.5,16.6-20.8,15.8-38.1c-0.5-11.1-6.1-21-16.6-29.5c-0.6-0.5-1.4-0.4-1.9,0.2c-0.5,0.6-0.4,1.4,0.1,1.9
	c0.2,0.2,22.5,20.5,4.5,51.5c-5,8.5-11.7,13.9-20.2,16.1c-10.8,2.8-22.3-0.3-30.4-3.5c8.6-3.2,14.8-8.6,18.5-16.2
	c8.9-18.6,0.3-46.6-9.8-65c-5-9-11.2-14.5-18.5-16.2c-5.1-1.2-9.7-0.4-12.8,0.6c-3-11.9-9.7-40.7-10.1-62.8c4.2-6,8.4-17.4,9.7-23.1
	c1-4.4,0.8-6.6-0.8-7.3c-1.5-0.7-3.3,0.4-6.1,4c-3.8,4.8-5.6,13.4-5.5,25.6c-1.4,1.9-2.2,2.2-2.4,2.2c-0.1,0-0.5-0.5-0.9-2.1
	c-1.6-7.1-5.6-34.1-2.7-63.9c2.3-24.4,10.2-56.5,34.1-70.6c0.6-0.4,0.8-1.1,0.6-1.7c-0.3-0.6-1-1-1.7-0.7
	c-1.3,0.4-31.1,10.9-38.1,53.4c-6,36-5.8,81.3,3.9,91.3c1.3,1.3,2.6,2,4.1,2.2c0.1,5.1,1.2,22.5,9.2,57.9c0.1,0.4,0.4,0.8,0.8,1
	c0.4,0.2,0.9,0.1,1.3-0.1c0,0,1.1-0.7,2.8-1.5c0.4,1.4,0.6,2.4,0.8,2.8l0,0.2c0.2,0.7,0.9,1.1,1.6,1c6.5-1.5,11.2-0.4,14.5,1.3
	c-8.7-2.1-17.2,1.9-25.4,5.9c-6.9,3.3-14.1,6.8-21.6,6.8c0,0-0.1,0-0.1,0c-19.3,0-41.6-6.9-41.7-7c-0.1,0-0.2-0.1-0.3-0.1
	c-9.5-1.4-16.6-1.9-21.1-1.3c-0.8-1.6-1.7-3.2-2.8-4.9c-14.1-23.7-23.2-28.1-38.1-29.1c-9.1-0.6-12.9-3.7-17-7
	c-2.5-2.1-5.1-4.2-9.1-5.9c-2.9-1.3-5.9-1.3-8.5-0.1c-1.9-3.6-3.4-6.7-4.6-9.7c-3.6-8.6-3.1-9.1,0.2-12.7l0.1-0.1
	c4-4.3,2.8-6.8-2.3-17.6c-0.3-0.6-0.6-1.3-1-2.1l-0.6-1.3c-6.4-13.7-26.2-35.3-27-36.2c-0.2-0.3-0.6-0.4-1-0.4c-0.4,0-0.7,0.1-1,0.4
	c-0.6,0.5-0.6,1.4-0.1,1.9c1.1,1.2,5.2,7.8,11.5,18.6c-6.4-7.7-13.1-15.2-14.6-16.9c-0.2-0.2-0.4-0.5-0.6-0.6
	c-0.5-0.5-1.4-0.6-1.9,0c-0.5,0.5-0.6,1.4-0.1,1.8c0,0,0.1,0.1,0.2,0.3l0.4,0.4c2.3,2.8,7.3,11.1,11.9,18.8
	c-6.5-7.6-13.7-15.4-16-18c-0.1-0.2-0.3-0.3-0.4-0.4c-0.3-0.3-0.6-0.4-1-0.4c-0.3,0-0.7,0.1-1,0.4c-0.6,0.5-0.6,1.4-0.1,1.9l0.4,0.4
	c2.8,3.3,8.4,13,13.4,22.1c-5.9-7.3-12.3-14.9-15.1-18.1c-1-1.4-1.8-2.3-2.5-2.9c-0.6-0.4-1.4-0.4-1.8,0.1c-0.5,0.5-0.5,1.3-0.1,1.8
	c0,0,0.2,0.3,0.6,0.7l1.7,2c4,5.8,10.5,18.8,14.8,27.3c2.5,4.9,4.4,8.8,5.5,10.7c0.8,1.4,1.5,2.8,2.1,4.1c2.1,4.3,4.2,8.7,10.2,8.7
	c0,0,0,0,0,0c5.6,0,7.9,4.7,12,15.4c0.6,1.6,1.3,3.1,2.1,4.6c-1.9,3.2-2.8,7.4-0.8,9.1c1.3,1.1,3.4,1.4,5.4,1.2
	c-0.7,0.2-1.5,0.4-2.2,0.7c-11.6,3.6-18.4,8.6-20.2,14.8c-1.8,6.4,2.3,11.8,3.6,13.3c2,2.3,6.8,2.7,10.9,2.5
	c-1.6,3-1.8,6.5-0.6,10.5c1.5,5,5.4,8.3,11.4,9.6c-0.8,2.4-0.3,5.4,1.3,8.9c3.8,8.2,9.5,9.8,13.6,9.6c0.4,0,0.8,0,1.2-0.1
	c0.5,1.5,1.3,3.3,2.4,5.3c6,11.5,19.4,9.6,29.3,8.2c3.9-0.6,7.5-1.1,9-0.4c5.4,2.3,11.4,0.5,13.5-0.3c7.9,5.4,58.1,33.7,95.1,33.7
	c6,0,11.7-0.8,16.8-2.5c0.3,0.2,0.7,0.4,1.2,0.6c-0.5,0.1-1,0.2-1.4,0.3c-0.4,0.1-0.7,0.3-0.9,0.6c-0.2,0.3-0.3,0.7-0.2,1
	c0.2,0.9,15.1,88.2,0.3,97.1c-19.5,11.7-74.3,36.9-161.7,17.8c-2-3-21.7-34-22.7-53.2c0.3,0.2,0.7,0.3,1.1,0.2
	c1.3-0.3,7.6-2.2,9.4-7.2c1.1-3.2,0.2-6.9-2.9-10.9c-1.8-2.3-4-6.4-6.4-10.7c-5-9.1-10.6-19.3-15.8-20.8c-0.5-0.1-0.9-0.2-1.4-0.2
	c-1.5-2.5-4.9-6.1-12.2-9.8c0-0.1,0.1-0.2,0.1-0.3c2.7-11-3.1-46.9-13.8-54.7c-3-2.2-6.2-2.3-9.4-0.3c-7.4,4.6-11.1,13.1-10,23.4
	c1.4,13.6,10.4,26.2,21.3,30c2.7,0.9,5.2,1.9,7.5,3c-2.8-0.1-6.7-2.1-10.6-4c-6.4-3.3-13.1-6.6-18.1-3.8c-3.6,2-4.8,4.4-5.8,6.5
	c-0.5,1.1-1,2.1-1.9,2.9l-3.3-0.8c-5.5-1.3-11.6-2.7-12.7-3.7c-3.5-3.3-16.9-24.3-15.4-46.5c1.6-23.9,2.4-37.7-0.4-43.3
	c-1-2.1-2.4-7.8-4.4-15.8l0-0.1c-2.9-11.8-6.8-28-13-47c-10.4-32-16.6-101.2-16.6-101.9c-0.1-0.7-0.6-1.3-1.3-1.3c0,0,0,0,0,0
	c-0.7,0-1.3,0.5-1.4,1.2c-4.8,53.1,27.9,161.4,29.7,167.2c-0.2,4-2.4,7.1-6.4,9.2c-2.4,1.2-5.3,2.1-8.7,2.6
	c-2.2-1.9-4.8-3.6-7.8-4.9c-17.7-7.8-19.3-4.8-19.9-3.7c-1.5,2.8,3,6.8,5.7,8.5c3.4,2.2,12.4,3.9,21.1,3c9.9,9.6,6.6,24,4.9,29.1
	c-26.2-20.1-40.7-8-41.3-7.5c-0.5,0.4-0.6,1-0.4,1.6c0.2,0.6,0.8,0.9,1.4,0.8c32.1-3.2,50.2,24.8,61,41.5l0.1,0.1
	c3.4,5.2,6,9.3,8.3,11.2c2.4,2,4.1,4.5,5,7.2c-3.6,3.1-6,6.9-6.9,9.5c-1,2.6-0.9,4.7,0.1,5.9c0.6,0.6,1.6,1.3,3.5,0.8
	c3.2-0.8,5.6-3.6,6.5-7.5c0.6-2.3,0.5-5-0.1-7.6c2.2-1.5,4.4-2.4,6.7-2.7c2.9-0.4,5.1-1,6.6-2.1c15.1,3.6,30.9,8.4,34.4,16.7
	c6.5,15.4,19.6,31.9,25.3,35.5c4.8,3.1,4.2,5.1,2.6,7.9c-2.5,4.5,15,44.5,24.2,51.7c3.1,2.4,6,4.2,8.1,5.5
	c9.6,5.9,14.3,8.8,14.9,43.7c0,0.7,0.6,1.3,1.3,1.3c3.2,0.3,78.7,6.6,109.5-7.2c12.2-5.4,13.8-11.6,13-15.8
	c-0.7-3.8-3.6-7.5-8.4-10.9c3.7,2.1,6.4,4.4,8.1,7c2.3,3.5,2.5,7.7,0.6,12.2c-0.1,0.2-7.4,17.7-78.8,16.7c0,0,0,0,0,0
	c-0.7,0-1.3,0.5-1.4,1.2c-0.1,0.7,0.4,1.3,1,1.5c0.5,0.1,12.5,2.9,28.3,3.2c25.5,0.4,41.3-6.3,50.3-12.2
	c-0.3,5.1-2.1,16.2-12.4,26.8c-12.4,13-40.2,28-102,25.6l-2-0.1c0,0,0,0-0.1,0c-0.7,0-1.3,0.6-1.4,1.3c0,0.8,0.6,1.4,1.3,1.4
	l140,5.9c0.6,0,1.2-0.4,1.4-1c0.1-0.5,13.5-46.4,0.4-103.1c7.3,17.8,17.7,55.2,4.8,103.5c-0.1,0.4,0,0.8,2.1,1.5l0.5,0.2l0.6-2.4
	c9.4-35.8,5.7-65.5,1-84.1c-5.1-20.2-12.6-32.1-12.9-32.6c-0.4-0.6-1.1-0.8-1.7-0.5c-0.6,0.3-0.9,1-0.7,1.6
	c17.2,56.9,5.4,106.9,3.5,114.1l-97.3-4.1c21.9-2.4,48.5-8.8,64.3-25.4c14.4-15.1,13.1-30.8,13.1-31.4c0-0.5-0.4-0.9-0.8-1.1
	c-0.5-0.2-1-0.2-1.4,0.1c-18.5,13.5-44,14.2-61.2,12.7c58.1-1.8,63.5-17.7,63.7-18.3c2.2-5.4,1.9-10.3-0.9-14.7
	c-10.8-16.7-55.4-18.4-55.9-18.4c-0.4,0-0.7,0.1-1,0.4c-0.3,0.2-0.4,0.6-0.4,1c0,0.8,0.6,1.4,1.3,1.4c25.9,1.3,49.4,11.2,51.3,21.6
	c0.9,4.6-3.1,9-11.4,12.8c-28.1,12.6-97,7.8-106.9,7c-0.7-35.3-6.2-38.7-16.2-44.8c-2.3-1.4-4.9-3-7.8-5.3
	c-3.6-2.9-9.4-12.4-15.4-25.6c-5.5-12-8.6-21.5-8.1-22.7c0.6-1,1-2,1.3-3.1c3.4,21,21.9,49.1,23,50.7c0.2,0.3,0.5,0.5,0.8,0.6
	c17.5,3.9,34.8,6.2,51.4,6.9c3.8,0.2,7.6,0.2,11.2,0.2c51.7,0,85.5-15.5,101.6-25.1c15.6-9.4,3.1-87.5,1.3-98.6
	c1.2-0.2,2.4-0.5,3.5-0.8c7.4,3.4,21.5,8.4,35.1,4.9c9.2-2.3,16.5-8.2,21.9-17.4c9.2-15.9,8.5-29.1,5.2-38.7
	c2.2,4.2,3.4,8.7,3.6,13.3c1,20.6-17.2,38.4-17.4,38.6c-0.4,0.4-0.5,1-0.3,1.5c0.2,0.5,0.7,0.8,1.3,0.8c12.1-0.3,21.4-4.1,27.7-11.2
	c9.7-10.9,9-26.1,8.8-28.4C740,486.9,737.9,483.4,733.3,475.6z M436.2,610.2c3.2-2.6,5.5-2.1,6.5-1c1,1.3,1,3.6-1.3,5.6
	c-1.5,1.3-3.3,2.5-5.7,2.4c-0.6,0-1.2-0.2-1.8-0.4C434,613.5,434.8,611.3,436.2,610.2z M389.2,579.3c-2.6-3-4.1-4.9-5-6.1
	c2.4,1.5,5.9,4.3,7,6l0.8,1.1c0.7,1,1.7,2.3,2.7,3.8C392.9,583,391,581.4,389.2,579.3z M393.3,598.6c-2.8,1.8-4.1,2-4.5,2.1
	c0.1-0.9,1.4-3.8,3.1-5.2c0.8-0.6,2.1-1.4,4.2-1.4c0.1,0,0.2,0,0.4,0l0,0c0.2,0,0.5,0,0.8,0.1C396.7,595.8,395.3,597.3,393.3,598.6z
	 M405.7,579.9c0.4-1,1.3-1.5,2.8-1.5c0,0,0,0,0,0c0,0,0,0,0.1,0l0,0c0.3,0,0.3,0.1,0.3,0.2c0.3,1.1-0.8,3.6-3.2,5.4
	C405.2,581.6,405.5,580.4,405.7,579.9z M410.2,599.2c-3.3-3.6-6.6-6-9.9-7.1c0-1.1-0.2-2.2-0.5-3.4c1.5,0.1,3-0.1,4.5-0.7
	c1.9,4.4,5.4,9.6,10.4,15.7C413.1,602.1,411.6,600.6,410.2,599.2z M431.3,618.6c0,1,0.1,2.1,0.3,3.2c-0.6-1.5-1.7-3.1-3.2-4.9
	C429.4,617.7,430.3,618.2,431.3,618.6z M421.5,629.1c-0.9-0.1-1.6-0.8-2-2c-1.1-2.7,0.8-4.5,1.4-5c0.8-0.6,1.7-0.9,2.4-0.9
	c0,0,0.1,0,0.1,0v0c0.3,0,0.5,0.1,0.7,0.2c1.2,0.9,2.9,2.6,3.8,4.3C425.7,628,423.2,629.3,421.5,629.1z M369,592.9
	c2.4,1.2,8.3,5.4,15.7,12.4C378.9,601.2,370.9,595.4,369,592.9z M373.3,612.9c0-0.6,0.2-0.7,0.2-0.7h0c0,0,0.1,0,0.1,0l0-0.5l0,0.5
	c2.1,0.1,7.7,5.7,8.6,9.6C376.5,618.4,373.1,615,373.3,612.9z M274,508.5c2.9-5.3,6.9-8.5,10.6-8.5c0.1,0,0.2,0,0.3,0
	c1,0,1.9,1,2.5,2.7c3,8.6-1.3,31.1-11.3,39.8c-0.4,0.4-0.8,0.7-1.2,1C268.9,531.4,268.6,518.4,274,508.5z M487.1,148.7
	c-4.1-0.4-5.9-3.4-5.9-3.4c-0.3-0.5-0.8-0.7-1.3-0.7c-0.5,0.1-1,0.4-1.2,0.9c-5.2,15.7-11,21.3-14.9,23.3c-3.1,1.5-5.1,0.9-5.1,0.9
	c-0.5-0.2-1-0.1-1.4,0.3c-0.4,0.3-0.5,0.9-0.4,1.4c3.2,11.3,2.1,21.5-3.3,30.2c-3.8,6.1-9.3,10.9-15,14.7
	c7.2-5.5,12.4-11.7,15.6-18.6c6.4-14,2-25.7,1.8-26.2c-0.2-0.5-0.6-0.8-1.2-0.9c-1.7-0.1-3.7-0.6-4.2-1.8c-0.8-2.4,3-7.3,5.9-10.1
	c2.8-0.6,4.6-1.8,5.7-3.7c2-3.5,0.3-8.5-1.6-14.2c-1.1-3.2-2.3-6.5-2.8-9.9c-0.3-2,0-3.9,0.9-5.8c2.9,1.9,6.5,2.9,9.5,2.4
	c2.5-0.4,6.8-2.1,7.3-8.9c0.1-1.7-0.5-3-1.8-3.8c-2.5-1.4-7.4-0.3-11.7,2.7c-1.5,1-2.8,2.2-3.8,3.5c-0.4-0.5-0.7-1-0.9-1.4
	c-0.7-1.6-0.1-3.1,1.8-4.4c6.8-4.8,11.9-6.2,15.4-4.1c8.8,5.4,5.3,30.8,5.3,31.1c0,0.3,0,0.5,0.1,0.8c0.1,0.2,1.9,4,6.6,4.8
	c4.6,0.8,10-1.5,16.2-6.8C495.4,147.7,490.3,149,487.1,148.7z M460.2,122.9c1.1-1.4,2.4-2.4,3.4-3.1c3.9-2.7,7.6-3.3,8.8-2.6
	c0.2,0.1,0.5,0.3,0.4,1.2c-0.2,2.6-1.2,5.9-5,6.4C465.5,125.2,462.6,124.4,460.2,122.9z M503.4,136.6c-6.5,6.3-12.2,9.3-16.4,8.5
	c-2.6-0.5-4-2.2-4.5-3c0.5-3.5,3.2-27.4-6.6-33.4c-4.5-2.7-10.7-1.3-18.4,4.2c-3.9,2.8-3.4,6-2.7,7.7c0.4,1,1,1.9,1.8,2.7
	c-1.4,2.6-2,5.3-1.5,8c0.6,3.6,1.8,7,2.9,10.3c1.8,5.1,3.3,9.5,1.9,11.9c-0.7,1.2-2.1,2-4.2,2.4c-0.2,0-0.5,0.2-0.7,0.3
	c-1.4,1.4-8.6,8.4-6.9,13.2c0.7,2,2.6,3.2,5.6,3.6c0.8,2.5,3.1,12.1-2,23.2c-6.3,13.8-21.3,24.7-44.6,32.6c-0.7,0.2-1.1,1-0.9,1.6
	c0.1,0.4,0.4,0.8,0.8,0.9c-2.4,0.2-4.9,0.6-7.5,1.1c-14.5,3-24.6,2-29.2-3c-4.4-4.8-2.5-11.7-2.3-12.4c0.9-3.2-3.1-5.8-7-8.4
	c-1.8-1.2-5.1-3.4-5.2-4.2c0,0,0-0.1,0.3-0.3c1.4-1,3.4-1.9,6-2.6c2.7,0.1,7.5,0.1,8.6-1c0.7-0.7,0.6-1.6,0.2-2.1
	c-1.1-1.3-6.1-0.4-9,0.3c-3.8-0.2-6.9-0.8-8.3-1.7c-0.3-0.2-0.7-0.5-0.7-0.8c0.1-1.4,0.6-3.3,1.2-5.3c1.3-4.6,2.7-9.8-0.3-12.6
	c-1.8-1.6-4.9-1.6-8.3-1.6c-3.3,0-6.7,0.1-8.2-1.4c-0.6-0.6-0.9-1.5-0.8-2.8c0.2-5.5,2.8-9.8,5.1-13.6c1.5-2.5,2.9-4.8,3.6-7.3
	c0.4-1.5,0.8-3,1.1-4.5c1-4.5,1.9-8.7,5-11.1c0.3-0.3,0.5-0.7,0.5-1.2c0-0.4-0.3-0.8-0.6-1.1c-3.8-2.4-10-7.4-10.4-10.6
	c-0.1-0.6,0.1-1,0.5-1.5c0.3-0.3,0.4-0.7,0.4-1.2c-0.2-1.7-5-41.8,9.1-55.2c2.6,4.2,11.3,12.8,40.1,14c3.1,0.1,6.4,0.2,9.9,0.1
	c15.9-0.3,26.3,2.4,31.8,8.1c5.6,5.7,5.3,13.6,5,20.5c-0.1,2.1-0.2,4-0.1,5.8c0,0.6,0.5,1.2,1.1,1.3c0.6,0.1,1.3-0.2,1.5-0.8
	c0.3-0.7,6.9-16.6-1.4-28.9c-6.2-9.2-18.8-13.6-37.6-13.3c-31,0.5-50.4-12.5-51.3-25.4c-0.6-9,8.6-15.8,23.9-17.6
	c11.3-1.4,22.7-4.6,34.9-8.1c33.4-9.5,67.9-19.4,94.4,14.3C531.8,72,532,108.9,503.4,136.6z M526.1,237.4c-2,2.7-3.4,4.3-4.3,5.2
	c1.5-4.8,7.4-16.6,14.1-25.7C534.4,223.9,531.1,230.7,526.1,237.4z M619.7,360.2c1.3-1.7,2.2-2.5,2.6-2.8c0.2,2.8-3,13.7-7.5,22.2
	C615.1,370.5,616.7,364,619.7,360.2z M620.3,449.7c-9.1-40.9-8.7-56.7-8.7-56.8c0-0.4-0.2-0.8-0.4-1c-0.2-0.2-0.5-0.4-0.9-0.4h0
	c0,0,0,0-0.1,0c-0.1,0-0.1,0-0.2,0c-1.2,0.2-2.3-0.3-3.3-1.4c-8.2-8.4-9.7-50-3.2-89c3.4-20.2,12-33,20.3-40.8
	c-13.7,17-18.8,41.4-20.6,59.7c-2.9,30.1,1.1,57.5,2.8,64.7c0.6,2.8,1.8,4.2,3.6,4.2c0,0,0,0,0,0c0.8,0,1.6-0.4,2.5-1
	c0.8,22.3,7.3,49.5,10.2,60.8C621.5,449.1,620.8,449.4,620.3,449.7z M309.6,468.1c-3.3-2.1-4.7-4.3-4.7-4.8c0.1-0.1,0.5-0.2,1.3-0.1
	c1.9,0.1,6.1,1,15.1,5c1.8,0.8,3.4,1.7,4.9,2.7C318.9,471.2,312.1,469.7,309.6,468.1z M368.8,565.5c-0.7,2.9-2.3,4.9-4.5,5.4
	c-0.5,0.1-0.8,0.1-0.8,0c-0.1-0.1-0.4-1,0.4-3.1c0.7-2,2.5-4.9,5.1-7.4C369.2,562.2,369.1,564,368.8,565.5z M377.7,553.1
	c-2.5,0.3-4.9,1.2-7.2,2.7c-1.2-2.9-3-5.5-5.5-7.6c-2-1.7-4.6-5.7-7.8-10.7c-10.1-15.6-27-41.7-56-43v0c-0.1,0-0.3,0-0.4,0
	c6.5-1.5,17.7-1,33.2,11.4c0.3,0.3,0.8,0.4,1.2,0.3c0.4-0.1,0.8-0.4,0.9-0.8c0.3-0.8,7.4-19.6-3.6-32.3c2.9-0.5,5.4-1.4,7.6-2.5
	c5-2.6,7.7-6.6,7.9-11.7c0-0.2,0-0.3-0.1-0.5c-0.3-0.9-25.1-81.5-29.4-139c2.9,23.9,7.6,55.9,13.8,75.1c6.1,18.8,10,34.9,12.9,46.7
	l0,0.1c2.1,8.5,3.4,14.1,4.6,16.5c2.6,5.2,1.5,21.3,0.1,41.8l0,0.1c-1.6,23.6,12.3,45.1,16.2,48.7c1.5,1.5,5.8,2.5,13.9,4.4
	C379.4,552.8,378.6,553,377.7,553.1z M435.5,561.3c0.1,0.3,0.2,0.7,0.2,1c0.1,0.9-0.2,1.6-0.7,1.9c-0.8,0.5-1.6,0.4-2,0.2
	c-0.2-0.1-0.2-0.2-0.2-0.3C432.8,563.7,433.4,562.6,435.5,561.3z M413.8,543.6c-9.9-3.5-18.1-15.1-19.5-27.7
	c-1-9.2,2.2-16.8,8.7-20.8c1.1-0.7,2.1-1,3.1-1c0.1,0,0.1,0,0.2,0h0c1,0,2,0.4,3.1,1.2c9.7,7.1,15.1,41.1,12.8,51.6
	C419.6,545.8,416.8,544.6,413.8,543.6z M450.3,608c-0.7-1.4-2.1-2.8-4.4-4.3c-5.3-3.4-18.1-19.6-24.2-34.2
	c-3.9-9.2-19.6-14.2-34.6-17.9c0.6-0.8,1-1.7,1.4-2.5c0.9-1.8,1.8-3.7,4.7-5.3c3.8-2.1,9.7,0.9,15.5,3.8l0.2-0.4c0,0,0,0,0,0
	l-0.1,0.5c4.9,2.5,9.5,4.8,13.1,4.2c0.7-0.1,1.4-0.5,1.9-1.1c6.3,3.2,9.3,6.2,10.7,8.2c-3.4,2.1-4.1,3.9-4.2,5.2
	c0,1.1,0.6,2.1,1.6,2.7c1.3,0.8,3.2,0.7,4.8-0.2c1.4-0.8,2.2-2.5,2-4.5c0-0.2-0.1-0.5-0.2-0.9c4,2.1,9.4,11.9,13.5,19.2l0.2,0.3
	c2.4,4.3,4.6,8.4,6.5,10.8c1.6,2.1,2.5,4,2.7,5.7c-1.1-3-5.5-3.4-5.6-3.4c-0.4,0-0.8,0.1-1.1,0.4C451.1,597.4,450,602.3,450.3,608z
	 M455.8,596.5c1.2,0.2,2.5,0.8,2.7,1.6c0.2,0.5,0.2,2.6-5.6,7.3C453,601.8,453.9,598.7,455.8,596.5z M528.2,464.2
	c3,6.3,2.2,7.7,2.1,7.8c0,0-0.1,0.1-0.4,0c-1.3-0.1-3.3-1.7-3.7-2.9c-0.7-1.8-1-3-0.3-3.8C526.3,464.9,527.1,464.5,528.2,464.2z
	 M453.3,418.1c0.3,0.5,0.6,1,0.8,1.5l0.1,0.1c1.4,2.6,2.5,4.6,2.8,5.5c0,0.1-0.1,0.2-0.4,0.4c-1.7-1.8-3.2-4-4.6-6.2
	C452.4,418.9,452.9,418.5,453.3,418.1z M435.2,396.6l0,0.5v0c0,0,0,0,0,0l0,0L435.2,396.6c-0.2,0-0.3,0-0.5,0
	c-4.3,0-5.6-2.9-7.8-7.2c-0.7-1.4-1.4-2.8-2.2-4.3c-1-1.7-3-5.8-5.4-10.5c-2.4-4.9-4.8-9.7-7.2-14.1c5.8,7.1,12.3,15.1,15.2,19.5
	c0.4,0.6,1.2,0.8,1.8,0.4c0.6-0.4,0.9-1.2,0.5-1.8l-0.2-0.3c-2.3-4.4-7.5-14.5-12.5-23.2c6.4,7.3,13.4,15.5,15.9,19.5l0.4,0.7
	c0.2,0.4,0.3,0.6,0.3,0.6c0,0,0,0,0,0c0.4,0.6,1.2,0.9,1.8,0.6c0.7-0.3,0.9-1.1,0.6-1.8c-0.2-0.4-0.4-0.9-0.7-1.3
	c-1.5-2.8-6.3-11.1-11-19.2c5.4,6.3,11.1,13.4,13.8,17.4l1.4,2.5c0.4,0.6,1.1,0.9,1.8,0.6c0.7-0.3,1-1.1,0.7-1.7
	c-0.3-0.6-0.7-1.5-1.4-2.5c-4.5-7.9-8.3-14.6-11.5-20c5.6,7,11.6,15.2,14.6,21.5c0.6,1.2,1.1,2.3,1.6,3.3
	c5.3,11.1,5.4,11.8,2.8,14.6l-0.1,0.1c-4,4.3-4.9,5.8-0.8,15.6c1.7,4,3.5,7.6,4.9,10.1c-0.5,0.4-0.9,0.8-1.3,1.3
	c-0.5-1-1-2.1-1.4-3.1C445.3,403.3,442.5,396.9,435.2,396.6z M449.8,426.4c-0.2-0.2-0.3-1.9,0.7-4.2c1,1.6,2.2,3.2,3.5,4.6
	C452.2,427.1,450.5,427,449.8,426.4z M474.3,496.2c-0.3-1.8,0.2-2.3,0.3-2.4c0.2-0.1,0.5-0.2,0.8-0.2c0,0,0.1,0,0.1,0
	c0.8,0,1.7,0.3,2.4,0.7C477.3,494.8,476.1,495.6,474.3,496.2z M639.3,540.7c-0.4-0.2-0.8-0.2-1.2-0.1
	c-34.2,12.2-102.1-24.4-110.5-31c-0.2-0.2-0.5-0.3-0.8-0.3c-0.2,0-0.5,0-0.6,0.1c-1.1,0.5-7.1,2.7-12,0.6c-2.2-1-5.9-0.4-10.5,0.2
	c-9,1.3-21.3,3.1-26.4-6.7c-0.9-1.7-1.6-3.3-2.1-4.6c2.9-0.9,5.4-2.6,5.9-4.1c0.3-0.7,0.1-1.5-0.4-2c-1.1-1-5.2-2.9-7.6-1.1
	c-1.3,1-1.7,2.7-1.3,5.1c-0.1,0-0.2,0-0.3,0c-3.4,0.2-8.1-1-11.3-8c-1.4-3.1-1.7-5.5-1-7.3c6.5,0.7,13.9-0.8,15.2-2.6
	c0.4-0.5,0.5-1.2,0.2-1.7c-0.5-1-2.1-1.7-5-2c-4-0.4-9.2,0.3-11.9,3.3c-0.4-0.1-0.8-0.2-1.2-0.2c-4.8-1.1-7.9-3.7-9-7.6
	c-1.2-4-0.7-7.5,1.5-10.1c4-0.5,8.2-1.4,11-2.4c1.7-0.6,3.2-1.3,3.3-2.7c0-0.3,0-1.2-1.3-1.7c-2.7-1.1-9.5-0.2-13.8,3.7
	c-0.1,0.1-0.3,0.3-0.4,0.4c-1.3,0.1-2.5,0.2-3.7,0.2c-3.8,0-6.4-0.5-7.3-1.6c-1.1-1.2-4.5-5.7-3-10.7c1.5-5.3,7.7-9.7,18.4-13
	c2.3-0.7,4.4-1.3,6.4-1.9c1.5,1.1,3,1.9,4.3,2.4c2.3,0.8,4.4,0.6,6.2-0.5c4-2.5,5.3-4.3,4.6-5.8c-0.6-1.2-1.3-2.7-14.5,0.9
	c-0.2-0.1-0.3-0.3-0.5-0.4c1-0.9,1.4-2,1-3.1c-0.4-1.3-1.5-3.4-3.1-6.2l-1-1.7c1.9-0.8,3.9-0.8,6.1,0.2c3.6,1.6,6.1,3.6,8.5,5.6
	c4.4,3.6,8.5,7,18.5,7.6c13.9,0.9,22.4,5.1,35.9,27.7c0.8,1.4,1.6,2.8,2.3,4.1c-1.4,0.5-2.5,1.1-3.2,2c-1.7,2.2-0.7,4.9-0.1,6.5
	c0.8,2.2,3.7,4.4,6,4.6c1.3,0.1,2.4-0.4,3-1.3c1.1-1.7,0.6-4.9-1.6-9.7c4.2-0.4,10.7,0.1,19.2,1.4c0.9,0.3,23.1,7.1,42.5,7.1
	c0.1,0,0.1,0,0.2,0c8.1,0,15.6-3.6,22.8-7.1c10.6-5.1,20.7-9.9,31-2c0.5,0.4,1.2,0.4,1.7,0c0.5-0.4,0.6-1.1,0.3-1.7
	c-0.1-0.1-6.5-11.9-22.6-8.9l0,0c-0.1-0.5-0.3-1.2-0.5-2c2.8-0.9,7-1.7,11.5-0.6c6.6,1.6,12.2,6.6,16.8,14.9
	c9.8,17.8,18.3,44.9,9.8,62.5c-3.7,7.7-10.3,13-19.8,15.7C641,541.7,639.3,540.7,639.3,540.7z M461.7,478.9c2.5-1.2,6-1.2,8.2-0.9
	C467.9,478.5,465,479,461.7,478.9z M455.1,456.7c0.6-0.2,1.1-0.3,1.6-0.4C456.2,456.5,455.7,456.6,455.1,456.7z M462,430.1
	c4.8-1.2,7.2-1.5,8.4-1.6c-0.5,0.5-1.4,1.2-2.8,2.1c-1,0.7-2.3,0.7-3.8,0.2C463.1,430.6,462.6,430.4,462,430.1z"/>
</svg>
