<svg xmlns="http://www.w3.org/2000/svg" x="0px" y="0px"
	 viewBox="0 0 1115.2 624.1" style="enable-background:new 0 0 1115.2 624.1;" xml:space="preserve">
<path class="question-two-svg" stroke="#ffffff" stroke-width="4" fill="transparent" style="stroke-dasharray: 25034; stroke-dashoffset: 25034;" d="M1086.1,386.7c-4.4-5.6-9.3-9.6-15.9-12.9c-5.4-2.7-13.3-5.7-25.9-5.2c-12.1,0.5-27.9,4.4-51.2,12.4
	c-8.9,3.1-19.1,6.8-29.8,10.8c-7.5,2.8-15.5,5.7-23.6,8.6c-1.6-2.1-3-4.4-4.3-7.1c-2.5-5.3-4.4-12.2-6.4-19.6
	c-1.7-6.3-3.4-12.7-5.7-18.8c-4.2-10.9-10.7-21.6-19.8-32.6c-4.1-4.9-8.1-9.1-12.3-13.6c-3.2-3.3-6.4-6.8-10.2-11
	c-9.4-10.4-20.9-24.5-28-33.4c-8.1-10.2-12.3-16.1-18.4-30.2c-4.8-11.1-10.9-27.4-16.7-43.2c-1.8-4.9-3.7-9.9-5.5-14.7
	c-6.9-18.4-14.5-38-24.7-57c-11.9-22.2-24.4-38.3-37.1-47.7C737.4,62,721,57.2,701.9,57.6c-15.7,0.3-31.8,4.2-46.6,11.1
	c-10,4.7-19.2,10.7-26.5,15.5c-3,1.9-5.7,3.8-8.2,5.3c-8.5,5.2-13.9,6.9-16.5,7.7c-0.5,0.1-1,0.3-1.3,0.4c-0.3-0.3-0.8-1.2-1.4-2
	c-2.1-3.1-6.4-9.7-11.4-19.4c-0.8-1.5-1.6-3.2-2.5-4.8c-4.5-8.9-10.2-20-18.1-29.2c-8-9.3-19.3-17.8-33.7-25.3
	c-13.1-6.9-23.3-10-33.1-10c-10.9,0-22,3.9-27.8,7.5c-2,1.2-3.4,2.5-4.4,3.6c-0.1-0.4-0.3-0.8-0.6-1.2c-2.2-2.7-7.2-1-11.3,0.9
	c-5.3,2.4-10.5,5.7-13.9,8.8c-4.1,3.7-6.3,7.7-6.3,11.2c-0.2,0-0.5,0-0.7,0c-2.3,0.1-5.2,1.8-7.3,4.3c-2.5,3-4.3,7.7-3.7,10
	c0,0.1,0.1,0.3,0.1,0.4c-1.9,2-3.9,4.9-6.1,8.7c-1.1,2-2.3,4.1-3.4,6.3c-1.8,3.3-3.6,6.8-5.5,9.7c-0.8,1.3-1.7,2.5-2.6,3.7
	c-2.3,3.3-4.7,6.6-6.5,11.5c-2.2,6.2-3.5,15.7-1.6,23c1.7,6.2,5.6,10.1,9.4,13.8c0.5,0.5,0.9,0.9,1.4,1.4c0.4,0.4,0.9,0.9,1.3,1.3
	c3.8,3.8,7.7,7.8,14.3,9.6c1.3,0.3,2.7,0.6,4.2,0.8c-0.3,0.7-0.3,1.4-0.4,1.8c-0.1,2.4,0.2,9,2,14.3c1.9,5.7,5.4,9.6,8.7,12.6
	c2.5,2.4,5.4,4.7,7.9,6.7c1.1,0.9,2.1,1.7,3,2.5c0.5,0.4,1,0.8,1.4,1.2c0.1,0.2,0.2,0.4,0.3,0.6c0.4,0.9,0.9,2,1.1,3.5
	c0.1,0.8,0.2,1.7,0.2,2.7c-0.2-0.1-0.4-0.2-0.6-0.2c-0.4-0.1-0.7-0.3-1.2-0.4c-1.8-0.6-4-1.4-5.6-2.6c-1.6-1.2-2.9-3-4.2-4.9
	c-0.3-0.4-0.6-0.9-0.9-1.3c-0.8-1.1-1.6-2.2-2.6-3.1c0.1-1.7-1.4-3-3.7-4.4c-2.3-1.4-6.2-3.4-10.6-5.7c-2-1-4.2-2.1-6.3-3.3
	c-4.5-2.4-9-4.8-13.5-7.3c0-0.2,0-0.4,0-0.6c-0.2-2.3-2.5-6.6-5.9-6.4c-1.1,0.1-2.2,0.6-3.2,1.7c-6-3.5-12.2-6.9-20.1-7.3
	c-10.7-0.5-22.6,4.6-28.7,7.7c-8.5,4.3-16.9,10.2-23.7,16.8c-6.1,5.9-10.2,11.5-14.2,17l-0.2,0.2c-4,5.5-7.8,10.7-11.3,21.4
	c-3.1,9.6-6.2,24.1-9.1,43.2c-1,6.3-1.8,12.5-2.7,19.2c-1.5,10.9-3.1,22.3-5.1,33.8c-2.1,11.8-4.6,23.7-7.3,36.3
	c-1.5,7-3,14.3-4.5,21.7c-4.1,20.2-7.9,42.1-8.4,65.5c-0.5,21.8,1.8,46.7,6.4,68.2c1.3,6.4,2.8,12.1,4.3,17.4H20.3v4h253.7
	c1.1,3.6,2.1,7,3.2,10.4c1.7,5.6,3.3,10.8,4.7,16.1c4.2,16,5.5,30,4.1,41.7c-1.1,8.9-4,17.2-6.1,23.3c-1,3-1.8,5.3-2.2,7.1
	c-0.2,1.1-1,4.3,1.3,5.4c0.4,0.2,0.8,0.3,1.2,0.3c1.6,0,3.8-1.4,8-6.8c4.5-5.9,12.5-18.3,15.3-35.6c2.5-15.6,0.9-35.5-4.8-59.1
	c-1.7-7-3.6-14-5.7-21.4c-4.4-15.7-8.9-32-10.7-48.1c-2.5-23.4,0.9-47.2,4.9-71.5c0.6-3.4,1.2-6.9,1.8-10.4
	c3.6-21.5,7.4-43.8,9-67.1c0.7-10.3,1-20.9,1.3-31.1c0.5-16.7,0.9-32.6,3.1-45.9c4-24.1,13.4-37.9,20.6-45.3
	c2.5-2.6,5.1-4.7,7.5-6.5c-5,6.3-8.8,14.8-10.9,24.3c-2.4,10.7-3,23.6-2.3,44.6c0.1,3.1,0.3,6.4,0.4,9.7c0.7,16.8,1.6,35.9-0.4,54.8
	c-1.3,12.8-4,25.8-6.6,38.3c-2.1,9.9-4.2,20.2-5.7,30.5c-3.5,23.7-3.7,48.4-0.9,73.4c2.2,18.7,6.1,37.6,9.8,55.9
	c1.3,6.4,2.6,12.4,3.7,18.4c5.1,26.2,7,43.8,6.1,55.2c-0.6,7.2-2.3,12.2-3.5,15.5c-1.1,3.1-1.8,5.1-0.5,6.7c0.5,0.6,1.4,1.3,3,1.2
	c3.5,0,9.7-3.2,14.3-9.1c4.4-5.7,9.2-16.4,6.6-34.7c-1.1-7.5-3.3-15.8-6-25.4c-2.8-10.3-5.9-21.9-8.2-34.8
	c-4.5-25.4-5.7-55.2-3.4-84c1-12.8,2.8-25.7,4.6-38.2c2.2-16,4.5-32.5,5.2-48.8c0.7-17.9-0.4-35.7-1.5-52.9
	c-0.7-10.6-1.3-20.6-1.5-30.4c-0.5-26.7,2.5-48.4,8.7-62.8c6.9-15.8,17.9-23.4,23.9-26.6c3.2-1.7,5.5-2.3,6.7-2.5
	c-0.8,1-2.2,2.5-3.9,4.1c-4,4-9.5,9.5-13.7,16.9c-5.7,9.9-9.4,24.2-10.3,40c-0.7,11.4,0.1,22.2,1.3,38.7c0.3,3.6,0.6,7.6,0.9,11.9
	c1.9,26.1,3.6,60.1,0.9,90.8c-1.3,13.8-3.5,27.2-5.6,40.1c-2.8,16.9-5.7,34.3-6.4,52.5c-1.1,30.4,3.8,65.9,12.3,88.2
	c5.8,15.3,13,23.1,18.8,29.4c2.2,2.4,4.2,4.6,5.9,7c3.6,4.9,5.8,10.5,7.6,15c1.4,3.5,2.4,6,3.7,7.3c1.4,1.4,2.9,1.3,3.9,0.7
	c3.1-1.9,3.3-9.7,0.3-19.9c-1.9-6.7-5.3-14.9-9.3-24.5c-4.1-10-8.8-21.4-12.8-33.5c-9.2-27.6-13-52.8-11.7-76.9
	c1-17.2,4.6-34.7,8.4-53.2c2.2-10.7,4.5-21.8,6.3-32.8c5.1-32.4,5.2-64.3,4.8-88.6c-0.1-5.6-0.2-11.3-0.4-16.8
	c-0.6-22.8-1.1-44.3,1.7-59.6c3.3-17.7,11.4-28.1,17.9-30.7c0.8-0.3,1.5-0.5,2.2-0.5c-0.8,2.4-1.1,5.4-0.6,8.7
	c0.4,2.7,1.4,5.5,2.4,8.4c1.7,4.7,3.4,9.6,2.9,14.7c-0.4,4-2.2,8.5-4.2,13.6c-2.3,5.8-4.9,12.3-6.5,20.4c-2.8,14-2.8,33.3,0.1,60.7
	c0.5,4.6,1,9.3,1.6,14.2c2.3,20.2,4.8,41.1,3.2,60.8c-1.3,16-5.2,31.1-9,45.8c-2,7.8-3.9,15.1-5.4,22.4c-4,19.9-4.9,39.5-2.5,59.9
	c2,17.1,5.9,31.6,11.2,41.8c1,6.8,2.3,13.1,4,18.6c4.5,14.6,11.8,24.3,22.2,29.9c7.1,3.8,14.7,5,16.9,2.6c1.7-1.8,0.1-3.7-1.3-5.4
	c-1.3-1.6-3.1-3.8-4.8-7.3c-1.8-3.9-3.5-9.3-5.2-15.9c9.1,1.3,17.5,0.1,30-1.9c10.3-1.7,30.5-5.2,49.6-9.5c7.4-1.7,15-3.5,20.9-5.2
	c9.5-2.6,10.6-3.2,10.4-5.1c0-0.2-0.2-1.8-2.3-1.9c-1.8,0-7.7,1-19.1,3c-7,1.2-15,2.6-22.3,3.8c-17.4,2.8-31,4.1-39.3,3.8
	c-8-0.2-10.7-2-14-4.7c-3.8-3.1-7.4-7-9-14.1c-1.8-8.4-0.5-21.4,0.7-30.4c0.4-3.2,0.9-6.4,1.3-9.6c1.3-8.7,2.6-17.7,3-26.8
	c0.1-3.4,0.2-6.7,0.2-9.9c0-7.4,0.1-15,2-17.3c0.3-0.3,0.8-0.8,2-0.8c0.1,0,0.2,0,0.3,0c3.5,3.1,7.4,6.2,11.8,9.2
	c2.5,4.5,3.1,9.9,3.2,17.7c0.1,9.6-0.6,21.8-1.8,32c-0.6,5.1-1.3,9.3-2.1,12.8c-0.8,0.5-1.5,1.1-2.3,1.8c-3.2,2.8-9.1,9.4-9.1,13
	c0,1.4,0.8,2.4,2,2.8c2.6,0.8,6.5-1.8,9.2-5.9c1.5-2.3,2.7-5.2,3.7-9.1c2.6-1.4,5.3-1.8,9.3-1.6c3.3,0.2,7.3,0.8,12.4,1.6
	c4.3,0.7,9.2,1.4,14.9,2.1c7.1,0.8,15.2,1.5,23,2.2c5.7,0.5,11,0.9,15.4,1.4c2.2,0.2,4.1,0.5,5.8,0.7c6.3,0.8,9.9,1.2,12-0.4
	c1.7,5.3,3.5,10.6,5.4,15.9c8,22.7,17,44.5,21.6,55.5c6.9,16.5,11.2,25.3,16.7,30.4c6.2,5.8,13.8,6.3,26.5,5.1
	c7.9-0.7,18.2-2.1,30.1-3.8c7.6-1.1,16.3-2.3,25.4-3.4c19.7-2.5,41.6-4.8,60.9-6.9l9-1c22.2-2.4,36.3-4.1,45.5-7.8
	c2-0.8,3.7-1.7,5.2-2.6c0.7,3.8,5.9,3.8,14.2,3.8c8.1,0,20.4,0,30.1,0.7c8.2,0.6,14.6,1.6,19.3,2.4c0.9,0.1,1.7,0.3,2.5,0.4
	c3.2,0.5,5.5,0.8,7.9,1.1c1.5,0.2,2.9,0.4,4.7,0.6c1.2,0.2,2.4,0.4,3.8,0.5c3.9,0.6,8.3,1.2,11.8,1.5c5,0.4,8.4,0.1,10.4-0.9
	c2.4-1.2,3.1-3.3,2.7-5.1c4.4,0.8,8.2,1,11.4,1.2c4.1,0.2,6.7,0.2,8.5-0.8c2.2-1.4,2.5-4,2-5.9c-0.1-0.4-0.3-0.9-0.4-1.2
	c0.2,0,0.3,0,0.4,0c3.1-0.2,4.2-1.8,4.5-2.7c0.6-1.7,0-3.7-1.6-4.9c-1-0.8-2.3-1.1-3.5-1.3c-2.3-0.8-5.4-1.3-8.5-1.8l-2.1-0.3
	c-1.9-0.3-3.9-0.5-6.1-0.9c0-0.1,0.1-0.3,0.1-0.4c0.2-1.4-0.8-2.8-2.5-3.6c-1-0.5-2.2-0.7-3.3-0.8c-0.3-0.1-0.7-0.3-1.1-0.4
	c-1.8-0.6-4.1-0.9-6.5-1.2c-1.2-0.2-2.4-0.3-3.6-0.5c-3.2-0.5-6.8-1.3-11.1-2.6c-0.6-0.2-1.3-0.4-1.9-0.6c-3.3-1-6.7-2-10.2-2.5
	c-2.4-0.3-4.7-0.5-7.2-0.6c-1.9-0.1-3.8-0.2-5.7-0.4c-4.4-0.5-9.1-1.5-14.4-2.7c-5.1-1.2-11.3-2.6-19.4-4.8c-1.2-0.3-2.4-0.7-3.7-1
	c-7.1-1.9-15.2-4.1-22.2-5.2c-3-0.5-5.7-0.8-8.9-1.1c16.7-1.5,36.5-4.3,54.1-9.1c24.3-6.8,45.3-18.1,62.1-27.3l2.3-1.2
	c17.2-9.3,33.5-18.2,52.5-25.3c15.9-6,33.6-10.8,49.2-15.1c3.9-1.1,7.5-2.1,11-3c3.2-0.9,6.2-1.8,9-2.6c6.3-1.8,12.7-3.7,15.8-4.1
	c-2.6,3.1-10.5,9.7-22.3,17.2c-10.9,7-23.5,13.7-38.2,21.5c-3.6,1.9-7.2,3.8-10.9,5.8c-17.3,9.3-37.7,20.6-57.4,31.9
	c-26.9,15.4-33.4,20-33,23.6c0.4,3.8,5.7,3.4,18.4,2.4c5.3-0.4,12-0.9,19.1-1.1c8.3-0.2,17.6-0.1,26.6,0.1
	c12.7,0.2,24.6,0.5,34.5-0.3c18.4-1.5,28.2-6.9,43.7-24.1c15.7-17.4,38-48.2,53.2-71c15.8-23.8,22.7-37.2,24.6-47.8
	C1094.8,399.5,1089.9,391.6,1086.1,386.7z M295.3,267.6c-0.3,10.2-0.6,20.7-1.3,30.9c-1.6,23.1-5.4,45.3-9,66.7
	c-0.6,3.5-1.2,7-1.8,10.4c-4.1,24.6-7.6,48.6-5,72.5c1.8,16.5,6.4,32.9,10.8,48.8c2.1,7.4,4,14.3,5.7,21.2
	c5.6,23.1,7.2,42.5,4.8,57.5c-2.6,16.4-10.2,28.2-14.5,33.8c-1.5,1.9-2.5,3.1-3.3,3.9c0.4-1.6,1.1-3.7,2-6.2
	c2.2-6.2,5.1-14.8,6.3-24.1c1.6-12.2,0.2-26.7-4.2-43.2c-1.4-5.4-3-10.7-4.8-16.3c-2.9-9.5-6-19.4-8.5-31.5
	c-4.5-21.2-6.8-45.8-6.3-67.3c0.5-23.1,4.3-44.8,8.3-64.8c1.5-7.4,3-14.6,4.5-21.6c2.7-12.6,5.2-24.6,7.3-36.4c2-11.6,3.6-23,5.1-34
	c0.9-6.6,1.8-12.9,2.7-19.1c0.9-6.1,1.9-11.8,2.8-16.9C296,243.1,295.7,255.1,295.3,267.6z M338,176.1c-6.5,14.9-9.6,37.2-9.1,64.5
	c0.2,9.8,0.9,19.9,1.5,30.5c1.1,17.1,2.3,34.8,1.5,52.5c-0.7,16.1-3,32.5-5.2,48.4c-1.7,12.5-3.5,25.5-4.6,38.4
	c-2.4,29.1-1.1,59.2,3.4,85c2.3,13.1,5.5,24.8,8.3,35.2c2.6,9.5,4.8,17.7,5.9,24.9c2.4,16.9-1.8,26.5-5.8,31.7
	c-3.9,5-8.8,7.3-10.7,7.6c0.2-0.7,0.5-1.7,0.9-2.6c1.2-3.5,3.1-8.9,3.7-16.5c0.9-11.8-1-29.7-6.2-56.3c-1.2-6-2.4-12-3.7-18.4
	c-3.7-18.2-7.6-37-9.8-55.5c-2.8-24.6-2.6-49,0.8-72.3c1.5-10.2,3.6-20.4,5.6-30.3c2.6-12.7,5.3-25.7,6.7-38.7
	c2-19.2,1.2-38.4,0.4-55.4c-0.1-3.3-0.3-6.6-0.4-9.7c-0.8-20.7-0.1-33.3,2.2-43.6c2.3-10.3,6.7-19.2,12.3-25.2
	c3.3-3.5,6.8-5.8,8.5-6.9c1.1-0.7,2.5-1.6,1.7-3.3c-0.2-0.4-0.7-1.1-1.8-1.1c-0.3,0-0.6,0.1-1,0.2c0,0-2.1,0.7-5.3,2.2
	c4.1-2.9,8.4-5.5,12.7-7.7c3.6-1.8,7.2-3.3,10.6-4.5C354.6,152.9,344.5,161,338,176.1z M391.4,150.9c-7,2.7-16.6,13.1-20.4,33.7
	c-2.9,15.8-2.4,37.5-1.8,60.5c0.1,5.5,0.3,11.1,0.4,16.7c0.4,24.1,0.3,55.8-4.8,87.9c-1.7,10.9-4,22-6.2,32.6
	c-3.9,18.6-7.5,36.2-8.5,53.7c-1.4,24.6,2.5,50.3,11.9,78.4c4.1,12.2,8.8,23.7,12.9,33.8c3.9,9.5,7.2,17.7,9.1,24.1
	c2.3,7.8,2.2,12.3,1.8,14.3c-0.6-1.2-1.4-3.1-2.1-4.9c-1.8-4.5-4.2-10.5-8.1-15.8c-1.8-2.5-4-4.9-6.2-7.3
	c-5.8-6.4-12.4-13.6-18-28.1c-8.3-21.9-13.1-56.7-12-86.6c0.7-17.9,3.4-34.4,6.3-52c2.2-13,4.4-26.5,5.6-40.4
	c2.8-31,1-65.2-0.9-91.5c-0.3-4.3-0.6-8.3-0.9-11.9c-1.3-16.9-2-27-1.3-38.1c1-15.3,4.4-28.9,9.8-38.3c3.9-6.9,9.2-12.2,13.1-16
	c2.1-2.1,3.7-3.7,4.6-5.1c1.4-2.2,1-3.6,0.5-4.4c0.4,0,0.7,0,1.1,0c5.4,0.2,10,2.2,14.5,4.6C391.8,150.8,391.6,150.8,391.4,150.9z
	 M442,502.5c-0.9,1.5-2,2.5-2.9,3.2c0.9-1.4,2.2-3.2,3.9-5C442.7,501.3,442.4,501.9,442,502.5z M942.9,410.3c2.2,2.3,4.2,4.5,6,7
	c7.9,11.1,2.1,19.7-4.6,26.7c-12.3,12.8-39.8,29.4-65.4,39.5c-26.4,10.4-49.8,13.5-61,8.1c-8.6-4.2-10.8-13.9-13.1-23.3
	c-0.7-3-1.4-6-2.3-8.9c-2.4-7.5-6.2-13.3-9.7-17.2c7.2-0.8,18.2-3.1,34.2-6.4c20.2-4.2,47.9-10,79-19.7c10.6-3.3,21.6-7.1,32.4-11
	C939.9,407.1,941.4,408.7,942.9,410.3z M605.3,101c2.7-0.9,8.4-2.6,17.4-8.1c2.5-1.5,5.3-3.4,8.3-5.3c7.2-4.8,16.3-10.7,26-15.2
	c14.3-6.7,29.9-10.4,45-10.8c18.2-0.4,33.7,4.1,46.3,13.5c12.2,9.1,24.3,24.7,36,46.4c10.1,18.8,17.6,38.2,24.5,56.5
	c1.8,4.8,3.6,9.8,5.5,14.7c5.9,15.8,11.9,32.2,16.8,43.4c6.3,14.4,10.8,20.8,18.9,31.1c7.1,8.9,18.7,23.1,28.1,33.6
	c3.8,4.2,7.1,7.7,10.2,11c4.2,4.4,8.1,8.6,12.1,13.4c8.9,10.6,15.1,20.9,19.2,31.4c2.2,5.8,3.9,12.2,5.6,18.4
	c2,7.5,3.9,14.6,6.6,20.3c1.2,2.5,2.6,4.8,4,6.8c-10.4,3.7-20.9,7.3-31,10.5c-30.9,9.7-58.5,15.4-78.6,19.6
	c-16.8,3.5-30.4,6.3-37.4,6.6c-0.9-0.7-1.7-1.2-2.4-1.5c-1.2-0.6-2.2-0.9-3.2-0.9c-0.9,0-1.6,0.2-2.2,0.7c-0.1,0.1-0.2,0.2-0.2,0.2
	c5.3-22.8,9.2-44.3,11.7-58.5c1.4-8.1,2.5-15,3.1-20.8c0.8-1.8,1.4-3.7,1.7-5.8c0.6-4.3-0.3-9.2-1.3-15.3c-0.7-4-1.5-8.5-2.1-13.9
	c-1.3-12-1.8-28.2-2-35.9c0-1.1-0.1-2-0.1-2.7c-0.1-1.9-0.1-3.6-2-3.7c-1.9-0.1-2.1,1.6-2.3,3.3c-0.3,2.4-0.9,7.3-2.3,12.4
	c-1.8,6.4-6.1,18-15.2,23.6c-8.6,5.3-19.3,4-28.6-3.5c-10.2-8.1-20.5-25-26.9-44.1c-6.6-19.8-8-38.1-4.8-41.4
	c0.2-0.2,0.5-0.4,1.2-0.4c4,0.3,12.4,8.2,21.2,20.2c3.4,4.6,6.6,9.4,9.7,14c5.8,8.6,11.2,16.8,16.6,21.5c7.9,6.9,17.1,7.3,23.6,1.1
	c5.4-5.2,7.5-14.1,9.5-27.8c1.4-9.9,3.7-29.2,3.3-48.4c-0.4-18.7-3.3-35-3.4-35.7c-0.2-1-0.5-2.8-2.4-2.6c-1.9,0.2-1.8,1.8-1.6,4.3
	c0.2,2.6,0.5,7.5,0.6,13.4c0.2,15.3-1.5,26.8-5.1,34.3c-4.6,9.6-12.7,13.9-21,11.1c-9.3-3.1-19.3-14.9-22.3-26.3
	c-3-11.7,0.9-23.9,9.7-30.6c5.3-4,12.7-6.2,19.1-8.1c4.9-1.4,9-2.7,12-4.5c8-4.9,5.8-13.2,2.6-25.8c-3.2-12.5-8-31.4-18.3-45.8
	c-9.7-13.7-25.1-24.2-40.2-27.3c-14-2.9-27.8,0.6-40.9,10.4c-14,10.5-24.9,25.8-28.4,39.9c-3.4,13.3-1.2,27.5,6.9,45.9
	c2.3,5.3,5,10.6,7.6,15.7c4.7,9.4,9.2,18.3,11.8,27.1c2.6,9,3.3,18.1,3.9,27.7c0.4,5.3,0.8,10.7,1.5,16.6
	c1.8,15.2,6.5,36.6,13.9,51.1c4.2,8.1,9,13.7,13.3,18.7c2.9,3.3,5.3,6.1,7.1,9.2c0.1,0.2,0.2,0.4,0.3,0.6
	c-4.7-5.3-11.4-10.7-16.8-14.1c-2.5-1.6-4.8-2.9-7-4.1c-4.8-2.6-8.9-4.9-11.9-8.9c-1.9-2.5-3.5-5.7-5.1-9.1
	c-2.3-4.7-4.8-10-8.8-14.3c-4-4.3-9.1-7.4-14.6-10.6c-3.8-2.3-7.8-4.7-11.5-7.5c-3.1-2.4-6-5.2-8.9-8c-5.6-5.4-10.9-10.5-17.2-12.8
	c-9.4-3.5-21-0.7-28.3,6.7c-3.9,4-6,8.9-8.1,13.6c-1.4,3.2-2.7,6.2-4.5,8.6c-2.1,2.9-5,4.9-7.5,6.7c-2,1.4-3.7,2.6-4.8,4
	c-0.6-0.2-1.3-0.3-2-0.6c-5.2-1.7-13.6-6.4-21.3-14.4c-7.5-7.6-14.1-17.9-16.1-24.9c-1.8-6.2,0.1-9.6,4.6-13.9
	c0.7-0.7,1.4-1.4,2.2-2.1c0.9-0.6,1.7-1.2,2.6-1.8c1.9-1.3,4.8-3.6,8.2-6.3c1.5-1,3.1-1.9,4.6-2.9c7.1-4.1,14.5-7.4,21.6-9.5
	c6.9-2,14-3,21-3c3.4,0,6.8,0.3,9.8,0.5c3.1,0.2,5.7,0.4,7.5,0.3c2.4-0.2,3.8-1.1,4.1-2.6c0.4-2.3-2.2-3.8-4.1-4.7
	c-3.8-1.8-11.4-3.9-18.8-4.2c-8.2-0.4-15.2,1.4-23.5,6c-1.7,0.9-3.5,2-5.3,3.1c0.7-0.8,1.5-1.6,2.2-2.3c3.9-4.1,8.5-8.3,16.1-12.2
	c2.5-1.3,5.2-2.5,8.2-3.8c5.9-2.6,12.6-5.5,18.5-9.6c8.6-5.9,16.2-14.6,21.9-25.1c5.7-10.4,9.2-21.6,8.9-28.1
	c-0.4-8-6.9-9.1-12.5-10l-1.9-0.3c-5.6-0.9-12.5-2-16.3-4.7c-1-0.7-1.8-1.5-2.5-2.4C604.2,101.3,604.7,101.2,605.3,101z
	 M740.8,538.7c-8.1-0.6-17.2-1.2-26.2-2c0.7-0.8,1.3-1.8,1.8-3.1c1.8-5,0.8-13.6-0.5-25.5c-0.3-2.7-0.6-5.5-0.9-8.5
	c-1.4-13.3-2.6-30.5-3.4-46.1c0.3-5.1,0.1-9.4-0.5-12.9c-0.4-13.4,0.1-23.3,2.8-35.2c1.7-7.7,4.3-16.2,6.8-24.4
	c2.3-7.6,4.5-14.7,6-21.1c3.3-14.2,2.7-23.8-2.1-31.9c-2-3.4-4.7-6.5-7.5-9.8c-4.1-4.8-8.8-10.1-12.8-17.9
	c-7.2-14-11.7-34.9-13.5-49.8c-0.7-5.8-1.1-11.2-1.4-16.4c-0.7-9.9-1.3-19.2-4.1-28.6c-2.7-9.2-7.5-18.6-12.1-27.8
	c-2.6-5.1-5.2-10.3-7.5-15.6c-7.8-17.6-9.9-31-6.7-43.3c3.4-13.3,13.7-27.8,27-37.7c12.3-9.3,24.7-12.4,37.7-9.7
	c14.1,2.9,28.6,12.8,37.7,25.7c9.8,13.8,14.5,32.3,17.6,44.5c3.3,12.8,4.4,18.2-0.8,21.4c-2.5,1.6-6.7,2.8-11,4.1
	c-6.8,2-14.5,4.3-20.4,8.7c-10.3,7.7-14.7,21.4-11.2,34.8c3.3,12.8,14.3,25.6,24.9,29.1c10.2,3.4,20.4-1.8,25.9-13.2
	c2-4.2,3.5-9.4,4.4-15.6c0,0.1,0,0.1,0,0.2c0.4,19.6-2.1,39.9-3.2,47.7c-1.8,12.8-3.7,21.1-8.3,25.5c-5,4.8-11.7,4.3-18.2-1.3
	c-5-4.4-10.3-12.3-15.9-20.7c-3.1-4.7-6.3-9.5-9.8-14.2c-5.8-7.9-16.8-21.2-24.1-21.8c-1.7-0.1-3.2,0.4-4.4,1.6
	c-5.6,5.6-2.2,27.6,3.8,45.5c6.7,20.1,17.3,37.2,28.2,45.9c10.7,8.5,23.1,9.9,33.2,3.7c9.2-5.6,14-16.3,16.2-23.5
	c0.3,7.5,0.8,16.3,1.6,23.6c0.6,5.5,1.4,10.1,2.1,14.1c0,0-0.1,0-0.1,0c-2.7-0.6-5.8,1.2-9.3,5.4c-4.7,5.8-9.7,15.7-9.5,21.2
	c0.1,2.3,1.1,4,2.8,5c2.5,1.4,6.3,1,10.3-1.1c1.5-0.8,3-1.9,4.5-3.3c-0.6,4.2-1.4,8.8-2.1,13.3c-2.5,14.4-6.5,36.5-11.9,59.7
	c-6,25.5-11.7,44.2-18.2,58.7c-3.5,7.8-7.3,14.7-10.6,20.8c-3.8,7-6.9,12.5-7.6,16.4C739.8,535.7,740,537.4,740.8,538.7z M686,534.1
	c-0.9-0.1-1.8-0.2-2.6-0.3c-7.3-0.8-13.5-1.7-19-2.4c-8.6-1.2-14.9-2-19.5-2c-1.4,0-2.5,0.1-3.6,0.2c0,0,0,0-0.1,0
	c-0.3-0.1-0.6-0.3-0.9-0.4c-2.7-1.1-5.6-2.3-7.5-4.2c-3.8-3.6-5.1-10.5-7.2-21.9c-0.4-2.1-0.8-4.3-1.3-6.6
	c-3.2-16.4-8.5-38.4-12.7-53.5c-1.6-5.7-3.1-10.7-4.6-15.5c-2.6-8.4-5-16.3-7.4-26.9c-2-9-4.1-20.1-6.1-30.8
	c-1.7-8.9-3.4-18.1-5-25.8c-2.6-12.2-5.1-21-8-27.7c1.7,1,3.5,1.9,5.3,2.6c5.3,2.1,10.9,2.6,16.7,2.7c0.1,0,0.1,0,0.2,0l7.2,0.7
	l-0.9-0.7c3.3,0,6.8,0,10.3,0.3c10,0.7,24,3.3,33.9,11.6c0.3,0.6,0.5,1.2,0.9,1.8c-0.2,0-0.4,0.1-0.6,0.1c-4.1,0.5-9.9-0.6-16.1-1.7
	c-4.6-0.8-9.3-1.6-13.7-1.9c-12.1-0.8-20.3,2.6-23.2,9.6c-2.9,7.1-0.5,18.4,6.8,30.8c8.2,14,19.5,24.7,30.3,28.6
	c7,2.5,14.4,2.5,20.9,2.5c5.1,0,9.9,0,13.7,1.1c6.2,1.8,10.6,6.9,14.8,11.8c1.5,1.8,3.1,3.6,4.7,5.3c1.7,1.7,3.5,3.2,5.2,4.6
	c4.3,3.6,8,6.6,9.6,12.5c0.2,0.7,0.4,1.5,0.5,2.3c0.1,2.2,0.1,4.5,0.2,6.8c0.1,1.9,0.2,3.9,0.3,5.9c-0.4,6.2-1.4,13.9-3.1,23.1
	c-3.1,16.6-7.2,31.9-11,41c-1.9,4.5-3.8,7.7-5.1,10.1C686.8,530.5,685.7,532.3,686,534.1z M638.1,546.4c0-0.8,0-1.5,0-2.2
	c-0.2-7.5,0-9.7,2.7-10.5c2.4,1.1,4.5,2.2,5.5,4c2.4,4.4-0.4,14-7.1,23.9c-0.7,1.1-1.5,2.2-2.3,3.3
	C638.1,558.6,638.2,552.1,638.1,546.4z M663.1,347.2c-0.1-0.4-0.2-0.9-0.3-1.3c4.3,7.8,6.2,15.9,6.9,20c1.4,7.8,1.9,18-4,22.3
	c-5,3.7-14.9,3.5-22.9-0.5c-6.5-3.2-11.1-8.5-11.8-11.5c-0.1-0.4-0.1-0.9,0.1-1.1c0.8-1,4.8-1.4,8-1.8c4.5-0.5,9.5-1,13.6-3
	C661.4,365.9,664.5,355.4,663.1,347.2z M660.4,331.5c-0.3,0.6-0.8,1.3-1.6,2c-0.7-0.8-1.5-1.5-2.3-2.2c-0.2-0.6-0.3-1-0.3-1.4
	c0-0.5,0.7-0.7,1.1-0.8c1.3-0.4,2.9,0.1,3.3,0.7C660.8,330.1,660.7,330.8,660.4,331.5z M656.1,325.2c-1.8,0.5-3.1,1.6-3.6,3
	c-6.4-4.4-13.7-6.9-20.7-8.4c0.3,0,0.7,0,1,0c4.7,0.2,9.2,0.3,13.6,1.4c3.4,0.8,6.7,2.3,10,4C656.3,325.1,656.2,325.1,656.1,325.2z
	 M659.2,347.9c1.2,6.7-1.3,15.3-8.2,18.7c-3.4,1.7-8.1,2.2-12.2,2.6c-4.9,0.5-8.7,0.9-10.6,3.2c-0.7,0.8-1.4,2.3-1,4.5
	c1,4.7,6.9,10.8,13.9,14.3c9.4,4.7,20.8,4.8,27,0.2c6.1-4.5,8-13.3,5.6-26.3c-1-5.7-4.2-18.5-12.3-28.7c1.1-0.9,2-2,2.6-3.3
	c0.5-1,0.7-2,0.7-3c2.1,1.5,4.1,3,6,4.4c1,0.8,2.1,1.6,3.1,2.4c5.9,4.6,11.5,8.9,18.9,11.5c8.4,2.9,19.6,3.8,26.6,2
	c2.3-0.6,4.1-1.4,5.4-2.5c-0.3,3.3-0.9,7-1.8,11.1c-1.4,6.2-3.6,13.3-5.9,20.8c-2.5,8.3-5.2,16.9-6.9,24.7c-2,9.1-2.8,17-2.9,26.1
	c-2.2-3-4.9-5.2-7.5-7.4c-1.6-1.4-3.4-2.8-5-4.4c-1.5-1.5-3-3.2-4.5-5c-4.4-5.1-9.3-10.9-16.7-13.1c-4.3-1.3-9.4-1.3-14.7-1.3
	c0,0-0.1,0-0.1,0c-6.5,0-13.3,0-19.6-2.3c-9.9-3.5-20.5-13.6-28.2-26.8c-6.5-11.2-9-21.4-6.5-27.3c2.9-7.1,13.3-7.5,19.2-7.1
	c4.2,0.3,8.8,1.1,13.2,1.9c6.4,1.1,12.5,2.2,17.2,1.7c0.7-0.1,1.4-0.2,2.1-0.4C657.3,341.8,658.6,344.7,659.2,347.9z M723.1,343.5
	c-0.7,1.7-3.1,2.6-4.9,3.1c-6.2,1.6-16.7,0.8-24.3-1.9c-6.8-2.4-11.9-6.3-17.7-10.9c-1-0.8-2-1.6-3.1-2.4
	c-7.4-5.7-16.3-11.8-25.7-14.1c-4.8-1.2-9.7-1.3-14.5-1.5c-4.4-0.1-8.9-0.3-13.5-1.2c-8.7-1.8-18.6-7-25.9-13.6
	c-3.7-3.3-6.6-6.8-9.1-9.9c-2.2-2.7-4.1-5-6.1-6.6c-2.4-1.9-4.8-2.4-7.2-2.8c0.7-0.5,1.5-1.1,2.3-1.7c2.6-1.9,5.9-4.2,8.5-7.5
	c2-2.7,3.4-5.9,4.9-9.4c1.9-4.4,3.9-9,7.3-12.4c6.1-6.3,16.2-8.7,24-5.8c5.5,2.1,10.6,6.9,15.9,12c2.9,2.8,6,5.7,9.2,8.3
	c3.9,3,8,5.5,11.9,7.8c5.2,3.1,10.2,6.1,13.7,9.9c3.5,3.8,5.9,8.6,8.1,13.3c1.8,3.6,3.4,7,5.5,9.8c3.5,4.6,8,7.1,13.1,9.9
	c2.2,1.2,4.4,2.5,6.8,4c8.3,5.3,16.5,13,19.5,18.1C722.9,339.6,723.8,341.8,723.1,343.5z M575.9,287.7c1.6,1.2,3.4,3.4,5.4,5.9
	c2.5,3,5.6,6.8,9.5,10.3c7.3,6.5,16.6,11.6,25.4,13.9c-2.8-0.1-5.6-0.1-8.3-0.1c-1.6,0-3.1,0-4.6,0l-23.2-17.2
	c-0.1-0.1-0.1-0.2-0.2-0.2c-1.2-1.5-2.4-3-3.6-4.4c-0.6-0.7-1.2-1.4-1.8-2.1c-2.6-3.2-5.1-6.2-5.7-8.2c0.2,0,0.3,0.1,0.5,0.1
	C572.2,285.9,574,286.2,575.9,287.7z M691.8,529.9c1.4-2.4,3.4-5.8,5.4-10.6c3.8-9.3,8-24.9,11.2-41.7c0.2-0.9,0.3-1.8,0.5-2.7
	c0.6,9,1.4,17.7,2.1,25.2c0.3,3,0.6,5.8,0.9,8.5c1.2,11,2.2,19.6,0.7,23.7c-1.4,3.9-5.4,3.8-11.8,3.2c-3.2-0.3-9.9-0.9-11-2
	C690,532.9,691,531.3,691.8,529.9z M791.7,356.8c-1.8,3.6-4.8,6.2-7.4,7.6c-3,1.6-5.4,1.7-6.4,1.2c-0.2-0.1-0.7-0.4-0.8-1.7
	c-0.1-3.9,4-12.9,8.6-18.5c2.7-3.4,4.5-4.1,5.1-4.1c0,0,0.1,0,0.1,0c0.3,0.1,0.7,0.7,1,2C792.6,346.1,792.4,350.9,791.7,356.8z
	 M503.3,236.8c-1.8-2-4.6-3.8-6.6-4.9c-0.3-0.2-0.6-0.3-0.8-0.4c-0.6-0.3-1.3-0.7-1.4-0.8c-0.1-0.4,0.2-1.4,0.4-2.2
	c0.2-0.8,0.4-1.8,0.5-2.7c0.1-0.9,0.1-1.6,0-2.4c0.7,0,1.4,0,2,0l0.3,0c1.7-0.1,3.7-0.2,5.4,0.6c0.9,0.4,1.8,1.1,2.9,1.8
	c1.4,1,2.9,2,4.8,2.9c3.8,1.6,8.3,2,12.4,1.1c0.3-0.1,0.6-0.1,0.9-0.2c-2,3.4-2.6,7.2-1.1,12.4c2.2,7.6,9.2,18.6,17.1,26.6
	c7,7.2,15.6,12.9,22.9,15.4c0.7,0.2,1.3,0.4,1.9,0.6c0,2,1.1,4.2,2.7,6.5L506,245.2c0.1-0.4,0.1-0.9,0.1-1.3
	C506.2,241.3,505.2,238.9,503.3,236.8z M489.6,212.4c-0.9,0-2.5,0.1-3.8-0.5c-1.1-0.5-2.4-1.6-3.5-3.1c-0.3-0.4-0.5-0.8-0.8-1.1
	c-0.2-0.3-0.4-0.7-0.6-1c1-0.2,1.9-0.5,2.7-1c2.2-1.3,2.8-3.8,1.6-6.5c-0.9-2-2.9-4.6-4.9-5.4c-1.3-0.6-3.9-0.9-5.7,3.3
	c-0.7,1.7-1.8,5.1-1.2,7.5c-1.3,0.6-2.4,1.2-3.4,1.8c-1.4,0.8-2,1.1-2.7,0.9c-1-0.3-2.5-1.5-4.2-3.3c-1.4-1.5-2.7-3.1-3-6.4
	c-0.2-1.6-0.2-3.7-0.1-5.7c0-2.2,0-4.6-0.2-6.5c0.3,0.2,0.6,0.3,0.8,0.4c2.7,1.3,6.2,2.2,9.3,2.5c-0.2,0.5-0.5,1.2-0.2,2
	c0.2,0.6,0.7,1.1,1.4,1.3c1.8,0.6,5.9-0.7,6.1-0.7c2.3-0.7,4.1-1.8,6-3.6c0.9-0.9,4-4,4-5.8c0-0.6-0.3-1.2-0.7-1.6
	c-1.3-1.2-2.7-0.4-5.5,1.1c-0.8,0.4-1.7,0.9-2.5,1.4c-2.1,1.1-3.8,1.6-5.6,1.8c-0.1-0.1-0.2-0.3-0.2-0.4c-0.2-0.3-0.4-0.6-0.6-1
	c-0.1-0.2-0.3-0.5-0.4-0.7c1.2-0.3,2.4-0.6,3.8-1c0.8-0.2,1.6-0.4,2.3-0.6c1-0.3,2-0.5,3-0.7c3.9-0.9,5.3-1.3,6.1-2
	c0.3-0.3,0.5-0.6,0.6-0.9c4.9,5.6,6.9,11.6,8.7,16.9c0.4,1.3,0.9,2.5,1.3,3.7c3.2,8.7,7.4,14.1,13.7,17.5c7.3,4,16.3,4.8,25,2.5
	c-1.8,1.4-3.5,2.8-5.1,4.2c-3.6,2.4-6.3,3.6-8.8,4.2c-3.3,0.7-7,0.4-10-0.9c-1.5-0.7-2.9-1.6-4.2-2.5c-1.2-0.8-2.3-1.6-3.5-2.1
	c-1.9-0.8-3.7-1-5.4-1c-0.7,0-1.3,0-1.9,0.1l-0.3,0c-1.7,0.1-2.5,0-2.9-0.4c-0.7-0.8-1.2-3.1-1.4-3.9
	C492.5,213.3,491.9,212.3,489.6,212.4z M489.9,219.1c-0.4,0-0.9,0-1.3,0c-0.3,0-0.7,0-1,0c0-0.1,0-0.3,0-0.4l0-0.4
	c0-0.6-0.1-1.3-0.2-2c0.7,0.1,1.3,0.1,1.8,0.1C489.3,217.2,489.5,218.1,489.9,219.1z M477.3,203.3c-0.1-1,0.3-2.9,1.1-4.7
	c0.3-0.6,0.5-1,0.6-1.1c0.7,0.4,2,1.8,2.6,3.2c0.5,1.2,0.2,1.4,0,1.5c-0.6,0.3-1.9,0.6-3,0.8C478.2,203.1,477.7,203.2,477.3,203.3z
	 M477.6,208.9c-0.4-0.1-0.7-0.3-0.9-0.4c-0.3-0.2-0.5-0.4-0.6-0.6c0,0,0.1,0,0.1,0c0.1,0,0.1,0.1,0.2,0.1c0.3,0.1,0.5,0.3,0.7,0.4
	C477.2,208.4,477.4,208.6,477.6,208.9z M459,179.9c1-0.1,2.2-0.2,3.2-0.4c0.1,0,0.2,0,0.4,0c0.5,1.5,2.2,2.9,4.8,3.1
	c0.3,0.4,0.5,0.8,0.7,1.2c0,0.1,0.1,0.1,0.1,0.2c-2-0.3-4.1-1-5.8-1.8C461.2,181.5,460.1,180.8,459,179.9z M565.4,201.9
	c1-0.6,2-1.2,3-1.7c7-3.8,12.9-5.6,19.5-5.6c0.6,0,1.3,0,1.9,0c6.3,0.3,13,2,16.8,3.6c-1.4,0-3.1-0.2-5-0.3c-3-0.2-6.5-0.5-10-0.5
	c-7.5,0-14.9,1-22.2,3.2C568.1,201,566.8,201.4,565.4,201.9z M599.6,102.4c1,1.5,2.4,3.2,4.4,4.6c4.5,3.2,11.7,4.3,18,5.3l1.9,0.3
	c6.8,1.1,9,2.1,9.2,6.3c0.3,5.6-3.2,16.5-8.4,26c-5.5,10-12.6,18.1-20.7,23.7c-5.6,3.9-12.1,6.7-17.9,9.2c-3,1.3-5.8,2.6-8.4,3.9
	c-8,4.1-13,8.7-17.1,13c-1.8,1.9-3.6,3.8-5.3,5.7c-2.2,2.5-4.5,5-7,7.5c-3.7,2.1-7.3,4-10.9,5.2c-8.4,2.9-17.2,2.3-24.1-1.5
	c-5.4-3-9-7.6-11.9-15.4c-0.4-1.2-0.8-2.4-1.3-3.6c-2.3-6.9-5-14.8-13.2-22c-8.4-7.4-22.4-13.7-32.6-18.3c-1.3-0.6-2.4-1.1-3.5-1.6
	c-9.1-4.1-12-6-13.5-7.6c-0.3-0.3-0.5-0.6-0.8-0.8c5.6,0.1,11.6-0.7,16.2-1.7c2.6-0.6,10.3-2.4,13.1-5.1c1.4,0.4,2.8,0.8,4,1.2
	c8.2,2.9,12.6,8.4,15.9,13.3c0.8,1.1,1.5,2.2,2.1,3.3c2.6,4.2,5.2,8.2,9.6,11.2c4.1,2.8,10.2,4.9,18.7,6.6c5.1,1,7.3,1,10.6-2.7
	c2.8-3.1,6.9-9.4,9-14.8c0.9-2.3,1.5-4.4,1.9-6.4c0.5,1.2,1.1,2.4,1.6,3.5l0.1,0.1c2.6,5.3,4.1,8.4,6.1,9.4c1.3,0.7,2.8,0.4,3.8-0.6
	c1.4-1.3,1.7-3.7,0.7-5.8c-0.6-1.3-1.6-2.6-2.7-3.9c-1.2-1.5-2.5-3.1-3.1-4.6c-0.9-2.5,0-5.2,2.2-6.5c2.3-1.3,6.6-1.4,9.9-0.1
	c3,1.2,4.7,3.2,5.2,6.5c0.6,3.7-0.2,8.9-1.9,11.5c-1.2,2-3,2.7-4.9,3.5c-0.6,0.3-1.2,0.5-1.7,0.8c-3.3,1.6-5.2,4-5.3,6.6
	c-0.1,2.8,2,6.1,6.1,6.7c3.4,0.5,8.6-1,10.7-4c1.3-2,1.2-4.2,1.1-6.2c-0.1-1-0.1-2,0-3c0.2-1.3,0.8-2.7,1.5-4.4
	c0.7-1.6,1.5-3.3,2-5.4c1.4-5.2,1.2-10.7-0.6-14.8c-0.2-0.5-0.4-0.9-0.7-1.3c1.9,1,3.9,1.8,5.9,1.9c5.7,0.2,10.8-5,14.2-8.9
	c4.6-5.4,7.6-10.5,9.4-16.2C598.4,108.8,599.1,105.1,599.6,102.4z M539.3,140c1.1-3.3,2.8-5.5,5.6-7c3.3-1.8,7.8-2.4,11.4-1.5
	c3.9,0.9,7.1,3.5,8.5,6.9c1.3,3.1,1.4,6.8,0.9,9.9c0-1.2-0.1-2.4-0.3-3.5c-0.8-4.7-3.4-7.9-7.8-9.6c-1.9-0.7-4.3-1.2-6.7-1.2
	c-2.4,0-4.7,0.5-6.7,1.6c-2.5,1.5-4.1,4-4.4,6.8C539.7,141.5,539.4,140.8,539.3,140z M545.5,154.3c0.4,0.5,0.7,1,0.9,1.4
	c0,0.1,0.1,0.2,0.1,0.2C546.2,155.5,545.8,154.9,545.5,154.3z M561.6,164.6c0.1,1.5,0.2,2.9-0.4,3.7c-1,1.5-4.5,2.7-6.8,2.3
	c-1.8-0.3-2.7-1.5-2.7-2.5c0-1,1.2-2.2,3.1-3.2c0.5-0.2,1-0.5,1.5-0.7c1.6-0.7,3.6-1.5,5.3-3.2C561.4,162.2,561.5,163.4,561.6,164.6
	z M428.7,137.4c-5.6-1.5-8.9-4.9-12.5-8.5c-0.4-0.4-0.9-0.9-1.3-1.3c-0.5-0.5-0.9-0.9-1.4-1.4c-3.6-3.5-7-6.8-8.3-12
	c-1.7-6.4-0.4-15.2,1.5-20.6c1.5-4.3,3.7-7.3,5.9-10.5c0.9-1.2,1.8-2.5,2.7-3.8c2-3.1,3.9-6.6,5.7-10c1.2-2.2,2.2-4.2,3.3-6.1
	c3.4-5.8,5.7-8.3,7.1-9.4c0.2,0.3,0.6,0.9,0.7,1.3c0.5,1,1,1.9,2,2.4c1,0.5,2.2,0.3,3-0.5c1.2-1.2,1.7-3.3,1-5
	c-0.5-1.2-1.6-2.2-2.9-2.7c-1.3-0.5-2.8-0.4-4.3,0.2c0.4-1.4,1.2-3.3,2.6-4.9c1.5-1.8,3.4-2.7,4.2-2.8c0.1,0.5,0,1.3,0,1.8
	c-0.1,1.5-0.1,3,0.5,4.2c0.8,1.6,2.6,2.3,4.5,1.9c1.8-0.4,3-1.9,3-3.6c0-1.3-0.7-2.5-1.5-3.9c-0.7-1.3-1.6-2.7-1.7-4
	c-0.3-2.4,1.6-5.6,5-8.7c3.2-2.9,8-5.9,12.9-8.1c4.4-2,6.1-2,6.5-1.9c0.1,0.7-0.2,2.3-0.3,3.1c-0.1,0.7-0.3,1.4-0.3,2
	c-0.1,2.6,1.6,3,2,3.1c0.5,0.1,2.4,0.2,3.5-2.8c0.1-0.3,0.2-0.6,0.3-0.9c0.4-1.6,1.1-3.7,5.1-6.3c5.3-3.3,15.6-6.9,25.7-6.9
	c9.1,0,18.7,2.9,31.2,9.5c13.9,7.3,24.8,15.5,32.5,24.4c7.6,8.8,12.9,19.2,17.6,28.4c0.9,1.7,1.7,3.3,2.5,4.9
	c4.4,8.5,8.3,14.6,10.6,18.2c-0.7,0.8-0.9,2-1.5,5.5c-0.5,2.8-1.1,6.2-2,9.3c-1.6,5.1-4.3,9.8-8.6,14.8c-4.5,5.2-8.1,7.6-11.1,7.5
	c-2.1-0.1-4.5-1.6-7.1-3.1c-1.9-1.2-3.8-2.4-5.9-3.2c-5.1-2.1-11.4-2.2-16.7-0.4c-5.5,1.9-8.8,5.6-9.2,10.1c-0.1,1,0,2,0.1,3.1
	c-0.4,1.3-0.6,2.7-0.9,4.1c-0.5,2.6-1,5.4-2.2,8.4c-2,5-5.7,10.7-8.3,13.6c-2,2.2-2.4,2.3-6.8,1.4c-7.8-1.6-13.6-3.6-17.2-6
	c-3.8-2.5-5.9-6-8.5-10c-0.7-1.1-1.4-2.3-2.2-3.4c-3.4-5.2-8.6-11.5-17.9-14.9c-1.7-0.6-3.5-1.1-5.4-1.6c-0.5-0.4-1.6-0.9-4.4-0.9
	c-2.3-0.4-4.7-0.8-7-1.1c-4.2-0.6-8.3-1.3-11.2-2.2c-2.3-0.7-5.4-2-7.5-4.4c-1.2-1.4-2.6-0.6-2.7-0.5c-0.5,0.4-1.3,1.3-0.7,2.7
	c0.5,1.2,3.5,7.2,8.1,9.7c4,2.1,8.6,1.4,13.1,0.7c0.8-0.1,1.6-0.2,2.4-0.4c1.4-0.2,2.6-0.3,3.6-0.4c-1.8,0.7-4.3,1.5-7.5,2.2
	C445.1,138.2,435.4,139.2,428.7,137.4z M446.1,132c-1.5,0-2.8-0.3-4-0.9c-0.1,0-0.1-0.1-0.2-0.1c0,0,0,0,0,0
	C443.3,131.4,444.6,131.7,446.1,132z M455.4,176.8c-0.9-0.7-1.9-1.5-2.9-2.4c-2.4-2-5.2-4.2-7.6-6.5c-4.1-3.8-6.3-7-7.6-10.9
	c-1.1-3.3-1.6-7.2-1.7-10c2.1,1.7,5.5,3.7,13.7,7.4c1.1,0.5,2.3,1,3.6,1.6c9.9,4.5,23.5,10.6,31.5,17.6c-1.1-0.1-2.7-0.1-4.8,0
	c-2.7,0.2-6.1,0.6-9.4,1c-1.9,0.2-3.7,0.5-5.4,0.7c-1,0.1-2,0.2-2.9,0.3C458.7,175.8,456.7,176,455.4,176.8z M452.9,191.1
	c0.1,0.1,0.3,0.1,0.4,0.1c-0.4,0.2-0.9,0.4-1.5,0.6c-0.2-0.2-0.3-0.3-0.4-0.5c-0.2-0.3-0.4-0.7-0.6-1.1
	C451.5,190.6,452.3,190.8,452.9,191.1z M450.6,199.5c1.4-0.3,3.2-0.9,4-2.3c0.4-0.7,0.5-1.5,0.2-2.2c0,0,0,0,0,0
	c0.5-0.2,0.9-0.4,1.2-0.6c0,1.3,0.1,2.5,0.2,3.6c0.5,4.5,2.4,6.8,4.1,8.6c2.3,2.4,4.3,3.9,6,4.4c2.4,0.7,4.2-0.3,5.8-1.2
	c0.1-0.1,0.3-0.2,0.4-0.2c0.4,0.8,1,1.6,2.1,2.3c1.3,0.8,3.3,1.3,5,1.8c0.6,0.1,1.1,0.3,1.5,0.4c1.6,0.5,1.7,0.8,1.8,1.1
	c0.3,0.7,0.5,1.9,0.6,3.4l0,0.3c0,1.2,0.1,3.6,2.7,4.2c0.7,0.2,1.6,0.1,2.4,0.1c0.8,0,1.9,0,2.4,0.2c0.4,0.2,0.5,1.2,0.4,2.1
	c-0.1,0.7-0.3,1.4-0.4,2.2c-0.3,1.3-0.6,2.5-0.5,3.6c0.3,2.1,1.9,3,3.5,3.8c0.2,0.1,0.5,0.3,0.8,0.4c1.4,0.8,4,2.3,5.5,4
	c0.8,0.8,1.3,1.7,1.5,2.7L445,199.8C446.6,199.9,448.7,199.9,450.6,199.5z M445,188.7c0.8,0.7,1.3,1.7,1.9,2.8
	c0.3,0.6,0.6,1.2,1,1.7c-0.7,0.2-1.4,0.4-2.1,0.4c-1.3,0.2-2.6,0.2-3.7,0.2c-0.6,0-1.1,0-1.6,0c-0.3,0-0.6,0-0.9,0
	c0-0.2,0-0.5,0.1-0.8c0.1-1,0.4-4.2,1.4-5.1c0.3-0.2,0.7-0.3,1.1-0.3C443,187.7,444.2,188.1,445,188.7z M387.5,476.9
	c-1.4,11-1.6,23-0.9,34.6c-2.6-8-4.5-17.6-5.8-28.2c-2.3-19.9-1.5-39.1,2.5-58.6c1.5-7.2,3.4-14.5,5.4-22.2
	c3.8-14.8,7.8-30,9.1-46.4c1.6-20.1-0.8-41.2-3.2-61.6c-0.6-4.9-1.1-9.6-1.6-14.2c-2.8-27-2.8-45.9-0.1-59.5
	c1.6-7.8,4.1-14.1,6.3-19.7c2.2-5.4,4-10.1,4.5-14.7c0.6-6-1.4-11.6-3.1-16.4c-1-2.7-1.9-5.3-2.2-7.7c-0.4-2.9,0-5.5,0.7-7.4
	c6.3,3.7,12.8,7.3,19.4,10.7c2.2,1.1,4.3,2.2,6.4,3.3c3,1.5,5.7,2.9,7.8,4.1c-2.3,0.7-4.4,2.3-5.9,4.6c-1.9,2.8-3.2,7.7-2.6,9.4
	c0.2,0.7,0.7,1.2,1.4,1.4c1.7,0.6,2.6-0.9,3.7-2.7c0.8-1.3,1.9-3.1,3.2-4.3c1.5-1.5,3.4-2.1,4.9-2.6c0.4-0.1,0.7-0.2,1-0.4
	c0.7,0.7,1.4,1.6,2,2.5c0.3,0.4,0.6,0.8,0.9,1.2c0.4,0.6,0.8,1.1,1.2,1.7c-1.4,0-2.7,0.3-3.7,1.1c-2.1,1.7-2.7,4.8-2.9,7.9
	c-0.2,2.1-0.2,3-0.2,3.9v1l66.1,49.2c-0.1,0.4-0.3,0.8-0.4,1.2c-0.5,0.2-1.1,0.5-1.7,0.9c-1.2,0.7-2.9,1.6-4.7,2.4
	c-3.4,1.5-7.8,2.4-12,3.4l-1.5,0.3c-5.5,1.3-10.1,2.4-14.5,4.2c-0.9,0.3-1.7,0.7-2.6,1.1c-3.6,1.5-7.1,3-11.7,3.1
	c-2.4,0.1-5-0.2-7.5-0.8c-4.6-2.2-9.3-4.6-13.7-7.8c-0.8-0.6-1.6-1.2-2.4-1.8c-0.2-0.2-0.4-0.5-0.5-0.7c-1.1-1.4-1.6-2.2-2.8-2.3
	c0,0,0,0-0.1,0c-5-4.7-9.5-10.5-12.8-16.6c-1.3-2.4-2.4-4.8-3.3-7.1c1.4-4.9,2-9.6,1.4-12.8c-0.7-3.8-2.8-5.4-4.7-5.3
	c-1.6,0.1-3.4,1.3-3.7,4.5c-0.3,3.2,0.8,8.3,2.8,13.7c-0.6,1.9-1.3,3.8-2.2,5.6c-0.5,1-1,2-1.5,3c-2.9,5.7-5.9,11.6-3.6,23.2
	c1,5.2,3,11.4,5.4,18.5c3.6,11,7.7,23.5,9.2,36c1.9,15.5-0.3,30.6-3,49.7c-0.7,5.2-1.5,10.6-2.2,16.4c-0.3,0.7-0.4,1.7-0.4,3.2
	c-1,8.4-2,18.1-2.8,28.4c-0.5,2.7-1.2,5.4-1.9,8.2c-1.2,4.8-2.8,9.8-4.4,15.2C393.8,446.5,389.5,460.8,387.5,476.9z M474.3,282.4
	c-7-6.6-13.2-11.3-20-15c0,0,0,0-0.1,0c4.5-0.4,8-1.9,11.4-3.4c0.8-0.4,1.7-0.7,2.5-1c4.2-1.7,8.6-2.8,13.9-4l1.5-0.3
	c3.2-0.7,6.5-1.5,9.6-2.5c-2,1.3-4.3,2.6-6.5,3.9c-3.1,1.8-6,3.4-8.1,5.2c-4.3,3.6-5,7.5-5.1,10.8
	C473.4,277.9,473.5,279.9,474.3,282.4z M406.8,218.4c-0.5-2.2-0.7-4-0.5-5.2c0-0.1,0-0.2,0-0.3c0.2,0.3,0.3,0.8,0.4,1.4
	C407,215.4,407,216.8,406.8,218.4z M391.9,524.3c-2.1-14.9-2.3-31.9-0.5-46.9c1.9-15.8,6.3-29.8,10.1-42.3c0.4-1.3,0.8-2.6,1.2-3.8
	c-0.6,13.8-0.8,27.8-0.3,40.4c1.2,25.8,5.5,43.8,9,58.2l1.7,7c0.5,2.1,1,4,1.4,6c-8.5-2.4-15-7-19.9-14
	C393.7,527.4,392.8,525.9,391.9,524.3z M421.5,565.6c1.9,3.9,3.9,6.4,5.3,8.1c0,0,0.1,0.1,0.1,0.1c-2.1-0.1-5.9-0.8-10.8-3.3
	c-9.4-5.1-16-14.1-20.2-27.6c-0.9-2.8-1.6-5.8-2.3-9c5.6,6.6,12.9,11.1,22,13.2C417.5,554.9,419.3,561.1,421.5,565.6z M429.1,419.5
	c-2.9,3.4-2.9,10.7-3,19.9c0,3.2,0,6.5-0.2,9.8c-0.4,8.8-1.7,17.8-2.9,26.4c-0.5,3.2-0.9,6.4-1.3,9.6c-2,15-2.2,24.9-0.7,31.8
	c1.8,8.3,6.2,12.9,10.3,16.3c4.4,3.6,7.9,5.4,16.4,5.7c8,0.2,20.8-0.9,37.1-3.4c-14.3,2.9-27.9,5.2-35.7,6.5
	c-13.7,2.3-21.1,3.2-29.6,1.8c-0.3,0-0.5-0.1-0.8-0.1c-0.6-2.5-1.2-5.1-1.9-7.9l-1.7-7c-3.5-14.3-7.8-32.1-8.9-57.4
	c-0.8-18.7,0-40.6,1.6-60.3c1.5-7.6,2.4-15.2,2.7-22.8c3.3,7,8.3,15.9,14.9,23.8c1.7,2,3.5,3.9,5.4,5.8
	C430.3,418.3,429.7,418.8,429.1,419.5z M449.3,427.7c-0.5-0.8-1-1.5-1.6-2.2c-2.7-3.4-7.2-7-11.4-8c-2.8-2.6-5.4-5.2-7.7-8
	c-7.4-8.8-12.6-19-15.8-26c-0.4-0.9-0.7-1.6-1-2.2c-0.3-0.7-0.5-1.3-0.8-1.7c0.7-5.8,1.5-11.2,2.2-16.5c2.6-18.6,4.9-34.7,3-50.7
	c-1.5-12.9-5.7-25.6-9.4-36.8c-2.3-7-4.3-13.1-5.3-18c-2-10.3,0.5-15.3,3.2-20.7c0.5-1,1.1-2.1,1.6-3.2c0.3-0.6,0.6-1.3,0.8-1.9
	c0.6,1.2,1.1,2.3,1.8,3.5c3.6,6.6,8.5,12.8,13.9,17.9c0.1,2.2,0.7,6.2,2.9,14.2c2.4,9.2,6,19.9,14.1,29.5
	c8.2,9.8,21.4,18.5,31.2,20.7c10,2.2,16.6-2.2,24.2-7.2l0.4-0.3c-1.7,3.5-3.1,7.6-3.5,12.2c-0.8,9.2,2.4,20.2,6.6,23.5
	c-0.2,4.8-0.1,9.6,0.6,14.3c1.3,8.7,4.5,16,8.2,24.3c2.1,4.9,4.4,9.9,6.4,15.7c4,11.4,7.4,25.6,11,40.6c1.3,5.6,2.7,11.4,4.1,17
	c1.1,4.3,2.2,8.5,3.3,12.7c0,0-0.1-0.1-0.1-0.1c-4.2-3.5-10.4-6.1-19-9.7c-2.6-1.1-5.3-2.3-8.4-3.6c-15.8-6.9-32.4-15.2-44.3-22.2
	C456.6,432.5,452.8,430.1,449.3,427.7z M539.5,498.2c-0.6,0.7-5,0.2-9.2-0.3c-1.7-0.2-3.7-0.4-5.8-0.7c-4.4-0.5-9.8-0.9-15.5-1.4
	c-7.8-0.7-15.8-1.3-22.8-2.2c-5.6-0.7-10.4-1.4-14.7-2.1c-5.2-0.8-9.3-1.4-12.8-1.6c-0.7,0-1.4-0.1-2-0.1c-2.4,0-4.5,0.3-6.4,0.9
	c0.6-2.9,1.1-6.3,1.5-10c1.2-10.3,1.9-22.8,1.8-32.5c0-5.4-0.4-9.9-1.4-13.9c2.1,1.3,4.3,2.7,6.7,4.1c12,7.1,28.8,15.4,44.7,22.4
	c3,1.3,5.8,2.5,8.4,3.6c8.3,3.5,14.3,6,18,9.1c3.4,2.8,5.1,6.2,6.4,9.9c0.9,2.9,1.8,5.9,2.7,8.8
	C539.6,494.9,540.1,497.5,539.5,498.2z M572.5,571.3c-4.6-10.9-13.5-32.7-21.5-55.3c-2.9-8.3-5.7-16.5-8.2-24.7
	c-0.4-1.4-0.8-2.8-1.3-4.3l-0.2-0.8c-0.4-1.3-0.8-2.6-1.2-3.9c-2.5-8.4-4.8-16.8-6.9-25.4c-1.4-5.6-2.8-11.4-4.1-17
	c-3.6-15.1-7-29.4-11.1-41c-2.1-6-4.4-11.1-6.5-16c-3.6-8.1-6.6-15.1-7.9-23.3c-0.6-4.1-0.8-8.4-0.6-12.8c0.1,0,0.2-0.1,0.3-0.1
	c3.4-1.2,5.9-6.4,9.9-15.4l0.3-0.6c3.6-8,8.5-18.9,15-25.4c3.8-3.8,8.2-6.2,11.1-7.9c2.8-1.6,4.7-2.6,3.9-4.7
	c-0.2-0.4-0.6-1-1.4-1.3c-2.4-0.9-11.3,0.1-18.5,3.4c-8.6,4-14.6,11.1-18.8,22.5c-2.2,5.8-4.3,13.9-5.3,22.6
	c-1.9-3.8-3.6-10.7-3.1-17.2c0.7-8.1,4.8-14.4,8-18.1c5.1-3.4,9.2-6.1,10.6-7.5c1.9-1.9,0.8-3.3,0.5-3.5c-2.6-2.7-10.4,4.6-11.3,5.4
	c-0.7,0.6-1.5,1.5-2.5,2.6c-1.1,0.7-2.2,1.5-3.3,2.2c-1.6,1-3.1,2.1-4.7,3.1l-0.5,0.3c-7.1,4.7-12.8,8.5-21.1,6.6
	c-9.1-2-21.2-10.1-29-19.3c-7.5-9-10.9-19.2-13.3-28c-0.9-3.5-1.6-6.3-2-8.5c1.1,1.2,2.5,2.5,4.2,3.7c3,2.1,7.2,3.8,11.5,4.7
	c0.4,0.2,0.9,0.4,1.3,0.6c2.6,1.3,5.1,2.5,7.6,3.8c6.8,3.7,13,8.4,20.1,15.3c5.5,5.3,11.4,11.8,13.7,14.2c0.6,0.6,0.9,1,1,1.1
	l1.4,1.4l1.4-1.3c1.4-1.3,0.2-2.7-0.4-3.5c-1.5-1.7-5.9-7.1-8.5-11.1c-3.4-5.2-3.6-8.3-3.5-10.8c0.1-3,0.7-5.4,3.6-7.8
	c1.8-1.5,4.6-3.1,7.6-4.8c2.4-1.4,5-2.8,7.2-4.4c3.2-2.2,7.7-6.3,8.6-8.7l0,0c0.2-0.4,0.3-0.8,0.5-1.2l72.7,54.1
	c3.6,4.5,7.3,9.1,10.7,12.3c-0.3-0.1-0.7-0.2-1-0.4c-3.9-1.5-7.6-4-10.7-6.5c-2.2-3.4-4.3-5.8-5.4-6.9c-2.8-2.8-4.2-3.5-5.6-2.7
	c-0.3,0.2-1.8,1.3-0.5,3.5c1,1.7,4.2,5.3,8.5,8.9c4.3,6.9,7.6,17,11.1,33.5c1.6,7.6,3.3,16.8,5,25.7c2,10.8,4.1,21.9,6.1,31
	c2.4,10.7,4.9,18.7,7.4,27.1c1.5,4.8,3,9.7,4.5,15.4c4.2,15.1,9.4,36.9,12.6,53.2c0.5,2.3,0.9,4.5,1.3,6.6c2.3,12.2,3.7,19.5,8.4,24
	c1.9,1.8,4.1,3,6.4,4c-2.5,2.7-2.4,7.2-2.3,12.5c0,0.7,0,1.4,0,2.1c0.1,7.8-0.2,17.2-3.3,25.8c-5.7,6.1-11.8,10.9-16.3,12.6
	c-5.2,1.9-8.5-0.1-13.2-3c-1.3-0.8-2.7-1.7-4.2-2.5c-3.5-1.9-17-8-20.3-4c-2,2.4,0.5,5.8,3.6,10.1c1.3,1.8,2.7,3.7,3.6,5.4
	c1.4,2.5,1.7,4.6,2,6.5c0.1,0.3,0.1,0.7,0.2,1C581.7,592.7,577.4,583.1,572.5,571.3z M503.2,341.7c0.8-8.5,2.8-16.8,5.1-22.9
	c3.9-10.3,9.2-16.8,16.7-20.3c3.3-1.5,6.7-2.4,9.6-2.9c-2.7,1.6-6.1,3.9-9.1,6.9c-7,7-12.1,18.3-15.8,26.6l-0.3,0.6
	C507.3,334.2,505,339.4,503.2,341.7z M591,599.9c-0.5-0.8-0.7-1.9-0.9-3.2c-0.3-2.1-0.8-4.6-2.5-7.7c-1-1.9-2.5-3.9-3.9-5.8
	c-1.2-1.6-2.8-3.9-3.4-5.2c2.3-0.1,8.7,1.6,14.9,4.9c1.4,0.8,2.7,1.6,4,2.3c5,3.1,9.7,6,16.7,3.4c2.6-1,5.4-2.7,8.3-4.9
	c-6.2,7.5-15.2,13.5-22.1,16.2C596.5,602.3,592.4,602.3,591,599.9z M889.8,587.8c-1.1,0-2.6-0.4-3.6-0.9c0,0,0.1,0,0.1,0
	c1,0.1,2.5,0.4,3.7,0.8c0.1,0,0.2,0.1,0.2,0.1C890.1,587.8,889.9,587.8,889.8,587.8z M911.9,582.1c0.3,0.3,0.4,0.6,0.4,0.7
	c-0.5,0.2-1.9,0.2-3.7-0.5c-1.2-0.4-2.1-1-2.5-1.6c0.3,0.1,0.6,0.2,0.8,0.2c0.4,0.1,0.9,0.3,1.3,0.4c0.7,0.2,1.4,0.3,2.1,0.4
	C910.9,581.9,911.4,582,911.9,582.1z M892,571.9c1.7,0.3,3.3,0.6,4.9,0.9c3.4,0.6,6.2,1,8.9,1.4l2.1,0.3c0.4,0.1,0.8,0.1,1.2,0.2
	c-0.1,0.2-0.1,0.5-0.1,0.7c0,0.2,0,0.4,0,0.6c-1.6-0.5-3.3-1-5.1-1.3c-1-0.2-2-0.3-3.1-0.4c-2.2-0.5-4.7-0.9-7.2-1.4
	c-3-0.5-6.1-1.1-9.3-1.6c-3.7-0.6-7.5-1.3-11.2-2c-1.2-0.2-2.3-0.4-3.5-0.7c1.6,0.2,3.2,0.4,4.8,0.6c2.6,0.3,5.3,0.6,8.1,1
	C885.5,570.7,888.8,571.3,892,571.9z M786.8,546c6.8,1.1,14.8,3.3,21.8,5.2c1.3,0.3,2.5,0.7,3.7,1c8.2,2.2,14.5,3.6,19.6,4.8
	c5.4,1.2,10.2,2.3,14.9,2.8c2,0.2,4,0.3,5.9,0.4c2.4,0.1,4.7,0.2,6.9,0.6c3.3,0.5,6.5,1.4,9.7,2.4c0.6,0.2,1.3,0.4,1.9,0.6
	c1.8,0.5,3.5,1,5.2,1.4l-1.8-0.3c-3.3-0.5-9.5-1.4-13-1.9c-3.2-0.4-4.8-0.6-5.2,1.4c-0.1,0.8,0.1,1.4,0.5,1.7
	c-1.6-0.3-3.4-0.6-3.9,1.4c-0.4,2,1.6,2.5,3.6,3c1.9,0.4,4.5,1,7.6,1.5l1.7,0.3c4,0.8,8.2,1.6,12.4,2.6c0.9,0.2,1.8,0.4,2.8,0.7
	c3.4,0.8,6.8,1.7,10.2,2.1c2,0.2,3.9,0.3,5.7,0.4c1.1,0.1,2.2,0.1,3.3,0.2c0.6,0.1,1.2,0.2,1.8,0.4c-0.4,1.1-0.3,2.4,0.3,3.6
	c0.6,1.1,1.6,2.1,3,2.9c-3.2-0.2-6.8-0.5-10.9-1.4c-0.8-0.2-1.5-0.3-2.4-0.5c-1-0.6-2.3-1.1-3.9-1.6c-2.1-0.7-4.6-1.2-7.3-1.8
	l-0.6-0.1c-0.9-0.3-1.8-0.6-2.7-1c-1.3-0.5-2.6-0.9-3.8-1.4c-2.9-1.1-5.7-2.1-8.4-2.9c-0.1-0.1-0.3-0.1-0.5-0.2
	c-2.8-1.2-6.3-2.1-9.6-2.7c-3.4-0.5-6.8-0.6-8.6-0.3c-2.4,0.5-2.5,2.1-2.5,2.6c0.1,2.2,3,2.5,4.1,2.6c0.8,0.1,1.8,0.1,3,0.1
	c2.6,0.1,5.9,0.1,9.3,0.8c1.1,0.2,2.2,0.5,3.4,0.8c0.9,0.4,1.7,0.8,2.5,1.3c1.1,0.6,2.3,1.2,3.6,1.7c2.6,1,5.7,1.7,8.7,2.4l0.4,0.1
	c0.8,0.3,1.7,0.6,2.5,0.8c-0.3,0.6-0.4,1.2-0.3,1.9c0.1,1.2,0.8,2.3,1.8,3.2c0.3,0.2,0.5,0.4,0.8,0.6c-0.4,0-0.9-0.1-1.4-0.1
	c-3.4-0.3-7.7-0.9-11.6-1.5c-1.3-0.2-2.6-0.4-3.8-0.5c-1.8-0.2-3.3-0.4-4.7-0.6c-2.4-0.3-4.7-0.6-7.7-1.1c-0.8-0.1-1.6-0.3-2.5-0.4
	c-4.8-0.8-11.3-1.9-19.7-2.5c-9.8-0.7-22.2-0.7-30.4-0.7c-4.6,0-9.4,0-10.3-0.7c0,0,0,0,0,0c0-0.7,0.5-1.8,1.1-2.9
	c2.3-2.2,3.3-4.1,3.4-5l0-1.4l-1.2-0.6c-0.6-0.3-1.4-0.3-2,0.1c-0.7,0.4-2.1,2.2-3.4,4.3c-1.8,1.7-4.6,3.7-8.6,5.3
	c-9.3,3.8-25.6,5.5-44.4,7.6l-9,1c-19.3,2.1-41.2,4.4-60.9,6.9c-9.1,1.2-17.8,2.3-25.4,3.4c-11.9,1.6-22.1,3.1-29.9,3.8
	c-4.7,0.4-8.4,0.6-11.4,0.4c1.1-0.3,2.2-0.7,3.4-1.2c9.2-3.7,21.4-12.3,27.7-23.1c1.2-2,2.2-4.1,3-6.2c3.1-3.4,6-7,8.2-10.4
	c7.7-11.5,10.5-22.2,7.3-28.1c-0.5-0.9-1.2-1.7-1.9-2.4c4.1,0.3,9.4,1,15.9,1.9c5.5,0.7,11.8,1.6,19.1,2.4
	c21.7,2.5,51.8,4.7,70.9,5.8c5,0.3,9.2,0.5,12.7,0.7C775.9,544.8,781,545.1,786.8,546z M1088.7,410.8c-1.7,9.9-8.7,23.3-24,46.3
	c-15.1,22.7-37.2,53.3-52.8,70.6c-16.3,18.1-25.5,21.5-41.1,22.8c-9.6,0.8-21.5,0.6-34.1,0.3c-9-0.2-18.4-0.3-26.8-0.1
	c-7.2,0.2-13.9,0.7-19.2,1.1c-5.4,0.4-11,0.8-13.4,0.6c3.8-4,21.5-14.1,30.3-19.1c19.7-11.3,40.1-22.6,57.3-31.8
	c3.7-2,7.4-3.9,10.9-5.8c14.7-7.8,27.4-14.6,38.4-21.6c4.2-2.7,25.4-16.5,25-22c-0.1-0.8-0.5-1.6-1.2-2c-2.2-1.5-6.7-0.3-20.6,3.7
	c-2.7,0.8-5.7,1.7-9,2.6c-3.4,1-7.1,2-11,3c-15.7,4.3-33.5,9.1-49.5,15.2c-19.3,7.3-35.7,16.1-53,25.5l-2.3,1.2
	c-16.6,9-37.4,20.3-61.3,26.9c-22.5,6.3-49.1,9-67.4,10.1c-9,0.6-17.9,0.9-19.8-1.2c-0.2-0.2-0.6-0.7-0.3-2.5
	c0.7-3.3,3.6-8.6,7.2-15.2c3.2-5.8,7.2-13.1,10.7-21.1c6.5-14.6,12.3-33.2,18.2-58.6c0,0.1,0,0.1,0.1,0.2c0.6,1.7,2.8,2.7,6.1,2.9
	c0.3,0,0.6,0,1,0c3.6,3.1,8.4,9.3,11.3,18.1c0.9,2.7,1.5,5.5,2.2,8.5c2.3,9.8,4.9,21,15.2,26c12.3,6,36.3,3,64.2-8
	c26.1-10.3,54.2-27.3,66.9-40.5c6.8-7.1,14.7-18.1,5-31.8c-1.9-2.7-4.1-5-6.3-7.4c-1.1-1.2-2.3-2.5-3.4-3.8
	c7.7-2.8,15.2-5.5,22.3-8.2c10.7-4,20.9-7.7,29.7-10.8c22.9-7.9,38.3-11.7,50-12.2c11.8-0.5,19,2.3,24,4.8c6.1,3,10.6,6.7,14.5,11.8
	C1086.6,393.8,1090.6,400.5,1088.7,410.8z"/>
</svg>
