<svg viewBox="0 0 746 607" fill="none" xmlns="http://www.w3.org/2000/svg">
<path class="question-three-svg" stroke="#ffffff" fill="transparent"  stroke-width="3" style="stroke-dasharray: 15724; stroke-dashoffset: 15724;" d="M331.834 552.756C334.975 552.917 338.491 552.259 342.208 551.065C338.142 550.367 334.357 550.34 331.834 552.756ZM327.567 281.685C329.446 279.525 330.626 277.123 330.358 274.331C327.755 274.814 325.661 276.076 324.104 278.089C324.896 279.713 326.091 280.853 327.567 281.685ZM268.854 590.064C275.081 594.922 294.862 591.11 299.734 587.312C302.659 585.018 305.424 581.837 307.92 578.12C300.056 576.576 292.031 575.409 285.213 575.409C276.866 575.409 270.344 577.154 268.116 582.105C266.452 585.783 266.707 588.386 268.854 590.064ZM777.231 134.991C791.214 128.671 804.768 121.169 817.974 113.855C837.876 102.864 858.448 91.4837 880.323 84.1833C907.686 75.0711 943.853 63.9862 981.161 59.1147H984.194C986.301 58.6047 988.394 58.0814 990.488 57.5714C984.583 47.7748 972.411 48.419 960.602 49.0765C957.287 49.2644 953.824 49.4389 950.657 49.3718C950.295 49.3584 949.959 49.2108 949.731 48.9289C949.503 48.6605 949.396 48.2982 949.449 47.9493C950 44.2319 952.724 41.8834 955.354 39.6154C957.944 37.4011 960.4 35.2808 961.179 31.9124C956.723 33.6033 952.348 35.6297 948.148 37.9379C945.477 39.4007 944.162 40.2596 942.149 41.5882C940.525 42.6618 938.459 44.0172 934.916 46.2047C933.171 47.2783 931.601 48.2579 930.138 49.1705C924.166 52.9415 920.194 55.4242 915.228 56.8199C906.063 59.4234 902.104 61.1143 897.071 63.2749C889.341 66.6165 879.706 70.7498 846.25 80.2512C837.916 82.6265 829.716 85.4447 821.785 88.1824C802.715 94.7582 784.451 101.052 764.777 101.294C764.052 109.722 764.146 125.678 773.902 133.153C774.896 133.918 775.996 134.522 777.231 134.991ZM819.182 116.042C806.808 122.86 794.153 129.865 781.096 135.944C791.483 137.528 807.036 133.005 819.557 128.308C839.003 121.021 848.048 114.58 857.603 107.762C866.098 101.723 874.888 95.4829 891.421 88.008C910.76 79.2715 928.568 74.2927 960.897 65.2879C962.319 64.8853 963.755 64.4961 965.178 64.1069C934.016 69.6226 904.358 78.8018 881.101 86.5452C859.455 93.7651 838.963 105.092 819.182 116.042ZM758.201 128.107C757.825 133.341 757.423 138.615 756.658 143.513C757.208 143.285 757.772 143.07 758.322 142.829C761.006 141.728 763.65 140.668 766.28 139.621C768.937 138.575 771.581 137.461 774.211 136.32C773.567 135.971 772.963 135.568 772.399 135.139C762.549 127.624 761.529 113.063 762.12 103.334C759.53 110.017 758.872 119.183 758.201 128.107ZM654.035 194.348C642.735 200.414 637.206 215.552 633.945 231.602C648.077 219.9 658.37 206.386 654.035 194.348ZM640.709 170.957C649.902 178.392 659.403 179.559 667.536 174.205C673.695 170.138 678.137 162.878 679.734 155.43C664.529 153.229 650.653 155.108 640.709 170.957ZM604.596 35.9249C611.534 23.5249 628.255 12.4668 644.319 9.64861C655.941 7.60877 665.939 9.8499 673.226 16.1439C679.453 21.5253 682.901 30.1544 684.512 39.9644C684.727 28.1145 681.707 16.9893 673.736 10.0512C666.677 3.87799 658.061 3.13989 652.371 2.67019C651.056 2.54941 649.754 2.50916 648.452 2.50916C635.22 2.50916 622.525 8.22605 610.568 19.5123C604.462 25.2829 596.839 32.476 598.449 39.4678C598.852 41.1319 599.711 42.6081 600.905 43.883C602.046 40.9574 603.267 38.2869 604.596 35.9249ZM619.559 54.7398C615.721 53.8809 607.723 52.0692 602.059 48.0835C595.269 68.2537 593.591 97.8582 605.2 110.621C611.829 117.894 621.867 118.619 635.086 112.795C641.461 109.977 647.057 106.903 651.968 103.454C653.284 101.294 654.424 99.066 655.592 96.798C657.578 92.9197 659.631 88.8937 662.651 84.9079C664.248 82.801 665.804 81.0564 667.321 79.3655C672.018 74.1183 675.453 70.2667 674.729 60.9264C669.669 60.0944 665.469 64.8048 663.362 67.8109C663.161 68.1061 662.825 68.294 662.476 68.3477C662.114 68.3745 661.765 68.2672 661.497 68.0122C657.578 64.3619 656.048 58.5511 656.961 50.754C651.727 49.9086 646.292 51.3177 640.548 52.8342C633.798 54.5788 626.846 56.4039 619.559 54.7398ZM602.905 45.6544C608.112 49.5999 616.325 51.4519 620.109 52.3108C626.819 53.8272 633.476 52.0826 639.904 50.4051C646.359 48.7142 652.451 47.1172 658.611 48.5263C659.242 48.6605 659.658 49.2778 659.577 49.922C658.598 56.7125 659.484 61.8255 662.221 65.1403C664.623 62.0671 668.582 58.2961 673.507 58.2961C674.366 58.2961 675.279 58.4169 676.218 58.6719C676.715 58.8061 677.064 59.2355 677.117 59.7454C678.245 70.8572 674.044 75.5542 669.186 80.9893C667.71 82.6534 666.18 84.3443 664.65 86.3842C661.765 90.182 659.752 94.1007 657.806 97.8851C657.511 98.4622 657.202 99.0526 656.907 99.6297C666.14 91.9132 672.783 82.3179 678.084 69.5957C680.244 64.429 681.989 58.7524 683.116 52.9684C682.794 38.7432 679.842 25.1084 671.615 18.0092C663.147 10.6819 652.344 10.7356 644.775 12.0776C629.369 14.7885 613.399 25.3097 606.797 37.1059C605.374 39.6289 604.086 42.5007 602.905 45.6544ZM521.741 279.672C556.324 293.629 599.885 278.263 628.067 253.53C628.698 248.417 629.409 242.982 630.322 237.507C619.237 245.961 606.783 253.128 597.188 257.771C580.373 265.903 564.55 269.621 548.5 272.989C545.843 273.553 543.119 273.942 540.462 274.318C533.698 275.311 527.27 276.237 521.741 279.672ZM549.748 78.1309C538.529 77.1512 527.887 76.2386 517.581 81.1235C522.465 80.4391 526.948 80.4257 531.121 81.2845C533.993 81.8616 536.717 82.8412 539.858 83.9685C544.072 85.4984 549.305 87.3907 557.008 89.0279C557.223 89.0816 557.492 89.1218 557.76 89.1755C559.706 89.5378 562.605 90.0747 564.993 92.5574C566.161 93.7652 566.724 95.2682 567.516 97.3349C568.308 99.4821 569.435 102.421 571.77 106.595C580.883 122.913 595.282 132.442 614.553 134.897C624.269 136.132 632.469 133.945 640.387 131.865C646.56 130.241 652.948 128.55 660.007 128.456C675.319 128.335 680.244 137.045 681.855 142.278C682.901 145.714 683.103 149.498 682.606 153.323C686.095 153.94 689.625 154.705 693.208 155.551C713.19 160.248 733.857 152.706 753.987 144.573C754.886 139.474 755.302 133.743 755.732 127.906C756.443 118.283 757.181 108.393 760.308 101.227C755.826 101.079 751.29 100.596 746.633 99.6968C739.212 98.3011 730.878 100.046 722.826 101.723C714.157 103.535 705.192 105.414 697.422 103.253C693.544 102.18 691.034 99.8444 688.605 97.5899C686.095 95.2548 683.72 93.0539 679.909 92.356C679.56 92.2889 679.265 92.0877 679.077 91.8058C678.889 91.524 678.822 91.1751 678.916 90.8262C680.607 83.8344 682.271 74.0378 682.888 63.7446C682.136 66.0797 681.291 68.3611 680.378 70.5485C674.058 85.74 665.858 96.5967 653.834 105.145C651.19 109.44 647.862 113.479 642.48 117.062C633.771 122.86 611.668 134.723 594.625 119.854C580.869 107.856 575.837 90.9738 581.326 76.1044C570.683 79.956 560.055 79.03 549.748 78.1309ZM479.468 380.457C480.796 380.389 482.111 380.363 483.44 380.363C500.483 380.363 517.634 385.261 531 392.4C533.993 393.997 536.395 395.608 538.328 396.909C544.555 401.11 546.433 402.385 553.653 394.534L556.472 391.515C557.317 390.589 558.149 389.703 558.968 388.831C558.914 387.972 558.874 387.193 558.78 386.455C557.317 372.727 548.97 362.836 533.993 357.052C524.519 353.388 514.387 354.18 503.946 359.414C494.431 364.138 486.03 371.881 479.468 380.457ZM472.476 491.239C468.477 495.037 464.37 498.875 460.062 502.592C460.384 504.578 460.908 506.47 462.008 508.255C469.698 506.511 473.509 502.565 473.402 496.499C473.348 494.835 473.039 493.077 472.476 491.239ZM477.549 383.047C472.033 390.763 468.02 398.99 465.981 406.169C464.746 410.517 464.343 415.067 463.941 419.469C463.941 419.495 463.941 419.549 463.941 419.589C469.107 417.67 474.033 414.127 477.951 409.377C478.314 408.934 478.944 408.8 479.481 409.068C479.991 409.336 480.259 409.927 480.112 410.491C479.213 413.913 478.569 417.549 477.951 421.065C476.327 430.178 474.65 439.612 468.611 447.288C465.242 451.569 458.398 456.28 451.178 458.87C460.492 466.935 469.362 477.376 473.496 486.837C473.576 486.756 473.657 486.689 473.751 486.609C486.151 474.786 497.853 463.634 513.809 455.595C527.243 448.818 534.114 439.652 542.81 428.044L545.172 424.904C545.508 424.474 546.071 424.286 546.581 424.474C547.078 424.662 547.427 425.132 547.413 425.682C547.4 426.434 547.534 427.292 547.668 428.138C547.668 428.151 547.682 428.165 547.682 428.191C555.318 423.132 558.753 404.465 559.008 392.427C558.78 392.682 558.538 392.924 558.297 393.192L555.505 396.212C547.172 405.243 543.79 403.579 536.946 398.949C534.973 397.621 532.732 396.091 529.86 394.561C515.219 386.791 496.028 381.745 477.549 383.047ZM438.725 411.108C440.697 417.643 447.34 421.535 456.01 421.213C457.781 421.146 459.579 420.878 461.351 420.395C461.404 420.019 461.431 419.63 461.471 419.254C461.874 414.718 462.303 410.061 463.592 405.498C465.551 398.614 469.268 390.803 474.328 383.342C464.92 384.402 455.768 387.193 447.635 392.186C439.127 397.406 437.034 405.458 438.725 411.108ZM453.003 444.685C448.843 447.49 443.972 448.872 439.02 449.878C442.214 451.797 445.596 454.226 448.964 457.004C456.184 454.709 463.364 449.945 466.638 445.772C472.301 438.552 473.912 429.453 475.482 420.636C475.844 418.583 476.207 416.489 476.649 414.409C472.785 418.059 468.302 420.784 463.672 422.314C462.813 431.023 461.337 439.102 453.003 444.685ZM447.501 261.73C445.77 258.321 444.146 255.087 441.623 253.302C440.348 255.731 440.107 258.294 440.912 261.099C441.744 263.984 443.596 266.91 446.119 269.768C447.662 268.601 448.83 267.46 449.85 266.118C449.018 264.709 448.253 263.206 447.501 261.73ZM444.2 120.229C443.354 124.484 443.207 132.052 444.415 139.165C444.549 139.138 444.67 139.084 444.79 139.031C461.042 132.858 479.468 125.866 496.35 123.195C498.94 122.793 502.188 122.819 505.65 122.846C511.139 122.9 517.393 122.94 520.493 121.021C520.694 120.887 520.922 120.82 521.15 120.82C521.419 120.82 521.66 120.9 521.902 121.075C522.318 121.384 522.479 121.92 522.345 122.417C518.52 135.85 517.084 150.143 515.675 163.965C514.99 170.675 514.293 177.6 513.34 184.337C512.266 191.879 513.273 199.622 514.266 207.124C515.997 220.423 517.634 232.971 508.509 244.096C505.69 247.545 500.685 250.35 495.853 253.074C489.613 256.577 483.172 260.2 482.621 264.642C482.313 267.111 483.762 269.849 487.077 273.003C492.324 277.981 500.752 281.685 508.911 285.255C514.024 287.496 518.855 289.603 522.895 291.992C538.381 301.211 547.078 310.364 558.109 321.972C559.692 323.609 561.303 325.314 562.994 327.072C570.294 334.694 576.427 339.754 582.56 339.807C582.587 339.807 582.627 339.807 582.641 339.807C587.526 339.807 592.665 336.801 599.322 330.064C615.869 313.33 621.747 294.756 625.866 270.198C626.497 266.427 627.047 261.945 627.624 257.167C598.181 281.846 553.653 296.541 518.654 281.068C518.251 280.88 517.97 280.504 517.929 280.075C517.876 279.646 518.064 279.189 518.413 278.934C524.841 274.076 532.611 272.936 540.126 271.862C542.73 271.486 545.427 271.097 547.99 270.547C563.893 267.205 579.554 263.542 596.101 255.53C606.179 250.645 619.505 242.969 630.939 234.018C634.321 215.753 640.387 197.891 654.142 191.503C654.451 191.369 654.787 191.355 655.109 191.476C655.417 191.597 655.672 191.825 655.806 192.12C662.114 206.252 649.687 222.087 633.247 235.239C632.281 240.553 631.557 245.881 630.912 250.98C634.428 247.679 637.689 244.244 640.602 240.687C643.527 237.158 646.976 233.977 650.318 230.931C655.27 226.395 660.356 221.711 663.617 215.874C666.274 211.096 667.75 205.943 669.159 200.964C670.931 194.751 672.783 188.336 676.889 182.418C684.619 171.36 696.684 163.066 708.346 160.758C709.138 160.61 709.943 160.489 710.734 160.409C715.619 159.979 720.598 161.013 725.429 161.992C731.052 163.133 736.407 164.234 741.305 163.093C748.284 161.469 751.598 155.511 753.397 147.539C739.762 153.001 725.161 158.315 710.667 159.322C704.602 159.738 698.563 159.402 692.617 158.007C689.101 157.175 685.599 156.41 682.163 155.833C680.459 163.965 675.601 171.883 668.904 176.298C663.483 179.868 652.277 184.082 638.28 172.192C637.81 171.789 637.703 171.118 638.012 170.595C648.788 152.598 663.778 150.545 680.177 152.961C680.607 149.525 680.405 146.117 679.466 143.03C677.064 135.126 670.085 130.845 660.02 130.965C653.297 131.046 647.338 132.629 641.031 134.28C632.858 136.441 624.43 138.682 614.231 137.367C594.128 134.817 579.098 124.873 569.596 107.816C567.167 103.481 566.027 100.448 565.181 98.234C564.457 96.2881 564 95.134 563.208 94.2885C561.37 92.3829 559.021 91.9535 557.317 91.6314C557.022 91.5643 556.74 91.5106 556.485 91.4703C548.634 89.7794 543.307 87.8469 539.026 86.3036C535.966 85.2032 533.336 84.2504 530.638 83.7001C524.478 82.4521 517.513 83.2573 509.341 85.2837C507.65 86.1694 505.972 87.0283 504.322 87.8872C491.224 94.7045 478.85 101.146 463.27 105.387C461.565 105.857 459.982 106.232 458.559 106.595C449.138 108.957 446.293 109.668 444.2 120.229ZM431.357 448.751C430.646 448.469 429.948 448.254 429.304 448.067C429.357 448.415 429.398 448.764 429.465 449.1C430.095 448.993 430.726 448.872 431.357 448.751ZM430.136 451.515C431.344 454.736 433.544 456.843 436.671 457.796C439.409 458.641 442.67 458.548 445.998 457.809C442.294 454.857 438.617 452.361 435.276 450.589C434.792 450.683 434.296 450.777 433.813 450.858C432.592 451.059 431.37 451.287 430.136 451.515ZM381.81 367.171C375.946 363.024 369.773 358.206 363.277 352.717C357.735 348.02 351.159 341.914 345.966 334.574C341.121 336.13 336.437 338.143 331.888 341.163C329.419 342.827 326.788 345.283 324.037 347.873C317.247 354.247 309.557 361.454 300.566 359.897C300.136 359.817 299.787 359.548 299.613 359.146C298.834 357.253 298.902 354.368 298.982 351.295C299.063 348.007 299.183 343.914 297.841 342.746C295.547 340.774 290.434 342.049 285.508 343.283C280.879 344.451 276.074 345.645 272.41 344.598C272.048 344.478 271.753 344.223 271.592 343.847C271.498 343.592 271.498 343.337 271.538 343.082C271.565 342.961 271.619 342.867 271.672 342.76C276.759 334.023 284.717 334.292 292.42 334.547C296.781 334.681 300.901 334.815 304.511 333.406C307.182 332.346 308.202 331.312 309.597 329.877C310.523 328.91 311.583 327.837 313.301 326.589C315.126 325.274 317.005 323.932 318.897 322.549C324.99 318.201 331.284 313.679 336.223 309.612C336.92 309.049 337.699 308.445 338.544 307.787C343.644 303.855 350.636 298.447 348.408 292.784C346.65 288.301 341.591 287.469 336.209 286.611C333.525 286.181 330.653 285.711 328.13 284.705C326.037 286.745 323.581 288.503 321.42 290.046L321.273 290.14C317.851 292.582 314.429 294.891 311.141 297.118C296.795 306.808 283.254 315.96 274.169 333.164C272.357 336.6 271.485 339.821 271.028 343.015C270.612 345.659 270.518 348.275 270.411 350.946C270.25 355.2 270.062 359.589 268.653 364.245C267.606 367.694 266.788 368.432 265.593 369.211C264.868 369.694 264.05 370.217 262.6 372.941C258.87 379.96 260.332 387.73 264.01 390.575C267.15 393.004 271.498 391.904 276.262 387.502C276.49 387.287 276.799 387.167 277.107 387.167C277.269 387.167 277.443 387.193 277.591 387.26C278.06 387.462 278.342 387.891 278.356 388.388C278.543 397.567 295.05 402.72 303.867 403.445C318.106 404.613 327.419 397.581 337.296 390.146C343.335 385.596 349.602 380.873 357.238 377.934C367.008 374.136 374.832 370.915 381.81 367.171ZM360.687 287.349C367.706 284.208 391.137 272.761 386.95 261.22C384.132 253.436 377.798 254.765 368.484 257.65C364.982 258.751 361.694 259.757 358.862 259.744C356.594 259.717 353.253 258.643 349.401 257.422C342.208 255.154 333.284 252.309 328.117 255.127C326.211 256.174 324.95 257.932 324.265 260.495C323.514 263.287 324.842 264.347 327.459 266.145C329.271 267.393 331.324 268.802 332.21 271.312C332.237 271.433 332.291 271.526 332.331 271.647C332.546 271.647 332.774 271.634 333.015 271.634C333.391 271.634 333.78 271.647 334.156 271.661C344.315 272.238 356.312 280.343 360.687 287.349ZM429.263 257.945C411.737 266.682 394.479 276.411 377.986 286.892C364.968 295.172 352.139 304.11 339.833 313.437C340.651 320.08 343.389 326.186 346.999 331.648C350.636 330.548 354.299 329.675 357.909 328.83C363.358 327.542 368.981 326.186 374.416 324.133C392.681 317.195 407.281 298.353 419.024 283.215L419.172 283.001C419.507 282.585 420.071 282.423 420.581 282.598C421.064 282.786 421.399 283.229 421.399 283.739C425.224 280.545 428.874 278.787 432.914 276.921C430.471 269.836 429.532 263.246 429.263 257.945ZM384.239 365.842C393.271 360.716 401.122 354.449 410.422 344.572C423.466 330.749 436.564 323.435 452.909 320.912C456.466 320.362 460.465 320.483 464.719 320.59C469.98 320.738 475.388 320.885 479.656 319.664C469.577 316.859 451.433 309.411 439.503 290.583C437.101 286.785 435.235 282.96 433.786 279.256C428.941 281.511 424.674 283.618 420.057 288.409C419.628 288.838 418.93 288.905 418.434 288.543C418.353 288.489 418.272 288.409 418.205 288.328C406.772 302.983 392.774 319.825 375.328 326.454C369.732 328.575 364.029 329.944 358.513 331.259C355.105 332.051 351.776 332.856 348.515 333.795C353.467 340.613 359.667 346.356 364.915 350.812C371.705 356.569 378.16 361.588 384.239 365.842ZM389.903 493.882C390.735 492.889 391.58 491.856 392.439 490.796C402.571 478.329 416.461 461.258 435.37 466.895C444.361 469.579 454.426 480.436 457.835 488.514C459.163 491.655 459.391 494.902 459.606 498.056C459.633 498.566 459.673 499.089 459.727 499.599C463.807 496.016 467.739 492.326 471.577 488.689C467.698 479.067 458.13 467.982 448.4 459.769C444.012 460.977 439.637 461.299 435.947 460.185C432.954 459.272 429.438 457.098 427.68 452.012C425.56 452.482 423.479 453.005 421.52 453.716C404.973 459.755 394.72 471.364 383.89 483.643C379.918 488.139 375.825 492.795 371.343 497.224L369.196 499.344C360.982 507.531 353.212 515.287 342.02 519.541C340.477 520.119 338.611 520.467 336.625 520.816C333.19 521.447 329.298 522.158 328.077 524.238C325.862 527.956 325.272 530.613 326.372 531.713C329.902 535.27 348.636 528.197 351.857 526.292C366.002 517.945 379.516 506.444 389.903 493.882ZM386.534 367.412C397.753 375.022 407.698 379.974 416.246 382.201C421.708 372.485 434.444 365.346 454.117 360.998C454.453 360.917 454.802 360.984 455.084 361.159C455.365 361.36 455.553 361.642 455.62 361.977C456.251 365.413 455.875 369.117 454.506 373.035C473.442 352.637 496.618 331.205 527.565 338.103C522.922 333.567 518.936 328.736 515.071 324.052C506.938 314.202 499.249 304.915 486.486 299.105C480.93 296.582 458.023 285.711 445.783 273.029C444.079 274.13 441.999 275.284 439.382 276.599C438.241 277.176 437.141 277.7 436.067 278.21C437.463 281.806 439.275 285.537 441.623 289.227C454.668 309.827 475.495 316.309 483.816 318.134C484.312 318.255 484.701 318.644 484.782 319.167C484.863 319.664 484.634 320.161 484.205 320.429C479.078 323.502 471.751 323.287 464.652 323.086C460.532 322.965 456.64 322.858 453.312 323.368C437.557 325.81 424.889 332.883 412.26 346.276C403.081 356.005 395.311 362.286 386.534 367.412ZM399.578 117.451C396.371 118.458 386.574 121.531 362.392 131.153C348.408 136.696 341.846 139.608 332.747 143.607C324.99 147.016 315.328 151.256 297.68 158.678L290.259 161.778C277.295 167.213 271.927 169.454 263.365 174.057C253.918 179.143 244.738 184.86 236.029 191.087C240.229 189.96 246.188 187.933 252.012 185.947C266.304 181.089 276.718 177.707 282.368 177.707C284.69 177.707 286.22 178.271 286.904 179.532C290.192 185.692 284.797 189.329 280.046 192.536C276.316 195.059 272.759 197.448 272.827 200.79C284.891 199.81 295.842 189.987 305.518 181.29C307.356 179.626 309.141 178.043 310.859 176.553C329.07 160.946 344.664 160.006 368.565 159.765C371.517 159.738 374.51 159.818 377.409 159.885C386.561 160.14 395.19 160.369 403.752 157.55C409.308 155.725 414.636 152.813 419.802 150.008C424.553 147.432 429.424 144.761 434.591 142.869C437.047 141.956 439.557 141.004 442.093 140.051C440.684 132.468 440.818 124.416 441.744 119.746C444.146 107.628 448.172 106.621 457.915 104.179C459.338 103.83 460.881 103.454 462.599 102.985C475.482 99.4821 486.205 94.4227 496.994 88.8802C492.915 90.1954 488.566 91.6716 483.923 93.2686C471.228 97.5899 455.419 102.958 436.551 107.789C432.323 108.863 428.7 109.708 425.224 110.54C417.414 112.379 410.65 113.989 399.578 117.451ZM376.657 284.812C393.768 273.929 411.683 263.85 429.894 254.859C430.27 254.658 430.726 254.671 431.089 254.912C431.451 255.127 431.666 255.53 431.692 255.946C431.813 261.26 432.605 268.279 435.195 275.861C436.175 275.391 437.181 274.908 438.228 274.385C440.617 273.191 442.509 272.157 444.066 271.177C441.395 268.104 439.436 264.951 438.523 261.797C437.409 257.892 437.96 254.228 440.16 250.913C440.509 250.377 441.207 250.202 441.757 250.497C445.596 252.443 447.703 256.59 449.729 260.629C450.279 261.703 450.829 262.803 451.42 263.85C452.212 262.535 453.017 261.045 453.997 259.247C454.506 258.321 455.057 257.328 455.661 256.214C456.385 254.899 456.989 253.785 457.499 252.846C460.599 247.022 460.8 246.847 468.195 243.948C469.04 243.613 469.966 243.251 471.04 242.821C471.442 242.66 475.791 240.298 478.743 237.05C483.346 232.005 484.138 225.187 483.99 220.329C483.977 219.953 484.151 219.564 484.46 219.336C484.755 219.081 485.171 218.987 485.534 219.081C487.708 219.631 495.182 221.094 500.322 216.625C502.577 214.666 503.986 211.888 504.738 207.889C505.865 201.917 503.892 196.2 501.785 190.148C500.376 186.135 498.927 181.961 498.497 177.734C497.813 171.145 498.135 164.301 498.43 157.698C498.712 151.552 499.007 145.244 498.484 139.205C493.854 140.561 488.003 144.157 481.856 147.955C471.644 154.236 461.082 160.744 453.581 158.45C447.81 156.691 444.401 150.062 442.643 142.547C440.214 143.459 437.825 144.359 435.49 145.217C430.512 147.056 425.68 149.686 421.037 152.223C415.776 155.081 410.328 158.034 404.571 159.939C395.593 162.878 386.333 162.65 377.382 162.395C374.51 162.328 371.544 162.247 368.618 162.274C344.583 162.502 330.103 163.388 312.509 178.459C310.819 179.922 309.034 181.519 307.209 183.142C296.915 192.402 285.24 202.883 271.833 203.366C271.256 203.393 270.706 202.99 270.572 202.4C269.284 196.844 274.276 193.462 278.691 190.496C283.818 187.021 286.877 184.699 284.757 180.74C283.267 177.962 261.943 185.222 252.844 188.322C242.9 191.731 234.311 194.63 230.983 194.469C230.446 194.442 230.003 194.093 229.856 193.583C229.708 193.073 229.883 192.536 230.299 192.228C240.377 184.712 251.113 177.868 262.211 171.896C270.894 167.226 276.289 164.972 289.333 159.51L296.754 156.41C314.388 148.988 324.024 144.761 331.767 141.352C340.893 137.34 347.482 134.428 361.519 128.858C385.796 119.209 395.633 116.123 398.867 115.116C410.019 111.614 417.159 109.923 424.701 108.138C428.15 107.319 431.773 106.46 435.973 105.387C454.761 100.609 469.859 95.456 483.172 90.9335C492.74 87.659 501.074 84.8274 508.482 82.962C510.924 81.7005 513.407 80.4391 515.97 79.1776C527.082 73.7023 538.73 74.7088 550.003 75.6884C560.914 76.6412 572.16 77.6075 583.137 72.8031C583.62 72.5884 584.17 72.7092 584.519 73.0715C584.882 73.4473 584.989 73.9975 584.774 74.4672C577.903 89.1621 582.319 105.87 596.289 118.055C612.044 131.797 632.899 120.551 641.125 115.063C643.943 113.184 646.171 111.157 648.036 109.024C644.386 111.184 640.427 113.184 636.133 115.103C618.324 122.967 608.488 117.948 603.401 112.325C590.813 98.5024 592.625 67.4485 600.02 46.4328C598.114 44.6748 596.678 42.5679 596.087 40.0449C594.142 31.6574 602.341 23.9275 608.917 17.714C622.592 4.80396 637.287 -1.10082 652.572 0.200916C658.665 0.710876 667.764 1.48922 675.426 8.19922C686.847 18.1703 688.806 35.9518 685.706 52.8073C686.015 66.2273 684.002 80.1438 681.653 90.2625C685.451 91.2959 687.934 93.6041 690.336 95.8184C692.644 97.9656 694.818 99.9786 698.133 100.918C705.299 102.904 713.593 101.186 722.356 99.3344C730.636 97.6033 739.212 95.805 747.13 97.308C752.041 98.234 756.859 98.7171 761.569 98.8245C762.012 98.0595 762.522 97.3349 763.046 96.6504C763.395 96.2076 763.998 96.0465 764.508 96.2747C765.045 96.4894 765.34 97.0396 765.26 97.5899C765.206 97.9522 765.166 98.3816 765.099 98.8513C784.29 98.5561 802.272 92.3561 821.033 85.8876C829.005 83.1499 837.231 80.3049 845.632 77.9161C878.914 68.4416 888.482 64.3351 896.145 61.0472C901.057 58.9402 905.298 57.1151 914.611 54.4714C919.241 53.1562 922.864 50.8882 928.89 47.1038C930.339 46.1912 931.923 45.1982 933.694 44.1112C937.21 41.9505 939.237 40.6085 940.861 39.5349C942.901 38.1929 944.269 37.2938 947.02 35.7773C951.932 33.0933 957.086 30.7583 962.333 28.8929C962.708 28.7453 963.165 28.8124 963.5 29.0539C963.836 29.2821 964.01 29.6847 963.997 30.1007C963.795 35.7505 960.212 38.8371 957.059 41.5345C955.005 43.2925 953.18 44.8761 952.362 46.9294C954.965 46.9159 957.689 46.7683 960.548 46.6073C973.069 45.9228 987.24 45.1579 993.548 57.88C993.736 58.2155 993.735 58.6048 993.561 58.9537C993.534 59.0208 993.494 59.0878 993.467 59.1415H1273.49C1274.19 59.1415 1274.74 59.6918 1274.74 60.3896C1274.74 61.074 1274.19 61.6377 1273.49 61.6377H984.543C976.893 63.5433 969.204 65.5697 961.595 67.7035C929.36 76.6949 911.605 81.6469 892.455 90.3028C876.136 97.6703 867.453 103.87 859.052 109.842C849.336 116.754 840.184 123.289 820.416 130.697C800.675 138.105 786.235 140.44 777.351 137.702C773.983 139.192 770.601 140.641 767.179 141.997C764.576 143.03 761.932 144.104 759.261 145.191C758.228 145.607 757.181 146.036 756.134 146.452C754.242 155.967 750.511 163.522 741.855 165.549C736.407 166.824 730.569 165.616 724.906 164.475C719.525 163.375 713.955 162.234 708.815 163.24C697.744 165.428 686.31 173.332 678.929 183.894C675.024 189.477 673.333 195.395 671.548 201.689C670.072 206.802 668.555 212.103 665.777 217.122C662.342 223.308 657.081 228.126 651.982 232.796C648.707 235.802 645.325 238.916 642.521 242.311C638.938 246.659 634.871 250.86 630.416 254.805C630.335 255.557 630.228 256.281 630.147 257.019C629.53 262.012 628.966 266.736 628.309 270.681C624.108 295.709 618.083 314.672 601.08 331.876C593.927 339.136 588.21 342.371 582.614 342.371C582.587 342.371 582.547 342.371 582.52 342.371C575.488 342.317 569.14 337.177 561.155 328.87C559.478 327.112 557.854 325.394 556.297 323.757C545.414 312.296 536.798 303.238 521.607 294.206C517.701 291.898 512.964 289.804 507.905 287.604C499.557 283.953 490.928 280.169 485.359 274.881C481.44 271.151 479.736 267.715 480.152 264.4C480.863 258.684 487.56 254.939 494.632 250.954C499.262 248.35 504.04 245.653 506.59 242.566C515.044 232.273 513.461 220.235 511.796 207.486C511.528 205.513 511.26 203.5 511.045 201.487C510.401 195.73 510.052 189.852 510.884 184.028C511.837 177.331 512.521 170.434 513.206 163.764C514.534 150.679 515.89 137.192 519.271 124.309C515.554 125.477 510.535 125.423 505.637 125.383C502.282 125.369 499.128 125.329 496.739 125.718C480.125 128.335 461.807 135.287 445.676 141.406C445.421 141.5 445.166 141.607 444.911 141.701C446.428 148.572 449.34 154.585 454.292 156.088C460.72 158.034 470.798 151.833 480.514 145.848C487.493 141.567 494.055 137.514 499.302 136.454C499.651 136.374 500 136.454 500.282 136.655C500.564 136.87 500.765 137.192 500.792 137.541C501.517 144.197 501.208 151.136 500.886 157.832C500.591 164.354 500.269 171.091 500.94 177.519C501.356 181.451 502.751 185.477 504.093 189.356C505.476 193.328 506.885 197.354 507.368 201.528C507.623 203.782 507.596 206.077 507.167 208.399C506.308 212.962 504.63 216.196 501.919 218.544C496.82 223 489.962 222.517 486.46 221.886C486.392 227.026 485.211 233.655 480.555 238.768C477.414 242.217 472.838 244.834 471.939 245.196C470.879 245.612 469.926 245.988 469.081 246.324C462.411 248.941 462.411 248.941 459.673 254.054C459.163 255.02 458.559 256.147 457.808 257.476C457.204 258.576 456.667 259.569 456.171 260.495C454.922 262.79 453.929 264.629 452.856 266.239C453.218 266.749 453.607 267.232 453.983 267.661C462.545 277.176 476.099 282.933 488.043 288.02L489.291 288.556C493.008 290.153 497.142 291.348 501.128 292.502C506.871 294.179 512.816 295.911 517.916 298.863C524.774 302.835 530.236 309.17 535.523 315.302C537.201 317.262 538.797 319.087 540.408 320.845L541.133 321.637C552.875 334.359 562.994 345.323 579.782 348.114C580.413 348.208 580.856 348.772 580.815 349.43C579.541 368.687 572.388 377.92 561.424 389.851C561.571 401.66 558.458 426.782 547.091 431.359C546.729 431.506 546.313 431.479 545.964 431.265C545.628 431.05 545.414 430.688 545.387 430.285C545.373 429.882 545.306 429.453 545.239 429.01L544.769 429.627C535.872 441.491 528.853 450.898 514.91 457.917C499.276 465.781 487.708 476.826 475.428 488.501C475.106 488.81 474.784 489.132 474.449 489.454C475.307 491.923 475.804 494.312 475.858 496.54C475.952 501.8 473.59 508.591 461.646 510.953C461.163 511.047 460.666 510.859 460.384 510.456C459.042 508.564 458.291 506.578 457.848 504.551C457.029 505.236 456.184 505.934 455.352 506.591C439.597 519.313 425.64 527.513 413.871 531.016C408.744 532.532 403.51 532.787 398.465 533.055C394.398 533.257 390.211 533.471 386.185 534.33C379.824 535.726 372.161 539.712 364.042 543.912C359.654 546.18 355.212 548.488 350.877 550.434C351.521 550.555 352.152 550.649 352.756 550.716C353.36 550.783 353.83 551.28 353.856 551.897C354.111 557.641 350.072 560.499 345.845 562.244C354.903 563.559 368.887 565.867 371.034 574.228C371.799 577.288 371.37 579.838 369.719 581.851C365.156 587.393 352.353 586.682 346.194 586.346L345.348 586.293C341.872 586.105 335.672 584.602 327.781 582.696C322.682 581.461 316.723 580.025 310.564 578.75C307.786 583.031 304.618 586.735 301.25 589.379C295.667 593.741 274.571 597.807 267.324 592.13C265.164 590.439 263.164 587.165 265.835 581.193C270.652 570.457 290.366 572.148 309.356 575.946C315.851 565.21 319.85 551.078 318.186 541.537C316.348 531.083 312.12 522.4 305.598 515.744C291.816 501.653 268.425 497.063 248.738 504.605C235.653 509.624 219.173 522.172 215.845 541.013C211.779 564.029 229.628 594.546 265.566 603.779C266.17 603.926 266.559 604.53 266.479 605.134C266.412 605.765 265.875 606.235 265.244 606.235H1.86329C1.17887 606.235 0.615234 605.671 0.615234 604.987C0.615234 604.289 1.17887 603.739 1.86329 603.739H257.152C228.111 592.909 208.92 565.988 213.403 540.571C216.919 520.696 234.15 507.517 247.852 502.27C268.774 494.258 292.688 498.969 307.396 514.012C314.254 521.031 318.723 530.143 320.629 541.107C322.387 551.105 318.508 565.357 311.959 576.496C317.716 577.704 323.326 579.073 328.372 580.294C335.807 582.092 342.235 583.649 345.469 583.81L346.314 583.864C351.615 584.159 364.029 584.843 367.773 580.267C368.9 578.911 369.169 577.127 368.592 574.859C366.78 567.76 352.206 565.679 344.369 564.566C342.785 564.351 341.403 564.15 340.356 563.948C339.792 563.854 339.363 563.371 339.323 562.807C339.309 562.23 339.672 561.707 340.222 561.546C346.261 559.721 350.985 557.896 351.347 553.065C349.938 552.836 348.448 552.501 346.865 552.152C340.477 554.662 334.411 556.071 329.258 555.078C328.855 554.997 328.506 554.729 328.345 554.366C328.184 554.004 328.211 553.575 328.412 553.226C332.384 546.623 340.181 548.113 346.677 549.562C351.924 547.442 357.453 544.57 362.915 541.738C371.182 537.457 379.006 533.404 385.675 531.942C389.903 531.016 394.21 530.801 398.357 530.6C403.269 530.345 408.328 530.09 413.186 528.654C424.66 525.245 438.322 517.193 453.822 504.699C455.03 503.719 456.224 502.726 457.405 501.706C457.284 500.579 457.204 499.465 457.123 498.351C456.909 495.265 456.707 492.339 455.54 489.601C452.373 482.046 442.751 471.807 434.658 469.404C417.346 464.238 404.611 479.912 394.371 492.473C393.513 493.547 392.667 494.58 391.835 495.573C381.26 508.363 367.518 520.078 353.145 528.56C351.508 529.526 330.036 539.041 324.628 533.606C322.548 531.526 322.99 528.117 325.956 523.111C327.768 520.051 332.049 519.26 336.196 518.508C338.075 518.159 339.833 517.851 341.161 517.341C351.857 513.261 359.439 505.705 367.478 497.707L369.598 495.587C374.027 491.198 378.093 486.595 382.052 482.126C393.11 469.592 403.551 457.756 420.702 451.502C422.741 450.777 424.889 450.214 427.063 449.731C426.861 448.805 426.727 447.785 426.647 446.711C426.62 446.335 426.767 445.96 427.049 445.705C427.331 445.45 427.707 445.342 428.082 445.383C430.27 445.731 432.86 446.671 435.692 448.12C441.368 447.087 447.058 445.825 451.661 442.739C458.787 437.961 460.304 431.117 461.136 423.146C459.458 423.548 457.781 423.763 456.117 423.83C444.307 424.179 438.188 417.952 436.376 411.967C433.987 404.062 438 395.339 446.347 390.199C455.446 384.603 465.726 381.678 476.247 380.792C483.225 371.264 492.378 362.527 502.845 357.307C513.783 351.845 524.881 351 534.906 354.865C550.822 360.984 559.692 371.586 561.289 386.321C561.289 386.348 561.289 386.388 561.289 386.415C570.75 375.934 576.951 367.144 578.293 350.436C561.33 347.202 550.647 335.634 539.361 323.395L538.636 322.603C536.999 320.805 535.322 318.872 533.685 316.993C528.545 311.021 523.203 304.848 516.722 301.091C511.89 298.286 506.079 296.608 500.483 294.971C496.417 293.79 492.23 292.569 488.365 290.918L487.13 290.382C474.932 285.201 461.123 279.323 452.185 269.393C451.903 269.071 451.621 268.749 451.353 268.4C450.373 269.581 449.259 270.641 447.85 271.714C460.237 284.316 484.178 295.454 487.52 296.971C500.819 303.01 508.67 312.538 517.003 322.603C521.808 328.427 526.787 334.439 532.946 339.807C533.376 340.21 533.497 340.854 533.215 341.364C532.933 341.874 532.316 342.116 531.752 341.941C496.39 330.883 470.865 358.891 450.36 381.396C449.917 381.879 449.179 381.946 448.669 381.544C448.172 381.141 448.038 380.43 448.387 379.88C452.171 373.988 453.835 368.607 453.366 363.843C434.886 368.137 422.674 375.196 418.017 384.322C417.749 384.831 417.185 385.1 416.622 384.966C407.322 382.725 396.465 377.343 384.145 368.875C376.764 372.915 368.551 376.31 358.178 380.336C350.877 383.154 344.744 387.77 338.84 392.226C329.029 399.607 318.884 407.27 303.706 406.008C295.372 405.324 278.758 400.761 276.235 390.924C269.149 396.467 264.345 394.024 262.533 392.629C257.394 388.656 256.454 379.343 260.426 371.841C262.037 368.808 263.11 367.936 264.251 367.211C264.962 366.741 265.446 366.433 266.304 363.614C267.62 359.266 267.781 355.214 267.942 350.933C268.17 345.001 268.411 338.881 271.994 332.091C281.362 314.35 295.157 305.009 309.758 295.159C313.046 292.931 316.428 290.623 319.837 288.207L319.971 288.127C321.944 286.718 324.024 285.242 325.782 283.631C323.957 282.491 322.44 280.88 321.514 278.518C321.367 278.143 321.42 277.7 321.648 277.351C323.594 274.506 326.359 272.721 329.781 272.036C329.123 270.426 327.62 269.393 326.05 268.319C323.648 266.655 320.615 264.588 321.863 259.985C322.722 256.764 324.413 254.443 326.923 253.074C333.015 249.732 342.517 252.738 350.153 255.167C353.669 256.295 357.01 257.341 358.902 257.382C361.237 257.368 364.445 256.429 367.773 255.409C375.637 252.953 385.447 249.92 389.299 260.495C392.466 269.258 383.474 277.418 374.362 283.108C369.021 286.449 363.64 288.946 360.66 290.234C360.056 290.489 359.372 290.234 359.063 289.67C355.655 283.162 343.724 274.841 333.995 274.278C333.619 274.264 333.23 274.264 332.854 274.251C333.19 277.565 331.901 280.397 329.929 282.853C331.955 283.51 334.263 283.9 336.625 284.275C342.449 285.228 348.475 286.181 350.756 291.992C353.655 299.4 345.496 305.707 340.088 309.894C339.269 310.525 338.504 311.129 337.846 311.666C332.814 315.799 326.493 320.308 320.387 324.696C318.495 326.052 316.603 327.407 314.791 328.736C313.248 329.85 312.322 330.816 311.409 331.742C309.987 333.205 308.631 334.6 305.464 335.848C301.384 337.459 296.821 337.325 292.379 337.177C285.629 336.962 279.214 336.748 274.866 342.626C277.738 342.813 281.388 341.901 284.945 341.015C290.742 339.552 296.231 338.17 299.505 341.002C301.747 342.921 301.626 347.296 301.518 351.51C301.451 353.818 301.398 356.193 301.773 357.683C309.248 358.528 316.213 351.993 322.373 346.209C325.218 343.538 327.902 341.015 330.559 339.257C335.068 336.238 339.792 334.171 344.57 332.587C340.839 326.817 338.048 320.308 337.31 313.182C337.283 312.753 337.457 312.323 337.806 312.068C337.873 312.015 337.954 311.948 338.021 311.907C350.22 302.607 362.955 293.723 375.892 285.497C376.12 285.134 376.389 284.973 376.657 284.812Z"/>
</svg>
