<svg viewBox="0 0 695 579" fill="none" xmlns="http://www.w3.org/2000/svg">
<path class="question-four-svg" fill="transparent" style="stroke-dasharray: 14353; stroke-dashoffset: 14353;" d="M1.49121 557.167L337.086 553.712C346.709 553.614 332.939 540.26 332.447 541.818C331.096 546.093 329.022 553.434 345.478 562.282C362.005 571.17 402.469 586.289 400.15 571.15C397.838 556.043 377.547 536.421 374.017 536.886C370.491 537.347 362.114 541.939 351.172 538.955C340.257 535.984 336.84 534.594 335.325 529.572C333.81 524.562 338.309 399.477 336.177 395.756C334.044 392.039 327.132 392.437 330.249 387.052C333.365 381.668 334.896 385.971 333.365 381.668C331.838 377.369 257.587 301.386 251.061 285.728C244.555 270.116 244.716 255.848 244.716 255.848C244.716 255.848 217.31 267.871 228.99 279.363C240.709 290.902 284.907 296.548 295.158 271.585C305.404 246.637 316.6 213.369 315.183 171.158C313.773 129.162 310.782 109.123 308.161 93.2581C305.549 77.4282 307.033 69.8061 304.709 71.575C302.386 73.3399 284.786 90.3686 290.143 95.0465C295.513 99.7322 301.066 100.904 301.066 100.904C301.066 100.904 286.836 105.609 287.757 109.717C288.679 113.824 308.431 135.051 309.368 162.829C310.309 190.701 275.128 196.32 279.748 205.251C284.376 214.204 300.039 216.754 291.237 223.79C282.443 230.823 233.731 252.116 237.124 240.308C240.514 228.503 261.664 196.785 263.483 171.408C265.299 146.097 260.922 122.013 263.034 124.363C265.147 126.714 219.11 126.628 208.879 132.446C198.663 138.253 166.864 178.366 160.588 173.068C154.325 167.78 147.342 156.101 147.342 156.101C147.342 156.101 133.737 165.91 132.519 168.226C131.3 170.545 138.864 181.072 143.765 181.111C148.67 181.146 153.071 170.686 147.393 174.727C141.719 178.765 140.379 202.67 134.389 202.611C128.406 202.548 129.277 196.726 129.277 196.726C129.277 196.726 130.664 210.745 123.99 203.669C117.332 196.613 114.383 191.346 118.773 180.916C123.162 170.486 182.383 114.359 187.502 110.876C192.622 107.389 252.42 81.1065 257.266 84.0077C263.272 85.2494 263.405 100.267 261.632 102.864C258.481 107.479 251.307 84.6091 274.625 81.6219C295.981 78.6309 308.845 77.1744 306.178 67.7132C303.518 58.2714 292.604 56.2683 294.009 38.8765C295.411 21.5159 301.781 23.808 303.616 20.8482C305.447 17.8923 301.234 5.89297 322.013 2.14049C342.878 -1.63541 367.3 12.5584 357.99 16.4944C348.692 20.4265 332.392 16.4514 332.35 17.3339C332.31 18.2203 338.512 25.2411 331.6 27.3692C324.692 29.4933 319.361 28.361 316.663 31.6254C313.964 34.8897 313.547 49.6458 313.347 47.877C313.148 46.1042 305.947 37.0139 304.295 42.0393C302.644 47.0609 311.047 60.5909 307.591 55.8856C304.139 51.1843 293.174 44.4759 303.151 30.5633C313.133 16.6428 322.064 7.13859 339.672 12.5467C357.354 17.9782 359.759 28.0134 359.998 35.4169C360.232 42.8242 352.992 82.9691 341.265 83.301C329.561 83.629 312.937 62.6526 310.188 66.8033C307.443 70.9619 306.127 74.812 311.399 83.0823C316.682 91.376 325.02 107.714 328.593 104.437C332.166 101.161 341.327 81.8093 341.585 88.6466C341.843 95.4955 345.467 116.363 343.518 115.168C341.569 113.969 330.092 108.901 330.092 108.901C330.092 108.901 334.802 174.102 336.598 197.566C338.395 221.1 331.529 239.14 329.967 241.842C328.405 244.54 322.833 253.228 322.614 251.717C322.399 250.202 311.856 236.461 313.968 228.047C316.081 219.636 322.274 203.45 323.629 174.329C324.981 145.297 329.268 108.307 323.567 108.307C317.877 108.311 312.227 119.611 313.386 113.067C314.55 106.523 337.129 86.2803 339.355 87.4634C341.585 88.6466 345.232 108.904 347.728 123.235C350.231 137.601 349.715 219.12 348.817 239.078C347.915 259.074 350.032 289.215 354.034 277.414C358.037 265.618 351.844 191.08 355.491 167.628C359.127 144.223 365.968 126.257 363.582 121.763C361.196 117.268 341.792 109.201 349.594 107.409C357.412 105.613 355.452 110.994 357.412 105.613C359.377 100.24 344.725 82.3912 346.935 90.4233C349.141 98.4593 361.997 99.3417 369.901 115.48C377.828 131.677 388.126 174.165 401.341 170.627C414.583 167.082 437.767 135.441 437.767 135.441C437.767 135.441 441.637 169.975 446.913 170.01C452.193 170.041 454.282 161.857 454.501 156.394C454.719 150.935 470.804 145.543 474.791 133.719C478.782 121.907 478.462 107.378 466.118 107.382C453.813 107.386 457.015 137.308 460.019 128.237C463.018 119.166 448.584 106.48 446.577 112.813C444.566 119.151 442.559 125.488 444.055 131.833C445.554 138.186 452.81 154.571 451.412 145.469C450.018 136.382 434.991 139.061 434.733 145.406C434.471 151.759 441.305 178.171 441.305 178.171C441.305 178.171 395.838 217.832 382.963 213.138C370.127 208.46 358.908 168.55 359.49 174.872C360.072 181.201 353.031 241.858 340.054 241.678C327.113 241.498 309.653 228.593 320.775 229.636C331.924 230.682 343.428 243.545 343.139 249.902C342.854 256.262 343.444 298.606 337.457 296.657C329.698 293.565 309.11 258.355 322.813 267.988C328.511 275.361 298.293 269.164 280.955 273.393C263.671 277.614 234.91 358.634 232.61 370.41C230.31 382.195 236.566 393.335 236.081 386.014C235.597 378.696 241.033 372.468 225.624 373.858C210.261 375.244 162.1 391.988 157.905 391.859C153.715 391.734 153.317 414.397 156.964 424.519C160.623 434.655 179.399 430.751 171.909 428.669C164.431 426.592 150.896 427.951 145.964 425.963C141.039 423.976 151.794 396.205 145.932 396.026C140.083 395.846 137.244 386.717 124.494 390.848C111.771 394.971 88.0748 474.706 99.0793 471.505C110.107 468.295 116.953 435.85 138.966 431.172C161.069 426.475 235.273 418.923 246.074 408.279C256.888 397.623 301.847 357.669 296.934 352.046C292.03 346.431 268.497 335.814 266.646 321.21C264.799 306.634 287.273 284.392 308.689 285.7C330.202 287.012 345.998 321.163 352.5 331.41C359.021 341.679 378.726 371.711 375.848 397.568C372.966 423.48 371.365 521.583 372.045 526.316C372.728 531.048 389.723 548.791 369.303 548.791C348.97 548.791 426.974 555.258 431.644 550.728C431.996 550.389 367.39 500.474 467.329 511.708C467.329 511.708 502.721 515.214 519.212 512.875C535.75 510.533 590.339 509.748 575.09 497.948C559.899 486.194 544.489 482.559 544.489 482.559C544.489 482.559 530.556 493.125 522.801 493.824C515.053 494.523 505.169 482.723 504.837 491.782C509.937 508.889 518.204 484.64 512.819 450.149C511.003 421.012 502.283 371.847 501.479 367.845C500.674 363.846 469.695 317.653 470.582 311.093C471.468 304.537 483.996 287.067 482.305 298.192C480.614 309.324 449.979 372.023 436.682 373.624C423.42 375.221 379.839 371.344 378.738 368.04C378.215 366.463 377.274 361.453 376.446 356.291C375.184 348.391 366.593 342.237 366.648 341.023C366.792 337.759 423.455 336.244 425.193 339.567C426.939 342.893 426.79 354.264 423.846 349.582C420.905 344.908 416.828 337.591 420.409 326.54C423.994 315.494 427.145 269.191 428.286 271.819C429.426 274.447 452.611 289.925 460.382 284.189C468.157 278.445 478.087 249.843 488.045 203.681C497.976 157.652 497.683 115.597 494.645 113.008C491.607 110.42 489.201 107.835 489.201 107.835C489.201 107.835 479.743 125.855 483.375 129.1C487.007 132.345 489.443 134.293 489.443 134.293C489.443 134.293 476.689 140.041 477.24 141.982C477.791 143.926 487.823 160.166 486.401 180.908C484.976 201.689 458.437 222.17 460.163 226.098C461.889 230.026 469.969 232.096 466.552 239.214C463.131 246.336 411.252 261.745 415.524 248.824C419.792 235.907 445.542 200.588 450.744 179.92C455.938 159.284 441.243 168.206 441.348 165.625C441.45 163.044 458.535 156.718 463.912 147.066C469.289 137.417 469.57 130.326 472.847 126.472C476.123 122.618 476.424 114.887 490.185 114.93C503.99 114.969 482.945 99.7713 485.027 86.2686C487.108 72.7776 493.614 74.3786 494.325 72.1294C495.035 69.8803 490.502 57.6975 503.697 56.0575C516.923 54.4135 537.218 58.5409 538.874 56.2839C540.534 54.027 547.153 63.0313 540.045 67.5609C532.946 72.0826 521.668 70.4894 521.633 71.4539C521.598 72.4184 526.432 77.8929 521.082 77.8968C515.74 77.9007 510.847 74.363 509.469 77.5844C508.094 80.8019 508.844 94.3358 506.415 92.075C503.99 89.818 498.214 84.9878 497.464 88.2092C496.715 91.4229 499.483 101.091 497.086 98.1898C494.692 95.2886 486.714 91.0988 496.64 76.9518C506.571 62.801 527.346 61.4733 533.516 64.9993C539.694 68.5332 543.451 78.2092 541.49 88.8731C539.526 99.5409 533.84 117.011 525.843 119.896C517.853 122.778 513.495 121.47 510.683 120.814C507.875 120.154 498.206 101.731 498.445 103.668C498.687 105.601 494.719 135.617 499.835 133.38C504.946 131.138 510.078 128.573 510.078 128.573C510.078 128.573 491.185 212.185 490.982 217.398C490.783 222.615 492.353 231.12 493.641 230.487C494.926 229.851 502.529 220.815 503.357 215.602C504.185 210.393 512.308 127.932 514.74 130.213C517.177 132.493 517.896 141.904 519.583 138.995C521.266 136.086 521.961 122.474 522.18 125.066C522.402 127.659 524.519 143.114 521.305 161.931C518.083 180.776 512.015 237.953 514.178 256.668C516.349 275.427 522.004 277.18 522.281 269.621C522.558 262.069 515.982 224.923 520.223 204.392C524.456 183.888 536.789 158.265 534.348 146.867C531.911 135.488 525.491 120.873 526.424 129.947C527.358 139.034 519.384 244.618 509.293 243.154C499.222 241.686 476.779 234.817 484.128 240.147C491.493 245.493 516.412 256.38 510.023 257.586C503.642 258.789 489.935 253.318 489.736 258.547C489.537 263.783 483.332 293.838 488.639 287.379C493.946 280.917 498.827 252.155 512.026 272.061C525.288 292.065 545.559 369.411 545.376 374.737C545.188 380.063 539.46 469.587 539.272 474.96C539.136 478.806 570.864 483.902 589.991 483.559C629.624 482.848 556.216 469.9 583.072 465.901C600.164 463.355 655.245 468.357 650.157 466.85C648.458 466.346 647.845 472.504 650.696 477.908C653.543 483.316 696.163 487.131 694.163 480.841C692.172 474.554 674.267 465.94 668.245 465.729C662.228 465.511 654.437 467.444 650.376 459.357C646.326 451.282 652.032 387.775 646.869 374.506C641.718 361.269 613.367 316.692 604.667 297.914C595.997 279.203 596.173 260.698 596.173 260.698C596.173 260.698 625.024 267.633 629.933 259.082C634.841 250.534 645.94 218.816 643.503 187.015C641.078 155.332 634.111 135.25 631.565 136.093C629.019 136.933 614.203 141.552 617.917 143.27C621.638 144.988 627.879 146.726 627.418 147.999C626.957 149.276 606.428 162.365 607.576 165.785C608.72 169.202 634.548 176.23 638.313 191.252C642.085 206.305 636.521 232.67 642.374 234.903C648.24 237.141 657.975 236.028 657.737 229.546C657.499 223.072 660.549 197.043 661.009 181.158C661.47 165.297 659.131 143.887 659.131 143.887C659.131 143.887 655.554 165.258 650.548 163.083C645.545 160.912 634.732 142.493 630.62 139.49C626.512 136.492 623.833 134.02 627.332 131.076C630.827 128.128 634.377 123.45 636.634 113.348C638.883 103.246 639.063 89.2245 640.738 90.2046C642.413 91.1886 652.36 92.6607 656.308 99.3144C660.267 105.98 663.395 116.113 661.454 124.016C659.514 131.927 655.921 137.604 650.106 135.847C644.296 134.094 638.086 121.724 636.563 123.696C635.044 125.668 621.697 140.424 611.907 142.845C602.136 145.266 597.743 146.23 600.223 144.516C602.699 142.802 612.157 134.957 613.898 125.847C615.64 116.745 617.093 101.259 623.435 92.1726C629.78 83.0784 636.544 84.3006 636.544 84.3006C636.544 84.3006 647.58 81.3408 653.289 86.0109C659.006 90.6849 664.602 108.452 664.036 119.568C663.47 130.701 659.717 133.411 662.036 137.874C664.356 142.341 674.497 148.097 673.713 149.83C672.928 151.564 666.707 154.508 667.644 156.004C668.581 157.499 677.52 163.024 676.981 164.762C676.438 166.5 668.597 182.861 666.914 190.073C665.231 197.285 661.65 236.2 663.114 245.231C664.579 254.275 666.082 262.073 668.862 259.855C671.643 257.641 668.058 244.798 667.472 230.772C666.886 216.766 670.346 199.077 674.97 183.665C682.698 164.536 682.636 149.057 677.133 154.66C675.31 158.378 678.063 196.16 681.589 202.439C685.115 208.726 707.265 222.76 706.242 223.751C705.223 224.743 695.815 233.404 695.968 236.918C696.12 240.432 706.082 248.367 710.01 250.187C713.947 252.01 725.888 242.861 724.557 236.551C723.225 230.245 718.516 229.429 715.958 232.162C713.4 234.892 711.26 240.643 714.298 238.425C717.344 236.204 720.984 230.214 714.536 229.378C708.097 228.542 703.544 222.463 701.033 223.685C698.522 224.911 697.213 236.684 693.074 233.869C688.942 231.053 675.005 217.113 672.221 219.581C669.437 222.045 659.557 240.175 659.151 245.677C658.744 251.182 649.134 243.283 646.697 251.003C644.257 258.722 655.765 277.469 646.986 274.552C638.219 271.643 633.666 268.063 619.951 267.832C606.272 267.606 586 261.788 590.202 252.139C594.404 242.494 606.092 226.984 607.974 213.591C609.857 200.21 603.402 188.995 604.518 184.548C605.627 180.104 611.356 175.695 607.838 179.378C604.319 183.06 571.993 194.138 569.732 196.832C567.471 199.526 554.209 234.981 552.503 235.454C550.8 235.926 538.663 231.803 538.663 231.803C538.663 231.803 533.282 241.37 532.173 245.559C531.064 249.749 537.07 256.778 541.127 257.832C545.188 258.89 545.911 251.955 545.911 251.955C545.911 251.955 546.094 260.64 548.922 255.474C551.753 250.308 553.268 234.228 549.757 231.206C546.247 228.195 539.995 228.113 540.081 225.641C540.17 223.173 550.816 193.435 554.084 189.276C557.353 185.118 590.003 153.567 595.888 151.138C601.777 148.706 605.549 144.286 607.529 150.705C609.509 157.136 622.724 209.522 613.894 226.828C605.061 244.134 596.771 244.513 601.984 249.07C607.205 253.634 638.52 253.615 641.656 263.678C644.799 273.752 659.131 340.515 659.787 334.971C660.443 329.426 671.346 276.723 667.636 268.117C663.934 259.523 626.074 259.921 615.449 271.245C604.831 282.561 617.284 306.849 619.455 315.931C621.63 325.025 620.564 343.635 616.452 349.582C612.34 355.529 568.658 375.037 567.604 377.525C566.545 380.012 573.407 393.808 573.407 393.808C573.407 393.808 566.53 395.123 560.364 404.518C554.201 413.917 551.726 429.485 548.594 421.305C545.466 413.136 550.331 384.588 553.362 381.156C556.396 377.72 564.729 375.939 569.939 380.61C575.152 385.291 571.442 394.261 577.343 392.917C583.255 391.574 632.424 374.748 637.434 372.351C642.445 369.953 627.859 330.207 636.501 337.462C645.166 344.733 649.778 355.971 657.296 352.616C664.825 349.258 663.759 334.561 664.067 341.14C664.372 347.728 675.111 371.836 674.685 387.076C674.255 402.34 671.272 455.37 671.272 455.37C671.272 455.37 664.489 465.89 665.059 463.348C665.075 463.273 714.747 466.553 737.959 461.715C785.41 451.828 660.064 449.189 724.608 444.648C747.323 443.051 786.421 442.961 786.421 442.961C787.64 443.824 814.128 445.749 808.094 439.31C802.073 432.883 779.736 426.736 777.693 426.67C775.655 426.604 774.136 430.942 766.513 430.18C758.902 429.419 754.891 427.225 754.321 429.786C753.751 432.348 755.961 446.373 758.176 438.693C760.39 431.016 756.621 418.509 751.744 389.032C746.89 359.672 747.175 347.911 743.442 335.568C739.716 323.249 723.608 304.603 724.381 293.963C725.15 283.334 729.864 275.314 726.705 281.339C723.549 287.364 700.829 333.577 686.174 340.348C671.549 347.103 673.677 350.059 671.748 347.981C669.819 345.908 666.488 321.554 670.057 318.09C673.627 314.627 675.396 316.29 675.396 316.29C675.396 316.29 671.471 314.689 675.65 307.192C679.832 299.695 686.666 268.035 687.923 258.488C689.177 248.949 682.874 243.837 688.24 246.926C693.613 250.019 719.761 259.48 726.568 247.465C730.09 241.237 734.573 234.345 737.658 223.533C740.525 213.486 742.18 200.065 740.736 180.694C737.744 140.638 730.243 122.669 727.696 125.152C725.15 127.636 718.055 133.598 720.48 135.597C722.909 137.597 729.852 138.12 728.306 140.107C726.767 142.095 712.849 143.048 714.661 149.534C716.473 156.027 734.628 165.617 737.666 183.681C740.712 201.787 726.736 221.26 734.573 227.398C744.734 235.348 748.468 227.621 751.717 233.447C754.684 238.761 761.702 250.964 762.147 248.976C762.709 246.454 749.46 233.131 752.712 202.404C755.958 171.763 757.469 171.271 756.27 158.721C755.071 146.191 754.825 135.687 755.29 137.187C755.754 138.69 769.305 158.284 768.243 160.791C767.181 163.294 761.55 168.284 763.518 169.803C765.49 171.322 770.055 169.338 767.927 174.356C765.798 179.37 764.631 186.402 761.331 198.456C758.035 210.522 757.336 218.585 757.336 218.585C757.336 218.585 785.183 211.807 783.82 205.227C782.457 198.648 782.719 187.047 778.654 188.526C774.597 190.006 759.41 194.915 771.484 194.009C783.59 193.103 787.971 177.507 791.435 180.553C794.899 183.606 794.208 192.181 793.778 188.648C793.349 185.11 793.564 175.528 797.543 178.077C801.53 180.627 810.41 191.307 803.764 194.286C797.121 197.261 770.567 211.654 764.053 210.581C757.551 209.507 763.01 169.799 760.804 157.242C758.597 144.707 755.426 131.193 754.345 134.688C753.259 138.186 754.349 155.207 748.003 149.174C741.665 143.149 734.14 125.664 733.207 123.172C732.277 120.681 721.632 117.097 718.91 105.699C716.196 94.3163 720.636 83.8672 720.909 91.294C721.179 98.7248 727.857 100.58 715.614 107.792C703.387 114.992 701.482 125.687 702.712 122.895C703.942 120.107 697.346 124.746 698.545 106.167C699.74 87.6235 706.25 77.1861 715.2 79.4743C724.17 81.7664 723.979 89.1933 723.604 85.7102C723.233 82.2311 735.03 74.3044 746.632 74.9604C758.265 75.6203 765.248 86.3076 762.385 88.8809C759.519 91.4502 751.131 91.0012 748.538 92.1687C745.945 93.3362 740.931 107.78 740.263 106.62C739.595 105.457 738.373 98.471 735.518 101.032C732.664 103.594 735.682 112.911 732.242 111.048C728.802 109.186 717.243 98.7248 728.587 90.3452C739.947 81.9538 757.391 83.0706 759.121 88.6544C760.855 94.246 761.757 105.445 761.764 114.789C761.776 124.141 760.308 126.948 753.564 125.301C746.831 123.653 741.021 122.95 737.526 122.942C734.034 122.934 718.937 131.536 708.159 135.707C697.397 139.869 688.157 190.225 689.802 197.73C691.449 205.243 727.474 215.95 728.911 214.556C730.352 213.158 735.788 201.44 733.968 199.542C732.148 197.644 723.854 193.341 729.809 197.625C735.776 201.912 756.2 190.791 756.891 201.166C757.582 211.557 753.548 222.849 746.585 219.464C739.638 216.086 720.999 213.529 721.155 207.418C721.312 201.307 726.119 195.711 722.917 193.333C719.714 190.959 714.165 195.524 713.447 187.546C712.728 179.573 718.363 153.485 712.556 162.341C706.75 171.193 710.163 200.268 699.119 213.302C688.087 226.328 681.777 236.582 682.597 240.354C683.421 244.126 721.628 261.667 728.731 258.461C735.846 255.255 741.395 239.718 740.782 245.388C740.173 251.061 733.453 257.114 743.286 258.211C753.138 259.308 758.051 250.843 757.949 255.11C757.844 259.378 777.232 320.75 776.108 328.387C774.983 336.033 777.916 416.533 776.299 424.706C774.679 432.886 767.446 436.041 785.527 439.548C803.682 443.07 1146.92 443.39 1146.92 443.39" stroke="white" stroke-width="2.5" stroke-miterlimit="10" stroke-linecap="round" stroke-linejoin="round"/>
</svg>
