<svg viewBox="0 0 775 555" fill="none" xmlns="http://www.w3.org/2000/svg">
<path class="question-four-svg" stroke="#ffffff" fill="transparent"  stroke-width="4"  fill="transparent" style="stroke-dasharray: 16461; stroke-dashoffset: 16461;" d="M643.815 554.697C643.642 554.697 643.461 554.688 643.288 554.662C641.332 554.42 638.806 552.748 637.889 546.167C636.782 538.227 639.057 529.663 644.854 519.974C645.252 519.307 645.9 518.069 646.644 516.64C648.357 513.358 649.915 510.501 651.351 508.102C651.939 504.041 652.536 499.85 652.908 495.676C653.341 490.845 654.249 485.822 655.14 480.973C657.338 468.937 659.613 456.494 654.794 445.367C652.069 439.072 646.359 435.123 640.831 431.313C634.091 426.663 627.118 421.849 625.872 412.843C625.526 410.35 625.621 408.237 625.708 406.366C625.907 401.89 626.002 399.837 619.721 397.404C615.387 395.716 607.349 394.633 596.475 394.261C577.052 393.594 571.333 401.084 565.148 419.225C557.924 440.405 551.375 464.538 546.192 489.043C546.244 489.537 546.313 490.16 546.391 490.896C550.267 526.468 549.376 544.955 543.588 549.068C542.446 549.882 540.526 550.584 537.87 549.328C537.437 549.129 537.117 548.757 536.97 548.306C532.108 533.439 536.529 514.951 540.439 498.638C541.261 495.2 542.04 491.936 542.697 488.862C542.412 485.987 542.109 483.164 541.806 480.358C539.643 460.278 537.601 441.315 543.822 419.97C546.547 410.627 550.89 402.002 555.51 393.707C554.74 392.347 554.186 390.442 553.762 387.819C552.863 382.19 554.429 376.562 555.943 371.115C556.704 368.362 557.431 365.764 557.785 363.313C560.536 344.601 559.87 327.413 555.761 310.779C553.719 302.527 550.336 294.43 547.057 286.594C546.123 284.369 545.18 282.117 544.272 279.848C539.583 273.813 535.612 267.44 533.535 260.357C531.502 267.154 528.578 274.307 526.078 280.429C524.356 284.646 522.868 288.282 522.072 290.837C519.788 298.137 517.79 305.609 515.869 312.84C509.709 335.994 503.333 359.928 486.454 379.61C486.376 379.705 484.741 381.515 482.042 384.416C482.111 385.264 482.18 386.104 482.249 386.944C482.569 390.728 482.89 394.642 483.08 398.495C484.559 428.646 468.07 453.229 452.116 476.999C450.879 478.834 449.651 480.67 448.439 482.497C448.292 482.722 448.145 482.947 447.998 483.164C451.692 484.419 454.617 489.728 455.136 494.464C458.449 495.824 459.055 496.75 459.202 500.716C460.041 501.27 460.655 501.712 461.59 502.569C462.204 503.132 462.334 504.05 461.892 504.76C458.942 509.531 455.499 508.63 452.739 507.912C451.441 507.574 450.101 507.219 448.699 507.357C447.496 507.479 446.129 508.111 444.693 508.778C442.617 509.739 440.264 510.838 437.513 510.838C437.504 510.838 437.495 510.838 437.487 510.838C432.123 510.83 423.783 504.37 419.786 500.3C413.47 493.875 406.22 474.47 409.214 462.694C410.036 459.473 411.584 456.962 413.782 455.247C412.562 455.386 411.411 455.325 410.373 455.005C408.66 454.485 406.471 453.03 405.727 449.09C404.871 444.562 410.667 441.704 415.78 439.184C417.986 438.093 420.071 437.072 421.144 436.154C422.546 434.959 423.843 433.591 425.089 432.145C425.063 432.145 425.037 432.145 425.02 432.145C423.463 432.24 422.182 431.833 421.213 430.941C420.772 430.534 420.573 429.928 420.686 429.339C420.902 428.213 421.308 427.088 421.706 425.997C422.052 425.035 422.39 424.135 422.572 423.286C424.112 416.195 427.477 409.137 430.73 402.323C433.879 395.724 437.132 388.901 438.629 382.208C440.748 372.683 445.083 364.647 449.971 356.525C448.976 353.659 448.067 350.766 447.393 347.866C441.068 320.771 444.33 290.525 457.653 252.685C457.999 251.706 458.345 250.693 458.7 249.672C459.055 248.658 459.409 247.628 459.781 246.58C456.632 251.274 453.198 255.629 449.668 260.106C446.822 263.717 443.88 267.449 440.965 271.51C430.799 285.685 426.672 301.323 423.973 314.753C423.143 318.901 422.364 323.239 421.611 327.439C421.006 330.842 420.374 334.357 419.717 337.769C417.839 347.511 416.801 352.888 406.16 350.922C398.356 349.494 373.976 342.125 368.647 332.297C364.339 324.348 365.818 312.182 367.254 300.422C368.076 293.668 368.855 287.287 368.387 282.472C366.96 267.769 362.608 251.299 355.791 234.847C353.152 228.465 349.839 222.335 346.326 215.832C341.455 206.809 336.42 197.475 333.401 187.525C329.101 173.368 329.966 155.729 335.711 140.351C343.298 120.045 355.774 121.266 372.583 125.215C374.435 125.647 376.338 125.994 378.181 126.323C382.074 127.016 385.829 127.691 389.039 129.18C388.632 128.496 388.234 127.804 387.853 127.111C386.685 126.79 385.474 126.332 384.194 125.743C382.411 124.911 381.088 123.682 379.816 122.496C379.089 121.811 378.38 121.153 377.61 120.599C374.357 123.474 370.767 124.704 366.735 123.587C360.947 121.985 357.288 117.482 354.813 111.776C351.664 114.46 347.338 117.248 342.459 120.279C341.992 120.565 341.533 120.85 341.083 121.136C340.72 122.019 340.365 122.911 340.011 123.803C338.246 128.193 336.585 132.332 334.405 135.865C334.154 136.272 328.971 144.568 322.993 147.737C322.448 151.235 322.388 154.924 322.777 158.864C324.698 178.061 328.686 217.997 307.282 239.428C305.137 241.575 301.295 244.563 296.433 248.347C283.136 258.686 261.23 275.727 261.006 287.815C263.748 287.365 266.776 287.278 270.176 287.616C287.072 289.304 303.251 294.5 316.955 302.639C333.444 312.433 349.008 324.607 359.277 332.903C364.927 337.475 371.225 341.605 377.316 345.597C384.574 350.359 392.075 355.278 398.564 360.993C411.247 372.154 404.04 383.29 397.076 394.053C396.176 395.439 395.276 396.833 394.411 398.236C391.011 403.734 387.845 409.458 384.782 414.982C380.759 422.247 376.589 429.763 371.874 436.846C363.923 448.779 354.407 459.438 345.21 469.742C340.313 475.224 335.261 480.887 330.485 486.688C321.384 497.754 310.959 505.721 299.928 514.146C294.807 518.06 289.503 522.112 284.399 526.468C281.717 528.754 278.897 532.07 275.912 535.577C271.05 541.292 266.023 547.207 260.841 549.415C260.339 549.631 259.76 549.596 259.284 549.319C258.808 549.042 258.497 548.557 258.436 548.012C255.685 522.182 281.89 500.872 295.975 489.416C301.209 485.155 306.945 481.198 312.49 477.371C323.365 469.864 334.621 462.105 342.719 451.653C346.015 447.402 348.844 442.709 351.586 438.163C353.888 434.335 356.275 430.387 358.957 426.646C362.314 421.961 366.406 418.143 370.36 414.454C373.613 411.423 376.97 408.28 379.816 404.739C380.249 404.202 380.681 403.665 381.122 403.128C385.509 397.751 389.644 392.676 387.36 387.282C385.44 382.727 380.283 379.87 375.3 377.107C372.973 375.817 370.767 374.596 368.889 373.202C361.596 367.808 357.487 363.253 356.63 354.646C356.319 351.537 356.993 348.732 357.59 346.255C358.43 342.748 359.096 339.986 357.002 337.232C353.732 332.955 347.269 330.392 340.426 327.673C334.197 325.205 327.777 322.659 323.4 318.546C309.93 324.062 298.838 342.116 295.776 356.828C293.12 369.6 289.798 378.692 283.949 388.156C284.555 396.478 284.2 404.713 277.599 414.575C268.264 428.534 255.373 440.509 242.907 452.078C240.701 454.13 238.494 456.174 236.314 458.226C233.996 460.408 231.677 462.616 229.367 464.841C229.272 464.945 229.177 465.049 229.082 465.162C223.233 471.578 217.177 478.211 211.433 484.939C200.662 497.555 191.889 508.483 184.068 520.831C182.381 523.489 180.72 526.693 178.955 530.079C174.837 537.993 170.174 546.955 163.772 551.285C163.339 551.571 162.803 551.657 162.31 551.51C161.816 551.363 161.41 550.999 161.211 550.523C155.388 536.608 176.887 511.393 184.881 503.651C191.5 497.244 198.135 490.68 204.555 484.333C211.848 477.111 219.331 469.708 226.901 462.434C234.497 454.113 242.327 445.506 249.577 436.595C254.837 430.118 258.6 422.923 262.243 415.952C265.643 409.44 269.155 402.712 273.888 396.556C276.371 393.326 278.533 390.278 280.419 387.29C280.333 386.225 280.229 385.152 280.125 384.061C279.554 377.939 278.957 371.609 280.333 364.188C281.994 355.226 285.108 347.242 289.581 340.471C291.277 337.899 293.708 335.405 296.061 332.998C299.721 329.24 303.501 325.361 304.626 321.178C305.266 318.797 305.059 316.78 303.977 315.004C300.647 309.497 289.555 307.038 280.653 305.064C276.258 304.085 272.105 303.167 269.294 301.981C263.341 299.47 259.621 296.119 258.194 292.015C249.793 294.699 244.55 301.851 237.612 311.316L236.115 313.359C232.767 317.914 229.263 322.434 225.881 326.798C218.518 336.314 210.896 346.151 204.598 356.603C197.357 368.639 191.984 382 186.793 394.919C183.532 403.041 180.158 411.441 176.36 419.381C170.866 430.88 166.739 443.323 162.751 455.36C158.503 468.158 154.117 481.397 148.061 493.589C146.045 497.642 143.086 502.638 139.946 507.929C131.831 521.619 121.734 538.651 122.496 548.826C122.53 549.302 122.366 549.778 122.037 550.133C121.708 550.488 121.25 550.688 120.765 550.688H2.62092C1.66926 550.688 0.890625 549.908 0.890625 548.956C0.890625 548.003 1.66926 547.224 2.62092 547.224H119.035C119.303 536.019 128.681 520.208 137.004 506.162C140.11 500.924 143.034 495.979 144.989 492.048C150.933 480.081 155.285 466.963 159.489 454.277C163.512 442.137 167.682 429.59 173.262 417.892C177.008 410.047 180.365 401.699 183.61 393.629C188.852 380.58 194.277 367.089 201.665 354.819C208.067 344.186 215.741 334.271 223.173 324.677C226.547 320.321 230.033 315.818 233.355 311.298L234.852 309.263C241.877 299.686 247.821 291.573 257.58 288.603C256.965 274.662 279.373 257.231 294.331 245.602C298.908 242.043 302.87 238.96 304.86 236.969C322.708 219.105 322.206 187.629 319.36 159.201C318.996 155.591 318.988 152.179 319.351 148.914C317.664 149.07 316.098 148.629 314.774 147.616C310.933 144.663 311.937 136.151 312.828 128.643C313.148 125.959 313.442 123.413 313.373 122.002C312.854 112.165 311.764 102.268 310.604 91.7904C308.035 68.5061 305.379 44.4339 309.609 21.5739C311.444 11.6938 314.766 5.21684 319.481 2.30739C322.587 0.393726 326.238 0.0386991 330.321 1.23365C335.373 2.71436 340.945 6.58497 346.326 10.3257C349.674 12.655 352.841 14.8544 355.704 16.3697C356.786 16.9412 358.014 17.582 359.338 18.2747C373.665 25.7389 397.43 38.13 403.313 50.9974C404.404 48.6508 405.502 46.7372 406.618 45.395C424.613 23.7213 459.946 10.3257 487.942 25.4272C503.186 33.6533 515.03 49.4561 518.118 65.6833C520.437 77.8753 517.608 89.1234 509.951 98.2155C506.439 102.38 502.857 106.987 499.397 111.438C494.517 117.716 489.473 124.201 484.369 129.821C482.102 132.315 478.451 134.566 474.584 136.939C468.926 140.42 462.515 144.36 462.187 148.585C462.022 150.724 463.45 153.114 466.443 155.677C470.752 159.375 476.029 160.344 481.609 161.366C488.911 162.708 496.464 164.094 502.035 171.74C504.094 174.563 505.66 177.715 506.707 180.962C514.727 168.562 527.765 160.292 545.128 157.08C559.282 154.465 581.525 155.236 592.59 160.5C592.997 157.002 594.788 153.772 596.509 150.646C597.85 148.23 599.122 145.918 599.529 143.84C586.811 143.693 582.485 139.537 577.208 128.618C576.568 127.301 575.919 126.158 575.296 125.05C573.669 122.184 572.121 119.482 571.714 115.04C571.472 112.442 572.112 109.68 572.735 107.013C573.401 104.138 574.033 101.428 573.566 99.2026C572.951 96.2498 572.138 94.3448 571.42 92.665C569.664 88.5519 568.92 86.0667 572.726 78.7498C573.367 77.5289 574.336 76.2993 575.279 75.113C576.36 73.7535 577.476 72.3507 577.839 71.2337C578.384 69.5625 578.151 68.229 577.883 66.6877C577.623 65.1724 577.329 63.4492 577.805 61.3624C580.937 47.6637 593.888 38.9007 612.445 37.9395C625.829 37.2381 639.265 45.9579 650.633 54.5736C665.444 65.7958 667.659 74.8013 665.721 90.6994C665.894 95.2367 665.513 99.8174 664.942 104.363C667.2 102.303 669.649 100.631 671.889 99.5663C683.785 93.8599 699.133 91.3661 712.664 89.158C716.427 88.5432 719.992 87.9631 723.4 87.3396C725.096 87.0279 727.112 86.6296 729.361 86.1793C748.991 82.2741 785.544 75.0004 796.401 88.5259C800.632 93.7993 800.563 101.541 796.185 111.542C785.12 136.818 765.931 156.716 747.365 175.957C740.634 182.936 733.678 190.149 727.259 197.466C708.476 218.906 708.554 261.794 714.333 292.015C715.882 300.128 717.993 308.328 720.026 316.26C721.947 323.759 723.945 331.509 725.425 339.068L725.9 341.449C728.487 354.412 733.297 378.536 728.003 389.161C727.579 390.009 726.558 390.356 725.701 389.949C704.99 379.965 680.999 384.372 657.796 388.633C645.719 390.849 633.226 393.144 621.564 393.274C620.439 393.283 619.315 393.283 618.181 393.274C619.202 393.551 620.128 393.845 620.941 394.166C629.532 397.508 629.35 401.682 629.125 406.514C629.047 408.228 628.961 410.176 629.264 412.359C630.302 419.857 636.349 424.031 642.76 428.456C648.686 432.552 654.82 436.777 657.935 443.99C663.16 456.087 660.79 469.05 658.506 481.597C657.597 486.593 656.732 491.303 656.317 495.979C656.144 497.954 655.919 499.919 655.668 501.868C657.459 499.859 659.103 498.854 660.729 498.967C669.017 499.46 669.199 513.246 669.294 520.64C669.303 521.506 669.311 522.242 669.337 522.788C670.211 542.089 675.912 548.254 693.743 549.207C713.555 550.255 730.001 550.237 742.606 549.155C745.66 548.895 747.771 547.908 749.043 546.141C752.261 541.682 750.081 532.547 748.152 524.494C747.235 520.666 746.378 517.064 746.067 513.973C745.505 508.336 745.747 502.898 745.989 497.651C746.491 486.723 746.958 476.393 740.046 465.673C737.442 461.637 733.228 457.672 728.764 453.472C719.645 444.899 709.307 435.184 713.295 423.278C713.875 421.537 715.026 419.979 716.142 418.463C717.188 417.034 718.27 415.562 718.78 414.056C719.282 412.558 719.343 410.67 719.421 408.67C719.516 405.899 719.62 403.041 720.926 400.721C722.968 397.11 725.165 395.447 727.622 395.595C731.879 395.872 734.803 401.717 737.329 407.994C740.262 415.285 741.871 422.949 743.42 430.369C744.968 437.747 746.422 444.709 749.078 451.324C755.93 468.426 757.573 482.878 759.485 499.616C760.645 509.782 764.59 540.08 765.524 547.198H964.093C965.044 547.198 965.823 547.977 965.823 548.93C965.823 549.882 965.044 550.662 964.093 550.662H764.027C763.162 550.662 762.427 550.021 762.315 549.155C762.263 548.782 757.383 511.522 756.077 500.006C754.199 483.519 752.582 469.275 745.903 452.615C743.143 445.722 741.577 438.275 740.072 431.079C738.549 423.806 736.974 416.29 734.154 409.285C731.463 402.608 729.205 399.162 727.432 399.05C726.463 398.98 725.217 400.219 723.98 402.427C723.089 404.011 723.002 406.332 722.916 408.8C722.838 410.956 722.76 413.181 722.103 415.155C721.428 417.182 720.182 418.879 718.971 420.515C717.976 421.866 717.033 423.148 716.626 424.377C713.347 434.179 722.414 442.7 731.187 450.943C735.815 455.29 740.184 459.395 743.013 463.785C750.523 475.44 750.003 486.809 749.502 497.798C749.268 502.924 749.026 508.232 749.562 513.618C749.848 516.475 750.687 519.974 751.569 523.68C753.663 532.46 756.042 542.409 751.898 548.159C750.029 550.757 747.019 552.246 742.953 552.601C730.192 553.701 713.589 553.718 693.613 552.662C674.121 551.623 666.88 543.847 665.937 522.944C665.911 522.364 665.903 521.593 665.885 520.684C665.825 515.774 665.652 502.725 660.573 502.422C659.795 502.361 658.09 503.738 654.682 509.349C654.145 513.029 653.652 516.519 653.306 519.982C653.029 522.823 653.246 525.992 653.47 529.352C653.86 534.963 654.258 540.756 652.285 545.631C649.923 551.441 646.869 554.697 643.815 554.697ZM650.079 517.575C649.958 517.8 649.845 518.025 649.724 518.259C648.92 519.8 648.288 521.013 647.838 521.766C642.466 530.746 640.338 538.573 641.332 545.7C641.921 549.917 643.158 551.164 643.729 551.233C644.663 551.337 646.965 549.579 649.084 544.34C650.754 540.21 650.382 534.815 650.027 529.603C649.794 526.252 649.56 522.788 649.871 519.653C649.923 518.961 649.993 518.268 650.079 517.575ZM198.083 495.616C194.519 499.123 190.92 502.647 187.33 506.128C178.799 514.38 162.128 535.118 163.824 546.869C168.591 542.574 172.466 535.127 175.936 528.46C177.735 525.005 179.431 521.74 181.196 518.961C186.335 510.856 191.863 503.357 198.083 495.616ZM540.024 546.462C540.828 546.687 541.278 546.488 541.598 546.254C543.978 544.557 547.248 536.114 543.805 499.495C540.076 515.064 535.871 532.651 540.024 546.462ZM361.665 339.059C362.262 341.77 361.622 344.445 360.999 347.052C360.445 349.372 359.866 351.762 360.117 354.291C360.852 361.66 364.356 365.496 370.992 370.405C372.687 371.661 374.79 372.83 377.022 374.059C382.264 376.969 388.199 380.259 390.587 385.914C393.684 393.239 388.45 399.647 383.839 405.301C383.406 405.83 382.974 406.358 382.55 406.886C379.548 410.627 376.096 413.848 372.756 416.965C368.924 420.541 364.961 424.239 361.804 428.646C359.2 432.274 356.855 436.171 354.588 439.938C351.794 444.57 348.913 449.359 345.487 453.766C337.052 464.633 325.58 472.548 314.489 480.211C308.995 484.004 303.32 487.918 298.19 492.091C285.117 502.716 261.204 522.164 261.741 544.99C265.513 542.479 269.467 537.829 273.308 533.317C276.388 529.698 279.295 526.286 282.184 523.818C287.358 519.402 292.696 515.324 297.852 511.375C308.718 503.071 318.988 495.217 327.838 484.463C332.657 478.609 337.735 472.92 342.649 467.413C351.768 457.195 361.207 446.631 369.019 434.907C373.665 427.936 377.792 420.489 381.78 413.276C384.86 407.709 388.052 401.959 391.496 396.383C392.378 394.954 393.295 393.542 394.203 392.131C400.934 381.731 406.748 372.743 396.306 363.556C389.999 358.005 382.602 353.148 375.447 348.454C370.862 345.458 366.155 342.376 361.665 339.059ZM415.313 458.46C414.033 459.672 413.124 461.36 412.57 463.534C409.932 473.89 416.741 492.256 422.26 497.858C426.171 501.833 433.645 507.349 437.504 507.357C437.513 507.357 437.513 507.357 437.521 507.357C439.511 507.357 441.414 506.474 443.249 505.626C444.884 504.864 446.579 504.076 448.37 503.902C450.386 503.703 452.108 504.154 453.622 504.552C455.75 505.106 456.875 505.4 458.069 504.136C457.722 503.885 457.35 503.634 456.849 503.305L456.546 503.106C456.07 502.794 455.785 502.266 455.767 501.694C455.741 500.447 455.707 498.897 455.456 498.508C455.283 498.239 454.357 497.876 453.189 497.417L452.86 497.287C452.211 497.036 451.779 496.412 451.762 495.72C451.658 491.321 448.69 486.645 446.562 486.368C446.337 486.342 446.121 486.376 445.896 486.472C444.667 488.446 443.673 490.178 443.024 491.459C442.617 492.256 441.674 492.62 440.843 492.291C440.013 491.962 439.563 491.061 439.814 490.195C440.783 486.835 442.089 484.965 443.378 483.961C444.269 482.549 445.074 481.32 445.576 480.575C446.796 478.748 448.024 476.912 449.261 475.068C464.895 451.766 481.064 427.668 479.645 398.669C479.472 395.066 479.169 391.386 478.867 387.819C467.135 400.227 444.59 423.035 431.197 430.04C428.844 433.14 426.361 436.249 423.402 438.769C421.992 439.972 419.725 441.089 417.32 442.276C413.911 443.956 408.764 446.493 409.136 448.432C409.594 450.866 410.65 451.454 411.394 451.679C417.147 453.446 431.889 441.592 437.071 436.362C437.72 435.703 438.776 435.677 439.459 436.292C442.574 439.106 442.548 442.587 441.285 446.198C441.389 446.761 441.44 447.35 441.44 447.965C441.475 454.398 436.319 461.984 432.573 464.988C432.131 465.344 431.552 465.456 431.024 465.309C431.024 465.456 431.024 465.603 431.024 465.751C431.033 467.777 431.993 470.79 433.014 473.985C435.047 480.35 437.348 487.571 433.68 491.979C431.163 494.992 428.619 495.269 426.923 494.975C420.331 493.815 416.083 482.636 415.624 481.363C413.193 474.713 413.098 467.023 415.313 458.46ZM419.301 453.584C419.336 453.619 419.379 453.654 419.414 453.688C419.864 454.156 420.019 454.831 419.812 455.446C416.663 464.919 416.343 473.232 418.86 480.168C420.72 485.277 424.38 491.009 427.503 491.555C427.935 491.633 429.251 491.858 431.007 489.753C433.464 486.809 431.465 480.558 429.7 475.042C428.602 471.587 427.555 468.322 427.546 465.759C427.529 460.512 429.579 449.974 433.559 444.129C429.631 447.385 424.293 451.368 419.301 453.584ZM558.123 396.157C553.762 404.046 549.696 412.229 547.153 420.948C541.304 440.985 543.009 459.1 545.059 478.15C549.861 457.048 555.622 436.483 561.886 418.117C566.523 404.513 571.342 396.053 581.464 392.59C577.554 392.867 573.678 393.378 569.863 394.252C568.305 394.607 566.887 395.04 565.632 395.413C562.639 396.313 560.216 397.041 558.123 396.157ZM437.21 445.029C435.315 447.211 433.706 451.16 432.599 455.273C433.126 454.32 433.689 453.359 434.268 452.381C435.687 449.956 436.89 447.826 437.66 445.956C437.547 445.618 437.392 445.315 437.21 445.029ZM437.322 440.856C437.686 440.864 438.058 440.986 438.361 441.228C438.421 441.271 438.473 441.315 438.534 441.366C438.464 440.925 438.335 440.518 438.127 440.128C437.885 440.345 437.616 440.587 437.322 440.856ZM280.74 393.101C279.485 394.91 278.127 396.746 276.665 398.651C272.114 404.565 268.826 410.869 265.34 417.537C261.819 424.273 258.194 431.227 253.167 437.669C261.179 429.841 268.766 421.632 274.77 412.644C279.572 405.475 280.757 399.327 280.74 393.101ZM424.44 428.672C424.561 428.681 424.683 428.681 424.821 428.672C425.911 428.612 427.269 428.161 428.844 427.399C429.069 427.096 429.294 426.802 429.519 426.499C431.024 424.499 432.581 422.429 434.234 420.524C436.933 417.407 439.935 414.636 442.833 411.952C449.651 405.648 456.087 399.699 457.619 390.278C459.098 381.194 455.75 372.189 452.211 362.655C451.978 362.015 451.736 361.374 451.502 360.733C447.375 367.782 443.82 374.865 442.02 382.944C440.445 390.018 437.097 397.023 433.87 403.795C430.704 410.436 427.425 417.303 425.972 424.005C425.738 425.087 425.349 426.144 424.977 427.174C424.778 427.685 424.596 428.187 424.44 428.672ZM453.786 356.897C454.331 358.421 454.893 359.945 455.456 361.443C458.994 370.977 462.654 380.839 461.036 390.832C459.314 401.431 452.134 408.072 445.186 414.497C442.842 416.671 440.428 418.896 438.205 421.295C451.104 411.449 468.545 394.019 478.495 383.299C477.638 372.509 477.11 361.426 479.913 350.264C484.3 332.799 487.648 318.104 487.648 301.34C487.648 297.548 487.665 293.842 487.691 290.222C480.952 306.674 473.036 322.001 464.756 338.038L464.159 339.198C461.529 344.281 458.605 349.052 455.785 353.659C455.101 354.75 454.444 355.823 453.786 356.897ZM559.853 393.066C560.9 393.222 562.596 392.72 564.637 392.105C565.944 391.707 567.423 391.265 569.093 390.884C580.902 388.174 593.109 388.771 604.918 389.351C610.386 389.62 616.044 389.897 621.564 389.836C632.932 389.706 644.724 387.542 657.217 385.247C680.368 380.995 704.281 376.605 725.598 386.078C729.231 375.653 724.758 353.217 722.552 342.142L722.077 339.752C720.606 332.288 718.633 324.581 716.721 317.135C714.671 309.151 712.551 300.899 710.985 292.681C705.267 262.79 705.102 220.655 722.717 197.63C721.679 197.769 720.77 197.604 720.078 197.371C715.069 195.665 712.041 187.647 710.198 181.758L710.129 181.525C709.558 179.697 709.039 177.299 708.494 174.753C707.3 169.203 705.82 162.301 703.216 159.349C699.687 155.339 694.53 155.963 689.556 156.56C688.345 156.708 687.203 156.846 686.078 156.924C684.927 157.002 683.655 157.149 682.306 157.314C675.462 158.119 666.949 159.124 661.983 152.222C661.066 150.958 660.383 149.365 659.872 147.572C659.128 156.915 655.979 163.791 650.442 168.12C637.872 177.948 618.294 178 604.174 174.762C595.142 172.692 592.183 171.697 592.365 164.241C592.097 164.111 591.837 163.981 591.569 163.843C581.456 158.76 559.334 157.998 545.812 160.5C528.154 163.765 515.255 172.614 507.927 185.949C508.61 190.539 508.204 195.033 506.586 198.721C505.695 200.756 504.207 203.06 501.741 204.861C501.473 206.645 501.274 208.463 501.144 210.333C501.508 210.533 501.854 210.758 502.191 211C508.775 215.832 506.11 220.845 504.163 224.5C503.515 225.712 502.892 226.889 502.511 228.05C503.549 230.448 504.951 231.479 506.11 232.059C508.939 233.496 512.806 233.271 516.89 233.029C523.006 232.674 529.884 232.275 533.864 238.077C534.193 237.185 534.556 236.302 534.963 235.419C534.721 224.387 536.226 212.749 542.714 207.961C545.249 206.09 548.424 204.177 550.44 206.012C554.238 209.467 545.786 223.686 545.699 223.824C545.068 224.881 544.367 225.998 543.64 227.149C541.841 230.007 539.911 233.098 538.423 236.189C538.631 244.086 539.747 252.356 541.123 258.894C542.49 265.396 544.817 271.839 547.352 278.151C550.423 282.048 553.849 285.875 557.335 289.754C567.579 301.176 578.168 312.996 580.288 328.175C583.575 351.771 572.995 370.197 562.768 388.027C561.774 389.689 560.805 391.369 559.853 393.066ZM551.669 288.637C554.532 295.539 557.327 302.639 559.135 309.947C563.357 327.032 564.032 344.653 561.22 363.816C560.831 366.483 560.078 369.184 559.282 372.042C557.872 377.133 556.41 382.389 557.188 387.273C557.344 388.243 557.517 389.092 557.707 389.819C558.382 388.633 559.057 387.464 559.732 386.286C570.131 368.171 579.95 351.052 576.827 328.634C574.855 314.493 564.629 303.081 554.731 292.049C553.702 290.923 552.69 289.78 551.669 288.637ZM261.637 291.192C262.84 294.205 265.876 296.751 270.678 298.777C273.204 299.842 277.201 300.734 281.44 301.669C291.493 303.903 302.879 306.432 306.979 313.195C308.545 315.784 308.891 318.771 308.009 322.062C306.651 327.118 302.55 331.327 298.579 335.405C296.243 337.804 294.028 340.072 292.514 342.376C288.292 348.758 285.359 356.308 283.785 364.811C282.617 371.133 282.98 376.752 283.473 382.156C287.643 374.44 290.273 366.552 292.436 356.126C295.767 340.116 308.217 320.312 323.287 314.9C323.936 314.667 324.654 314.84 325.13 315.333C328.971 319.386 335.469 321.958 341.75 324.451C342.589 324.789 343.437 325.118 344.284 325.465C335.72 318.953 325.649 311.783 315.233 305.592C301.962 297.712 286.276 292.673 269.873 291.036C266.802 290.724 264.085 290.794 261.637 291.192ZM491.247 281.113C491.152 287.581 491.108 294.301 491.108 301.349C491.108 318.511 487.708 333.414 483.27 351.113C480.874 360.664 481.038 370.319 481.696 379.792C482.509 378.891 483.227 378.069 483.841 377.35C500.201 358.265 506.197 335.76 512.538 311.939C514.476 304.674 516.475 297.158 518.784 289.798C519.632 287.105 521.138 283.399 522.894 279.112C526.147 271.146 530.49 260.504 532.073 252.053C531.9 249.351 532.004 246.537 532.454 243.602C532.289 242.71 532.039 241.904 531.684 241.194C528.95 235.774 523.439 236.094 517.071 236.466C513.222 236.692 509.259 236.917 505.868 235.704C505.911 235.826 505.946 235.956 505.972 236.085C507.356 245.939 502.606 255.69 498.012 265.111C496.014 269.215 494.128 273.086 492.795 276.844C492.285 278.281 491.766 279.701 491.247 281.113ZM495.339 212.429C490.71 212.429 484.992 214.949 481.384 217.503C470.985 224.837 465.993 239.229 461.988 250.789C461.633 251.819 461.278 252.832 460.932 253.819C447.842 291.01 444.616 320.633 450.775 347.052C451.208 348.905 451.744 350.766 452.341 352.628C452.506 352.368 452.661 352.1 452.826 351.84C455.62 347.285 458.51 342.575 461.079 337.605L461.676 336.444C471.323 317.758 480.476 300.033 487.804 280.446C487.959 270.072 488.245 260.374 488.651 251.126C488.997 243.376 490.702 235.834 492.363 228.543C493.617 223.028 494.811 217.737 495.46 212.412C495.417 212.429 495.382 212.429 495.339 212.429ZM357.296 126.401C348.515 126.401 343.168 130.341 338.981 141.554C333.496 156.249 332.657 173.047 336.74 186.512C339.656 196.132 344.613 205.311 349.406 214.187C352.798 220.473 356.31 226.976 359.018 233.522C365.965 250.286 370.403 267.102 371.865 282.134C372.367 287.321 371.571 293.885 370.723 300.838C369.417 311.541 367.938 323.672 371.718 330.643C375.784 338.133 397.032 345.718 406.817 347.511C413.886 348.809 414.413 347.173 416.351 337.111C417.009 333.717 417.632 330.21 418.237 326.824C418.99 322.607 419.768 318.243 420.608 314.061C423.376 300.275 427.633 284.195 438.179 269.484C441.138 265.353 444.105 261.595 446.977 257.95C453.881 249.187 460.404 240.917 464.964 229.738L465.111 229.375C467.473 223.573 469.921 217.581 474.264 212.23C479.689 205.545 482.561 205.112 488.548 204.757C489.889 204.679 491.411 204.592 493.193 204.385C494.171 204.272 495.088 204.09 495.936 203.839C495.659 192.729 491.688 178.52 482.95 170.536C473.805 162.18 465.206 164.812 455.248 167.869C451.485 169.021 447.6 170.216 443.595 170.779C425.453 173.342 413.963 163.609 403.746 153.417C400.311 149.997 398.382 146.412 396.513 142.948C395.051 140.238 393.667 137.684 391.634 135.268C388.597 131.674 383.51 130.765 377.61 129.709C375.724 129.371 373.769 129.025 371.831 128.566C366.112 127.232 361.337 126.401 357.296 126.401ZM497.588 220.768C497.017 223.651 496.369 226.509 495.728 229.331C494.111 236.475 492.432 243.861 492.103 251.299C491.827 257.595 491.602 264.115 491.437 270.912C492.484 268.531 493.661 266.115 494.88 263.613C499.016 255.118 503.29 246.355 502.667 237.956C502.511 237.938 502.347 237.921 502.191 237.895C501.585 237.826 501.023 237.748 500.53 237.748C499.838 237.739 499.223 237.315 498.955 236.683C498.038 234.475 498.142 233.41 498.41 232.033C498.514 231.505 498.618 230.968 498.627 230.128C498.635 229.47 498.713 228.829 498.851 228.197C498.177 226.231 497.761 223.902 497.606 221.192C497.606 221.053 497.597 220.906 497.588 220.768ZM535.525 252.174C535.871 256.902 537.195 261.301 539.176 265.474C538.614 263.526 538.12 261.569 537.705 259.595C537.593 259.067 536.71 254.789 535.966 248.858C535.871 249.931 535.724 251.04 535.525 252.174ZM501.81 234.354C502.079 234.38 502.355 234.414 502.624 234.449C502.926 234.484 503.229 234.518 503.515 234.553C502.874 234.137 502.286 233.652 501.75 233.098C501.681 233.505 501.672 233.843 501.81 234.354ZM548.018 208.809C547.533 208.965 546.53 209.415 544.739 210.74C540.751 213.676 538.951 220.638 538.484 228.846C539.219 227.634 539.955 226.448 540.681 225.296C541.391 224.162 542.083 223.071 542.706 222.032C545.18 217.901 548.061 210.974 548.018 208.809ZM500.937 214.412C500.893 216.551 500.936 218.75 501.066 220.993C501.101 221.573 501.144 222.118 501.196 222.629C502.987 219.27 504.051 217.105 500.937 214.412ZM495.893 207.441C495.166 207.606 494.396 207.744 493.574 207.831C491.697 208.039 490.131 208.134 488.738 208.221C483.564 208.524 481.635 208.636 476.937 214.42C475.268 216.481 473.883 218.681 472.672 220.949C474.645 218.585 476.859 216.455 479.386 214.672C483.435 211.814 490.036 208.818 495.789 208.983C495.832 208.463 495.867 207.952 495.893 207.441ZM481.073 164.778C482.474 165.644 483.876 166.7 485.286 167.99C493.687 175.671 498.038 188.521 499.128 199.613C500.27 194.409 501.983 189.603 504.25 185.231C503.463 181.239 501.767 177.195 499.267 173.775C494.517 167.272 487.985 166.051 481.073 164.778ZM504.466 193.63C503.999 194.963 503.567 196.34 503.195 197.743C503.264 197.604 503.333 197.457 503.393 197.31C503.887 196.176 504.241 194.937 504.466 193.63ZM709.835 165.609C710.631 168.328 711.254 171.255 711.851 174.017C712.378 176.476 712.88 178.806 713.408 180.477L713.486 180.711C716.6 190.66 719.386 193.474 721.177 194.08C721.713 194.262 722.561 194.401 723.833 193.509C726.506 191.63 722.734 182.079 717.535 173.931C715.597 170.891 712.88 168.397 710.25 165.981C710.103 165.86 709.964 165.739 709.835 165.609ZM762.263 101.575C764.123 101.575 765.784 102.225 767.177 103.705C767.713 104.268 767.8 105.125 767.402 105.792C765.126 109.559 762.332 110.962 759.373 112.451C758.638 112.823 757.868 113.204 757.072 113.646C752.876 115.967 748.68 118.105 744.631 120.166C732.977 126.106 721.964 131.717 711.885 140.991C710.916 141.883 709.99 142.697 709.125 143.451C703.424 148.455 701.702 149.962 705.89 156.266C707.637 158.898 710.025 161.089 712.56 163.418C715.354 165.981 718.244 168.64 720.424 172.06C722.604 175.481 728.228 184.936 728.098 191.344C733.574 185.291 739.31 179.342 744.89 173.55C763.24 154.526 782.213 134.852 793.027 110.148C796.851 101.419 797.076 94.8731 793.719 90.6907C784.168 78.8018 747.616 86.0754 730.045 89.565C727.778 90.0153 725.753 90.4223 724.032 90.734C720.589 91.3661 717.007 91.9549 713.226 92.5697C699.92 94.7345 684.841 97.185 673.395 102.675C670.315 104.147 666.776 106.978 664.138 110.286C664.094 110.607 664.043 110.927 663.999 111.247C663.342 115.759 662.658 120.435 662.356 124.998L662.347 125.119C664.605 127.137 668.524 126.981 673.819 126.461C675.047 126.34 676.215 126.228 677.348 126.176L681.856 125.942C688.63 125.587 695.032 125.258 701.668 125.163C704.774 125.119 708.027 125.552 711.167 125.977C715.951 126.626 720.909 127.293 725.321 126.21C728.297 125.483 733.834 120.694 739.189 116.071C747.486 108.927 755.999 101.575 762.263 101.575ZM595.705 165.782C595.843 169.298 597.764 169.74 604.91 171.376C618.268 174.433 636.669 174.459 648.28 165.375C656.395 159.028 658.566 145.866 654.716 126.254C654.569 125.518 654.379 124.756 654.154 123.985C653.367 126.297 652.744 128.687 652.354 131.215C651.68 135.675 651.775 139.744 651.853 143.329C652.078 153.313 652.251 161.193 636.098 166.622C620.837 171.757 609.14 171.584 595.705 165.782ZM401.341 144.533C402.639 146.758 404.109 148.897 406.186 150.975C418.194 162.959 428.083 169.48 443.11 167.358C446.848 166.83 450.602 165.678 454.227 164.57C459.124 163.072 464.107 161.539 469.151 161.496C467.429 160.682 465.777 159.652 464.211 158.31C460.275 154.932 458.492 151.668 458.761 148.317C459.228 142.342 466.132 138.099 472.793 133.995C475.588 132.28 478.261 130.635 480.225 128.999C477.906 130.159 475.717 130.445 472.914 130.808C471.409 131.007 469.713 131.224 467.663 131.631C458.397 133.458 458.103 138.489 457.731 144.853C457.402 150.508 457.022 156.915 448.881 159.669C438.49 163.185 426.854 161.574 415.244 155.028C410.312 152.231 405.597 148.637 401.341 144.533ZM595.921 162.085C608.993 168.008 620.214 168.311 635 163.34C648.738 158.725 648.608 152.958 648.392 143.407C648.306 139.675 648.21 135.45 648.937 130.696C649.586 126.418 650.892 122.504 652.441 118.763C650.944 114.304 649.664 109.749 651.238 105.515C652.173 102.995 654.024 100.796 655.659 98.8562C657.493 96.6828 659.224 94.6219 658.947 92.994C658.739 91.7817 657.416 90.4656 655.019 89.0801C654.163 88.5865 653.194 88.7338 651.688 89.0108C649.448 89.4265 646.376 89.9893 643.565 86.6989C641.073 83.7807 641.791 80.5423 642.362 77.9359C642.717 76.3166 643.054 74.7926 642.717 73.4331C641.929 70.2466 638.469 65.9517 634.636 62.4794C629.774 62.0811 624.765 61.6048 619.721 59.6132C616.364 58.2884 613.769 55.6907 611.269 53.1795C611.07 52.9804 610.862 52.7725 610.663 52.5734C603.041 52.5041 595.341 55.3443 587.711 61.0247C587.183 61.423 586.465 61.4749 585.877 61.1719C585.288 60.8688 584.925 60.2453 584.951 59.5873C585.046 56.3747 587.114 52.686 590.626 49.4648C593.654 46.6766 598.395 43.7844 602.652 44.0095C606.519 44.2174 609.452 46.5726 612.177 49.205C618.605 49.5167 625.016 51.6296 631.271 55.5435C632.69 56.4267 634.351 57.6649 636.046 59.1283C645.26 59.8903 654.725 60.8688 661.205 72.9309C661.525 73.5284 661.828 74.1345 662.113 74.7407C660.547 68.4282 656.533 63.3799 648.591 57.3619C637.716 49.1184 624.947 40.7884 612.67 41.4291C604.538 41.8534 585.202 44.7196 581.222 62.1677C580.902 63.5704 581.101 64.7567 581.343 66.1335C581.646 67.874 581.983 69.8483 581.179 72.3334C580.625 74.0393 579.31 75.6932 578.03 77.2951C577.19 78.3515 576.317 79.4425 575.832 80.3691C572.605 86.569 573.202 87.9631 574.638 91.3228C575.382 93.0633 576.308 95.2281 576.992 98.5185C577.614 101.497 576.862 104.718 576.144 107.827C575.555 110.338 575.01 112.711 575.192 114.746C575.538 118.443 576.775 120.617 578.332 123.361C578.99 124.513 579.665 125.708 580.357 127.128C585.418 137.597 588.792 140.593 601.38 140.385C601.389 140.385 601.397 140.385 601.406 140.385C602.314 140.385 603.076 141.095 603.136 142.004C603.361 145.485 601.432 148.966 599.572 152.335C597.997 155.184 596.362 158.128 596.051 160.977C595.999 161.358 595.956 161.73 595.921 162.085ZM392.222 127.717C398.097 137.424 407.042 146.403 416.957 151.997C424.44 156.223 435.86 160.405 447.791 156.37C453.725 154.361 453.976 150.066 454.296 144.628C454.66 138.359 455.118 130.557 467.014 128.211C469.168 127.786 470.933 127.552 472.482 127.353C477.232 126.73 479.403 126.453 484.066 121.508L485.148 120.374C490.209 115.031 495.945 108.979 498.021 102.337C498.661 100.294 499.241 98.38 499.803 96.5356C501.334 91.4874 502.658 87.1232 504.544 81.9883C506.993 75.3035 507.399 67.5882 505.738 59.059C504.25 51.4131 500.504 45.4903 495.175 42.3816C490.312 39.5415 484.326 39.1864 477.863 41.3426C473.001 42.9705 468.667 46.512 464.479 49.9324C457.74 55.4396 450.767 61.1372 441.596 58.6867C439.52 58.1325 437.807 57.3272 436.284 56.6172C432.166 54.6862 430.626 53.9675 426.984 59.8557C424.397 64.0467 425.236 68.255 426.119 72.7058C426.646 75.3554 427.191 78.0917 427.036 80.9146C426.344 93.808 415.46 112.667 406.203 120.911C401.574 125.033 397.309 127.708 392.24 127.708C392.231 127.717 392.222 127.717 392.222 127.717ZM662.122 129.111C661.767 136.056 661.698 145.944 664.752 150.187C668.533 155.435 675.618 154.603 681.865 153.867C683.257 153.703 684.564 153.547 685.81 153.469C686.848 153.4 687.947 153.27 689.106 153.123C692.688 152.69 696.858 152.188 700.638 153.538C698.813 147.91 702.325 144.827 706.85 140.861C707.689 140.125 708.598 139.329 709.549 138.454C712.897 135.372 716.323 132.696 719.827 130.28C716.791 130.263 713.719 129.847 710.717 129.44C707.568 129.016 704.583 128.609 701.728 128.652C695.153 128.747 688.786 129.076 682.046 129.423L677.53 129.657C676.483 129.709 675.359 129.821 674.165 129.934C670.323 130.306 665.66 130.756 662.122 129.111ZM325.822 3.9959C324.161 3.9959 322.673 4.41154 321.306 5.25147C317.456 7.62406 314.671 13.3217 313.018 22.1973C308.874 44.5464 311.504 68.3676 314.048 91.4007C315.155 101.463 316.306 111.871 316.825 121.811C316.911 123.517 316.608 126.08 316.262 129.042C315.639 134.307 314.601 143.104 316.877 144.862C317.595 145.416 318.391 145.589 319.377 145.408C319.55 145.373 319.732 145.33 319.905 145.278C321.574 137.051 325.805 129.778 332.865 122.686C333.929 121.612 335.858 120.322 338.324 118.772C341.282 111.672 344.899 104.45 351.37 100.242C350.661 96.8993 350.116 93.5136 349.596 90.3184C348.922 86.1447 348.281 82.2048 347.425 79.356L347.321 79.0009C345.202 71.9611 343.013 64.6701 342.623 56.8337C342.615 56.5739 342.597 56.3141 342.597 56.0543C339.708 51.2399 336.031 42.5375 337.112 36.8831C337.502 34.8656 338.453 33.3589 339.941 32.3891C340.634 31.9388 341.542 32.0427 342.122 32.6315C346.94 37.5672 346.56 44.4945 346.222 50.6078C346.136 52.1491 346.058 53.6298 346.049 55.0412C346.222 55.3097 346.387 55.5608 346.551 55.7859C349.994 60.6523 354.727 62.2283 360.203 64.0467C362.712 64.878 365.299 65.7439 367.929 66.9735C369.054 67.5017 370.17 67.9952 371.268 68.4888C373.57 69.5106 375.836 70.515 377.904 71.7013C379.02 68.1251 380.846 64.7567 384.332 61.7001C386.763 59.5699 389.514 58.2624 392.17 56.9982C395.034 55.6387 397.751 54.3485 400.026 52.1145C394.385 40.4333 370.654 28.0595 357.746 21.3314C356.414 20.6387 355.185 19.9979 354.087 19.4177C351.033 17.7985 347.788 15.5471 344.354 13.1572C339.197 9.57236 333.859 5.86627 329.343 4.54143C328.098 4.18641 326.921 3.9959 325.822 3.9959ZM336.005 124.548C335.737 124.764 335.512 124.955 335.339 125.137C329.759 130.739 326.09 136.454 324.17 142.723C327.085 140.238 329.906 136.593 331.489 134.029C333.185 131.285 334.595 128.02 336.005 124.548ZM657.987 125.007C658.03 125.197 658.073 125.388 658.108 125.587C658.315 126.635 658.506 127.665 658.679 128.687C658.722 127.89 658.765 127.128 658.808 126.401C658.506 125.977 658.237 125.518 657.987 125.007ZM390.189 124.106C394.645 124.903 398.495 123.154 403.893 118.339C412.467 110.702 422.926 92.613 423.567 80.7414C423.696 78.3515 423.22 75.9443 422.71 73.3985C421.776 68.7053 420.72 63.3973 424.025 58.0459C428.922 50.1315 432.633 51.1014 437.738 53.4913C439.191 54.1753 440.696 54.8767 442.47 55.353C449.936 57.3532 455.655 52.6773 462.273 47.2654C466.703 43.6459 471.288 39.8965 476.756 38.0694C484.196 35.5843 491.16 36.0432 496.914 39.3943C503.108 43.0138 507.451 49.7678 509.129 58.401C510.912 67.5623 510.453 75.901 507.788 83.1833C505.937 88.2315 504.631 92.5437 503.108 97.5487C502.546 99.4017 501.957 101.324 501.317 103.376C501.317 103.385 501.309 103.402 501.309 103.411C503.316 100.865 505.34 98.354 507.339 95.9814C514.303 87.712 516.864 77.4596 514.753 66.3327C511.898 51.3178 500.478 36.1038 486.333 28.4752C459.894 14.2136 426.413 27.0031 409.309 47.6117C405.935 51.6815 402.327 62.9816 398.512 74.9571C394.619 87.1665 390.466 100.19 385.465 109.741C385.543 110.685 385.673 111.62 385.872 112.538C386.72 116.339 388.208 120.253 390.189 124.106ZM380.067 118.071C380.854 118.677 381.555 119.326 382.212 119.941C383.32 120.972 384.367 121.941 385.621 122.547C384.401 119.82 383.441 117.092 382.766 114.391C381.892 115.741 380.993 116.971 380.067 118.071ZM656.135 118.885C656.144 118.919 656.161 118.954 656.17 118.989C656.403 119.673 656.646 120.374 656.87 121.067C656.68 119.655 656.758 118.227 657.052 116.807C656.741 117.508 656.438 118.201 656.135 118.885ZM357.53 109.161C359.667 114.598 362.79 118.867 367.695 120.236C369.78 120.816 371.762 120.417 373.656 119.257C372.86 119.24 371.961 119.266 371.113 119.292C368.318 119.37 365.68 119.448 364.131 118.365C361.657 116.633 360.454 114.971 360.35 113.144C360.203 110.52 362.383 108.589 364.693 106.546C366.069 105.333 367.488 104.078 368.56 102.614C371.675 98.354 373.933 92.4225 375.438 84.4908C375.715 83.0361 375.94 81.59 376.156 80.1959C376.416 78.5074 376.684 76.8448 377.022 75.2083C374.945 73.9181 372.514 72.8443 369.876 71.6667C368.751 71.1645 367.609 70.6622 366.467 70.1254C364.027 68.9737 361.536 68.1511 359.122 67.3458C354.536 65.8218 350.15 64.3671 346.491 60.964C347.261 66.757 348.913 72.2555 350.643 78.0051L350.747 78.3602C351.673 81.4255 352.33 85.4779 353.022 89.7642C353.481 92.587 353.965 95.5744 354.562 98.5272C354.883 98.3886 355.211 98.2588 355.54 98.1289C356.076 97.9297 356.673 97.999 357.141 98.328C359.71 100.12 360.212 102.164 360.169 103.567C360.134 105.446 359.174 107.29 357.53 109.161ZM762.211 105.108C757.755 105.108 750.185 111.221 743.766 116.729C747.572 114.789 751.492 112.78 755.402 110.615C756.241 110.148 757.054 109.741 757.824 109.351C760.169 108.173 761.968 107.264 763.526 105.325C763.128 105.177 762.687 105.108 762.211 105.108ZM373.12 115.785C374.539 115.785 375.828 115.871 376.823 116.235C376.901 116.261 376.978 116.296 377.056 116.322C378.761 114.399 380.396 111.905 381.962 108.996C381.789 105.03 382.455 101.073 383.104 97.211C383.891 92.5091 384.635 88.067 383.761 84.1877C383.112 81.3302 381.849 79.2347 380.119 77.5549C379.937 78.5853 379.773 79.6417 379.6 80.7241C379.375 82.1528 379.15 83.6336 378.856 85.1402C377.247 93.5915 374.798 99.9732 371.372 104.666C370.074 106.433 368.448 107.879 367.003 109.152C365.411 110.555 363.768 112.009 363.819 112.953C363.854 113.585 364.693 114.529 366.129 115.534C366.735 115.958 369.426 115.88 371.026 115.837C371.736 115.811 372.445 115.785 373.12 115.785ZM352.235 103.87C348.437 106.719 345.781 110.892 343.575 115.508C346.984 113.352 350.868 110.745 353.533 108.295C353.048 106.857 352.616 105.377 352.235 103.87ZM661.118 97.3928C660.34 98.6657 659.31 99.878 658.298 101.082C656.775 102.891 655.201 104.753 654.474 106.71C653.687 108.84 653.938 111.317 654.578 113.888C654.863 113.265 655.157 112.633 655.443 112.018C657.606 107.394 659.821 102.632 661.118 97.3928ZM660.945 108.312C660.781 108.702 660.608 109.091 660.435 109.472C660.573 109.273 660.72 109.074 660.867 108.883C660.893 108.684 660.919 108.502 660.945 108.312ZM355.332 101.991C355.592 103.073 355.869 104.138 356.18 105.177C356.518 104.58 356.708 104.008 356.725 103.48C356.734 103.238 356.751 102.58 355.877 101.748C355.696 101.818 355.514 101.904 355.332 101.991ZM380.949 73.7102C383.856 75.9702 386.106 78.9403 387.127 83.4257C388.156 87.9631 387.317 92.9594 386.512 97.7825C386.391 98.5185 386.27 99.2459 386.149 99.9906C389.48 91.8943 392.482 82.4819 395.216 73.8921C397.396 67.0427 399.42 60.6956 401.419 55.5608C398.996 57.6216 396.306 58.8945 393.684 60.1328C391.124 61.3451 388.71 62.4967 386.642 64.3065C383.458 67.1033 381.901 70.2466 380.949 73.7102ZM653.661 85.2874C654.656 85.2874 655.711 85.4779 656.749 86.0754C659.725 87.7986 661.508 89.617 662.156 91.5999C662.208 91.2102 662.26 90.8293 662.304 90.4483C662.053 84.993 660.911 79.6937 658.151 74.5502C653.462 65.8218 647.25 63.8215 640.061 62.973C642.907 66.0383 645.312 69.4759 646.073 72.5932C646.601 74.7407 646.143 76.8275 645.736 78.6719C645.165 81.2523 644.888 82.9148 646.186 84.4388C647.631 86.136 648.851 85.9975 651.048 85.5992C651.844 85.452 652.735 85.2874 653.661 85.2874ZM616.148 53.0929C617.662 54.4784 619.254 55.6993 620.993 56.3834C623.761 57.4744 626.59 58.0719 629.411 58.4529C625.007 55.6993 620.586 53.9156 616.148 53.0929ZM602.176 47.4472C599.615 47.4472 595.964 49.2396 592.962 52.0019C591.829 53.041 590.877 54.132 590.142 55.2144C595.713 51.8633 601.371 49.8977 607.047 49.3262C605.602 48.2698 604.105 47.5511 602.461 47.4559C602.366 47.4472 602.271 47.4472 602.176 47.4472ZM340.833 36.5194C340.703 36.8225 340.599 37.1602 340.521 37.5412C339.959 40.4507 341.205 44.8841 342.857 48.8153C343.082 44.3473 343.065 39.8965 340.833 36.5194Z"/>
</svg>
