<svg viewBox="0 0 952 359" fill="none" xmlns="http://www.w3.org/2000/svg">
<path class="result-one-svg" stroke="#E5E5E5" stroke-width="3" style="stroke-dasharray: 12042; stroke-dashoffset: 12042;" fill="transparent" d="M273.061 358.724C272.706 358.724 272.351 358.628 272.044 358.427C252.697 346.273 243.517 325.894 245.493 299.504C246.433 286.909 249.656 275.886 251.939 269.387C237.234 283.065 231.872 316.231 231.814 316.596C231.68 317.449 230.99 318.11 230.136 318.206C229.273 318.302 228.457 317.813 228.141 317.017C219.863 296.341 228.716 275.253 233.522 266.214C203.124 275.243 175.46 258.996 164.42 251.117C172.813 275.272 188.995 307.154 219.728 332.517C239.671 348.976 256.534 354.938 256.697 354.995C257.579 355.302 258.116 356.203 257.963 357.123C257.809 358.044 257.004 358.724 256.073 358.724H163.24C162.597 358.724 162.002 358.408 161.648 357.871C161.312 357.373 153.456 344.777 146.952 264.201C145.063 240.831 146.559 206.438 164.362 175.237C171.336 163.025 178.597 155.117 182.952 150.995H134.482C134.406 150.995 134.329 150.995 134.252 150.986C120.65 149.327 109.706 151.82 101.725 158.405C91.2407 167.041 89.5909 179.56 89.3319 183.184C82.7037 277.017 122.703 355.149 123.116 355.925C123.423 356.52 123.403 357.229 123.048 357.804C122.703 358.379 122.08 358.724 121.408 358.724H2.4265C1.37136 358.724 0.508057 357.862 0.508057 356.807C0.508057 355.753 1.37136 354.89 2.4265 354.89H118.329C111.25 340.004 79.4999 267.786 85.495 182.915C85.7828 178.899 87.6149 165.048 99.2694 155.443C108.075 148.187 119.96 145.407 134.588 147.161H188.074C188.899 147.161 189.638 147.688 189.897 148.474C190.156 149.26 189.887 150.123 189.215 150.612C189.1 150.698 177.868 159.191 167.566 177.317C158.06 194.044 147.432 222.647 150.76 263.885C156.295 332.498 162.683 350.979 164.41 354.88H246.884C239.891 351.43 229.253 345.333 217.417 335.575C198.577 320.066 173.11 291.989 158.789 246.314C158.53 245.49 158.856 244.598 159.576 244.129C160.305 243.659 161.245 243.736 161.897 244.311C162.252 244.627 198.127 276.001 237.061 260.942C237.838 260.645 238.721 260.875 239.248 261.526C239.776 262.178 239.814 263.089 239.354 263.789C239.191 264.028 224.946 285.816 229.541 308.352C232.476 295.527 240.006 270.412 255.162 262.341C255.881 261.958 256.773 262.073 257.378 262.629C257.972 263.185 258.155 264.067 257.819 264.814C257.752 264.977 250.721 280.822 249.311 299.878C247.479 324.667 255.517 343.071 273.205 354.602C276.322 353.05 287.133 347.059 297.713 334.089C308.197 321.225 320.408 298.881 321.991 263.645C304.025 252.813 282.605 246.63 277.608 245.269C261.531 261.948 245.685 256.925 245.013 256.705C235.296 253.935 225.321 228.418 224.217 225.523C224.074 225.14 224.054 224.718 224.16 224.325C229.963 203.773 227.69 184.487 217.407 167.003C209.704 153.9 200.122 146.768 200.036 146.701C199.431 146.26 199.143 145.493 199.297 144.765C199.45 144.026 200.026 143.451 200.755 143.288L236.054 135.447C236.956 135.246 237.867 135.716 238.232 136.559C240.774 142.483 244.764 148.158 248.965 153.094C244.745 143.26 243.776 134.22 243.718 133.588C243.67 133.08 243.814 132.581 244.14 132.188L261.138 111.282C261.637 110.669 262.452 110.419 263.21 110.659C263.958 110.899 264.486 111.57 264.543 112.356C266.74 144.122 297.703 177.432 306.231 186.05L308.936 177.95C306.634 173.004 304.063 164.175 304.581 156.411C301.32 151.657 297.761 147.008 293.866 142.483C293.828 142.435 293.79 142.387 293.751 142.33C293.377 141.793 284.821 129.447 281.905 114.139C278.011 113.18 267.862 108.809 263.382 88.9957C261.493 80.6466 262.337 74.809 265.896 71.6553C270.788 67.3227 278.634 70.0546 278.97 70.1792C279.21 70.2654 279.44 70.3996 279.622 70.5722C280.658 71.5307 289.109 79.5155 290.5 86.6472H295.823C295.612 82.6596 295.881 74.1092 301.224 67.8978C304.744 63.8048 309.79 61.4851 316.236 61.0058C314.566 55.4749 311.161 41.9113 314.403 32.1724C314.73 31.2042 315.746 30.6579 316.725 30.9262C326.183 33.5048 348.983 38.125 361.53 35.0672C360.235 32.642 359.132 30.8112 358.47 29.7281C355.151 30.4374 351.669 30.7441 348.101 30.7441C325.291 30.7441 299.296 18.0624 294.001 15.3497C274.548 25.9226 263.421 43.2725 260.927 66.9488C259.028 84.9985 263.114 100.057 263.152 100.201C263.421 101.179 262.884 102.205 261.915 102.53C260.946 102.856 259.9 102.368 259.517 101.428C247.728 71.9717 246.865 47.7106 256.956 29.335C269.723 6.09002 295.161 1.048 296.245 0.846705C296.351 0.827534 296.456 0.817949 296.562 0.817949C365.434 -0.50486 371.477 31.1179 371.707 32.4695C371.803 33.0446 371.63 33.6294 371.247 34.0607C370.115 35.3356 368.657 36.3708 366.969 37.1952C371.515 46.4069 376.964 60.4115 376.964 74.5981C376.964 75.1445 376.734 75.6621 376.331 76.0264C372.945 79.0746 364.561 88.4397 366.432 94.977C368.983 103.901 372.935 113.017 372.973 113.103C373.213 113.65 373.184 114.273 372.887 114.8C372.734 115.068 369.204 121.28 359.966 120.973C358.633 122.066 356.676 124.117 356.801 125.613C356.858 126.37 357.568 127.089 358.911 127.76C359.362 127.99 359.707 128.383 359.87 128.872C359.995 129.245 360.58 131 361.463 133.722C362.671 133.588 363.774 133.578 364.734 133.703C368.168 134.134 370.547 135.553 371.803 137.911C373.616 141.323 372.388 145.56 371.563 147.669C374.23 150.516 381.932 159.133 384.225 165.997C386.402 172.524 381.002 179.637 375.899 184.919C376.647 188.762 377.079 191.945 377.021 194.073C381.808 198.913 411.313 229.194 424.867 253.561C428.81 256.168 457.701 275.56 463.965 288.433C468.118 289.085 483.025 291.836 490.583 298.46C495.686 296.916 516.454 291.855 525.355 308.055L575.417 317.037C576.309 317.199 576.971 317.957 576.99 318.867C577.019 319.778 576.405 320.574 575.522 320.784C575.206 320.861 573.163 321.379 570.295 322.529L575.321 323.545L596.855 324.81C601.018 322.519 628.299 308.026 644.797 311.822C662.514 315.905 669.363 330.562 669.641 331.185C669.881 331.712 669.871 332.316 669.612 332.834C669.305 333.437 666.524 338.786 662.006 340.32C662.063 340.55 662.169 340.857 662.246 341.077C662.754 342.592 663.934 346.148 659.569 348.209C659.31 348.333 659.032 348.391 658.744 348.391H612.855L609.565 354.88H750.954V348.41H716.269C715.53 348.41 714.859 347.988 714.533 347.317C714.216 346.646 714.312 345.86 714.782 345.285L737.928 316.883L739.194 297.894C739.261 296.888 740.096 296.102 741.113 296.102H750.58C741.966 287.925 738.177 280.765 738.101 280.602C737.957 280.333 737.89 280.027 737.89 279.729V272.502H726.034V316.308C726.034 316.787 725.852 317.247 725.535 317.602L698.082 347.787C697.718 348.19 697.2 348.41 696.662 348.41H678.341C677.593 348.41 676.902 347.969 676.595 347.289C676.279 346.608 676.404 345.803 676.893 345.237L703.876 314.295V301.239L585.412 300.482C584.875 300.482 584.357 300.243 583.992 299.84C583.628 299.437 583.455 298.901 583.513 298.364L601.747 123.715L596.923 120.456L578.889 298.21C578.832 298.766 578.534 299.274 578.074 299.591C577.613 299.907 577.028 300.013 576.491 299.869L566.726 297.252C565.815 297.012 565.22 296.14 565.316 295.201L584.923 108.378C585.028 107.342 585.968 106.576 586.995 106.671L804.018 124.961C804.536 125.009 805.026 125.258 805.352 125.67C805.678 126.073 805.831 126.6 805.764 127.118L783.539 298.268C783.414 299.227 782.599 299.936 781.64 299.936H761.141C771.04 307.135 785.074 313.854 804.047 315.704C840.507 319.27 852.238 348.055 854.512 354.89H1092.34C1093.4 354.89 1094.26 355.753 1094.26 356.807C1094.26 357.862 1093.4 358.724 1092.34 358.724H853.092C852.21 358.724 851.452 358.13 851.231 357.277C850.876 355.896 842.128 323.286 803.663 319.519C781.218 317.324 765.381 308.572 754.897 299.936H742.897L741.707 317.746C741.679 318.139 741.535 318.522 741.285 318.829L720.298 344.576H752.863C753.918 344.576 754.782 345.439 754.782 346.493V356.817C754.782 357.871 753.918 358.734 752.863 358.734H606.438C605.767 358.734 605.153 358.389 604.807 357.823C604.462 357.258 604.433 356.548 604.731 355.954L609.958 345.63C610.285 344.988 610.946 344.576 611.666 344.576H658.274C659.176 344.087 659.07 343.761 658.581 342.304C658.313 341.489 657.996 340.569 658.121 339.591C658.217 338.805 658.687 337.387 660.74 336.706C662.869 335.997 664.759 333.505 665.699 331.961C664.03 328.961 657.44 318.695 643.915 315.57C627.838 311.851 598.515 328.271 598.227 328.434C597.911 328.616 597.537 328.702 597.172 328.673L574.947 327.37C574.861 327.37 574.765 327.351 574.678 327.331L564.53 325.28C555.839 330.15 545.422 339.611 546.899 356.644C546.947 357.181 546.765 357.708 546.401 358.101C546.036 358.494 545.528 358.724 544.99 358.724H463.936C463.802 358.724 463.658 358.705 463.524 358.676C462.977 358.561 408.647 346.004 356.532 279.595C356.005 278.924 355.986 277.985 356.484 277.295C356.983 276.605 357.885 276.327 358.691 276.614C359.372 276.863 427.294 300.942 447.169 287.292C447.821 286.842 448.685 286.842 449.337 287.292C449.989 287.743 450.306 288.548 450.114 289.315L445.423 309.023C450.565 303.425 458.354 296.102 463.936 296.102C464.608 296.102 465.231 296.456 465.577 297.031C465.922 297.607 465.941 298.325 465.634 298.92C462.075 305.668 457.327 315.445 454.718 322.337C460.426 316.404 469.711 307.585 477.538 304.115C477.903 303.952 478.305 303.904 478.699 303.991L564.108 321.293C565.364 320.631 566.573 320.056 567.686 319.558L523.734 311.678C523.139 311.573 522.631 311.189 522.353 310.653C514.065 294.089 490.967 302.361 490.737 302.447C490.037 302.706 489.25 302.534 488.713 302.006C481.423 294.721 462.555 292.124 462.363 292.104C461.673 292.009 461.097 291.558 460.838 290.916C455.888 278.55 422.68 256.753 422.344 256.532C422.086 256.36 421.865 256.13 421.711 255.852C407.63 230.268 374 196.527 373.664 196.182C373.242 195.76 373.041 195.175 373.117 194.59C373.29 193.248 373.079 191.015 372.599 188.158C372.206 188.532 371.822 188.897 371.458 189.232L370.585 190.056C357.866 202.144 346.931 204.176 343.458 204.511L336.13 216.714C335.861 217.155 335.43 217.471 334.94 217.596C338.969 235.061 341.022 253.848 341.06 273.643C344.523 277.276 347.372 281.225 349.309 285.481C349.415 285.711 349.472 285.96 349.482 286.219C349.54 288.174 350.566 334.281 329.386 358.092C328.792 358.763 327.794 358.935 327.008 358.485C326.221 358.044 325.847 357.114 326.115 356.251C326.221 355.925 336.197 323.267 337.147 280.726C337.185 278.924 337.214 277.084 337.214 275.205C333.847 271.869 329.895 268.802 325.665 266.003C324.37 287.973 318.451 314.803 300.504 336.716C287.449 352.656 274.337 358.341 273.79 358.58C273.569 358.676 273.31 358.724 273.061 358.724ZM464.157 354.89H542.947C542.381 339.467 550.899 329.872 559.235 324.207L478.545 307.863C467.361 313.174 452.464 330.447 452.311 330.629C451.793 331.242 450.939 331.463 450.191 331.175C449.433 330.897 448.934 330.178 448.934 329.373C448.934 324.024 456.282 308.802 460.109 301.249C454.737 304.326 447.418 312.148 443.217 317.497C442.661 318.206 441.682 318.436 440.877 318.043C440.061 317.65 439.639 316.749 439.841 315.877L445.395 292.555C440.694 294.472 434.699 295.258 428.061 295.258C405.865 295.258 376.407 286.526 363.64 282.365C412.004 341.25 460.723 354.056 464.157 354.89ZM341.031 279.394C341.022 279.902 341.012 280.41 341.003 280.918C340.35 309.838 335.564 334.262 332.466 347.279C345.722 324.58 345.722 290.686 345.674 286.698C344.465 284.148 342.892 281.714 341.031 279.394ZM682.562 344.576H695.799L722.187 315.57V270.585C722.187 269.53 723.05 268.668 724.106 268.668H739.799C740.854 268.668 741.717 269.53 741.717 270.585V279.241C742.715 280.985 747.223 288.385 756.278 296.111H779.951L801.697 128.622L588.549 110.659L569.307 293.993L575.311 295.603L593.441 116.899C593.508 116.228 593.92 115.644 594.534 115.356C595.138 115.068 595.858 115.126 596.424 115.5L604.865 121.194C605.45 121.587 605.776 122.277 605.699 122.986L587.57 296.677L705.833 297.424C706.888 297.434 707.741 298.287 707.741 299.342V315.024C707.741 315.484 707.578 315.934 707.271 316.279L682.562 344.576ZM325.895 261.517C329.924 264.067 333.76 266.866 337.204 269.904C336.935 253.053 335.084 233.939 330.163 214.432C320.331 206.687 305.876 203.131 301.492 202.192L284.025 232.425C310.039 235.875 324.792 250.954 325.425 251.615C325.761 251.96 325.952 252.43 325.962 252.909C326.01 255.66 325.991 258.536 325.895 261.517ZM276.984 241.234C277.138 241.234 277.291 241.253 277.445 241.291C278.951 241.665 302.02 247.551 322.116 259.235C322.154 257.443 322.154 255.631 322.135 253.772C319.228 251.04 304.38 238.166 280.716 235.914C280.063 235.856 279.488 235.463 279.19 234.888C278.893 234.313 278.912 233.613 279.229 233.048L298.835 199.076C299.238 198.377 300.034 198.003 300.83 198.147C301.598 198.281 316.581 201.003 328.6 208.643C324.197 193.105 317.77 177.432 308.552 162.584C309.195 168.057 310.96 173.55 312.677 176.972C312.907 177.423 312.945 177.95 312.782 178.439L308.859 190.2C308.648 190.823 308.14 191.293 307.507 191.456C306.874 191.619 306.202 191.446 305.722 190.996C304.063 189.443 266.538 153.909 261.176 117.292L247.594 133.99C248.131 137.901 251.162 155.817 262.471 166.6C264.793 168.585 266.298 169.725 266.356 169.764C267.191 170.387 267.373 171.575 266.759 172.419C266.145 173.262 264.975 173.464 264.111 172.869C262.673 171.873 261.33 170.78 260.083 169.62C253.752 164.242 241.512 152.749 235.335 139.54L205.378 146.193C209.004 149.442 215.191 155.74 220.62 164.933C228.064 177.528 235.344 198.089 228.016 224.766C232.026 235.07 240.256 251.385 246.136 253.072C246.807 253.283 260.984 257.644 275.574 241.857C275.939 241.445 276.447 241.234 276.984 241.234ZM333.684 212.352C333.818 212.467 333.952 212.582 334.087 212.697L340.715 201.664C341.06 201.089 341.684 200.735 342.355 200.735C342.461 200.735 354.048 200.486 367.966 187.267L368.849 186.433C369.683 185.647 370.681 184.708 371.746 183.653C369.021 170.933 363.026 151.158 358.815 138.026C346.787 140.777 326.183 152.759 323.084 157.916C322.662 158.616 321.847 158.97 321.041 158.807C320.245 158.635 319.631 157.983 319.535 157.168C319.516 157.053 318.02 145.464 313.233 140.461C311.363 138.515 308.514 138.074 305.866 139.205C307.622 142.09 310.48 147.813 309.108 152.462C308.83 153.392 308.638 154.369 308.514 155.395C319.439 171.585 327.698 189.97 333.147 210.263C333.319 210.953 333.501 211.653 333.684 212.352ZM362.652 137.451C366.086 148.196 371.832 166.773 374.911 180.317C378.623 176.129 381.894 171.154 380.58 167.204C378.134 159.881 368.024 149.509 367.918 149.404C367.343 148.819 367.208 147.928 367.573 147.19C368.225 145.896 369.645 142.013 368.408 139.694C367.765 138.496 366.374 137.757 364.245 137.499C363.755 137.451 363.218 137.432 362.652 137.451ZM308.744 134.776C311.459 134.776 314.058 135.792 315.986 137.805C319.737 141.716 321.713 148.474 322.634 152.768C329.684 146.452 346.336 137.192 357.635 134.431C357.213 133.118 356.811 131.91 356.446 130.818C353.77 129.245 353.06 127.319 352.945 125.929C352.609 121.615 357.645 117.896 358.221 117.484C358.585 117.225 359.026 117.101 359.468 117.129C365.041 117.513 367.918 114.953 369.002 113.65C367.89 111.004 364.868 103.556 362.719 96.0507C360.139 87.021 370.355 76.429 373.098 73.7929C372.887 60.5648 367.611 47.2792 363.295 38.5755C349.118 42.5823 324.974 37.0418 317.521 35.1439C314.95 46.1673 320.552 62.0506 320.61 62.2136C320.821 62.7983 320.734 63.4501 320.37 63.9581C320.015 64.4662 319.43 64.7729 318.806 64.7729C312.264 64.7729 307.315 66.6708 304.092 70.4188C298.183 77.2917 299.766 88.1905 299.785 88.2959C299.871 88.8519 299.708 89.4078 299.344 89.8296C298.979 90.2514 298.452 90.5006 297.886 90.5006H288.735C287.68 90.5006 286.816 89.6379 286.816 88.5835C286.816 83.7619 280.207 76.4673 277.282 73.6875C275.948 73.2945 271.123 72.1059 268.38 74.5406C265.992 76.6686 265.541 81.3751 267.066 88.1521C271.872 109.394 283.152 110.534 283.632 110.573C284.504 110.64 285.243 111.301 285.387 112.174C287.795 126.629 296.063 139.004 296.783 140.058C299.833 143.595 302.72 147.266 305.463 151.062C306.308 147.362 302.95 141.601 301.55 139.646C301.253 139.234 301.128 138.716 301.214 138.208C301.3 137.71 301.579 137.259 301.991 136.962C304.101 135.495 306.461 134.776 308.744 134.776ZM296.802 4.67134C294.749 5.11228 271.68 10.461 260.294 31.2426C253.128 44.3173 251.91 60.7182 256.62 80.1578C256.495 75.988 256.591 71.3966 257.1 66.575C259.737 41.5471 272.179 22.5101 293.09 11.5155C293.655 11.2183 294.327 11.2183 294.883 11.525C295.267 11.7263 333.76 31.9998 358.882 25.7309C359.669 25.5391 360.494 25.8555 360.945 26.5265C361.156 26.8428 362.93 29.5267 365.223 33.8211C366.163 33.3706 366.988 32.8433 367.678 32.2299C366.997 30.0539 364.59 24.2355 357.204 18.5704C348.484 11.8701 330.931 4.03869 296.802 4.67134Z"/>
</svg>
