<svg viewBox="0 0 1130 496" fill="none" xmlns="http://www.w3.org/2000/svg">
<path class="result-two-svg" stroke="#E5E5E5" stroke-width="3" style="stroke-dasharray: 9778; stroke-dashoffset: 9778;" fill="transparent" d="M1118.37 495.072C1112.89 495.072 1106.04 494.863 1099.04 494.476C1090.27 493.995 1068.72 492.521 1057.94 489.156C1055.29 488.33 1052.63 487.462 1049.98 486.605C1041.78 483.94 1033.29 481.17 1024.57 479.424C1022.23 478.954 1013.86 478.4 1003.26 477.71C974.285 475.797 925.792 472.609 909.387 465.323C902.522 462.282 895.73 458.906 889.168 455.634C872.659 447.429 857.069 439.673 839.881 436.411C834.311 435.356 828.355 434.958 822.608 434.572C815.785 434.122 808.732 433.652 802.014 432.084C795.796 430.642 789.569 428.102 783.55 425.656C779.59 424.046 775.849 422.52 772.14 421.297C767.605 419.802 763.133 417.921 758.818 416.112C753.05 413.687 747.094 411.189 740.678 409.433C732.037 407.071 724.409 407.917 715.59 408.91C713.772 409.109 711.923 409.318 710.021 409.506C704.901 409.997 699.844 410.677 694.964 411.335C677.974 413.635 661.924 415.799 644.788 410.06C636.544 407.301 628.457 404.154 620.641 401.123C608.123 396.263 596.295 391.674 583.704 388.413C577.027 386.678 570.13 386.207 563.464 385.758C549.849 384.827 535.774 383.855 524.907 371.688C520.968 367.277 517.468 364.591 513.518 361.664C512.787 364.027 510.77 367.162 505.347 368.824C499.391 370.654 476.184 366.64 470.886 365.385C470.333 365.26 469.852 364.905 469.57 364.413C469.277 363.922 469.204 363.337 469.361 362.783C470.343 359.281 471.503 355.759 472.631 352.351C475.912 342.39 479.319 332.094 478.566 321.087C478.002 312.798 475.484 304.969 472.809 296.68C471.44 292.426 470.019 288.025 468.901 283.583C466.78 275.158 465.965 266.231 465.171 257.598C464.784 253.375 464.387 249.058 463.833 244.783C463.426 244.783 463.018 244.657 462.673 244.417C456.07 239.891 454.387 233.671 458.18 227.776C459.131 226.292 460.396 224.902 461.869 223.668C461.89 223.584 461.921 223.501 461.942 223.428C463.165 219.853 466.445 219.205 471.409 218.222C474.303 217.647 477.918 216.937 482.6 215.505C483.216 215.316 483.874 215.421 484.407 215.787C484.93 216.153 485.264 216.738 485.295 217.386C485.358 218.473 485.421 219.56 485.494 220.658C485.504 220.658 485.504 220.668 485.515 220.668C487.218 216.006 488.326 210.738 489.538 204.926C489.862 203.4 490.185 201.853 490.52 200.275C485.013 205.355 478.629 209.432 471.837 213.174C471.795 213.205 471.754 213.236 471.701 213.268C470.625 213.926 469.465 214.532 468.264 215.107C465.463 216.592 462.611 218.034 459.748 219.487C454.92 221.933 449.915 224.473 444.952 227.264C441.316 229.313 438.38 231.372 435.976 233.567C433.688 239.42 433.072 247.187 432.591 253.375C432.455 255.078 432.33 256.699 432.183 258.172C431.807 261.82 431.776 265.594 431.745 269.252C431.671 277.625 431.598 286.28 427.638 294.924C426.938 296.461 426.154 298.06 425.339 299.711C424.9 300.6 424.462 301.499 424.023 302.408C426.154 311.052 425.538 319.603 422.163 328.488C421.808 329.418 420.836 329.972 419.854 329.805C419.446 329.752 417.22 329.763 416.761 329.815C415.695 329.94 414.64 329.24 414.42 328.184C412.539 319.341 415.632 310.603 419.133 303.014C417.764 302.649 416.573 302.429 415.507 302.335C414.441 304.091 413.208 305.638 411.777 306.924C411.296 307.363 410.638 307.54 409.99 307.415C408.328 307.101 406.918 306.422 405.768 305.387C403.898 306.527 401.756 307.791 398.893 308.91C395.8 310.122 392.07 310.394 388.465 310.666C380.869 311.23 376.167 311.92 374.902 316.739C374.756 317.303 374.369 317.784 373.857 318.056C373.335 318.328 372.729 318.369 372.175 318.171C361.653 314.366 350.964 311.931 339.637 309.349C333.43 307.938 327.015 306.474 320.536 304.75C315.792 303.485 311.467 302.105 307.277 300.767C295.03 296.858 284.456 293.482 269.462 294.976C256.777 296.241 227.06 299.21 214.605 286.05C209.454 280.604 208.994 272.263 210.112 263.367C208.241 263.796 206.423 264.392 204.762 265.092C198.284 267.852 194.125 272.137 194.177 276.015C194.188 276.674 193.885 277.29 193.362 277.698C192.84 278.095 192.161 278.231 191.534 278.064C183.477 275.858 175.651 273.444 167.376 270.883C157.23 267.747 146.739 264.507 135.882 261.716C127.544 259.573 119.864 255.862 112.425 252.277C101.85 247.176 91.861 242.358 80.3254 241.804C76.1249 241.594 71.7259 241.532 67.4627 241.469C49.3965 241.208 30.7242 240.936 15.918 230.692C12.7938 228.529 10.2024 226.532 7.91413 224.766C0.965576 219.403 -3.62152 215.86 -15.1572 213.539C-22.2938 212.097 -28.4378 212.264 -34.9475 212.432C-38.3225 212.515 -41.8124 212.609 -45.5845 212.484C-46.7339 212.442 -47.6429 211.48 -47.6012 210.32C-47.5594 209.17 -46.6294 208.23 -45.4487 208.303C-41.802 208.428 -38.3747 208.334 -35.0624 208.25C-28.3124 208.073 -21.9385 207.905 -14.3421 209.442C-1.8452 211.961 3.31659 215.944 10.4637 221.463C12.7102 223.198 15.2597 225.163 18.2899 227.264C32.0512 236.786 50.0861 237.048 67.5149 237.298C71.8095 237.361 76.2503 237.424 80.5239 237.633C92.9059 238.239 103.752 243.465 114.243 248.525C121.494 252.026 128.997 255.643 136.927 257.681C147.888 260.493 158.431 263.754 168.619 266.9C176.069 269.2 183.154 271.385 190.342 273.402C191.596 268.677 196.256 264.183 203.132 261.256C205.514 260.242 208.127 259.448 210.77 258.967C211.387 255.392 212.17 251.796 212.923 248.305C214.396 241.5 215.796 235.072 215.681 230.253C215.65 229.124 216.527 228.184 217.646 228.121C219.61 227.996 221.532 228.163 223.413 228.57C222.17 227.013 220.644 225.32 218.816 223.386C217.363 221.87 215.368 220.271 213.246 218.578C206.705 213.372 197.761 206.233 204.323 197.547C206.256 194.986 208.91 193.324 212.097 192.634C209.767 192.728 207.259 193.104 204.532 194.035C203.926 194.244 203.257 194.16 202.724 193.815C202.191 193.47 201.836 192.895 201.774 192.258C200.927 183.593 199.663 138.447 214.051 131.852C213.612 131.371 213.226 130.869 212.87 130.336C212.442 129.678 212.421 128.841 212.808 128.162C214.187 125.737 215.587 120.208 216.026 114.699C215.211 115.974 214.365 117.239 213.529 118.472C212.463 120.061 211.449 121.566 210.603 122.957C209.861 124.169 208.649 127.702 207.374 131.444C203.09 144.019 199.935 152.235 195.243 152.015C191.617 151.837 189.956 146.716 188.911 142.284C188.169 139.106 192.181 126.322 194.637 118.974C201.282 99.1036 203.268 98.1733 204.01 97.8179C204.313 97.6716 204.616 97.5357 204.908 97.4207C204.584 97.4312 204.25 97.4417 203.905 97.4626C203.069 97.4939 202.317 97.0549 201.951 96.3232C198.273 89.1004 208.325 59.2476 210.321 54.523C213.727 46.443 217.98 42.5128 222.849 40.0251C222.556 40.0251 222.264 40.0356 221.961 40.0356C221.104 40.0565 220.32 39.5547 219.986 38.7708C219.652 37.9868 219.829 37.0775 220.435 36.4712C225.514 31.4121 237.572 27.6073 245.962 30.3041C246.777 29.6247 247.54 28.8826 248.24 28.0986C247.341 27.2415 246.349 26.5412 245.074 26.1858C240.874 25.0151 235.607 26.3739 230.957 27.5655C228.889 28.0986 226.935 28.6003 225.106 28.893C224.437 28.9975 223.769 28.778 223.288 28.2972C222.818 27.8164 222.609 27.137 222.724 26.468C224.5 16.3707 228.303 3.70206 236.391 0.723046C240.717 -0.876213 245.544 0.493102 250.737 4.78915C256.923 9.89006 257.487 15.7644 256.881 19.7992C256.463 22.59 255.324 25.3705 253.653 27.9105C255.69 30.325 256.787 31.3703 260.006 29.7606C260.183 21.5134 264.29 11.4057 271.322 7.79953C274.718 6.06438 280.193 5.09228 287.058 10.3395C292.345 14.3847 292.93 18.5553 292.606 21.1371C294.184 21.7956 295.751 22.5796 297.329 23.4994C310.84 31.3912 310.767 37.0879 310.578 50.8541L310.558 52.2965C310.296 72.742 309.962 98.1838 303.16 118.399C301.31 123.887 297.664 128.476 292.554 131.883C292.554 131.904 292.554 131.915 292.554 131.935C292.648 133.775 293.171 137.308 293.714 141.061C295.104 150.583 296.034 157.565 295.25 160.607C293.014 169.252 287.068 172.314 282.492 171.509C277.905 170.704 273.641 165.896 274.488 156.97C274.624 155.569 275.46 153.708 276.63 151.137C278.594 146.789 281.572 140.214 279.691 137.35C279.66 137.308 279.629 137.266 279.597 137.214C276.243 137.956 272.785 138.322 269.357 138.322C267.759 140.13 265.93 142.806 263.882 146.329C265.24 146.548 266.62 146.768 268.02 146.977C268.605 147.06 269.138 147.395 269.462 147.897C269.786 148.398 269.89 149.005 269.744 149.58C268.281 155.119 264.478 160.597 260.81 165.886C258.052 169.868 255.189 173.987 253.402 178.032C252.221 180.718 251.385 183.634 250.581 186.467C248.627 193.355 246.61 200.442 239.473 203.996C239.536 205.648 239.766 207.237 240.194 208.731C243.371 219.717 252.785 226.407 261.897 232.877C271.092 239.399 279.775 245.566 282.335 255.768C282.471 256.322 282.377 256.908 282.074 257.388C281.854 257.733 262.576 288.046 244.907 291.976C254.206 292.342 263.381 291.433 269.023 290.868C284.874 289.29 296.368 292.959 308.52 296.837C312.658 298.154 316.942 299.523 321.581 300.767C327.986 302.471 334.36 303.924 340.536 305.335C351.288 307.791 361.486 310.112 371.6 313.613C374.495 307.572 381.694 307.039 388.12 306.558C391.422 306.307 394.839 306.056 397.347 305.074C399.792 304.122 401.631 303.046 403.365 301.99C400.69 295.53 402.958 284.91 404.985 275.44C405.873 271.301 406.709 267.402 406.824 264.925C407.022 260.744 406.657 255.758 406.27 250.469C405.444 239.295 404.515 226.626 409.049 218.118C412.403 211.836 433.583 193.596 440.981 190.638C445.161 188.955 450.72 189.739 456.613 192.822C462.538 195.927 469.131 201.78 471.795 208.47C479.716 203.965 486.8 199.01 492.369 192.394C492.432 192.164 492.495 191.923 492.557 191.683C494.449 184.638 497.27 181.335 500.425 178.899C501.502 176.203 502.411 173.297 503.121 170.15C502.473 169.952 501.805 169.743 501.136 169.544C484.783 164.516 464.429 158.266 453.342 165.844C452.841 166.189 452.371 166.555 451.921 166.941C452.59 168.363 452.977 169.879 452.956 171.541C452.904 175.795 450.103 180.175 444.388 184.962C443.74 185.495 442.841 185.599 442.089 185.213C441.347 184.826 440.898 184.032 440.96 183.195C441.483 176.14 443.395 170.527 446.645 166.429C445.224 164.652 443.238 162.928 441.201 161.14C435.496 156.144 428.39 149.935 433.573 140.454C438.296 131.841 444.659 128.601 449.769 126.009C457.104 122.288 461.942 119.821 460.375 104.257C459.424 94.8703 454.732 64.0349 434.148 61.2963C428.808 60.5855 425.141 61.2754 423.229 63.345C419.53 67.3588 421.588 76.8499 423.584 86.0378C424.639 90.9296 425.674 95.6647 425.966 99.8876C427.607 103.703 429.707 107.163 432.643 109.901C433.249 110.466 435.245 111.176 437 111.793C442.026 113.57 450.438 116.549 447.669 124.42C445.171 131.528 424.336 128.622 424.138 128.58C414.546 126.678 408.37 118.148 409.467 112.075C409.791 110.278 411.62 104.769 421.525 105.741C421.849 104.33 421.933 102.668 421.849 100.86C419.927 96.1873 418.642 91.1387 417.377 86.1632C416.688 83.4455 416.029 80.8846 415.287 78.4073C411.285 65.1847 413.01 59.1953 420.961 48.6067C418.338 46.5685 416.761 43.3595 416.447 39.3248C415.643 29.0811 422.821 15.6077 432.455 9.30471C439.759 4.52784 447.888 4.08881 455.349 8.07127C460.51 10.8308 464.303 20.2068 463.969 28.5167C472.109 24.1893 481.126 22.7364 491.199 26.4471C510.53 33.5863 526.224 57.7738 530.226 77.0171C531.104 81.2191 531.793 85.3897 532.472 89.4349C533.611 96.2814 534.803 103.368 536.851 110.497C538 114.5 539.839 118.598 541.782 122.936C544.938 129.97 548.198 137.256 548.543 144.531C549.076 155.673 543.904 164.496 534.343 168.729C528.836 171.164 522.546 171.781 516.475 170.767C516.381 170.893 516.287 171.018 516.182 171.143C512.473 175.878 509.015 178.147 505.963 180.143C505.222 180.624 504.521 181.094 503.853 181.565C501.794 186.394 499.213 190.575 496.215 194.265C495.191 198.268 494.386 202.104 493.613 205.825C492.202 212.557 490.906 218.755 488.639 224.243C493.519 231.811 495.159 245.995 496.298 259.197C496.434 260.806 496.559 262.228 496.685 263.388C497.5 271.186 497.834 278.639 498.169 285.851C498.472 292.551 498.795 299.481 499.485 306.798C499.987 312.066 501.052 317.011 502.191 322.237C503.738 329.355 505.326 336.703 505.336 344.856C509.756 348.034 512.818 352.445 513.664 356.637C514.155 357.002 514.646 357.368 515.138 357.724C519.432 360.901 523.497 363.912 528 368.95C537.739 379.852 550.361 380.72 563.725 381.639C570.58 382.11 577.675 382.601 584.717 384.42C597.549 387.744 610.035 392.594 622.124 397.287C629.898 400.308 637.934 403.423 646.084 406.161C662.29 411.597 677.88 409.485 694.369 407.259C699.29 406.59 704.389 405.9 709.593 405.409C711.473 405.231 713.302 405.022 715.099 404.823C723.97 403.83 732.34 402.9 741.754 405.471C748.431 407.301 754.513 409.851 760.406 412.328C764.847 414.189 769.037 415.956 773.425 417.398C777.281 418.673 781.262 420.293 785.107 421.861C790.979 424.255 797.05 426.722 802.944 428.091C809.328 429.575 816.214 430.035 822.87 430.474C828.742 430.861 834.823 431.269 840.643 432.377C858.407 435.753 874.979 443.99 891.018 451.965C897.548 455.205 904.288 458.561 911.069 461.571C926.805 468.553 974.829 471.721 1003.52 473.602C1014.69 474.334 1022.76 474.867 1025.37 475.389C1034.34 477.187 1042.94 479.989 1051.25 482.696C1053.89 483.553 1056.52 484.41 1059.16 485.236C1075.5 490.337 1121.18 491.696 1126.07 490.671C1126.65 490.337 1127.4 490.284 1128.05 490.619C1129.09 491.142 1129.49 492.396 1128.98 493.431C1128.39 494.601 1128.11 495.145 1118.56 495.145C1118.5 495.072 1118.44 495.072 1118.37 495.072ZM473.99 361.769C482.495 363.504 500.206 366.013 504.114 364.811C507.479 363.776 509.359 362.03 509.694 359.637C509.725 359.375 509.746 359.114 509.746 358.842C508.105 357.598 506.381 356.25 504.542 354.671C502.244 352.706 500.415 350.281 498.492 347.71C495.201 343.32 491.795 338.783 485.755 336.693C484.992 336.432 484.439 335.742 484.355 334.926C483.801 329.512 486.737 326.324 489.569 323.251C492.286 320.303 494.846 317.523 495.013 312.453C495.191 307.06 493.331 300.809 491.523 294.757C490.259 290.513 488.953 286.123 488.346 282.025C486.225 267.475 483.927 251.117 482.37 234.236C478.942 237.946 474.324 241.072 467.856 243.507C468.462 248.086 468.891 252.695 469.298 257.19C470.082 265.667 470.886 274.437 472.924 282.538C474.011 286.844 475.4 291.182 476.748 295.373C479.381 303.537 482.098 311.983 482.694 320.784C483.498 332.616 479.977 343.309 476.56 353.647C475.703 356.313 474.805 359.051 473.99 361.769ZM488.482 333.264C494.459 335.763 498.064 340.205 501.178 344.334C501.115 336.787 499.6 329.815 498.127 323.052C497.886 321.944 497.646 320.836 497.406 319.707C496.089 322.331 494.25 324.327 492.641 326.073C490.436 328.477 488.639 330.432 488.482 333.264ZM418.391 325.561C418.516 325.561 418.652 325.561 418.777 325.561C420.689 320.042 421.41 314.659 420.961 309.296C418.882 314.565 417.503 320.073 418.224 325.561C418.276 325.561 418.339 325.561 418.391 325.561ZM445.798 193.868C444.607 193.868 443.52 194.056 442.58 194.432C436.238 196.972 415.632 214.658 412.78 219.999C408.809 227.442 409.697 239.462 410.481 250.072C410.878 255.486 411.254 260.597 411.045 265.029C410.909 267.841 410.073 271.719 409.112 276.214C407.44 284.001 405.225 294.38 407.064 299.774C408.809 298.896 410.679 298.248 413.02 298.091C416.614 290.607 417.795 279.517 418.715 270.872C419.07 267.559 419.404 264.434 419.822 261.831C422.1 247.803 424.482 238.71 432.445 231.1C433.625 228.382 435.182 225.989 437.272 224.159C441.922 220.093 448.902 217.721 455.652 215.421C459.361 214.156 463.175 212.86 466.445 211.313C467.01 211.01 467.574 210.717 468.128 210.414C466.268 205.282 460.981 199.711 454.701 196.428C451.472 194.746 448.379 193.868 445.798 193.868ZM417.503 298.352C418.568 298.53 419.707 298.791 420.961 299.136C421.181 298.697 421.39 298.258 421.599 297.83C422.393 296.21 423.155 294.652 423.845 293.147C427.429 285.318 427.502 277.479 427.565 269.19C427.596 265.437 427.628 261.569 428.025 257.723C428.171 256.28 428.296 254.702 428.432 253.03C428.714 249.465 429.017 245.598 429.602 241.804C426.771 247.218 425.371 253.772 423.95 262.51C423.542 264.998 423.218 268.071 422.873 271.322C421.933 280.133 420.825 290.471 417.503 298.352ZM214.406 262.657C213.236 270.966 213.393 278.639 217.635 283.133C222.055 287.806 229.244 290.158 237.039 291.213C236.955 291.109 236.882 290.994 236.819 290.868C236.537 290.314 236.516 289.656 236.767 289.091C237.467 287.482 238.178 285.914 238.878 284.367C243.684 273.747 247.833 264.569 243.58 253.061C241.427 247.218 237.321 241.291 232.159 237.257C232.765 241.406 232.096 246.068 230.759 252.716C230.498 254.023 230.174 255.497 229.819 257.085C229.432 258.852 228.993 260.796 228.586 262.813C232.023 266.263 234.897 273.245 229.275 286.928C228.993 287.628 228.345 288.119 227.603 288.203C226.851 288.297 226.12 287.983 225.67 287.377C221.741 282.067 222.452 272.973 224.009 264.475C221.428 262.866 217.98 262.374 214.406 262.657ZM486.142 229.208C487.678 247.626 490.186 265.604 492.495 281.43C492.84 283.781 493.435 286.248 494.146 288.799C494.104 287.848 494.062 286.907 494.02 285.977C493.675 278.503 493.352 271.437 492.557 263.754C492.432 262.573 492.307 261.13 492.171 259.489C491.481 251.524 490.217 236.901 486.434 228.738C486.33 228.894 486.236 229.051 486.142 229.208ZM230.059 230.975C238.063 235.239 244.499 243.497 247.498 251.608C252.346 264.726 247.655 275.095 242.681 286.081C242.378 286.75 242.075 287.419 241.772 288.088C253.872 287.503 270.768 267.12 278.051 255.831C275.574 247.605 267.748 242.054 259.483 236.18C249.786 229.292 239.755 222.173 236.182 209.787C235.774 208.365 235.513 206.892 235.388 205.376C235.2 205.428 235.001 205.47 234.803 205.512C233.998 205.69 233.152 205.376 232.661 204.707C229.724 200.724 222.222 196.428 215.733 196.387C212.16 196.387 209.474 197.578 207.635 200.003C203.811 205.062 208.398 209.317 215.827 215.233C218.063 217.01 220.174 218.693 221.815 220.428C225.754 224.567 228.397 227.839 230.059 230.975ZM227.541 268.761C226.956 272.827 226.694 276.862 227.227 280.123C228.533 275.472 228.638 271.635 227.541 268.761ZM216.193 258.413C219.296 258.413 222.285 258.946 224.855 260.19C225.148 258.81 225.451 257.462 225.733 256.176C226.078 254.618 226.402 253.176 226.652 251.89C228.366 243.371 228.941 238.73 226.893 234.027C224.636 233.002 222.264 232.365 219.819 232.229C219.599 237.152 218.325 242.995 216.998 249.141C216.339 252.183 215.66 255.319 215.085 258.423C215.462 258.413 215.827 258.413 216.193 258.413ZM461.67 230.055C459.539 233.389 459.998 236.514 463.029 239.368C462.402 235.501 461.921 232.469 461.67 230.055ZM465.672 226.03C465.505 228.508 466.226 233.002 467.24 239.264C474.272 236.452 478.754 232.689 481.847 228.058C481.711 226.407 481.586 224.745 481.471 223.083C476.936 221.076 470.291 222.78 465.672 226.03ZM221.877 193.125C227.248 194.641 232.222 197.84 235.127 201.122C235.2 201.101 235.283 201.08 235.356 201.049C236.171 188.453 244.28 173.642 251.051 161.266C252.524 158.569 253.914 156.029 255.147 153.656C255.366 153.228 255.638 152.705 255.941 152.109C256.422 151.168 256.902 150.238 257.383 149.308C254.415 148.722 251.573 148.085 248.836 147.385C248.512 148.555 248.198 149.747 247.874 150.938C244.917 161.882 241.866 173.192 237.331 182.913C232.88 192.456 227.562 193.449 221.877 193.125ZM261.709 150.113C261.05 151.336 260.371 152.632 259.671 154.011C259.358 154.618 259.086 155.151 258.856 155.6C257.602 158.015 256.202 160.576 254.718 163.283C248.616 174.436 241.375 187.669 239.776 198.78C243.559 195.77 244.938 190.93 246.547 185.234C247.394 182.265 248.261 179.202 249.567 176.255C251.511 171.854 254.488 167.569 257.362 163.419C260.434 158.997 263.349 154.775 264.958 150.656C263.861 150.479 262.775 150.301 261.709 150.113ZM217.175 135.333C216.684 135.333 216.256 135.406 215.901 135.552C206.183 139.723 204.72 173.903 205.723 189.268C211.021 187.962 215.545 188.38 219.265 188.725C225.9 189.342 229.557 189.676 233.538 181.157C237.927 171.771 240.926 160.628 243.841 149.862C244.165 148.66 244.489 147.479 244.802 146.297C242.389 145.608 240.058 144.855 237.812 144.061C236.151 143.475 233.914 142.305 231.334 140.946C229.902 140.193 228.188 139.294 226.402 138.437C223.842 137.653 221.397 136.744 219.255 135.625C218.492 135.437 217.781 135.333 217.175 135.333ZM448.776 170.61C447.585 172.534 446.687 174.791 446.07 177.426C447.878 175.22 448.808 173.213 448.828 171.405C448.828 171.133 448.808 170.872 448.776 170.61ZM507.573 167.924C507.698 168.269 507.729 168.645 507.656 169.032C507.259 171.07 506.778 173.014 506.235 174.865C508.085 173.548 509.986 171.969 511.982 169.628C510.477 169.157 509.004 168.593 507.573 167.924ZM283.735 135.991C285.856 140.778 282.742 147.656 280.423 152.768C279.618 154.545 278.699 156.562 278.636 157.273C278.04 163.544 280.506 166.826 283.202 167.297C285.94 167.778 289.618 165.53 291.185 159.457C291.823 157.001 290.464 147.719 289.566 141.573C289.137 138.677 288.761 136.054 288.542 134.068C287.037 134.799 285.428 135.437 283.735 135.991ZM518.931 166.837C523.643 167.339 528.429 166.712 532.671 164.83C540.685 161.276 544.844 154.106 544.384 144.646C544.071 138.155 540.978 131.246 537.989 124.556C536.077 120.281 534.092 115.849 532.859 111.563C530.738 104.215 529.536 97.0026 528.376 90.0412C527.708 86.0378 527.018 81.8985 526.161 77.7906C522.389 59.6552 507.75 36.9207 489.778 30.2832C479.893 26.6352 471.137 28.6317 463.144 33.6908C461.743 38.1959 458.703 41.0181 454.419 41.7289C453.98 41.8021 453.551 41.823 453.123 41.823C451.786 43.1296 450.479 44.4989 449.184 45.91C449.257 46.4012 449.288 46.8925 449.288 47.3942C449.267 50.7495 447.554 53.8749 444.2 56.6867C443.761 57.0525 443.197 57.2302 442.632 57.1675C442.225 57.1257 441.838 56.9584 441.525 56.6971C441.232 56.4776 439.592 55.2546 439.236 55.0142C438.756 54.7425 438.4 54.2825 438.265 53.739C438.097 53.1014 438.233 52.4115 438.651 51.8994C440.574 49.4848 442.559 47.0911 444.607 44.7811C442.998 40.5477 437.836 36.1262 433.197 32.1438C429.791 29.2275 426.572 26.468 424.827 23.8444C424.806 23.813 424.786 23.7921 424.775 23.7607C421.828 28.9871 420.324 34.6315 420.658 38.8858C420.94 42.4606 422.382 44.8542 424.942 46.004C425.527 46.2654 425.956 46.788 426.113 47.4047C426.269 48.0318 426.133 48.6904 425.736 49.1921C420.292 56.1954 417.649 60.6378 417.471 66.2509C417.91 63.9826 418.777 61.9862 420.24 60.3869C423.166 57.2093 427.92 56.1118 434.785 57.0316C444.91 58.38 451.639 65.2788 456.111 73.5259C451.598 60.9723 449.936 48.0109 460.009 39.7011C465.85 34.8824 471.586 33.4295 477.041 35.3632C496.319 42.1993 506.298 91.3686 512.264 120.741C513.905 128.821 515.2 135.207 516.214 138.259C516.674 139.65 517.154 141.008 517.635 142.357C520.404 150.196 523.267 158.234 518.931 166.837ZM472.276 38.7394C469.246 38.7394 466.069 40.1296 462.642 42.9518C450.344 53.0805 460.092 73.6514 467.208 88.6719C468.932 92.3094 470.562 95.7483 471.722 98.7064C473.436 103.055 475.066 107.612 476.644 112.034C482.589 128.706 488.744 145.942 501.627 158.778C505.18 162.321 509.746 164.788 514.605 166.053C518.993 158.663 516.621 152.015 513.696 143.799C513.205 142.419 512.713 141.029 512.243 139.608C511.157 136.315 509.84 129.824 508.168 121.608C502.756 94.9643 492.683 45.3769 475.641 39.3352C474.523 38.938 473.415 38.7394 472.276 38.7394ZM467.146 158.057C478.326 158.057 491.251 162.029 502.4 165.457C502.912 165.614 503.424 165.771 503.926 165.928C502.024 164.726 500.258 163.325 498.67 161.736C485.118 148.231 478.807 130.535 472.704 113.434C471.137 109.055 469.528 104.529 467.835 100.243C466.728 97.4208 465.118 94.0445 463.426 90.4697C462.548 88.6196 461.628 86.6858 460.719 84.6998C463.175 92.4557 464.188 99.8353 464.586 103.745C466.445 122.152 459.298 125.789 451.723 129.636C446.645 132.218 441.399 134.883 437.303 142.367C433.897 148.587 437.638 152.318 444.012 157.889C446.007 159.635 448.024 161.402 449.654 163.325C450.103 162.959 450.563 162.614 451.044 162.28C455.516 159.227 461.075 158.057 467.146 158.057ZM206.047 101.424C203.142 105.166 192.464 137.643 192.976 141.311C194.114 146.172 195.138 147.437 195.473 147.74C197.782 146.559 201.711 135.029 203.414 130.044C204.887 125.737 206.047 122.329 207.029 120.72C207.928 119.256 208.952 117.72 210.049 116.1C212.003 113.194 214.354 109.692 215.786 106.588C215.42 104.476 214.741 102.699 213.675 101.539C213.09 100.901 211.345 99.0095 206.047 101.424ZM249.954 143.36C252.984 144.134 256.15 144.834 259.483 145.461C261.04 142.702 262.618 140.141 264.227 137.977C256.15 137.141 248.491 134.308 242.765 129.74C227.802 117.793 232.17 99.2813 236.025 82.9542C237.446 76.944 238.784 71.2577 239.296 65.885C240.309 55.2651 240.205 47.896 236.516 43.924C235.325 42.6383 233.695 41.6766 231.595 41.0181C223.821 43.5059 218.523 45.7532 214.156 56.0804C210.916 63.7527 204.344 86.4768 205.326 93.1665C213.56 93.0097 218.346 94.5881 220.352 98.142C221.815 100.734 221.407 103.86 220.08 107.163C221.041 114.845 218.983 124.441 217.06 128.904C217.99 129.96 219.244 130.88 220.738 131.695C223.048 132.291 225.534 133.357 228.042 134.57C231.146 135.489 234.479 136.252 237.666 136.984C241.877 137.946 245.858 138.855 248.93 140.047C249.933 140.433 250.476 141.531 250.184 142.566C250.1 142.827 250.027 143.088 249.954 143.36ZM237.363 39.168C238.178 39.7324 238.909 40.3701 239.578 41.0808C244.343 46.2131 244.614 54.2094 243.454 66.2822C242.911 71.9371 241.48 78.0206 240.09 83.9054C236.182 100.494 232.483 116.162 245.377 126.458C251.113 131.037 259.316 133.671 267.738 133.984C269.629 132.249 271.552 131.225 273.495 131.193C276.431 131.152 278.782 131.601 280.569 132.584C280.841 132.51 281.112 132.437 281.384 132.354C283.892 131.611 286.201 130.66 288.259 129.51C288.197 128.308 288.155 127.148 288.103 126.019C286.567 126.908 284.77 127.702 282.659 128.413C276.003 130.629 255.356 132.448 248.533 127.807C235.691 119.079 241.375 92.6752 245.523 73.4005C246.411 69.2926 247.174 65.7387 247.603 62.9687C247.968 60.6691 248.658 58.2546 249.4 55.6937C251.657 47.8437 253.788 40.4223 247.425 35.6141C247.153 35.405 246.85 35.2169 246.547 35.0392C245.189 35.959 243.737 36.7534 242.221 37.3806C240.539 38.0495 238.909 38.6453 237.363 39.168ZM292.178 122.894C292.209 124.148 292.251 125.434 292.314 126.761C295.563 124.086 297.914 120.772 299.2 116.967C305.793 97.3685 306.117 72.2925 306.378 52.1397L306.399 50.7182C306.577 37.2761 306.618 33.6699 295.218 27.0115C293.871 26.2276 292.533 25.5482 291.196 24.9837C289.378 27.9314 286.055 30.231 282.136 31.0463C276.473 32.2379 270.998 30.1055 267.487 25.36C267.142 24.9001 267.006 24.3147 267.111 23.7503C267.215 23.1858 267.539 22.6841 268.009 22.3706C273.892 18.4717 281.05 17.5623 288.489 19.611C288.374 17.5519 287.027 15.4927 284.508 13.5589C280.391 10.4127 276.598 9.69145 273.223 11.4161C267.372 14.4161 263.976 23.8339 264.185 30.8372C264.206 31.6002 263.809 32.3215 263.151 32.7082C256.714 36.4712 253.381 33.8267 251.019 31.1612C250.675 31.5375 250.319 31.8929 249.954 32.2483C258.605 38.7917 255.732 48.7845 253.423 56.8226C252.723 59.258 252.064 61.5471 251.74 63.5959C251.291 66.4808 250.507 70.087 249.619 74.2576C245.941 91.3477 240.382 117.187 250.894 124.326C255.92 127.744 274.948 126.552 281.353 124.42C284.216 123.469 286.347 122.371 287.988 121.075C287.915 114.197 288.343 107.873 290.004 99.6262L290.391 97.7343C291.676 91.4104 292.45 87.5848 291.373 85.6406C290.307 83.7278 286.859 82.4212 279.994 80.3829L278.427 79.923C266.129 76.3064 257.999 73.9127 262.848 57.1466C265.282 48.7217 269.357 42.8787 274.634 40.2551C278.991 38.0914 284.059 38.1018 289.701 40.276C313.274 49.3698 304.142 85.442 299.743 102.773L299.68 103.034C299.252 104.738 298.886 106.358 298.541 107.915C297.193 113.831 296.054 118.932 292.178 122.894ZM419.289 109.713C416.771 109.713 414.065 110.298 413.626 112.713C412.968 116.371 417.45 122.873 424.994 124.368C430.877 125.538 443.092 124.869 443.771 122.925C444.952 119.56 442.225 117.96 435.652 115.629C433.197 114.762 431.086 114.009 429.843 112.849C428.108 111.229 426.645 109.441 425.381 107.508C425.256 107.936 425.099 108.344 424.932 108.741C424.556 109.629 423.626 110.142 422.675 109.985C421.828 109.87 420.585 109.713 419.289 109.713ZM281.635 42.8578C279.754 42.8578 278.03 43.2445 276.452 44.0285C271.144 46.6625 268.281 53.2582 266.818 58.3382C263.13 71.1113 266.944 72.2298 279.566 75.9405L281.144 76.4109C297.005 81.1146 297.549 83.3305 294.456 98.5914L294.08 100.473C292.962 106.034 292.418 110.612 292.23 115.148C293.129 112.87 293.724 110.194 294.435 107.027C294.79 105.438 295.156 103.797 295.605 102.03L295.668 101.769C299.764 85.5988 308.28 51.962 288.165 44.1957C285.835 43.3072 283.651 42.8578 281.635 42.8578ZM445.056 37.7255C446.06 38.938 446.948 40.1924 447.637 41.4676C447.961 41.1226 448.296 40.7777 448.63 40.4432C447.418 39.7324 446.237 38.8021 445.056 37.7255ZM427.377 20.5727C434.148 20.5727 439.393 26.0185 444.043 30.8372C446.822 33.7117 449.476 36.4712 451.806 37.3492C454.272 35.0705 456.822 32.98 459.476 31.1717C459.518 30.9731 459.56 30.764 459.591 30.5654C460.845 22.9873 457.167 13.6844 453.405 11.667C445.652 7.52774 438.996 9.9423 434.764 12.7123C431.65 14.7505 428.944 17.5205 426.771 20.5936C426.98 20.5727 427.178 20.5727 427.377 20.5727ZM228.377 36.074C229.505 36.2203 230.56 36.4085 231.543 36.6489C231.689 36.5966 231.846 36.5548 231.992 36.5026C234.667 35.6559 237.436 34.7883 240.435 33.5654C236.506 33.4399 232.023 34.412 228.377 36.074ZM433.427 26.8443C434.221 27.5446 435.046 28.2554 435.893 28.9766C436.979 29.9069 438.097 30.8686 439.195 31.8407C437.324 29.9487 435.423 28.1613 433.427 26.8443ZM272.429 24.6492C275.773 27.6596 279.608 27.3042 281.269 26.9593C283.662 26.4575 285.762 25.1928 287.068 23.5726C281.802 22.1929 276.755 22.5482 272.429 24.6492ZM241.417 21.4716C243.026 21.4716 244.625 21.6493 246.171 22.0779C248.041 22.6005 249.494 23.5517 250.696 24.6179C251.74 22.8305 252.451 20.9385 252.733 19.0779C253.381 14.7714 251.814 11.0189 248.062 7.91449C244.092 4.63235 240.644 3.50346 237.822 4.54873C233.434 6.16889 229.704 13.214 227.415 24.0534C228.22 23.8653 229.045 23.6458 229.902 23.4263C233.538 22.496 237.53 21.4716 241.417 21.4716Z"/>
</svg>
