<svg viewBox="0 0 1571 900" fill="none" xmlns="http://www.w3.org/2000/svg">
<path class="result-four-svg" stroke="#E5E5E5" stroke-width="3" style="stroke-dasharray: 18131; stroke-dashoffset: 18131;" fill="transparent" d="M63.847 899.263C59.7927 899.263 53.7794 894.486 44.2304 886.901C22.3194 869.495 -14.3577 840.371 -64.0882 839.334C-65.1306 839.313 -65.9582 838.448 -65.932 837.411C-65.9111 836.385 -65.073 835.562 -64.0463 835.562C-64.0306 835.562 -64.0201 835.562 -64.0044 835.562C-13.0011 836.626 24.2994 866.247 46.5823 883.952C51.5532 887.901 55.8432 891.306 59.0699 893.37C63.1818 895.994 64.1089 895.455 64.1456 895.434C64.2713 895.35 65.3556 894.444 64.5804 887.87C63.9623 882.621 62.3018 874.822 59.3632 863.314C50.6889 829.339 51.8204 762.266 62.3961 683.898C70.2375 625.803 84.2861 558.645 96.6008 548.473C99.0104 546.482 101.053 546.791 102.347 547.399C104.84 548.572 108.444 552.422 110.917 572.191C112.839 587.549 113.808 610.198 113.792 639.506C113.771 685.941 121.497 703.41 128.124 704.264C135.562 705.233 148.468 687.219 162.433 633.817C165.948 620.366 165.398 599.817 164.869 579.943C164.094 550.84 163.355 523.173 173.695 511.377C173.742 510.994 173.789 510.612 173.837 510.224C174.806 502.404 175.806 494.316 176.581 485.212C178.933 457.555 175.769 443.826 172.417 429.296C169.871 418.248 167.242 406.829 166.566 388.622C165.812 368.329 168.74 348.503 174.806 332.789C180.772 317.331 189.111 307.332 198.283 304.624C209.251 301.392 215.307 318.18 223.687 341.416C230.492 360.279 238.957 383.75 252.487 403.697C266.561 424.45 287.838 435.697 309.388 433.769C326.396 432.25 340.397 422.68 346.84 408.17C351.136 398.496 356.604 389.738 361.434 382.011C367.594 372.153 372.91 363.641 374.513 355.721C376.216 347.293 373.466 340.494 365.603 333.679C358.364 327.399 352.026 322.968 346.442 319.055C336.762 312.282 329.397 307.128 324.872 297.191C298.582 297.662 260.014 291.193 227.396 282.891C220.932 281.246 214.61 279.518 208.46 277.716C204.919 288.92 199.053 298.485 194.066 304.074C191.054 307.452 186.403 308.893 180.248 308.364C156.661 306.331 114.348 274.898 96.4123 246.083C83.4899 225.319 73.7156 207.399 67.3513 192.827C59.0961 173.923 56.4194 160.566 59.1694 152.001C62.1237 142.788 70.1799 133.762 79.4984 123.312C88.4608 113.266 98.6175 101.878 106.349 87.9237C114.217 73.7232 130.161 59.308 151.239 47.3337C172.637 35.1761 197.906 26.4128 222.383 22.6518C249.291 18.5137 263.298 11.5313 273.528 6.43468C282.087 2.16563 288.273 -0.914364 296.769 0.845636C314.259 4.47564 362.193 35.548 369.678 42.5671C376.231 48.7166 373.738 60.2404 362.665 75.0171C359.207 79.6213 354.011 82.3609 347.626 82.9266C343.687 83.2775 339.57 82.7747 335.636 81.5333C332.603 84.4771 327.679 86.0747 320.556 84.1785C308.209 80.889 294.03 67.5266 286.209 55.2537C278.321 55.9766 267.431 61.1518 257.086 69.3704C247.846 76.7142 231.131 92.879 222.938 118.624C219.46 129.567 215.28 138.063 210.749 144.72C215.631 147.507 219.968 150.99 223.897 155.249C232.205 164.253 238.244 176.049 244.76 190.983C246.547 195.085 247.835 199.05 248.689 202.816C257.484 202.36 270.202 203.775 285.136 211.558C301.133 219.898 311.09 228.373 316.459 238.22C321.425 247.324 322.185 256.721 323.07 267.601C323.421 271.922 323.782 276.39 324.437 281.188C325.092 285.992 326.04 289.941 327.292 293.309C336.715 292.969 343.928 291.67 348.181 289.344C364.425 280.471 376.546 273.515 384.57 264.814C393.019 255.653 396.56 244.789 396.037 229.593C395.387 210.574 398.886 192.597 405.889 178.978C414.668 161.912 428.864 151.923 446.935 150.095C470.758 147.68 495.272 158.208 507.765 164.698C526.57 174.468 542.342 187.353 548.921 198.317C558.25 213.863 565.426 232.788 560.429 240.022C559.25 241.73 556.867 243.589 552.189 242.746C551.21 242.573 550.188 242.332 549.12 242.044C549.56 244.386 549.869 246.664 550.063 248.906C551.089 261.032 548.428 272.561 541.933 284.153C539.188 289.051 536.868 294.425 534.626 299.616C526.486 318.478 518.079 337.948 488.096 337.948C486.263 337.948 484.351 337.875 482.345 337.723C470.014 336.796 460.345 329.023 453.221 318.526C453.373 323.868 454.357 329.169 456.83 334.329C460.675 342.348 462.717 348.613 464.362 353.652C468.039 364.93 469.281 368.728 483.717 371.828C489.327 373.033 495.749 376.595 501.872 381.776C517.817 382.493 533.72 385.348 547.449 399.748C565.945 419.149 575.028 433.633 574.483 442.841C585.807 447.44 594.597 454.915 601.071 465.391C607.949 476.528 613.638 490.545 617.713 504.426C621.416 499.177 625.889 494.725 631.012 491.781C636.507 488.628 641.436 486.05 645.784 483.772C659.235 476.737 667.354 472.489 672.88 461.809C675.777 456.214 677.626 449.546 679.255 443.664C680.554 438.981 681.769 434.591 683.383 431.171C680.523 429.699 677.176 427.771 673.058 425.409C671.005 424.23 668.747 422.931 666.249 421.517C653.557 414.325 642.803 405.232 635.968 395.913C628.068 385.144 625.418 374.243 628.309 364.39C631.274 354.276 640.195 347.786 647.151 344.119C658.334 338.226 671.225 336.026 676.248 337.666C682.042 339.557 690.727 353.348 704.414 375.694C708.924 383.054 713.586 390.665 717.97 397.343C730.845 416.934 727.336 438.415 724.518 455.669C723.91 459.373 723.339 462.872 722.946 466.182C722.569 469.346 722.249 473.578 721.878 478.481C720.044 502.618 716.634 547.54 696.714 582.091C686.604 599.633 683.252 612.954 680.806 622.686C677.474 635.938 675.463 643.937 659.942 646.666C646.302 649.065 636.428 640.647 625.973 631.737C616.078 623.304 604.864 613.745 588.516 611.702C585.284 611.298 582.162 610.921 579.139 610.555C549.277 606.93 529.55 604.536 511.856 591.729C502.538 584.982 492.638 566.906 486.472 552.239C486.467 552.228 486.462 552.213 486.457 552.202C479.102 561.709 469.401 568.807 458.951 572.29C445.427 576.8 434.337 577.874 425.427 578.738C412.322 580.011 405.098 580.708 401.715 590.723C400.038 595.689 403.365 601.398 406.586 606.925C410.258 613.231 414.056 619.747 411.002 625.939C407.152 633.749 393.15 638.804 365.608 642.334C362.906 642.68 360.239 643.005 357.605 643.303C347.867 655.283 336.867 665.497 327.48 674.213C313.929 686.795 303.228 696.737 305.559 703.342C307.104 707.716 314.401 711.32 327.873 714.347C342.634 717.668 365.645 720.397 398.221 722.697C506.356 730.324 648.764 687.104 799.537 641.355C948.399 596.181 1102.33 549.468 1239.22 546.294C1313.45 544.57 1375.25 555.712 1428.14 580.346C1456.97 593.777 1483.31 611.508 1506.42 633.063C1530.75 655.744 1552.34 683.406 1570.55 715.275C1571.07 716.181 1570.76 717.333 1569.85 717.846C1568.95 718.365 1567.79 718.051 1567.28 717.145C1549.24 685.606 1527.91 658.242 1503.85 635.818C1481.02 614.536 1455.01 597.025 1426.55 583.762C1374.2 559.378 1312.95 548.352 1239.31 550.06C1102.93 553.224 949.253 599.858 800.638 644.958C661.336 687.23 529.142 727.343 424.081 727.343C415.171 727.343 406.471 727.055 397.959 726.458C322.855 721.162 305.281 713.887 302.007 704.594C298.854 695.653 309.791 685.501 324.919 671.448C333.405 663.564 343.237 654.434 352.199 643.895C315.124 647.782 284.858 647.153 259.993 641.994C229.104 635.588 206.847 622.346 191.939 601.524C169.541 570.221 169.337 549.033 172.532 520.768C167.383 534.12 168.001 557.257 168.604 579.823C169.143 599.958 169.698 620.779 166.048 634.755C158.819 662.391 144.482 708.051 128.658 708.057C128.307 708.057 127.961 708.036 127.61 707.988C121.885 707.25 117.448 700.66 114.421 688.408C111.514 676.659 109.984 659.74 109.995 639.49C110.026 561.269 102.897 551.83 100.713 550.798C100.529 550.715 100.048 550.489 98.9789 551.369C89.4089 559.274 75.2766 616.458 66.1099 684.391C55.597 762.302 54.4342 828.836 62.9932 862.366C70.0856 890.127 69.6246 896.345 66.1727 898.582C65.4865 899.043 64.7113 899.263 63.847 899.263ZM489.07 548.604C489.364 549.327 489.662 550.049 489.966 550.783C497.462 568.624 506.927 583.495 514.082 588.675C530.98 600.911 550.325 603.258 579.606 606.809C582.633 607.176 585.76 607.553 588.997 607.962C606.467 610.146 618.137 620.093 628.435 628.872C638.618 637.552 647.413 645.047 659.308 642.957C672.425 640.653 673.912 634.734 677.17 621.769C679.669 611.828 683.095 598.208 693.466 580.21C712.957 546.404 716.325 502.037 718.138 478.198C718.515 473.254 718.839 468.985 719.222 465.742C719.625 462.348 720.201 458.812 720.814 455.067C723.669 437.588 726.906 417.782 714.837 399.418C710.417 392.687 705.739 385.055 701.213 377.669C691.203 361.331 679.863 342.815 675.096 341.259C671.387 340.049 659.633 341.825 648.927 347.466C642.615 350.792 634.543 356.617 631.945 365.464C628.199 378.229 635.423 399.711 668.124 418.243C670.628 419.663 672.891 420.962 674.949 422.146C679.218 424.597 682.55 426.514 685.284 427.923C686.819 425.844 688.705 424.498 691.177 424.209C691.963 424.12 692.801 424.016 693.665 423.911C705.021 422.523 709.406 422.261 710.348 425.053C711.15 427.42 708.258 429.348 705.487 430.972C697.987 435.367 693.864 435.906 686.777 432.805C685.337 435.875 684.163 440.118 682.896 444.68C681.214 450.74 679.313 457.608 676.233 463.548C670.162 475.286 661.163 479.995 647.538 487.119C643.217 489.377 638.325 491.938 632.893 495.055C627.414 498.198 622.741 503.242 619.043 509.15C625.423 532.9 626.911 555.219 621.416 560.709C620.3 561.825 617.859 563.354 614.098 561.023C608.525 557.577 605.55 550.149 605.718 540.118C605.88 530.328 609.19 518.542 614.989 508.658C610.688 493.075 604.591 478.272 597.86 467.377C591.952 457.812 583.932 450.918 573.618 446.592C572.587 448.986 570.664 450.835 567.883 452.113C561.309 455.135 539.655 456.151 521.583 456.088C515.345 456.068 483.979 455.769 479.275 451.888C478.034 450.861 478.165 449.661 478.28 449.195C478.699 447.493 480.485 446.178 488.405 444.491C507.681 440.39 529.938 436.137 550.073 437.556C557.674 438.09 564.546 439.384 570.727 441.453C570.334 433.392 561.241 419.673 544.72 402.346C533.138 390.198 520.101 386.841 506.246 385.798C507.262 386.815 508.263 387.873 509.237 388.968C517.319 398.045 522.322 408.018 522.62 415.645C522.898 422.827 519.095 427.96 511.908 430.092C502.606 432.852 491.359 431.407 480.485 430.013C467.547 428.353 455.327 426.787 448.203 432.412C444.494 435.34 442.336 440.091 441.608 446.938C439.817 463.72 445.51 478.455 450.539 491.456C456.207 506.112 461.099 518.773 452.074 528.584C446.506 534.634 436.674 541.873 426.26 549.531C406.67 563.946 384.466 580.284 381.862 594.448C378.735 611.466 370.679 626.253 360.91 639.113C362.308 638.945 363.717 638.767 365.142 638.584C390.589 635.326 404.491 630.637 407.634 624.263C409.792 619.884 406.659 614.509 403.338 608.81C399.693 602.556 395.927 596.092 398.153 589.503C402.317 577.177 411.861 576.25 425.077 574.972C433.798 574.124 444.651 573.071 457.773 568.697C469.365 564.831 478.563 556.854 484.812 548.08C480.983 538.253 474.608 519.344 478.51 511.052C479.422 509.119 481.753 506.081 487.148 507.474C493.827 509.198 497.656 514.519 497.928 522.455C498.206 530.244 494.916 539.867 489.07 548.604ZM177.273 513.058C173.365 544.728 171.369 566.277 195.025 599.335C209.351 619.355 230.858 632.104 260.773 638.311C286.099 643.565 317.208 644.042 355.646 639.741C366.127 626.594 374.927 611.367 378.159 593.782C381.029 578.147 403.873 561.337 424.029 546.508C434.29 538.96 443.981 531.826 449.303 526.043C456.741 517.956 452.456 506.867 447.024 492.828C441.844 479.424 435.972 464.239 437.863 446.55C438.706 438.646 441.325 433.057 445.872 429.468C454.242 422.858 467.227 424.524 480.972 426.289C491.459 427.635 502.302 429.028 510.84 426.493C516.445 424.828 519.069 421.334 518.854 415.808C518.498 406.646 510.253 394.2 500.385 385.495C497.299 385.379 494.183 385.332 491.04 385.285C487.101 385.228 483.026 385.165 478.997 384.96C468.584 384.437 458.019 381.063 446.83 377.491C431.828 372.698 416.313 367.743 398.551 368.513C386.639 369.026 374.162 381.901 365.98 402.105C356.698 425.021 354.205 455.512 367.389 469.44C390.783 494.159 390.306 500.167 389.347 512.136C389.306 512.67 389.258 513.22 389.217 513.786C388.724 520.281 384.864 526.195 378.887 529.605C373.125 532.889 360.093 536.739 337.538 525.587C310.179 512.068 309.226 498.821 308.712 491.708C308.607 490.246 308.518 488.984 308.225 488.208C308.215 488.177 308.204 488.151 308.194 488.13C307.523 488.308 306.114 489.13 304.957 489.806C300.494 492.404 293.024 496.752 281.631 495.997C274.612 495.526 266.331 492.21 257.557 488.696C242.566 482.688 227.061 476.48 218.837 485.327C215.568 488.842 214.301 492.933 215.06 497.485C217.019 509.182 232.315 523.948 254.975 536.032C264.901 541.323 272.737 542.863 278.918 540.731C287.734 537.693 292.354 527.29 296.817 517.227L297.11 516.562C297.938 514.698 298.587 513.262 299.069 512.314C299.567 511.329 300.405 509.69 302.076 510.109C303.715 510.523 303.673 512.34 303.658 513.021C303.642 513.718 303.568 514.666 303.479 515.876C302.966 522.654 301.761 538.52 307.686 554.193C314.977 573.464 334.075 571.578 352.545 569.75C358.699 569.142 364.514 568.566 369.579 568.875C374.623 569.179 377.656 571.887 377.892 576.292C378.227 582.515 372.654 592.059 363.686 600.602C353.734 610.088 341.539 616.631 330.225 618.553C328.308 618.878 326.459 619.035 324.678 619.035C302.657 619.035 290.84 595.39 282.815 579.336C280.165 574.029 277.87 569.446 275.801 566.822C273.261 563.6 271.234 564.48 264.325 569.315C258.034 573.72 249.27 579.854 236.296 579.859C232.419 579.859 228.171 579.315 223.494 578.005C202.929 572.264 195.716 547.546 190.452 529.495C187.917 520.805 185.298 511.822 182.254 510.596C181.851 510.434 181.175 510.297 179.97 510.989C178.991 511.555 178.095 512.246 177.273 513.058ZM272.8 561.144C274.864 561.144 276.854 562.076 278.761 564.491C281.071 567.419 283.444 572.159 286.188 577.654C294.852 594.992 306.722 618.731 329.597 614.845C353.927 610.712 374.655 586.287 374.131 576.507C374.047 574.972 373.466 572.898 369.359 572.652C364.592 572.364 358.925 572.924 352.922 573.516C334.903 575.292 312.478 577.513 304.166 555.539C299.163 542.307 298.99 529.081 299.388 520.753C294.852 530.904 289.887 540.956 280.154 544.308C272.926 546.797 264.115 545.183 253.209 539.374C229.182 526.562 213.531 511.141 211.352 498.124C210.383 492.357 211.975 487.192 216.087 482.777C226.076 472.028 242.796 478.728 258.971 485.207C267.457 488.607 275.477 491.818 281.893 492.247C292.134 492.928 298.713 489.094 303.071 486.559C305.758 484.992 307.701 483.861 309.577 484.526C310.572 484.882 311.31 485.673 311.771 486.888C312.258 488.177 312.368 489.691 312.494 491.446C312.987 498.255 313.804 509.648 339.224 522.214C360.218 532.586 371.926 529.249 377.033 526.337C381.92 523.55 385.073 518.757 385.471 513.514C385.513 512.943 385.56 512.388 385.602 511.848C386.498 500.649 386.907 495.542 364.666 472.044C358.003 465.004 354.483 453.878 354.488 439.871C354.493 427.352 357.337 413.44 362.497 400.701C371.37 378.785 384.79 365.349 398.399 364.757C416.837 363.956 433.384 369.246 447.993 373.908C458.941 377.402 469.276 380.707 479.202 381.205C483.162 381.404 487.206 381.467 491.113 381.524C492.575 381.545 494.036 381.566 495.503 381.598C491.276 378.575 486.944 376.391 482.952 375.532C466.395 371.98 464.525 366.25 460.806 354.841C459.197 349.912 457.197 343.773 453.462 335.979C449.732 328.206 449.072 320.343 449.607 312.544C444.861 303.843 441.597 293.99 439.775 284.845C437.554 273.698 436.883 259.707 442.31 256.962C443.902 256.156 446.532 256.004 450.031 259.838C459.973 270.728 457.736 284.001 455.363 298.06C454.598 302.597 453.823 307.19 453.451 311.784C460.193 323.727 469.894 333.03 482.654 333.988C514.685 336.398 522.699 317.813 531.185 298.144C533.463 292.864 535.82 287.401 538.665 282.33C546.773 267.863 548.057 254.652 545.05 240.787C540.592 239.242 535.705 237.115 530.923 235.036C522.133 231.217 511.201 226.461 507.729 228.189C505.445 229.331 503.857 231.217 502.176 233.218C499.002 236.995 495.403 241.274 486.876 239.75C482.266 238.928 477.368 237.147 472.633 235.428C466.903 233.349 459.774 230.756 458.207 232.485C457.217 233.579 456.678 237.749 456.243 241.101C455.437 247.324 454.604 253.757 450.764 255.978C449.072 256.957 447.071 256.978 444.819 256.046C438.727 253.516 439.235 244.957 439.733 236.68C440.068 231.049 440.45 224.669 438.25 222.511C437.548 221.82 436.501 221.542 435.055 221.658C429.293 222.118 427.895 229.625 426.664 239.383C425.862 245.748 425.171 251.242 422.028 253.301C420.734 254.149 419.215 254.322 417.502 253.819C415.266 253.165 412.296 251.059 410.808 244.742C409.221 237.995 409.834 228.399 412.448 219.07C415.412 208.489 420.608 199.359 427.083 193.367C438.381 182.911 468.359 182.943 491.433 187.4C503.135 189.663 531.174 196.646 538.743 212.617C543.327 222.286 546.407 230.447 548.224 237.864C549.885 238.383 551.446 238.791 552.87 239.048C556.139 239.635 557.04 238.325 557.338 237.89C560.617 233.139 555.505 216.613 545.699 200.265C533.107 179.276 484.021 150.131 447.328 153.856C430.346 155.574 417.534 164.609 409.252 180.711C402.537 193.765 399.185 211.082 399.813 229.468C400.368 245.737 396.524 257.428 387.347 267.376C378.934 276.495 366.557 283.608 349.994 292.655C345.285 295.227 337.977 296.609 328.937 297.049C333.022 305.059 339.455 309.558 348.595 315.959C354.257 319.924 360.679 324.418 368.065 330.825C387.388 347.576 376.839 364.458 364.629 384.007C359.867 391.628 354.472 400.266 350.287 409.695C343.278 425.477 328.114 435.88 309.723 437.519C286.78 439.568 264.22 427.714 249.365 405.803C235.573 385.463 227.014 361.74 220.141 342.684C212.75 322.187 206.905 306.001 199.351 308.228C184.129 312.722 168.708 344.674 170.337 388.47C170.997 406.321 173.59 417.562 176.094 428.437C179.509 443.266 182.736 457.272 180.337 485.521C179.651 493.588 178.792 500.843 177.933 507.82C177.99 507.788 178.043 507.757 178.1 507.726C180.049 506.61 181.924 506.4 183.674 507.102C188.414 509.014 190.792 517.165 194.082 528.442C199.1 545.644 205.972 569.2 224.52 574.375C243.121 579.566 254.131 571.861 262.172 566.23C265.854 563.642 269.421 561.144 272.8 561.144ZM616.377 513.912C612.071 522.424 609.641 532.041 609.505 540.191C609.358 548.839 611.705 555.104 616.099 557.823C617.886 558.928 618.478 558.331 618.766 558.048C621.448 555.366 622.432 543.02 618.247 522.235C617.681 519.459 617.058 516.678 616.377 513.912ZM484.597 510.916C483.015 510.916 482.355 511.775 481.931 512.676C479.736 517.343 481.91 529.589 487.363 544.214C491.988 536.53 494.371 528.62 494.167 522.602C494.015 518.275 492.517 512.775 486.21 511.141C485.587 510.989 485.053 510.916 484.597 510.916ZM483.492 449.698C488.122 450.913 500.898 452.254 521.578 452.328C543.458 452.396 561.429 450.939 566.317 448.692C568.155 447.849 569.402 446.712 570.093 445.246C564.064 443.156 557.318 441.857 549.817 441.328C530.168 439.945 508.226 444.146 489.201 448.189C486.368 448.792 484.597 449.305 483.492 449.698ZM688.788 429.589C694.676 432.067 697.578 431.234 703.586 427.719C704.283 427.31 704.833 426.959 705.268 426.666C705.257 426.666 705.247 426.666 705.236 426.666C702.245 426.666 697.007 427.305 694.126 427.656C693.257 427.761 692.413 427.866 691.622 427.96C690.554 428.086 689.621 428.657 688.788 429.589ZM444.243 260.262C444.148 260.262 444.065 260.278 443.997 260.315C442.326 261.163 440.445 269.005 443.457 284.096C444.866 291.151 447.15 298.652 450.324 305.635C450.707 302.879 451.167 300.14 451.628 297.421C453.938 283.724 455.934 271.896 447.228 262.368C445.867 260.875 444.808 260.262 444.243 260.262ZM291.956 4.09849C286.649 4.09849 282.014 6.40849 275.204 9.80277C264.754 15.0147 250.438 22.149 222.949 26.3709C174.219 33.8561 125.51 61.0994 109.638 89.7413C101.703 104.062 91.3942 115.618 82.3008 125.811C73.2651 135.941 65.4604 144.694 62.747 153.143C59.6827 162.687 63.5904 186.217 99.597 244.077C107.952 257.502 122.131 272.163 138.49 284.3C154.408 296.112 170.133 303.697 180.557 304.592C185.46 305.017 189.058 303.99 191.238 301.549C195.957 296.258 201.509 287.212 204.862 276.637C186.047 270.979 168.96 264.657 154.628 258.015C131.738 247.408 117.187 236.649 111.383 226.042C103.667 211.946 102.384 202.078 107.569 196.719C120.083 183.786 163.512 203.665 181.605 212.81C198.063 221.134 207.879 233.113 210.776 248.414C212.42 257.104 211.624 265.93 209.497 274.059C215.825 275.919 222.137 277.642 228.313 279.219C265.116 288.585 299.975 293.577 323.353 293.383C322.206 290.036 321.315 286.196 320.702 281.686C320.037 276.788 319.67 272.268 319.314 267.894C318.466 257.444 317.732 248.419 313.154 240.017C308.157 230.856 298.702 222.873 283.397 214.895C269.484 207.646 257.672 206.205 249.412 206.551C251.476 219.74 248.076 230.002 242.372 234.182C237.265 237.922 230.775 236.958 224.562 231.537C218.984 226.67 217.994 220.332 221.917 214.586C225.961 208.662 234.509 204.408 244.886 203.136C244.085 199.726 242.906 196.148 241.308 192.481C231.566 170.141 222.996 155.841 208.56 147.758C196.837 163.153 183.187 167.459 173.072 170.649C171.38 171.183 169.777 171.686 168.295 172.21C163.952 173.734 161.527 171.796 160.469 170.508C157.117 166.422 157.944 157.648 162.402 150.095C165.241 145.286 173.617 134.433 190.127 137.481C196.575 138.676 202.295 140.472 207.439 142.96C211.849 136.544 215.919 128.268 219.356 117.467C227.847 90.768 245.174 74.0166 254.749 66.4056C265.006 58.2499 275.655 53.0328 284.135 51.7232C281.474 46.8413 280.002 42.3156 280.28 38.9161C280.526 35.9356 282.166 35.0609 283.124 34.8042C287.383 33.6518 293.459 40.4613 296.073 44.2223C298.299 47.4228 300.551 51.7966 298.645 54.4837C297.435 56.1809 295.109 56.5633 291.72 55.6152C291.432 55.5366 291.138 55.4633 290.829 55.4056C292.307 57.5428 293.993 59.7218 295.842 61.8799C304.061 71.4604 313.668 78.4271 321.53 80.5223C323.798 81.1247 328.229 81.8999 331.582 79.9513C328.444 78.5004 325.516 76.5728 323.002 74.2366C318.79 70.3237 317.476 67.0185 319.084 64.4204C321.472 60.5652 329.434 61.0209 334.264 62.8332C338.554 64.4413 340.638 70.6171 338.821 76.3213C338.611 76.9813 338.344 77.6309 338.025 78.2647C341.12 79.1028 344.295 79.4275 347.296 79.1604C350.984 78.8304 356.117 77.4475 359.653 72.7437C364.205 66.6675 374.052 51.828 367.107 45.3066C359.972 38.6175 312.552 7.95897 296.01 4.52802C294.585 4.23468 293.249 4.09849 291.956 4.09849ZM120.487 196.31C115.751 196.31 112.263 197.306 110.277 199.354C106.428 203.329 107.952 211.936 114.688 224.24C124.997 243.076 165.367 260.76 205.909 273.001C207.868 265.411 208.597 257.208 207.067 249.126C204.401 235.036 195.26 223.952 179.902 216.184C154.445 203.314 133.058 196.31 120.487 196.31ZM435.652 217.839C437.8 217.839 439.555 218.494 440.885 219.798C444.311 223.161 443.913 229.829 443.488 236.885C443.069 243.841 442.64 251.038 446.254 252.541C447.93 253.238 448.637 252.829 448.868 252.693C451.099 251.405 451.906 245.156 452.498 240.598C453.1 235.937 453.624 231.903 455.405 229.939C458.668 226.33 465.394 228.776 473.917 231.867C478.5 233.532 483.246 235.256 487.53 236.02C493.916 237.162 496.283 234.339 499.279 230.772C501.045 228.666 503.051 226.283 506.036 224.795C511.076 222.286 520.965 226.581 532.416 231.558C536.302 233.249 540.262 234.968 543.95 236.361C541.991 229.279 539.01 221.982 535.333 214.214C530.598 204.215 513.92 195.567 490.72 191.083C464.048 185.928 438.366 188.045 429.649 196.111C416.224 208.541 411.772 232.296 414.485 243.857C415.318 247.403 416.769 249.65 418.566 250.174C419.472 250.441 419.828 250.205 419.964 250.116C421.651 249.011 422.327 243.631 422.924 238.886C424.06 229.85 425.475 218.609 434.757 217.87C435.06 217.849 435.359 217.839 435.652 217.839ZM245.625 206.855C236.322 207.944 228.454 211.705 225.028 216.718C222.205 220.851 222.923 225.109 227.04 228.703C231.88 232.925 236.531 233.794 240.14 231.149C244.975 227.603 247.505 218.415 245.625 206.855ZM184.632 140.745C173.611 140.745 167.787 148.392 165.644 152.022C161.773 158.586 161.344 165.647 163.376 168.124C163.664 168.475 164.539 169.538 167.043 168.658C168.583 168.119 170.212 167.606 171.93 167.061C181.908 163.913 194.37 159.979 205.181 146.046C200.572 143.898 195.386 142.3 189.43 141.2C187.733 140.886 186.136 140.745 184.632 140.745ZM326.705 65.248C324.453 65.248 322.708 65.7194 322.284 66.4109C322.012 66.8561 322.342 68.4852 325.563 71.4813C328.083 73.8228 331.142 75.719 334.41 77.0547C334.725 76.4994 334.992 75.8813 335.217 75.1847C336.406 71.4656 335.317 67.2699 332.933 66.3742C330.807 65.5728 328.58 65.248 326.705 65.248ZM288.257 51.4037C289.871 51.4142 291.369 51.6028 292.731 51.9851C294.695 52.5352 295.418 52.3361 295.57 52.2732C295.785 51.608 294.994 48.9209 292.018 45.0813C288.551 40.6028 285.193 38.4552 284.193 38.4447C284.146 38.5547 284.067 38.7904 284.03 39.2304C283.795 42.1166 285.371 46.5009 288.257 51.4037Z"/>
</svg>
