<svg viewBox="0 0 616 648" fill="none" xmlns="http://www.w3.org/2000/svg">
<path class="result-fifth-svg" stroke="#E5E5E5" stroke-width="3" style="stroke-dasharray: 12523; stroke-dashoffset: 12523;" fill="transparent" d="M1079.29 647.113H375.844C374.74 647.113 373.838 646.21 373.838 645.108C373.838 630.782 374.57 613.108 375.222 597.509C375.503 590.862 375.763 584.596 375.954 578.872C376.465 563.955 381.68 560.817 387.908 557.92C387.297 557.98 386.675 558.05 386.063 558.1C356.287 560.957 325.689 560.687 296.093 560.426C286.636 560.346 276.848 560.256 267.3 560.276C267.24 560.276 267.17 560.276 267.109 560.276C250.411 560.276 233.111 555.614 217.837 551.494C215.32 550.812 212.843 550.15 210.416 549.509L208.62 549.048C200.698 547.002 197.227 545.88 195.121 540.546C193.447 542.461 191.651 543.845 189.796 544.456C182.465 546.852 158.646 539.444 149.359 532.707C143.964 531.414 139.24 530.521 135.76 530.662C134.065 531.454 132.36 532.115 130.645 532.486C130.063 533.148 129.502 534.231 129.291 536.155C128.078 547.574 128.058 559.624 128.028 571.273C127.997 583.514 127.977 595.073 126.583 604.897C125.941 609.459 125.47 613.298 125.049 616.677C123.805 626.822 122.983 633.529 119.192 645.709C118.931 646.551 118.159 647.123 117.276 647.123H2.63519C1.532 647.123 0.629395 646.221 0.629395 645.118C0.629395 644.015 1.532 643.113 2.63519 643.113H115.802C119.122 632.155 119.904 625.729 121.077 616.195C121.499 612.797 121.97 608.937 122.622 604.346C123.976 594.802 123.996 583.373 124.026 571.283C124.046 559.534 124.076 547.373 125.31 535.754C125.43 534.642 125.651 533.619 125.992 532.707C125.3 532.606 124.608 532.436 123.916 532.185C118.881 530.411 115.943 527.724 115.16 524.185C114.458 520.997 115.572 517.398 118.47 513.428C116.434 513.298 114.569 512.496 113.104 511.033C110.316 508.246 109.153 502.872 112.834 497.148C113.425 496.225 114.298 495.383 115.351 494.601C115.02 494.551 114.689 494.491 114.358 494.411C110.387 493.408 108.311 492.195 107.418 490.361C106.375 488.225 107.328 486.08 108.331 483.804C109.023 482.241 109.805 480.476 110.126 478.401C110.497 476.035 110.447 474.391 110.407 472.957C110.296 469.228 110.477 467.073 115.702 462.561C120.636 458.311 127.807 456.827 132.952 456.326C135.118 456.115 137.234 456.185 139.3 456.476C129.201 445.358 120.235 433.709 113.415 422.812C105.171 409.629 99.8461 394.792 94.7012 380.446C92.7556 375.012 90.7398 369.398 88.6136 364.025C81.3526 345.669 74.8238 325.609 76.2278 303.363C78.8655 261.519 114.188 251.313 145.358 242.311C151.525 240.526 157.342 238.852 162.958 236.947C171.664 233.99 178.423 230.952 185.173 224.897C186.527 223.684 187.981 221.86 189.525 219.925C193.266 215.243 197.498 209.94 202.834 210.311C205.261 210.481 207.367 211.243 209.192 212.466C204.809 206.802 203.917 201.328 202.844 194.692C202.563 192.967 202.272 191.193 201.901 189.278C200.778 183.444 198.942 176.236 194.7 171.002C190.338 173.569 185.203 173.208 180.048 169.94C169.628 163.323 160.612 145.539 162.838 135.955C164.252 129.85 166.93 127.604 168.695 126.12C170.46 124.637 171.122 124.085 168.204 117.428C167 114.692 165.686 112.165 164.413 109.719C161.755 104.616 159.238 99.8044 157.723 93.2982C153.25 74.0701 149.73 53.8596 159.769 36.7368C171.904 16.045 193.507 6.87211 209.483 2.82198C227.495 -1.73942 242.93 -0.0251333 255.355 7.94479C266.498 15.0826 274.41 26.6415 280.287 39.9849C280.308 40.025 280.338 40.0651 280.358 40.1152C285.833 49.7493 288.792 60.2155 290.336 71.1027C292.513 80.1653 294.238 89.1779 295.782 97.4987C299.784 95.0926 302.482 95.9348 304.116 97.248C312.952 104.316 306.242 140.807 302.983 147.002C302.712 147.514 302.231 147.885 301.659 148.025C301.088 148.155 300.496 148.035 300.025 147.694C299.643 147.413 298.971 147.183 298.269 146.942C297.969 146.842 297.658 146.732 297.337 146.611C297.357 152.065 296.133 159.343 293.837 166.04C294.85 172.356 295.862 178.862 296.173 185.118C296.274 187.163 296.143 189.268 296.023 191.313C295.993 191.875 295.953 192.426 295.923 192.977C297.698 194.07 298.741 195.684 299.814 197.358C300.095 197.789 300.386 198.241 300.706 198.712C301.77 200.266 301.388 202.291 301.057 204.075C300.917 204.827 300.676 206.08 300.807 206.451C301.047 206.992 301.86 207.454 302.712 207.935C303.996 208.667 305.601 209.579 306.162 211.444C306.634 213.007 306.954 214.521 307.165 215.975C310.094 221.739 311.257 228.045 312.47 234.601C312.571 235.123 312.661 235.644 312.761 236.165C313.724 234.742 314.787 233.479 315.981 232.416C316.663 231.804 317.676 231.734 318.438 232.256C341.645 247.975 363.909 256.015 389.684 265.338L394.828 267.203C425.547 278.341 431.204 311.123 432.738 344.887C433.5 361.669 436.73 378.21 439.849 394.22C444.612 418.682 449.547 443.975 445.866 470.772C445.344 474.601 444.873 478.491 444.382 482.601C442.205 500.797 439.949 519.624 432.237 535.764C426.169 548.466 413.121 553.809 399.081 556.416C396.042 558.662 393.144 559.995 390.596 561.158C384.248 564.065 380.417 565.83 379.955 579.073C379.755 584.807 379.494 591.083 379.223 597.739C378.602 612.576 377.91 629.298 377.849 643.163H1079.29C1080.39 643.163 1081.29 644.065 1081.29 645.168C1081.29 646.271 1080.39 647.113 1079.29 647.113ZM270.198 556.276C278.833 556.276 287.609 556.356 296.123 556.426C325.618 556.687 356.107 556.947 385.672 554.12C389.563 553.749 393.525 553.268 397.406 552.586C399.121 551.233 400.866 549.539 402.611 547.323C413.412 533.639 410.022 513.619 401.889 499.845C394.377 487.133 382.483 482.702 369.886 478C365.975 476.546 361.943 475.032 357.952 473.258C355.766 472.276 353.87 471.143 352.245 469.88C350.671 470.461 349.237 471.383 347.993 472.707C351.864 475.554 357.721 477.168 363.879 478.862C371.621 480.987 379.624 483.193 385.712 488.165C392.231 493.499 394.959 499.173 392.652 502.642C391.659 504.135 388.29 507.043 378.531 501.85C374.831 499.885 371.411 497.489 368.091 495.183C363.799 492.185 359.356 489.088 354.392 486.992C353.69 486.702 352.998 486.401 352.316 486.11C344.353 482.702 337.483 479.754 330.422 483.263C326.31 485.308 325.047 488.396 323.583 491.985C322.179 495.413 320.594 499.293 316.151 501.799C309.843 505.368 300.696 500.757 291.029 495.885C282.735 491.704 274.15 487.373 268.844 489.228C267.029 489.86 265.635 491.233 264.602 493.428C264.532 494.18 264.813 496.637 265.033 498.632C266.036 507.694 266.407 513.288 263.098 514.591C260.31 515.694 257.441 512.506 255.004 509.248C251.484 504.536 251.334 489.017 252.698 481.459C246.249 492.817 238.196 501.96 227.896 505.89C220.515 508.707 212.451 508.677 203.806 505.799C204.067 506.481 204.288 507.213 204.448 508.015C206.043 515.634 202.994 528.246 198.01 536.546C199.444 542.551 201.5 543.093 209.633 545.188L211.439 545.659C213.886 546.301 216.373 546.972 218.89 547.654C233.923 551.704 250.943 556.296 267.119 556.296C267.18 556.296 267.24 556.296 267.3 556.296C268.263 556.276 269.236 556.276 270.198 556.276ZM358.463 469.058C358.824 469.238 359.206 469.418 359.587 469.589C363.458 471.313 367.439 472.807 371.29 474.241C384.569 479.193 397.115 483.865 405.349 497.799C414.184 512.757 417.745 534.632 405.77 549.809C405.449 550.21 405.138 550.601 404.817 550.972C415.177 548.195 424.173 543.283 428.606 533.99C436.027 518.441 438.244 499.955 440.38 482.08C440.871 477.95 441.343 474.05 441.874 470.18C445.465 444.045 440.601 419.083 435.897 394.942C432.748 378.802 429.499 362.1 428.716 345.027C427.242 312.657 421.947 281.268 393.444 270.932L388.3 269.068C362.776 259.845 340.662 251.845 317.545 236.456C316.151 238 314.978 239.945 313.975 242.18C314.908 246.251 316.131 250.321 318.077 254.271C320.724 254.01 323.382 253.829 325.909 253.93C352.927 254.972 390.255 265.639 408.368 286.601C416.752 296.316 420.342 307.383 419.028 319.514C416.852 339.574 405.931 355.885 395.37 371.654C390.917 378.301 386.314 385.178 382.443 392.225C375.954 404.045 365.855 427.083 362.756 445.098C362.796 445.288 362.846 445.469 362.886 445.659C363.167 446.852 363.558 448.205 363.959 449.639C365.233 454.13 366.727 459.393 366.426 463.915C369.154 463.764 372.183 463.313 375.282 462.852C386.565 461.158 400.595 459.063 407.024 472.065C407.445 472.917 407.214 473.95 406.462 474.531C398.399 480.827 386.906 477.027 375.793 473.348C371.672 471.985 367.62 470.641 363.849 469.829C363.729 469.86 363.608 469.88 363.488 469.89C362.986 469.93 362.505 469.779 362.114 469.489C360.87 469.258 359.647 469.108 358.463 469.058ZM167.361 536.807C175.996 539.774 185.153 541.759 188.552 540.657C190.307 540.085 192.113 538.311 193.777 535.825C193.537 534.692 193.316 533.439 193.085 532.055C192.002 525.298 190.618 512.386 193.587 501.85C193.637 501.669 193.707 501.509 193.798 501.348C192.644 500.717 191.481 500.035 190.318 499.303C186.827 497.138 183.387 494.291 179.897 491.093C181.552 493.599 182.906 496.246 183.859 499.093C187.289 509.338 188.693 524.085 181.382 531.965C178.915 534.622 174.582 537.328 167.361 536.807ZM150.994 528.977C153.311 529.539 155.778 530.18 158.365 530.842C159.819 531.213 161.304 531.604 162.838 531.985C169.838 533.759 175.083 532.837 178.443 529.228C183.397 523.895 184.049 512.296 180.058 500.356C176.788 490.571 167.682 482.882 158.877 475.434C155.346 472.446 152.007 469.629 149.068 466.702C147.504 465.148 145.959 463.564 144.435 461.97C140.835 460.586 137.134 459.925 133.333 460.296C129.592 460.657 122.672 461.819 118.319 465.579C114.298 469.048 114.328 470 114.408 472.817C114.458 474.351 114.508 476.266 114.077 479.012C113.666 481.599 112.733 483.714 111.981 485.408C111.42 486.682 110.788 488.125 111.008 488.586C111.119 488.807 111.74 489.599 115.331 490.501C117.678 491.093 120.375 489.97 123.234 488.787C126.423 487.464 129.712 486.09 133.142 486.842C133.965 487.022 134.596 487.694 134.707 488.536C134.817 489.378 134.396 490.19 133.644 490.581C132.119 491.373 130.033 492.185 127.817 493.048C123.555 494.702 117.708 496.967 116.203 499.303C113.726 503.143 114.288 506.531 115.933 508.185C117.648 509.9 120.486 509.84 123.334 508.015C124.196 507.454 125.35 507.654 125.992 508.456C126.633 509.258 126.553 510.421 125.821 511.143C120.817 516.005 118.43 520.326 119.082 523.313C119.543 525.398 121.619 527.113 125.249 528.396C126.403 528.807 127.606 528.887 128.84 528.737C128.93 528.667 129.03 528.596 129.121 528.536C130.645 527.474 132.531 526.912 134.737 526.722C136.081 526.06 137.455 525.288 138.859 524.516C142.9 522.261 147.083 519.935 151.245 519.875C152.057 519.905 152.769 520.326 153.1 521.048C153.431 521.769 153.301 522.621 152.779 523.213C152.548 523.504 152.057 524.737 151.736 525.559C151.335 526.571 150.924 527.604 150.452 528.506C150.613 528.657 150.793 528.817 150.994 528.977ZM197.077 504.406C194.931 513.539 196.044 524.556 196.856 530.1C199.875 523.193 201.71 514.481 200.527 508.827C199.845 505.609 198.471 504.626 197.077 504.406ZM142.319 527.163C143.532 527.353 144.796 527.594 146.13 527.875C146.2 527.724 146.29 527.574 146.401 527.434C146.852 526.872 147.363 525.669 147.795 524.566C146.05 525.178 144.214 526.12 142.319 527.163ZM256.83 481.098C255.325 487.053 255.456 503.153 258.204 506.822C259.909 509.098 260.962 510.07 261.523 510.481C262.065 508.266 261.353 501.92 261.042 499.043C260.54 494.551 260.4 492.947 260.881 491.885C262.386 488.606 264.622 486.431 267.521 485.418C274.441 483.002 283.798 487.714 292.844 492.276C301.148 496.466 309.733 500.797 314.185 498.281C317.415 496.456 318.558 493.659 319.882 490.431C320.564 488.757 321.286 486.992 322.359 485.298C322.138 485.388 321.908 485.469 321.677 485.549C309.712 489.759 296.554 486.952 283.828 484.235C274.29 482.22 265.274 480.296 256.83 481.098ZM146.701 458.541C156.65 462.652 165.636 471.534 174.422 480.215C180.69 486.411 186.607 492.266 192.444 495.895C205.15 503.794 216.603 505.89 226.462 502.12C246.59 494.431 257.823 463.905 265.344 438.18C271.642 416.647 277.499 395.253 279.936 370.341C280.759 361.91 280.538 353.168 280.318 344.707C280.017 333.017 279.716 320.937 282.103 309.148C282.885 305.298 284.129 301.278 285.462 297.017C288.11 288.496 290.808 279.804 289.885 272.145C283.035 277.549 276.376 274.491 269.938 271.534C268.072 270.672 266.137 269.789 264.191 269.098C262.296 268.426 260.3 267.875 258.194 267.273C251.454 265.388 243.822 263.243 239.129 256.867C238.336 255.794 237.704 254.682 237.193 253.549C234.234 257.519 234.967 264.897 235.608 271.403C235.879 274.19 236.14 276.817 236.11 279.113C236 288.787 233.823 298.682 231.416 308.817C230.835 311.253 230.263 313.739 229.681 316.276C225.82 333.017 221.447 351.985 212.622 366.692C208.209 374.04 203.496 377.539 198.591 377.148C198.03 379.684 197.548 382.251 197.167 384.837C197.248 385.158 197.258 385.489 197.177 385.819C197.067 386.291 196.947 386.762 196.836 387.223C196.505 389.809 196.275 392.416 196.134 395.033C195.984 397.759 196.405 402.672 196.886 408.366C198.712 429.85 199.464 446.501 191.32 449.098C190.799 449.268 190.227 449.208 189.746 448.947C189.264 448.687 188.913 448.235 188.773 447.694C183.077 425.99 186.787 411.083 191.481 392.215C191.872 390.632 192.273 389.027 192.674 387.383C187.329 388.276 185.263 395.002 182.886 404.747C180.609 414.07 178.032 424.636 168.494 423.524C167.822 423.444 167.231 423.033 166.93 422.421C161.665 411.764 171.423 397.659 177.26 389.238L177.531 388.847C178.704 387.153 179.717 385.789 180.619 384.586C184.802 378.972 185.143 378.521 181.602 370.07C178.223 362.01 174 354.331 169.909 346.902C165.616 339.103 161.173 331.043 157.773 322.601C153.862 312.897 155.587 309.609 157.713 308.556C161.043 306.922 166.067 310.762 170.51 318.331C175.565 326.942 178.353 335.654 181.301 344.877L182.304 347.995C186.306 360.366 191.14 368.907 195.723 371.955C198.11 362.942 201.59 354.321 206.093 346.381C207.317 344.225 208.63 342.19 209.894 340.225C213.214 335.083 216.353 330.22 217.476 323.885C218.168 319.985 218.148 316.025 218.128 311.835C218.108 307.363 218.088 302.742 219.01 298.23C219.813 294.331 221.708 290.702 223.533 287.193C225.289 283.824 226.953 280.657 227.495 277.559C228.377 272.586 226.362 268.616 224.045 264.015C223.082 262.1 222.079 260.125 221.217 257.94C220.073 255.053 219.271 250.591 218.348 245.418C216.052 232.596 212.903 215.033 202.543 214.311C199.293 214.09 195.763 218.521 192.644 222.431C190.989 224.496 189.435 226.451 187.83 227.885C180.569 234.391 173.419 237.629 164.232 240.747C158.536 242.682 152.398 244.456 146.461 246.17C115.1 255.233 82.6765 264.596 80.2194 303.624C78.8655 325.088 85.2439 344.636 92.3344 362.561C94.4806 367.995 96.5064 373.639 98.4721 379.103C103.547 393.248 108.792 407.885 116.805 420.697C124.487 432.947 134.958 446.2 146.701 458.541ZM337.152 477.629C342.758 477.629 348.224 479.975 353.9 482.401C354.582 482.692 355.264 482.982 355.956 483.273C361.312 485.529 365.925 488.757 370.388 491.865C373.748 494.21 376.927 496.426 380.417 498.281C386.113 501.308 388.911 500.997 389.312 500.396C389.834 499.604 388.811 495.855 383.175 491.243C377.739 486.802 370.157 484.717 362.816 482.702C355.354 480.647 348.314 478.712 343.821 474.411C343.109 473.729 342.999 472.626 343.56 471.814C345.155 469.529 347.01 467.915 349.046 466.832C341.825 458.521 342.106 446.341 342.377 434.481C342.487 429.459 342.608 424.276 342.146 419.484C341.304 410.812 339.699 402.16 338.145 393.799C336.169 383.153 334.133 372.145 333.602 360.867C333.441 357.479 333.301 354.13 333.16 350.802C331.716 317.168 330.472 288.025 315.76 258.541C315.69 258.551 315.62 258.551 315.549 258.561C313.634 258.772 311.698 258.972 309.773 259.113C308.459 269.178 308.409 280.015 308.359 287.584C308.349 288.787 308.349 289.92 308.339 290.962C308.078 317.298 311.026 344.256 316.853 368.907C318.809 377.168 321.527 385.328 324.144 393.228C328.226 405.479 332.438 418.16 333.922 431.534C334.163 433.739 334.544 436.236 334.935 438.892C336.771 451.123 339.318 468.165 331.606 478.451C333.481 477.88 335.327 477.629 337.152 477.629ZM260.841 476.907C268.624 476.907 276.747 478.642 284.65 480.326C296.835 482.922 309.432 485.619 320.323 481.779C336.46 476.105 333.291 454.942 330.974 439.484C330.573 436.797 330.192 434.261 329.941 431.975C328.497 419.022 324.355 406.551 320.343 394.491C317.686 386.511 314.948 378.261 312.952 369.829C307.045 344.857 304.066 317.579 304.327 290.922C304.337 289.88 304.347 288.757 304.347 287.564C304.387 279.624 304.447 269.158 305.681 259.253C302.813 259.233 300.004 258.922 297.387 258.04C296.344 261.809 295.06 265.428 293.265 268.286C295.672 277.679 292.342 288.386 289.293 298.19C288 302.351 286.776 306.281 286.034 309.93C283.737 321.268 284.038 333.118 284.329 344.586C284.55 353.168 284.77 362.03 283.928 370.712C281.461 395.975 275.544 417.559 269.195 439.293C265.525 451.824 260.982 465.469 254.934 477.268C254.974 477.258 255.014 477.258 255.065 477.248C256.96 477.017 258.886 476.907 260.841 476.907ZM370.839 467.524C372.905 468.155 374.991 468.847 377.067 469.529C386.885 472.787 396.202 475.865 402.581 472.306C397.115 463.634 386.324 465.248 375.884 466.812C374.179 467.063 372.484 467.313 370.839 467.524ZM320.012 258.13C334.474 287.985 335.778 318.461 337.162 350.642C337.302 353.96 337.443 357.308 337.603 360.687C338.115 371.694 340.14 382.561 342.086 393.078C343.651 401.529 345.275 410.261 346.138 419.103C346.629 424.125 346.509 429.439 346.388 434.581C346.108 446.642 345.847 458.16 353.228 465.368C353.78 465.258 354.341 465.178 354.903 465.118C352.476 463.083 351.092 460.035 350.671 455.814C349.838 447.464 352.275 438.772 354.632 430.361C354.763 429.89 354.893 429.418 355.023 428.947C352.035 414.321 349.728 398.832 349.437 382.501C349.016 359.343 352.175 345.318 358.824 340.797C362.475 338.321 365.544 337.829 367.941 339.343C372.414 342.17 373.216 351.173 370.528 368.536L370.498 368.717C369.355 376.105 367.931 383.434 366.547 390.521C364.922 398.902 363.227 407.574 362.024 416.286C361.442 420.466 360.319 424.817 359.135 429.078C359.617 431.403 360.118 433.709 360.63 435.995C366.336 413.98 378.702 390.662 378.912 390.291C382.874 383.093 387.517 376.145 392.02 369.428C402.791 353.348 412.961 338.17 415.027 319.093C416.22 308.115 412.951 298.07 405.319 289.238C386.815 267.814 347.592 258.792 325.739 257.95C323.924 257.87 321.998 257.96 320.012 258.13ZM356.859 437.438C355.274 443.554 354.091 449.689 354.662 455.413C354.983 458.662 355.966 460.877 357.661 462.19C358.002 462.451 358.363 462.682 358.754 462.882C357.44 457.95 357.601 451.834 358.664 445.268C358.062 442.682 357.45 440.075 356.859 437.438ZM361.963 458.06C362.054 459.022 362.194 459.945 362.375 460.827C362.284 459.935 362.144 459.002 361.963 458.06ZM192.564 404.907C189.846 417.378 188.582 428.997 191.912 443.664C195.362 437.93 193.788 419.323 192.885 408.707C192.765 407.393 192.664 406.12 192.564 404.907ZM364.912 342.491C363.678 342.491 362.064 343.444 361.091 344.105C358.022 346.19 352.947 353.95 353.459 382.421C353.69 395.393 355.224 407.855 357.36 419.784C357.641 418.421 357.892 417.078 358.072 415.734C359.286 406.912 360.991 398.18 362.625 389.749C363.999 382.702 365.413 375.403 366.547 368.095L366.577 367.915C369.716 347.604 367.088 343.534 365.815 342.722C365.554 342.561 365.253 342.491 364.912 342.491ZM159.549 312.185C159.298 312.887 159.238 315.494 161.494 321.088C164.804 329.298 168.996 336.907 173.419 344.957C177.561 352.476 181.833 360.256 185.293 368.516C189.555 378.682 188.593 380.586 183.829 386.972C182.946 388.155 181.953 389.489 180.82 391.123L180.549 391.514C175.434 398.902 167.01 411.063 170.059 419.574C174.823 419.313 176.648 413.308 178.975 403.784C181.291 394.281 183.899 383.594 193.336 383.263C193.717 380.817 194.189 378.401 194.73 375.995C187.319 372.165 181.893 359.724 178.493 349.198L177.49 346.07C174.612 337.068 171.884 328.556 167.06 320.336C163.52 314.321 160.501 312.346 159.549 312.185ZM213.876 217.298C218.669 224.416 220.685 235.634 222.31 244.697C223.203 249.659 223.965 253.94 224.958 256.446C225.76 258.461 226.713 260.356 227.635 262.19C230.173 267.213 232.57 271.955 231.456 278.241C230.804 281.94 228.919 285.549 227.104 289.037C225.399 292.306 223.634 295.674 222.952 299.022C222.109 303.123 222.129 307.333 222.149 311.794C222.17 315.985 222.19 320.316 221.437 324.566C220.174 331.694 216.664 337.128 213.274 342.391C212.03 344.316 210.757 346.291 209.593 348.346C205.231 356.045 201.851 364.426 199.554 373.178C202.623 373.048 205.852 370.18 209.182 364.647C217.677 350.491 221.979 331.845 225.77 315.393C226.352 312.857 226.933 310.351 227.515 307.905C229.872 298 231.998 288.346 232.098 279.083C232.118 277.007 231.878 274.491 231.607 271.814C230.895 264.576 230.082 256.366 233.984 251.153C234.505 250.461 235.097 249.829 235.769 249.248C235.648 248.697 235.538 248.145 235.448 247.604C234.385 247.634 233.402 247.393 232.499 246.742C230.363 245.198 229.611 241.829 229.892 235.133C229.992 232.837 230.373 230.591 230.895 228.386C228.779 226.21 225.309 224.266 221.939 222.381C219.121 220.787 216.222 219.163 213.876 217.298ZM240.432 250.942C240.904 252.185 241.525 253.378 242.358 254.511C246.239 259.774 252.868 261.629 259.277 263.434C261.363 264.015 263.509 264.626 265.525 265.328C267.641 266.07 269.657 267.002 271.612 267.905C278.442 271.043 282.875 272.767 287.669 268.797C288.08 268.456 288.461 268.065 288.832 267.624C287.789 264.707 286.024 262 283.286 259.594C276.848 253.92 258.765 248.045 246.841 249.278C244.273 249.519 242.127 250.09 240.432 250.942ZM250.221 245.078C263.088 245.078 279.515 250.902 285.944 256.566C288.321 258.662 290.086 260.927 291.349 263.313C292.252 261.238 293.014 258.852 293.666 256.436C291.008 255.073 288.772 253.519 286.586 252.015C282.885 249.449 279.395 247.033 274.13 245.729C262.797 242.922 253.55 242.511 245.838 244.476C244.093 244.917 242.438 245.539 240.984 246.09C240.422 246.301 239.881 246.511 239.339 246.692C239.359 246.792 239.369 246.892 239.389 246.992C241.375 246.12 243.722 245.549 246.42 245.268C247.643 245.138 248.917 245.078 250.221 245.078ZM298.39 254.16C300.767 255.002 303.434 255.273 306.263 255.253C307.055 250.401 308.178 245.799 309.793 241.819C309.321 239.634 308.92 237.449 308.519 235.293C307.977 232.346 307.436 229.449 306.734 226.642C305.932 230.441 304.548 234.13 303.083 238.07C302.472 239.714 301.84 241.408 301.218 243.183C300.486 245.268 299.834 248.075 299.142 251.043C298.891 252.065 298.64 253.108 298.39 254.16ZM311.658 248.987C311.157 250.922 310.735 252.957 310.374 255.053C311.528 254.962 312.691 254.842 313.854 254.722C312.992 252.817 312.27 250.902 311.658 248.987ZM256.218 239.243C261.884 239.243 268.132 240.105 275.103 241.829C281.08 243.313 285.041 246.06 288.882 248.717C290.788 250.04 292.623 251.303 294.689 252.436C294.88 251.654 295.06 250.882 295.231 250.13C295.953 247.063 296.625 244.155 297.427 241.87C298.059 240.065 298.701 238.341 299.322 236.677C301.91 229.749 304.056 224.015 303.274 217.218C302.101 215.022 300.646 212.937 298.791 211.012C297.327 209.489 296.464 209.038 295.842 208.707C293.506 207.484 293.235 206.291 292.162 200.205C291.901 198.722 291.821 197.218 291.821 195.694C291.45 195.634 291.039 195.604 290.577 195.584C289.504 195.544 288.652 194.662 288.652 193.579C288.642 187.684 286.445 187.544 282.063 187.253C280.147 187.123 277.981 186.982 276.015 186.15C273.628 185.138 271.873 183.674 270.319 182.381C267.952 180.406 266.096 178.852 262.496 178.982C260.691 179.053 260.089 179.814 259.096 181.098C257.802 182.762 256.027 185.038 251.484 184.546C251.073 184.506 250.682 184.336 250.371 184.055C247.794 181.789 243 177.96 241.064 177.318C235.979 175.644 232.269 176.647 231.226 178.511C230.253 180.246 231.497 182.902 234.485 185.439C242.388 192.155 241.846 195.975 240.673 204.346C240.452 205.95 240.192 207.764 239.961 209.83C239.49 214.08 238.176 218.17 236.912 222.12C236.34 223.915 235.779 225.669 235.297 227.403C238.116 231.444 238.467 236.306 238.798 241.017C238.838 241.539 238.868 242.06 238.908 242.581C239.139 242.491 239.369 242.411 239.58 242.331C241.134 241.749 242.899 241.088 244.855 240.586C248.355 239.694 252.136 239.243 256.218 239.243ZM233.964 234.411C233.944 234.712 233.924 235.002 233.913 235.303C233.623 242.05 234.565 243.273 234.866 243.494C234.896 243.514 234.926 243.534 234.967 243.544C234.906 242.792 234.846 242.04 234.796 241.308C234.616 238.892 234.445 236.556 233.964 234.411ZM195.031 166.331C195.563 166.331 196.094 166.541 196.485 166.952C202.262 172.987 204.519 181.639 205.842 188.506C206.223 190.471 206.514 192.286 206.805 194.03C208.069 201.829 208.911 206.982 215.079 213.017C217.245 215.133 220.635 217.027 223.915 218.872C226.793 220.486 229.741 222.14 232.098 224.055C232.419 222.992 232.76 221.94 233.091 220.897C234.355 216.957 235.548 213.238 235.979 209.378C236.22 207.253 236.471 205.408 236.702 203.784C237.835 195.694 238.106 193.769 231.888 188.486C227.284 184.576 225.73 180.105 227.736 176.536C229.962 172.576 235.829 171.353 242.328 173.499C245.256 174.461 250.732 179.053 252.517 180.586C254.353 180.657 254.914 179.935 255.937 178.611C257.1 177.128 258.685 175.093 262.366 174.952C267.491 174.772 270.369 177.168 272.896 179.283C274.36 180.506 275.754 181.659 277.59 182.441C278.211 182.702 278.903 182.872 279.646 182.982C279.204 182.621 278.934 182.09 278.903 181.519C278.412 171.063 283.156 161.479 287.729 152.205C287.769 152.135 287.799 152.065 287.839 151.985C286.726 140.135 287.107 127.514 287.468 115.263C287.609 110.411 287.759 105.539 287.819 100.667C287.268 97.5688 286.987 94.4611 286.716 91.4235C286.235 86.1102 285.783 81.0876 284.018 76.1252C280.027 64.9573 268.564 39.8646 258.615 33.5889C248.756 27.3734 232.951 35.4736 220.254 41.9799C216.383 43.9648 212.732 45.8295 209.533 47.1628C206.143 48.5663 200.346 49.1979 194.74 49.7994C189.816 50.3308 183.067 51.0626 181.733 52.2656C178.303 55.3633 179.486 59.614 181.853 66.2505C182.936 69.2982 184.059 72.4561 184.21 75.3834C184.541 81.8395 182.465 85.228 180.64 88.2155C178.844 91.1528 177.29 93.6891 178.102 99.3132C178.543 102.381 179.777 105.268 180.97 108.055C183.418 113.779 185.955 119.694 182.214 127.373C181.943 127.925 181.432 128.326 180.83 128.456C180.228 128.586 179.597 128.426 179.125 128.035C170.861 121.128 167.281 96.2556 165.305 78.1403C164.292 68.847 166.098 63.3934 168.374 56.4761C168.896 54.9122 169.437 53.248 169.989 51.4335C171.002 48.1252 171.323 45.0676 171.644 42.1202C172.165 37.2781 172.707 32.2856 176.297 26.8019C179.045 22.6014 182.996 18.7919 187.68 15.5438C178.383 20.7167 169.457 28.1252 163.239 38.7318C153.942 54.5814 157.352 73.9197 161.635 92.3658C163.029 98.3708 165.426 102.972 167.973 107.845C169.277 110.351 170.631 112.937 171.884 115.794C175.605 124.266 174.492 126.471 171.283 129.168C169.678 130.511 167.873 132.035 166.759 136.837C165.085 144.085 172.556 160.406 182.214 166.531C186.577 169.298 190.478 169.368 193.808 166.752C194.159 166.471 194.6 166.331 195.031 166.331ZM296.003 198.852C296.033 199.073 296.063 199.293 296.103 199.504C296.334 200.817 296.675 202.752 296.976 203.945C297.016 203.734 297.056 203.524 297.096 203.303C297.236 202.541 297.477 201.258 297.347 200.887C297.036 200.446 296.725 199.965 296.424 199.504C296.284 199.283 296.143 199.063 296.003 198.852ZM281.832 183.223C281.992 183.233 282.153 183.243 282.323 183.253C285.894 183.494 290.547 183.794 292.122 189.208C292.192 187.855 292.232 186.561 292.162 185.298C291.961 181.328 291.47 177.198 290.868 173.078C288.451 177.749 285.412 181.519 281.832 183.223ZM288.722 159.333C285.934 165.248 283.537 171.283 282.985 177.459C285.623 174.782 287.93 170.421 289.695 165.569C289.364 163.514 289.033 161.408 288.722 159.333ZM291.931 152.757C292.051 153.89 292.182 155.012 292.322 156.125C292.733 154.07 293.024 152.055 293.195 150.17C292.774 151.033 292.352 151.895 291.931 152.757ZM291.56 112.506C291.53 113.479 291.5 114.441 291.47 115.403C291.169 125.549 290.868 135.313 291.329 144.697C293.676 139.464 295.491 134.331 295.852 129.068C296.224 123.664 294.107 118.591 291.861 113.228C291.761 112.987 291.66 112.747 291.56 112.506ZM296.865 141.829C297.648 142.471 298.58 142.792 299.573 143.133C299.774 143.203 299.974 143.273 300.175 143.343C303.485 134.01 307.225 104.867 301.599 100.376C300.145 99.213 297.577 100.897 295.682 102.511C295.14 102.972 294.388 103.113 293.706 102.872C293.034 102.631 292.533 102.05 292.402 101.348C292.222 100.346 292.031 99.3333 291.841 98.3107C291.841 98.9924 291.831 99.6841 291.821 100.366C291.991 101.268 292.182 102.16 292.413 103.053C293.135 105.89 294.318 108.707 295.562 111.694C297.878 117.248 300.285 122.992 299.854 129.348C299.563 133.589 298.42 137.749 296.865 141.829ZM224.637 7.85455C207.999 7.85455 187.74 16.6465 179.647 29.0275C176.588 33.6992 176.147 37.8195 175.625 42.5814C175.284 45.7192 174.933 48.9573 173.82 52.6365C173.258 54.4911 172.697 56.1754 172.175 57.7693C169.959 64.4761 168.364 69.3182 169.287 77.7393C171.844 101.188 175.344 116.266 179.697 122.702C180.86 118.04 179.175 114.1 177.28 109.669C175.986 106.642 174.642 103.504 174.121 99.9147C173.108 92.8571 175.284 89.2982 177.21 86.1503C178.884 83.4135 180.469 80.837 180.198 75.614C180.078 73.2681 179.095 70.5212 178.062 67.614C175.856 61.4285 173.359 54.421 179.035 49.3082C181.221 47.3333 186.266 46.7017 194.299 45.8395C199.624 45.2681 205.13 44.6766 207.989 43.4836C211.037 42.2205 214.618 40.3859 218.419 38.441C232.028 31.4736 248.957 22.8019 260.751 30.2305C270.91 36.6365 281.07 57.8796 285.914 69.9097C283.507 60.2455 280.558 50.6115 276.717 41.8195C272.655 34.832 267.42 32.0049 260.811 28.4561C259.407 27.7042 257.973 26.9222 256.489 26.0801C252.898 24.035 250.191 21.0876 247.583 18.2405C244.484 14.8621 241.556 11.6641 237.293 9.9899C233.572 8.52624 229.24 7.85455 224.637 7.85455ZM232.6 4.52624C234.766 4.91722 236.832 5.48865 238.757 6.25055C243.882 8.26559 247.262 11.9548 250.532 15.5237C253.049 18.2606 255.416 20.8571 258.464 22.5914C259.919 23.4134 261.323 24.1754 262.697 24.9172C265.314 26.3307 267.801 27.6641 270.138 29.228C265.545 21.8796 259.989 15.6741 253.179 11.3132C247.122 7.42347 240.242 5.15782 232.6 4.52624Z"/>
</svg>
