<svg viewBox="0 0 913 363" fill="none" xmlns="http://www.w3.org/2000/svg">
<path class="result-two-one-svg" stroke="#E5E5E5" stroke-width="3" style="stroke-dasharray: 22236; stroke-dashoffset: 22236;" fill="transparent" d="M1117.87 362.341H1030.67C1030.03 362.341 1029.43 362.014 1029.1 361.484C1028.76 360.953 1028.75 360.291 1029.04 359.743C1056.67 309.449 1054.21 291.102 1050.28 284.642C1047.68 280.364 1043.57 279.622 1041.35 279.56C1031.93 279.268 1000.88 289.432 1000.57 289.538C999.97 289.732 999.307 289.626 998.819 289.246C998.331 288.866 998.073 288.274 998.146 287.673C998.183 287.399 999.178 278.694 999.933 265.941L951.649 277.147C920.461 287.346 913.682 310.147 913.618 310.376L897.637 361.095C897.406 361.837 896.688 362.35 895.877 362.35H839.387C838.751 362.35 838.152 362.032 837.821 361.51C837.489 360.989 837.452 360.335 837.738 359.787C841.745 352.098 842.629 341.776 843.568 330.844C844.37 321.512 845.199 311.861 848.063 303.183C848.33 302.361 848.662 301.548 849.03 300.752C848.146 301.026 847.382 301.23 846.774 301.336C842.214 302.131 824.474 318.286 814.941 326.964C811.404 330.181 808.346 332.965 806.513 334.503C799.19 340.645 771.014 350.622 762.779 349.96C757.814 349.562 749.322 340.83 743.114 332.346C739.181 326.973 730.09 313.293 730.688 302.44C731.573 286.595 715.389 255.328 715.223 255.01C715.113 254.806 715.057 254.585 715.03 254.356C714.956 253.454 714.799 252.526 714.588 251.581C713.943 252.641 713.547 253.472 713.399 253.887C712.423 256.706 714.551 264.333 715.978 266.534C716.863 267.895 717.765 270.493 718.815 273.506C719.755 276.202 720.722 278.994 721.56 280.47C723.467 283.82 727.078 294.752 727.225 295.22C727.409 295.777 727.299 296.378 726.921 296.837C726.543 297.297 725.963 297.544 725.355 297.518L683.888 295.185L608.1 332.673C607.805 332.824 607.483 332.894 607.142 332.868L481.569 325.506C480.731 325.453 480.031 324.87 479.874 324.075C479.718 323.279 480.132 322.493 480.888 322.139L562.248 285.022C562.524 284.898 562.837 284.836 563.151 284.854L683.095 291.597L699.251 283.608L549.38 275.716C548.524 275.672 547.814 275.062 547.667 274.249C547.52 273.436 547.98 272.64 548.772 272.313L608.257 248.311H584.584C585.063 251.642 585.22 257.325 581.084 258.544C578.975 259.172 577.179 258.686 575.788 257.784C575.18 258.624 574.093 259.525 572.113 260.029C569.322 260.745 566.669 260.135 564.726 259.349C564.698 259.419 564.67 259.49 564.634 259.561C564.219 260.445 563.252 261.602 560.995 262.097C557.937 262.778 555.202 262.133 553.654 261.593C552.576 262.309 550.661 262.928 547.271 262.733C544.683 262.583 542.223 260.957 540.151 258.023C538.253 255.336 536.678 251.413 537.342 249.513C537.526 248.973 537.553 248.054 537.581 247.162C537.618 245.739 537.673 244.131 538.364 242.796C539.064 241.453 540.335 240.587 541.459 239.827C542.094 239.394 542.813 238.908 543.043 238.545C543.255 238.209 543.347 237.193 543.412 236.442C543.55 234.975 543.697 233.313 544.618 231.988C545.604 230.565 547.483 229.84 549.288 229.142C550.32 228.744 551.48 228.294 551.913 227.887C552.033 227.772 552.051 227.719 552.171 227.348C552.751 225.413 553.875 224.131 558.398 222.479C564.836 220.128 573.255 229.522 576.608 233.711C578.957 231.961 583.461 228.559 585.386 226.712C585.846 226.27 586.556 225.607 587.44 224.794C591.253 221.268 600.188 212.996 601.579 209.885C602.822 207.11 608.358 199.475 612.07 200.199C612.751 200.332 614.327 200.924 614.327 203.513C614.327 205.926 617.891 213.871 620.747 220.252C623.473 226.332 625.822 231.581 626.273 234.153C626.982 238.227 627.157 244.846 627.203 247.993H634.195C634.867 246.579 637.243 244.67 644.234 239.765C645.155 239.12 645.994 238.528 646.685 238.033C647.477 237.467 648.25 236.866 649.015 236.283C652.027 233.967 654.873 231.785 658.06 231.502C659.552 231.369 665.199 231.528 674.271 231.793C681.143 231.997 689.958 232.262 694.333 232.226C698.082 231.899 698.275 232.103 698.754 232.589C699.215 233.057 699.371 233.729 699.168 234.339C698.947 235.001 698.413 235.426 697.593 235.585C697.124 235.673 696.203 235.726 694.867 235.744C687.452 236.433 666.387 238.802 662.012 239.579C660.455 241.329 654.882 247.18 646.5 251.333C646.242 251.466 645.948 251.528 645.653 251.528H636.856C634.36 258.288 633.513 262.327 634.314 263.538C634.618 263.997 634.821 264.015 634.895 264.015C635.567 264.077 636.755 263.202 637.243 262.698C637.676 262.256 638.312 262.053 638.929 262.159C639.546 262.265 640.071 262.68 640.301 263.237C640.43 263.555 640.596 263.653 640.753 263.714C641.499 264.015 642.862 263.661 643.405 263.44C644.317 263.069 645.386 263.467 645.8 264.333C646.196 265.155 647.339 266.984 648.425 267.515C649.522 267.462 653.086 265.438 656.181 263.087C656.853 262.583 657.793 262.574 658.465 263.087C659.138 263.6 659.35 264.474 658.99 265.217C658.567 266.083 658.769 266.525 659.027 266.852C660.004 268.116 662.887 268.734 663.817 268.61C664.452 268.522 666.405 267.638 667.971 266.922C671.526 265.314 674.188 264.165 676.049 264.165H676.335C676.399 264.165 676.473 264.165 676.537 264.165C688.005 264.165 697.068 261.523 702.07 256.724C709.614 249.486 702.715 235.921 702.641 235.788C702.227 234.993 702.494 234.02 703.267 233.526C703.663 233.269 704.235 233.022 704.953 232.774C703.553 230.848 702.577 229.655 702.54 229.611C701.434 228.32 697.253 225.351 693.209 222.488C686.715 217.883 682.358 214.719 680.958 212.696C679.466 210.539 678.214 207.375 677.21 204.83C676.62 203.328 675.883 201.463 675.524 201.039C675.119 200.624 673.019 199.704 671.619 199.095C669.141 198.008 666.58 196.894 665.217 195.586C663.393 193.836 663.062 191.653 663.071 190.292C661.781 189.541 659.488 188.172 657.747 186.917C655.794 185.511 654.818 183.249 655.334 181.296C655.813 179.458 657.443 178.212 659.801 177.858C664.213 177.204 682.543 182.896 685.103 184.645C686.863 185.803 700.182 189.046 703.746 189.046H703.755C703.884 186.961 702.521 181.252 701.711 180.2C700.357 178.901 699.279 174.889 698.846 173.059L695.226 164.655C694.876 163.851 695.189 162.932 695.954 162.481C698.653 160.872 701.554 160.528 704.336 161.491C710.627 163.674 714.551 171.698 715.26 173.731C715.73 175.074 717.636 177.664 719.331 179.953C720.584 181.649 721.883 183.408 722.785 184.893C723.191 185.556 723.697 186.351 724.259 187.235C726.774 191.185 730.209 196.602 731.278 200.677C731.83 202.789 732.024 206.28 732.236 209.974C732.494 214.516 732.816 220.172 733.875 222.072C734.456 223.097 735.598 225.28 736.933 228.029C739.291 227.808 741.327 227.622 742.847 227.49C742.487 222.753 742.064 209.85 746.826 200.526C746.909 200.252 746.992 199.978 747.075 199.704L747.701 197.734C751.717 185.131 757.216 167.881 765.082 163.356C767.56 161.933 769.347 162.737 770.194 163.974C773.657 169.003 765.238 189.029 755.134 196.055C753.098 197.469 751.523 199.43 750.308 201.702C748.097 209.629 749.69 217.901 750.63 221.568C750.86 221.524 751.1 221.48 751.348 221.427C754.526 220.817 759.776 219.933 766.961 218.793C778.346 216.991 788.984 221.887 797.735 232.942C800.664 236.645 802.911 240.436 804.496 243.494C804.91 243.044 805.334 242.602 805.748 242.151C805.969 235.797 804.634 227.958 803.832 224.441C803.786 224.255 803.777 224.069 803.796 223.875C804.099 221.144 802.985 217.468 801.999 214.224C801.097 211.246 800.249 208.436 800.415 206.262C800.737 201.905 799.982 178.627 797.55 174.226C795.321 170.187 794.778 162.154 794.253 154.386C794.069 151.681 793.894 149.119 793.663 146.759C792.835 138.549 784.37 130.445 780.75 126.981L780.381 126.627C777.001 123.384 766.381 120.724 760.034 119.133C752.868 117.339 729.196 106.619 726.212 104.383C724.95 103.438 723.716 101.529 722.666 99.5049C725.291 112.752 719.497 123.145 713.97 129.667C704.538 140.802 689.69 147.855 681.806 147.475C668.883 146.839 663.845 126.671 662.279 118.028C661.422 113.318 656.476 107.282 654.136 104.648C650.608 107.123 644.142 108.236 637.354 109.421C632.822 110.207 628.143 111.02 625.776 112.151C619.918 114.953 602.537 135.509 600.648 139.141C599.267 141.792 595.794 144.611 592.432 147.333C590.783 148.668 589.217 149.94 588.02 151.089C585.432 153.573 582.779 159.246 581.02 163.011C580.421 164.284 579.905 165.388 579.463 166.246C577.483 170.037 567.774 179.484 563.233 181.49C560.977 182.489 559.07 185.971 557.384 189.046C556.602 190.478 555.865 191.83 555.091 192.944C553.636 195.047 552.53 195.948 549.583 198.379C547.041 200.473 543.19 203.637 536.393 209.753C530.958 214.64 529.917 220.959 529.328 227.251C531.714 230.282 530.7 237.467 530.47 238.351C530.452 238.651 530.811 239.942 531.069 240.878C531.456 242.284 531.898 243.874 532.054 245.403C532.478 249.433 523.875 256.397 520.412 257.272L534.274 262.495C535.057 262.786 535.527 263.555 535.426 264.351C535.324 265.146 534.68 265.782 533.841 265.888L515.171 268.336L546.138 284.385C546.82 284.739 547.197 285.464 547.087 286.197C546.976 286.931 546.387 287.523 545.631 287.673L467.956 302.697C467.375 302.812 466.767 302.644 466.334 302.255L439.641 278.234L430.384 279.445C429.933 279.507 429.472 279.401 429.095 279.154L409.448 266.189C408.812 265.774 408.517 265.022 408.702 264.307C408.886 263.591 409.512 263.06 410.277 262.981L487.648 254.435C488.026 254.391 488.404 254.462 488.735 254.638L492.982 256.839L492.484 253.498C492.457 253.313 492.457 253.118 492.493 252.942L492.908 250.723L491.895 250.343L406.998 258.05L397.823 288.795C397.658 289.343 397.225 289.785 396.663 289.979C396.101 290.174 395.475 290.086 394.986 289.75L392.5 288.062L392.426 288.318L393.835 293.461C393.973 293.965 393.872 294.504 393.559 294.937C393.246 295.362 392.748 295.635 392.205 295.68L366.847 297.597C366.866 299.33 366.239 301.336 363.946 302.308C362.039 303.121 358.705 302.688 355.895 302.069C355.895 302.237 355.877 302.414 355.849 302.582C355.693 303.527 355.02 304.818 352.764 305.595C349.208 306.815 340.449 305.18 330.224 303.086C328.244 302.679 326.531 302.326 325.426 302.14C323.399 301.795 318.923 302.219 314.584 302.635C307.925 303.262 301.634 303.863 298.612 302.608C297.811 302.272 297.36 301.451 297.535 300.629C298.502 296.139 299.92 283.502 294.993 278.995C294.421 278.473 294.265 277.669 294.587 276.988C294.91 276.308 295.656 275.901 296.429 275.954C296.522 275.963 296.623 275.972 296.724 275.981C295.297 275.557 294.2 275.079 293.648 274.558C292.119 273.091 291.465 270.634 291.962 268.292C292.404 266.233 293.629 264.678 295.324 264.033C295.425 263.988 295.545 263.927 295.656 263.829C287.863 265.906 279.905 268.716 272.122 271.456C269.211 272.481 266.291 273.515 263.353 274.514C272.619 273.833 280.798 273.1 280.964 273.082C281.102 273.073 281.241 273.073 281.379 273.091C288.25 273.966 296.374 286.948 296.918 295.423C297.249 300.558 295.011 303.987 290.627 305.083C282.143 307.204 261.511 308.088 244.931 308.803C237.479 309.122 231.041 309.395 227.688 309.722C220.062 310.456 137.375 313.973 132.346 312.17C128.394 310.748 125.824 305.56 124.811 303.112H2.37029C1.35709 303.112 0.528107 302.317 0.528107 301.345C0.528107 300.372 1.35709 299.577 2.37029 299.577H126.092C126.884 299.577 127.584 300.063 127.842 300.788C128.763 303.439 131.158 307.973 133.645 308.865C138.112 310.094 214.959 307.398 227.329 306.214C230.783 305.878 237.268 305.604 244.775 305.286C260.313 304.623 281.6 303.713 289.705 301.68C290.663 301.442 293.574 300.717 293.252 295.662C292.763 288 285.376 277.457 281.084 276.644C278.689 276.856 261.419 278.385 249.104 278.986C240.51 281.336 231.971 282.892 223.764 282.742C222.899 282.724 222.162 282.132 221.996 281.319L221.314 278.049C206.135 276.988 186.423 275.398 181.348 274.01C173.749 271.924 163.884 266.048 162.558 261.585C162.254 260.577 161.802 256.53 160.973 248.593C156.755 238.766 154.139 226.058 152.555 215.532C150.141 199.492 149.349 181.87 150.878 178.556C151.495 177.222 152.656 177.16 152.978 177.16C154.572 177.213 155.18 178.804 155.438 179.484C158.394 187.297 161.766 220.19 163.995 241.948C164.197 243.901 164.391 245.836 164.584 247.674C166.537 252.137 168.683 255.566 170.958 257.82C179.893 266.648 183.006 267.541 183.734 267.621C183.77 267.435 183.78 267.161 183.752 266.958C183.734 266.861 183.734 266.737 183.734 266.64C183.752 266.189 184.028 258.96 186.525 251.218C185.603 246.163 185.207 239.137 184.821 230.415C184.655 226.668 184.498 223.124 184.268 219.951C183.236 206.103 153.356 161.288 140.129 147.13C136.334 143.074 129.859 138.16 122.997 132.964C119.598 130.392 116.181 127.794 112.92 125.204C111.769 125.938 110.479 126.724 109.024 127.573C104.483 130.224 99.2049 132.946 95.2257 134.74C94.5902 136.269 93.9915 137.851 93.4296 139.512C85.5635 162.684 87.9583 190.46 91.044 195.498C96.3403 204.132 105.505 231.59 108.268 250.149C110.857 267.55 122.361 293.771 122.481 294.036C122.72 294.584 122.665 295.211 122.324 295.697C121.984 296.192 121.403 296.493 120.786 296.493H70.347C69.5272 296.493 68.8088 295.98 68.5785 295.22C62.048 273.931 61.1637 246.985 60.2242 218.449C60.0031 211.794 59.7821 204.919 59.4781 197.999C58.907 184.778 61.3019 173.254 65.0691 163.727C64.0467 158.734 61.6427 155.49 59.0268 151.964C54.32 145.628 48.9869 138.452 51.5291 119.752C56.4017 83.8978 95.9442 71.543 96.3403 71.4281C97.2798 71.1453 98.2746 71.6137 98.6246 72.4975C100.651 77.7116 103.156 82.6429 105.109 85.4621C105.993 84.4104 106.73 83.3499 107.329 82.2982C105.735 78.1711 101.738 73.6198 99.8496 71.8169C99.7483 71.7197 99.6562 71.6049 99.5825 71.49C93.0243 61.1943 99.822 36.2284 113.058 22.0088C129.002 4.8729 168.453 7.47997 176.199 8.17813C189.002 9.32701 201.142 18.244 200.866 24.0503C200.838 24.5275 200.691 25.5615 199.844 26.4452C201.492 29.1318 202.911 32.225 204.246 35.1325C205.518 37.8986 206.706 40.5057 207.811 42.0434C212.131 48.0264 211.127 52.834 210.16 57.4825C209.837 59.0202 209.515 60.6022 209.377 62.2283C208.99 67.0624 216.469 76.7836 219.38 80.1154C219.813 80.6103 219.933 81.2996 219.675 81.9094C217.483 87.1765 214.139 87.3886 211.707 87.5477C210.04 87.6538 209.202 87.751 208.391 88.785C207.544 89.8631 207.756 93.3628 207.94 96.4471C208.308 102.748 208.778 110.596 203.16 114.75C198.038 118.541 182.859 116.517 179.699 116.04C174.725 117.445 171.317 121.077 169.033 125.849C169.374 125.841 169.715 125.911 170.028 126.079C182.545 132.866 192.613 149.976 193.027 150.7C193.267 151.107 193.322 151.593 193.193 152.044C193.055 152.494 192.742 152.875 192.318 153.104C191.609 153.493 174.946 162.896 187.768 187.968C201.124 214.083 203.427 231.334 195.026 242.266C192.935 244.979 191.425 248.24 190.319 251.483C190.891 254.426 191.637 256.512 192.631 256.892C195.413 257.961 204.163 256.211 210.556 254.939C212.619 254.532 214.553 254.143 216.285 253.843L210.326 225.262C210.206 224.794 207.019 211.953 212.868 204.813C215.364 201.764 219.039 200.226 223.82 200.226L244.48 199.713C245.438 199.669 246.257 200.376 246.359 201.295C246.405 201.693 246.479 202.382 246.571 203.328C250.78 195.303 249.168 189.108 247.464 182.569C245.843 176.356 244.167 169.931 247.031 161.694C252.963 144.629 267.581 128.253 274.167 125.947L275.631 125.443C296.531 118.24 309.196 112.434 313.258 108.174C313.728 107.688 314.437 107.485 315.109 107.662C315.772 107.839 316.288 108.36 316.426 109.014C316.472 109.235 320.921 129.994 326.254 141.518C330.436 137.992 340.209 130.33 348.084 128.739C348.02 128.607 347.965 128.483 347.9 128.35C340.2 121.669 325.131 108.13 322.985 102.775C322.837 102.412 322.819 102.006 322.939 101.635C322.966 101.537 325.923 92.046 326.54 86.1425C324.9 82.634 314.713 60.1956 315.008 45.8612C315.376 27.9211 320.838 15.416 329.644 12.2611C331.956 10.0782 345.487 -1.1808 373.101 4.4045C389.101 7.63903 394.554 12.915 399.371 17.5724C403.553 21.6199 407.173 25.1196 417.305 27.0904C418.124 27.2494 418.723 27.9123 418.778 28.7076C419.027 32.5166 417.056 39.9047 407.882 40.8592C408.167 42.1141 408.48 43.4221 408.766 44.6416C411.244 55.0787 412.294 60.231 411.216 62.3078L410.885 62.9441C409.457 65.6572 406.804 70.7211 406.804 73.5933C406.804 75.5729 405.846 78.4009 404.833 81.388C403.884 84.1806 402.816 87.3444 402.816 89.2091C402.816 92.1785 400.541 113.671 391.357 116.243C382.625 118.682 364.305 111.701 354.164 107.317C343.553 102.739 338.827 90.7204 337.372 86.116C336.469 86.1072 335.456 85.8421 334.323 85.3206C334.517 85.5769 334.71 85.8332 334.904 86.0895C335.023 86.2397 335.115 86.4165 335.18 86.6021C338.1 95.201 344.428 112.302 350.949 126.256C352.211 127.352 353.436 128.395 354.587 129.367C355.269 129.941 355.416 130.904 354.928 131.647C354.689 132.009 354.339 132.257 353.943 132.38C357.562 139.433 361.09 144.974 363.992 147.006C376.353 155.658 375.266 204.804 373.921 210.955C373.166 214.384 370.826 227.94 368.91 240.436L384.154 184.221C384.228 183.991 385.444 180.244 388.806 178.583C390.694 177.646 392.822 177.549 395.115 178.282C395.152 178.291 395.18 178.3 395.217 178.318L417.636 186.864C418.327 187.129 419.119 187.553 419.921 188.145C418.898 186.466 418.06 185.034 417.489 184.071C417.231 183.638 417.185 183.116 417.351 182.639C425.576 159.193 425.862 140.891 418.226 128.236C415.085 123.039 411.06 119.654 407.513 117.498C406.38 117.622 405.201 117.772 403.995 117.94C405.911 127.935 402.097 142.685 401.535 144.753C401.36 145.416 400.799 145.919 400.099 146.043C399.398 146.176 398.689 145.902 398.266 145.354C395.788 142.11 388.465 133.352 384.348 131.815C382.331 131.064 376.012 139.503 371.333 149.172C370.937 149.985 369.97 150.391 369.076 150.1C368.183 149.817 367.658 148.933 367.86 148.058C368.376 145.725 373.12 125.134 379.706 120.98C382.837 119 391.072 116.614 399.316 115.121C398.984 114.458 398.588 113.883 398.118 113.415C397.566 112.858 397.446 112.019 397.833 111.338C398.22 110.658 399.021 110.304 399.804 110.454C400.089 110.508 403.811 111.259 408.444 113.857C412.782 113.486 416.485 113.574 418.557 114.37C425.235 116.932 441.649 131.903 446.006 136.985C448.861 140.316 458.837 154.28 466.841 165.494C470.94 171.239 474.486 176.197 475.858 178.017C479.128 182.365 486.294 188.808 492.042 193.978C493.083 194.915 494.069 195.798 494.971 196.62C496.602 198.105 499.964 199.669 503.519 201.331C510.132 204.415 516.976 207.605 518.671 212.519C519.343 214.454 519.132 216.451 518.063 218.449C517.824 218.899 517.566 219.324 517.308 219.73C521.112 218.069 521.968 218.316 522.751 218.882C523.59 219.483 524.603 220.853 526.141 223.027C526.961 217.494 528.738 211.856 533.897 207.225C540.75 201.057 544.637 197.857 547.206 195.745C550.016 193.43 550.872 192.732 552.042 191.035C552.705 190.072 553.405 188.808 554.142 187.456C556.095 183.885 558.315 179.829 561.704 178.335C565.37 176.709 574.581 167.783 576.184 164.717C576.598 163.921 577.096 162.852 577.676 161.615C579.657 157.382 582.365 151.584 585.432 148.641C586.74 147.386 588.361 146.07 590.074 144.682C593.003 142.305 596.328 139.618 597.369 137.612C599.257 133.989 617.228 112.355 624.145 109.04C626.982 107.68 631.708 106.866 636.709 105.992C643.019 104.896 650.866 103.535 652.819 101.096C653.151 100.68 653.648 100.433 654.191 100.406C654.606 100.389 655.011 100.503 655.343 100.724C654.514 99.116 653.74 97.4015 653.049 95.5898C649.945 95.7401 645.331 94.4675 642.494 88.7938C638.312 80.4247 634.839 72.0379 637.731 67.301C638.542 65.9842 640.237 64.3758 643.737 64.1725C644.382 64.1372 644.99 64.42 645.349 64.9149C644.391 61.7952 644.032 58.5342 645.386 56.1304C645.634 55.6885 645.966 55.229 646.417 54.7871C643.516 55.1406 641.637 55.2908 641.232 55.3262C640.301 55.3969 639.445 54.7694 639.27 53.8768C636.958 41.6546 637.483 19.4283 667.041 7.8423C684.551 0.975563 696.921 4.11286 704.207 7.9395C710.876 11.448 714.578 16.1053 715.684 17.6519C733.065 24.6247 727.732 49.4139 725.355 57.8272C725.41 58.8435 725.456 59.8245 725.484 60.7082C725.825 60.6022 726.193 60.5315 726.589 60.5315C726.608 60.5315 726.617 60.5315 726.635 60.5315C728.284 60.5315 729.694 61.5743 730.826 63.6246C733.24 68.008 731.923 79.1521 728.349 84.5429C727.004 86.5756 725.558 87.477 724.305 87.8305L723.43 92.0283C724.674 95.4926 726.958 100.503 728.487 101.652C730.928 103.473 753.854 113.99 760.983 115.775C770.056 118.046 779.23 120.565 783.006 124.188L783.375 124.541C787.271 128.271 796.399 137.002 797.357 146.476C797.597 148.889 797.781 151.478 797.965 154.209C798.444 161.261 798.987 169.259 800.839 172.626C804.017 178.388 804.367 203.266 804.118 206.571C804.007 208.118 804.763 210.636 805.573 213.296C806.614 216.752 807.802 220.658 807.517 224.008C807.894 225.713 809.184 231.944 809.451 238.342C810.068 237.697 810.685 237.061 811.302 236.424C815.742 231.82 819.942 227.472 821.259 225.289C821.416 225.024 837.213 198.803 842.316 186.068C845.033 179.299 854.225 167.262 861.64 158.15L863.105 150.727C863.178 150.329 863.4 149.967 863.722 149.711C864.486 149.083 866.568 147.404 869.47 145.133C869.313 145.036 869.138 144.947 868.972 144.885C866.771 144.037 863.261 145.601 859.54 147.254C855.257 149.154 850.836 151.116 846.507 150.453C837.811 149.11 837.406 141.739 837.139 136.861C837.056 135.376 836.983 133.962 836.715 132.911C836.135 130.533 833.086 126.053 830.13 121.722C827.357 117.648 824.483 113.433 822.991 110.074C821.066 105.726 820.633 99.1513 820.265 93.3628C820.034 89.8101 819.813 86.4519 819.288 85.1351C818.634 83.5001 817.483 82.3601 816.267 81.1582C814.996 79.9033 813.679 78.5953 813.099 76.7571C812.546 74.9896 812.767 73.4077 813.135 70.783C813.513 68.061 814.093 63.9339 814.25 56.7667C814.342 52.6396 815.77 49.4846 817.861 47.1073C812.684 47.6994 804.155 46.6301 800.701 42.3439C799.494 40.8415 798.379 38.2787 799.954 34.6288C803.888 25.5085 834.348 -1.90546 876.405 1.13464C912.724 3.75054 917.606 15.8579 918.241 19.5785C922.349 22.4684 939.721 37.5893 929.313 81.0875C929.138 81.8387 929.027 82.2717 929.018 82.3071C928.751 83.235 927.765 83.7918 926.789 83.5531C925.813 83.3145 925.223 82.3689 925.454 81.4322C925.564 80.9903 925.665 80.5572 925.767 80.1242C927.259 73.3989 932.693 41.3188 905.364 24.3861C898.825 27.709 862.073 45.6491 832.976 44.1467C832.239 44.1821 827.32 44.5268 823.304 47.1338C825.856 51.9503 826.399 60.5315 826.51 64.6763C827.348 64.8 828.149 65.1181 828.905 65.6307C834.311 69.3248 836.043 83.5266 836.513 89.1031L838.198 88.7408C837.517 84.7639 836.725 75.7408 843.145 73.6905C851.278 71.0923 862.598 83.1113 868.051 92.479C873.347 101.564 879.473 105.718 901.8 106.301C922.202 106.858 922.93 94.8563 922.939 94.7326C922.985 93.7693 923.832 93.0181 924.818 93.0446C925.822 93.0623 926.623 93.8489 926.623 94.8121C926.623 98.9304 927.775 103.155 927.793 103.199C927.811 103.261 927.83 103.331 927.839 103.402C928.659 108.802 930.971 113.238 933.624 116.729C935.705 116.8 937.888 117.056 940.228 117.542C940.817 117.666 941.306 118.055 941.536 118.594L945.22 127.14C945.524 127.838 945.331 128.633 944.75 129.128C944.17 129.632 943.323 129.72 942.632 129.358C942.245 129.155 936.719 126.168 931.754 120.238C927.13 120.308 923.022 121.298 918.757 122.323C915.653 123.066 912.448 123.843 909.04 124.223C902.96 124.904 886.151 136.896 874.554 145.787C874.683 146.052 874.812 146.326 874.922 146.609C875.171 147.21 875.051 147.899 874.618 148.394C874.535 148.491 871.699 151.726 867.821 156.392C891.014 142.473 938.423 129.42 948.684 130.772C958.898 132.133 977.818 145.478 987.977 152.645C989.258 153.546 990.363 154.333 991.266 154.951C1000.06 161.032 1015.99 209.24 1017.78 217.6C1019.29 224.635 1017.55 245.642 1016.27 258.483L1035.82 253.949C1037.06 253.631 1067.4 245.986 1078.17 257.201C1082.54 261.753 1083.07 268.575 1079.75 277.474L1061.3 320.557C1060.92 321.441 1059.89 321.874 1058.96 321.547C1058.03 321.22 1057.54 320.248 1057.84 319.346C1064.29 300.231 1071.42 268.478 1063.09 264.634C1050.79 258.933 1014.27 270.219 1013.91 270.334C1013.31 270.519 1012.65 270.404 1012.17 270.024C1011.69 269.644 1011.44 269.052 1011.51 268.46C1011.52 268.372 1011.76 266.33 1012.1 263.113L1003.8 265.04C1003.26 274.266 1002.57 281.531 1002.17 285.304C1010.01 282.821 1032.34 276.007 1041.09 276.007C1041.24 276.007 1041.38 276.007 1041.52 276.016C1044.5 276.096 1050.02 277.103 1053.51 282.848C1060.9 294.999 1054.07 321.229 1033.76 358.788H1117.91C1118.92 358.788 1119.75 359.584 1119.75 360.556C1119.75 361.528 1118.88 362.341 1117.87 362.341ZM842.233 358.806H894.514L910.08 309.395C910.348 308.432 917.459 284.553 950.553 273.772C950.609 273.754 950.664 273.736 950.71 273.727L1000.15 262.256C1001.61 233.976 1001.5 189.683 988.585 170.046C972.282 145.265 911.702 153.944 892.773 157.346C897.95 160.395 904.167 166.228 909.344 174.792C914.843 183.885 922.828 202.665 914.52 226.226C904.397 254.912 884.382 262.353 871.137 267.285C866.725 268.929 862.911 270.343 860.47 272.137C857.891 274.028 852.65 280.674 846.58 288.38C841.597 294.708 835.914 301.901 829.899 308.874C837.268 302.635 843.062 298.402 846.129 297.863C847.418 297.642 849.426 296.961 851.858 295.971C860.369 284.032 877.833 275.283 883.691 274.629C885.368 274.443 886.528 274.841 887.136 275.804C887.541 276.458 887.79 277.554 886.666 279.109C882.54 284.81 865.232 294.23 854.299 298.79C853.148 300.54 852.227 302.37 851.6 304.261C848.855 312.55 848.045 322.007 847.262 331.145C846.378 341.281 845.549 350.923 842.233 358.806ZM718.686 253.737C720.492 257.245 735.275 286.542 734.382 302.635C733.461 319.055 757.437 345.983 763.092 346.442C767.025 346.76 778.115 343.685 787.999 339.903C785.429 340.044 782.96 339.646 780.593 338.612C774.118 335.775 770.24 330.296 769.07 322.351C766.196 302.767 780.731 274.134 782.923 272.331C785.318 270.36 788.699 265.553 793.571 257.201C795.423 254.02 798.426 250.326 801.824 246.517C797.403 237.591 786.009 219.474 767.541 222.39C757.732 223.937 753.108 224.776 750.925 225.218C750.612 225.634 750.114 225.899 749.571 225.943C748.696 226.005 746.66 226.146 746.365 224.449C746.448 227.154 746.651 228.921 746.66 228.992C746.715 229.469 746.568 229.946 746.255 230.309C745.942 230.68 745.481 230.91 744.984 230.954C742.994 231.113 740.811 231.307 738.518 231.528C739.623 233.95 740.747 236.574 741.705 239.137C749.663 243.379 754.02 251.855 756.82 257.59C757.105 257.767 757.382 257.935 757.649 258.103C767.974 264.421 778.65 270.961 778.401 277.2C778.309 279.595 776.706 281.61 773.639 283.183C763.184 288.557 763.71 303.236 764.06 312.948C764.281 319.187 764.419 322.961 761.932 324.154C760.642 324.773 759.242 324.649 758.091 323.827C753.909 320.822 753.283 308.158 754.683 300.752C755.807 294.84 761.241 288.822 765.202 284.43C766.768 282.697 768.665 280.594 769.218 279.569C767.164 277.625 762.917 272.649 756.571 264.74C755.751 263.714 754.941 262.088 753.937 260.02C745.619 254.895 740.912 251.695 740.544 248.54C740.323 246.667 739.641 244.245 738.72 241.647C737.79 241.232 736.804 240.896 735.764 240.631C727.474 238.554 721.127 243.371 717.332 247.833C718.014 249.813 718.493 251.81 718.686 253.737ZM785.392 274.956C783.495 277.218 768.978 306.064 773.105 323.924C774.403 329.554 777.36 333.31 782.122 335.395C799.024 342.801 826.952 307.389 843.633 286.232C850.375 277.678 855.248 271.5 858.223 269.317C861.087 267.214 865.122 265.712 869.801 263.98C883.157 259.013 901.459 252.208 911.02 225.086C918.868 202.851 911.333 185.14 906.147 176.559C899.773 166.025 891.17 159.361 886.307 158.451C885.45 158.292 884.833 157.576 884.815 156.745C884.796 155.915 885.395 155.181 886.243 154.995C886.454 154.951 907.492 150.356 930.741 149.605C962.417 148.597 982.921 154.828 991.68 168.146C1005.1 188.551 1005.4 232.668 1003.92 261.364L1012.4 259.393C1013.68 246.879 1015.55 225.103 1014.11 218.343C1011.81 207.632 996.019 162.666 989.046 157.85C988.143 157.223 987.019 156.436 985.73 155.526C976.537 149.039 957.406 135.544 948.112 134.307C937.548 132.902 882.291 148.845 863.878 163.382C863.317 163.824 862.543 163.904 861.907 163.603C855.22 171.981 847.944 181.791 845.705 187.394C840.501 200.385 824.557 226.853 824.391 227.118C822.871 229.646 818.736 233.923 813.946 238.89C812.472 240.419 810.906 242.045 809.331 243.698C809.101 246.764 808.484 249.566 807.24 251.589C806.872 252.182 806.172 252.517 805.472 252.447C804.753 252.376 804.155 251.916 803.915 251.271C803.906 251.236 803.749 250.821 803.455 250.114C800.673 253.295 798.26 256.353 796.768 258.916C790.265 270.122 787.262 273.4 785.392 274.956ZM488.938 322.404L606.875 329.324L676.685 294.796L563.418 288.424L488.938 322.404ZM761.352 294.814C759.869 297.005 758.708 299.25 758.303 301.38C756.626 310.208 758.505 319.638 760.172 320.92C760.605 319.762 760.476 316.068 760.366 313.063C760.182 307.725 759.942 300.991 761.352 294.814ZM323.371 298.561C324.403 298.561 325.297 298.614 326.043 298.737C327.222 298.941 328.962 299.294 330.98 299.71C336.718 300.885 348.655 303.333 351.511 302.352C351.879 302.228 352.073 302.113 352.174 302.043C352.045 301.707 351.502 301.079 350.995 300.691C350.295 300.16 350.092 299.215 350.525 298.463C350.949 297.712 351.879 297.359 352.727 297.624C356.402 298.799 361.192 299.692 362.453 299.162C363.651 298.649 362.988 296.634 362.988 296.608C362.822 296.095 362.896 295.529 363.209 295.079C363.522 294.628 364.029 294.336 364.59 294.301L389.718 292.41L388.741 288.857C388.659 288.557 388.659 288.247 388.741 287.956L389.294 285.976L366.433 270.404C365.806 269.98 365.521 269.22 365.723 268.513L367.602 261.726L366.921 261.788L366.212 264.404C366.018 265.128 365.364 265.659 364.581 265.721C363.798 265.782 363.061 265.367 362.748 264.678C362.573 264.307 362.518 263.432 362.546 262.186L328.143 265.305L327.544 267.585L354.458 265.438C354.919 265.402 355.37 265.526 355.739 265.8L385.518 287.894C386.116 288.345 386.374 289.096 386.153 289.803C385.932 290.501 385.287 291.005 384.532 291.058L360.584 292.825C360.399 292.834 360.206 292.825 360.022 292.781C353.832 291.393 346.666 286.391 341.434 282.742C339.03 281.062 336.304 279.162 335.392 278.924C332.509 278.173 323.362 278.659 318.517 279.816C314.805 280.709 305.447 280.241 300.013 279.869C303.227 286.241 302.094 295.909 301.449 299.78C304.351 300.151 309.739 299.639 314.216 299.215C317.725 298.861 320.921 298.561 323.371 298.561ZM444.329 277.722L468.149 299.162L539.902 285.287L508.972 269.247L444.329 277.722ZM1053.12 259.57C1057.65 259.57 1061.67 260.109 1064.63 261.47C1070.9 264.368 1072.11 275.026 1068.32 294.054C1068.22 294.495 1068.14 294.937 1068.05 295.379L1076.25 276.228C1079.05 268.734 1078.77 263.122 1075.4 259.614C1066.12 249.954 1036.96 257.325 1036.67 257.396L1015.83 262.23C1015.67 263.776 1015.53 265.111 1015.41 266.171C1022.13 264.254 1039.76 259.57 1053.12 259.57ZM690.335 292.021L722.896 293.85C721.579 290.015 719.479 284.2 718.336 282.176C717.342 280.417 716.319 277.474 715.324 274.638C714.477 272.19 713.51 269.423 712.865 268.425C711.29 266.003 708.407 257.148 709.918 252.791C710.249 251.828 711.364 249.654 713.206 247.206C711.585 243.114 709.172 239.058 707.062 235.876C706.942 235.912 706.832 235.947 706.731 235.974C708.564 240.304 712.405 251.908 704.686 259.305C698.911 264.846 689.184 267.78 676.556 267.78C676.482 267.78 676.408 267.78 676.325 267.78H676.049C674.87 267.78 671.665 269.229 669.546 270.192C667.05 271.324 665.466 272.022 664.333 272.181C662.444 272.446 658.051 271.615 656.061 269.035C655.822 268.725 655.619 268.398 655.472 268.054C652.349 270.095 649.043 271.686 647.081 270.882C645.331 270.166 644.004 268.469 643.221 267.241C642.134 267.462 640.679 267.576 639.353 267.046C638.975 266.896 638.634 266.71 638.321 266.472C637.335 267.117 635.991 267.718 634.563 267.594C633.614 267.515 632.26 267.082 631.201 265.491C629.322 262.663 630.925 257.166 632.951 251.581H625.389C624.376 251.581 623.547 250.785 623.547 249.813C623.547 249.716 623.537 239.88 622.653 234.789C622.276 232.633 619.789 227.074 617.375 221.701C613.608 213.297 611.038 207.384 610.697 204.247C609.012 205.528 606.092 208.834 604.977 211.335C603.421 214.817 596.439 221.454 590.01 227.401C589.153 228.197 588.453 228.842 588.002 229.275C585.183 231.979 577.695 237.449 577.372 237.679C576.976 237.971 576.479 238.086 575.981 238.024C575.484 237.953 575.051 237.688 574.756 237.308C570.63 231.776 563.243 224.555 559.715 225.855C556.086 227.18 555.883 227.861 555.717 228.4C555.561 228.912 555.33 229.69 554.529 230.459C553.571 231.378 552.097 231.944 550.679 232.492C549.574 232.916 548.054 233.499 547.704 234.012C547.308 234.586 547.197 235.77 547.096 236.813C546.976 238.077 546.856 239.394 546.212 240.419C545.585 241.417 544.572 242.107 543.596 242.77C542.794 243.318 541.965 243.874 541.671 244.431C541.339 245.058 541.311 246.26 541.275 247.312C541.238 248.426 541.21 249.583 540.879 250.6C540.823 251.448 541.965 254.789 544.056 257.157C544.867 258.076 546.12 259.181 547.51 259.26C550.486 259.428 551.434 258.854 551.609 258.721C551.812 258.35 552.153 258.067 552.558 257.908C553.065 257.714 553.636 257.749 554.115 258.005C554.133 258.014 556.961 259.437 560.185 258.721C560.885 258.571 561.216 258.341 561.29 258.182C561.419 257.899 561.216 257.316 561.133 257.166C560.719 256.432 560.894 255.513 561.557 254.965C562.23 254.426 563.197 254.409 563.887 254.93C563.915 254.956 567.535 257.608 571.182 256.671C572.058 256.45 572.647 256.105 572.84 255.708C573.052 255.266 572.85 254.638 572.758 254.435C572.748 254.426 572.748 254.417 572.739 254.409C572.315 253.534 572.702 252.491 573.605 252.067C574.443 251.678 575.429 251.952 575.935 252.668C575.935 252.668 575.935 252.676 575.945 252.676C575.945 252.676 575.945 252.676 575.954 252.685C575.954 252.685 575.954 252.685 575.954 252.694C575.954 252.694 575.954 252.703 575.963 252.703C575.991 252.738 576.018 252.782 576.037 252.827L576.046 252.835V252.844C576.046 252.844 576.046 252.844 576.046 252.853C576.046 252.862 576.055 252.862 576.055 252.871C576.064 252.88 576.074 252.906 576.083 252.924C576.202 253.162 577.667 255.902 580.007 255.213C581.333 254.824 581.407 250.467 580.596 246.976C580.476 246.455 580.605 245.907 580.955 245.483C581.305 245.067 581.83 244.82 582.392 244.82H617.394C618.269 244.82 619.024 245.412 619.199 246.234C619.374 247.056 618.914 247.886 618.103 248.213L557.569 272.631L706.224 280.461C707.053 280.506 707.753 281.08 707.928 281.858C708.103 282.636 707.707 283.431 706.97 283.802L690.335 292.021ZM71.7287 293.011H118.032C115.066 285.985 106.841 265.579 104.621 250.706C101.987 233.004 92.9507 205.634 87.8662 197.345C83.9147 190.902 82.0725 161.615 89.9202 138.478C90.1229 137.877 90.3347 137.276 90.5466 136.693C87.6359 137.904 83.4357 141.28 79.1895 146.538C71.7102 161.906 68.4864 177.637 68.4311 177.938C68.2377 178.892 67.289 179.52 66.2942 179.343C65.41 179.193 64.7836 178.459 64.7744 177.628C63.4757 183.815 62.8309 190.602 63.1441 197.91C63.448 204.848 63.6691 211.732 63.8901 218.396C64.8112 246.128 65.6771 272.349 71.7287 293.011ZM882.356 278.491C877.594 279.914 867.231 285.11 859.651 292.419C868.318 288.177 878.284 282.388 882.356 278.491ZM330.786 275.009C333.052 275.009 335.051 275.159 336.35 275.495C337.851 275.884 339.859 277.262 343.589 279.869C348.48 283.29 355.158 287.947 360.574 289.264L379.457 287.867L354.025 268.999L325.26 271.297C324.67 271.35 324.09 271.111 323.703 270.678C323.316 270.245 323.178 269.662 323.316 269.105L324.827 263.299C324.081 265.782 322.745 268.672 322.248 269.715C322.137 271.871 321.152 274.319 319.337 276.007C322.662 275.406 327.083 275.009 330.786 275.009ZM393.504 284.509L394.986 285.517L403.046 258.5L400.679 258.712L393.504 284.509ZM369.592 268.23L390.298 282.326L396.764 259.066L371.499 261.364L369.592 268.23ZM760.873 264.298C768.656 273.939 771.262 276.617 772.138 277.351C772.847 277.943 773.114 278.614 773.059 279.375C774.127 278.632 774.68 277.863 774.717 277.059C774.855 273.701 767.836 268.699 760.873 264.298ZM225.118 278.367L225.303 279.268C227.587 279.251 229.899 279.101 232.238 278.835C230.157 278.703 227.743 278.544 225.118 278.367ZM415.564 266.048L430.578 275.946L436.169 275.212L431.628 271.12C431.121 270.661 430.918 269.963 431.121 269.317C431.324 268.672 431.885 268.195 432.576 268.08C434.649 267.744 464.741 262.804 488.966 258.863L487.483 258.094L415.564 266.048ZM224.372 274.77C229.254 275.106 234.145 275.415 238.778 275.689C240.795 275.813 244.314 275.725 248.487 275.521C253.396 274.169 258.342 272.552 263.27 270.855L261.032 257.555C254.142 258.297 240.611 257.643 230.479 257.157C226.436 256.963 223.249 256.812 221.673 256.812C221.37 256.812 221.029 256.83 220.642 256.865L224.372 274.77ZM436.841 270.988L440.866 274.602L503.482 266.401L494.225 261.602C476.549 264.483 453.411 268.266 436.841 270.988ZM300.961 262.592C299.736 264.854 298.428 266.71 296.687 267.382C296.172 267.576 295.748 268.23 295.564 269.079C295.315 270.254 295.591 271.509 296.245 272.137C298.216 273.665 313.276 275.079 315.496 274.293C317.403 273.559 318.582 271.138 318.582 269.309C318.582 269.052 318.637 268.796 318.757 268.557C319.853 266.322 321.612 262.177 321.677 260.586C321.713 259.676 322.073 258.801 322.478 257.952C319.521 259.101 314.842 260.259 307.437 261.373C305.309 261.699 303.144 262.106 300.961 262.592ZM184.71 271.147C191.056 272.207 205.481 273.445 220.559 274.505L216.985 257.378C215.263 257.678 213.301 258.067 211.284 258.474C201.778 260.365 194.778 261.602 191.25 260.25C190.191 259.844 189.325 259.022 188.606 257.82C187.667 262.327 187.446 265.933 187.409 266.684C187.593 268.151 187.197 270.051 185.484 270.882C185.244 270.988 184.986 271.085 184.71 271.147ZM165.588 257.122C165.809 259.022 165.984 260.312 166.095 260.674C166.767 262.919 173.077 267.329 179.533 269.75C176.964 268.239 173.408 265.394 168.305 260.356C167.357 259.411 166.454 258.324 165.588 257.122ZM270.022 255.99C269.451 259.366 268.161 265.915 267.47 269.397C268.603 268.999 269.727 268.602 270.851 268.204C279.96 264.996 289.3 261.699 298.428 259.534C298.631 259.128 298.824 258.73 298.999 258.385C299.801 256.768 300.556 255.23 301.376 254.064C303.384 251.174 307.63 249.627 313.516 247.48C314.962 246.95 316.518 246.384 318.158 245.757C320.267 244.944 321.548 243.689 321.677 242.31C321.75 241.479 321.363 240.852 320.977 240.622C320.857 240.551 320.498 240.339 319.825 240.746C315.201 243.521 301.044 245.589 295.297 246.101C292.275 246.375 290.111 247.639 287.366 249.247C285.524 250.326 283.433 251.545 280.798 252.597C276.101 254.47 272.011 255.531 270.022 255.99ZM500.12 260.648L509.663 265.597L526.325 263.414L513.31 258.509C509.911 259.057 505.37 259.791 500.12 260.648ZM327.415 253.702C327.71 255.699 326.77 257.555 326.107 258.88C325.766 259.552 325.379 260.321 325.361 260.71C325.333 261.364 325.168 262.186 324.91 263.069C325.149 262.424 325.757 261.956 326.476 261.894L362.757 258.598C364.029 244.599 369.924 211.909 370.283 210.265C371.793 203.39 371.858 156.949 361.79 149.896C358.097 147.316 353.814 140.396 349.65 132.08C343.332 132.866 332.896 140.369 326.881 145.778C326.457 146.158 325.877 146.326 325.306 146.229C324.735 146.132 324.246 145.787 323.979 145.292C319.18 136.26 315.026 119.584 313.451 112.77C305.677 118.514 289.18 124.586 276.847 128.837L275.392 129.34C270.234 131.143 256.168 146.538 250.495 162.879C247.971 170.143 249.444 175.799 251.01 181.782C252.871 188.923 254.796 196.302 249.306 205.961C248.487 207.411 247.796 208.94 247.225 210.522C248.33 222.85 249.776 243.397 247.842 248.973C247.584 249.707 246.838 250.184 246.055 250.184C245.244 250.167 244.544 249.654 244.323 248.903C244.028 247.913 237.839 226.88 243.485 210.097C243.255 207.561 243.034 205.263 242.84 203.345L223.838 203.814C220.154 203.814 217.529 204.874 215.742 207.048C210.998 212.828 213.872 224.441 213.899 224.555L219.905 253.366C220.559 253.295 221.148 253.26 221.664 253.26C223.331 253.26 226.564 253.419 230.654 253.613C241.007 254.108 256.657 254.868 262.192 253.808C262.681 253.71 263.196 253.816 263.602 254.09C264.016 254.364 264.293 254.789 264.366 255.266L265.343 261.063C265.877 258.244 266.374 255.584 266.568 254.276C266.678 253.534 267.268 252.942 268.032 252.791C268.087 252.782 273.255 251.766 279.371 249.327C281.747 248.373 283.626 247.277 285.441 246.216C288.342 244.519 291.078 242.92 294.947 242.575C300.851 242.045 314.068 240.021 317.873 237.741C319.53 236.751 321.354 236.698 322.892 237.591C324.569 238.572 325.527 240.534 325.352 242.593C325.112 245.359 322.994 247.701 319.53 249.027C317.863 249.663 316.297 250.237 314.824 250.776C309.785 252.615 305.797 254.064 304.443 256.008C303.982 256.671 303.503 257.555 303.006 258.536C304.305 258.288 305.585 258.058 306.865 257.873C319.098 256.035 322.515 254.205 323.445 253.445C323.224 253.083 322.874 252.721 322.367 252.341C321.64 251.784 321.456 250.803 321.935 250.043C322.414 249.283 323.408 248.982 324.256 249.345C325.886 250.043 327.691 251.581 327.415 253.613C327.424 253.649 327.415 253.675 327.415 253.702ZM551.489 258.96V258.969C551.489 258.969 551.489 258.969 551.489 258.96ZM551.499 258.951C551.499 258.951 551.499 258.96 551.499 258.951C551.499 258.96 551.499 258.951 551.499 258.951ZM392.168 181.367C391.551 181.367 390.989 181.499 390.464 181.755C388.502 182.728 387.673 185.193 387.664 185.22L367.888 258.138L368.588 258.076L388.723 185.432C388.861 184.928 389.22 184.513 389.709 184.292C390.197 184.071 390.759 184.062 391.256 184.274L416.743 195.171C417.572 195.524 418.005 196.399 417.774 197.239L401.692 255.063L404.133 254.842L420.363 200.42C422.334 192.864 416.853 190.425 416.227 190.169L393.872 181.649C393.264 181.464 392.702 181.367 392.168 181.367ZM391.735 188.339L372.503 257.714L397.777 255.416L413.814 197.778L391.735 188.339ZM500.056 253.516L497.09 257.555C500.553 256.989 503.786 256.468 506.651 255.999L500.056 253.516ZM505.591 251.801L513.715 254.859C517.059 254.32 519.168 253.993 519.537 253.949C521.526 253.613 528.379 247.692 528.37 245.854C528.241 244.617 527.845 243.167 527.495 241.886C527.375 241.453 527.265 241.037 527.163 240.657C525.8 244.245 523.359 247.312 518.745 249.274C519.988 249.495 520.716 249.91 520.836 251.006C520.918 251.766 520.495 252.668 519.353 252.977C517.4 253.516 513.633 253.145 510.667 252.155C510.657 252.155 510.648 252.155 510.63 252.155C508.64 252.022 506.973 251.908 505.591 251.801ZM424.24 195.065C424.581 196.85 424.544 198.936 423.918 201.339L408.066 254.488L489.353 247.109C473.878 240.737 460.467 229.124 458.689 226.659C456.193 223.203 436.777 207.694 433.286 206.023C431.195 205.025 427.575 200.12 424.24 195.065ZM743.501 244.661C743.832 245.916 744.072 247.091 744.191 248.143C744.32 249.256 747.231 251.448 750.676 253.719C748.834 250.494 746.522 247.206 743.501 244.661ZM496.39 252.128L496.325 252.464L496.528 252.181L496.39 252.128ZM639.095 248.046H645.202C653.998 243.574 659.506 236.999 659.561 236.928C659.81 236.627 660.169 236.407 660.556 236.309C661.588 236.062 664.637 235.647 668.155 235.205C663.366 235.072 659.368 234.993 658.41 235.072C656.328 235.258 653.897 237.114 651.336 239.093C650.544 239.703 649.733 240.322 648.914 240.914C648.214 241.417 647.357 242.018 646.427 242.672C644.502 244.016 641.103 246.393 639.095 248.046ZM508.447 242.557C508.871 242.717 509.23 243.017 509.432 243.406C509.663 243.839 509.699 244.352 509.524 244.811C509.524 244.82 508.871 246.72 509.746 247.71C511.035 247.63 512.297 247.462 513.522 247.197C524.124 244.873 524.713 237.953 525.45 229.204C525.469 228.957 525.496 228.7 525.515 228.444C524.824 227.551 524.059 226.482 523.322 225.43C522.576 224.388 521.536 222.912 520.9 222.169C518.128 222.938 509.967 227.251 505.195 230.627L504.062 236.15C504.56 236.177 505.066 236.115 505.499 236.009C506.061 235.876 506.66 236 507.111 236.354C507.563 236.707 507.811 237.246 507.784 237.803C507.701 239.765 508.014 242.01 508.447 242.557ZM504.44 247.542C504.882 247.595 505.324 247.63 505.757 247.666C505.628 247.091 505.582 246.508 505.61 245.951L504.44 247.542ZM497.504 246.128C497.744 246.199 497.983 246.26 498.223 246.331L498.674 244.148C498.435 244.042 498.186 243.927 497.937 243.804L497.504 246.128ZM421.072 183.046C426.35 191.998 433.018 201.94 434.934 202.859C439.07 204.848 458.8 220.596 461.72 224.644C463.378 226.933 478.207 239.367 493.967 244.997L494.52 242.01C490.587 239.703 486.81 236.521 486.313 232.651C485.622 227.339 488.22 223.548 491.103 222.152C493.304 221.082 495.717 221.374 497.394 222.903C497.541 223.035 497.753 223.177 498.011 223.309L500.765 208.551C500.857 208.038 501.189 207.587 501.668 207.331C503.132 206.527 504.468 206.209 505.656 206.368C504.385 205.74 503.095 205.139 501.879 204.574C498.057 202.789 494.455 201.11 492.411 199.254C491.517 198.441 490.532 197.557 489.5 196.62C483.633 191.344 476.328 184.769 472.847 180.147C471.447 178.291 467.891 173.316 463.783 167.554C456.23 156.984 445.895 142.499 443.141 139.291C438.591 133.989 422.592 119.796 417.166 117.71C416.301 117.374 414.956 117.215 413.279 117.198C416.126 119.486 418.981 122.509 421.394 126.495C429.491 139.928 429.389 158.955 421.072 183.046ZM163.939 172.715C175.831 190.478 187.252 210.716 187.934 219.766C188.173 222.991 188.33 226.562 188.496 230.335C188.661 234.224 188.901 239.57 189.362 244.458C190.144 242.982 191.038 241.559 192.051 240.242C199.54 230.485 197.126 214.392 184.443 189.594C173.749 168.676 181.965 155.844 188.919 151.054C186.479 147.21 179.257 136.56 170.719 130.754C170.387 136.295 170.129 148.544 173.454 156.392C173.74 157.01 173.924 157.408 173.979 157.541C174.375 158.424 173.961 159.45 173.049 159.847C172.137 160.245 171.059 159.865 170.626 158.999C170.451 158.654 170.295 158.301 170.138 157.938C169.328 156.215 167.458 152.38 164.722 147.439C164.391 157.028 165.459 165.901 165.938 169.268C166.03 169.772 166.104 170.276 166.168 170.77C166.288 171.725 165.588 172.591 164.593 172.724C164.363 172.768 164.142 172.75 163.939 172.715ZM710.857 235.01C712.57 237.661 714.385 240.79 715.849 244.069C720.436 239.296 727.51 234.904 736.685 237.202C736.804 237.228 736.915 237.264 737.035 237.29C736.27 235.452 735.46 233.614 734.658 231.899C726.064 232.765 716.725 233.897 710.857 235.01ZM502.856 242.045C503.491 242.301 504.072 242.513 504.56 242.681C504.274 241.7 504.145 240.64 504.099 239.685C503.851 239.676 503.593 239.668 503.344 239.641L502.856 242.045ZM498.619 240.136C498.886 240.269 499.153 240.401 499.411 240.525L499.871 238.262C499.614 238.05 499.356 237.794 499.107 237.476L498.619 240.136ZM493.801 225.042C493.424 225.042 493.065 225.165 492.77 225.307C491.093 226.12 489.509 228.621 489.979 232.209C490.255 234.365 492.503 236.451 495.238 238.209L497.348 226.889C496.353 226.526 495.505 226.04 494.861 225.457C494.52 225.156 494.151 225.042 493.801 225.042ZM660.879 181.411C660.685 181.411 660.51 181.42 660.363 181.446C659.875 181.517 659.046 181.72 658.908 182.25C658.779 182.728 659.11 183.567 659.957 184.177C662.297 185.865 665.889 187.871 665.917 187.898C666.599 188.278 666.949 189.029 666.792 189.771C666.792 189.78 666.424 191.839 667.824 193.182C668.708 194.031 671.167 195.109 673.148 195.975C675.874 197.168 677.578 197.946 678.398 198.927C679.089 199.749 679.669 201.198 680.655 203.681C681.594 206.059 682.755 209.019 684.026 210.84C685.177 212.501 690.851 216.513 695.401 219.748C700.016 223.018 703.995 225.837 705.404 227.498C705.57 227.702 706.933 229.354 708.72 231.882C715.011 230.521 725.005 229.328 733.028 228.515C732.052 226.544 731.195 224.909 730.605 223.857C729.15 221.259 728.846 215.93 728.533 210.274C728.33 206.757 728.146 203.434 727.686 201.649C726.764 198.096 723.356 192.74 721.1 189.197C720.529 188.295 720.004 187.482 719.589 186.793C718.769 185.45 717.517 183.753 716.31 182.118C714.293 179.387 712.395 176.815 711.751 174.977C711.041 172.927 707.523 166.484 703.074 164.947C701.803 164.505 700.55 164.505 699.279 164.955L702.309 171.981C702.346 172.078 702.383 172.176 702.402 172.273C702.982 174.765 703.903 177.39 704.373 177.893C706.003 179.458 708.674 189.303 706.648 191.733C705.985 192.528 705.064 193.633 694.535 191.247C691.017 190.452 684.615 188.799 682.948 187.65C681.262 186.457 665.217 181.411 660.879 181.411ZM153.789 188.463C153.918 194.968 154.609 204.556 156.202 215.144C157.031 220.667 157.998 225.766 159.085 230.415C157.547 215.78 155.622 198.706 153.789 188.463ZM500.949 227.64L500.535 229.84C500.931 229.469 501.373 229.098 501.833 228.727L502.045 227.684C501.677 227.684 501.308 227.666 500.949 227.64ZM501.603 224.14C501.981 224.158 502.368 224.167 502.773 224.158L505.601 210.389C505.518 210.186 505.38 209.965 505.241 209.903C505.112 209.85 504.781 209.841 504.219 210.053L501.603 224.14ZM746.375 219.615C746.319 221.127 746.328 222.532 746.347 223.769C746.411 223.309 746.651 222.974 747.075 222.7C746.863 221.878 746.605 220.835 746.375 219.615ZM508.115 207.632C509.055 208.639 509.276 209.885 509.313 210.062C509.349 210.265 509.34 210.468 509.303 210.672L506.669 223.513C509.239 222.735 512.582 220.95 514.765 216.885C515.392 215.727 515.512 214.71 515.152 213.685C514.388 211.502 511.496 209.47 508.115 207.632ZM767.247 166.334C767.164 166.369 767.072 166.422 766.961 166.484C761.388 169.692 756.47 182.798 753.025 193.244C762.632 186.501 768.223 169.639 767.247 166.334ZM116.052 123.163C119.128 125.611 122.287 127.997 125.272 130.259C132.263 135.553 138.858 140.555 142.865 144.841C147.811 150.135 155.088 159.679 162.364 170.373C162.327 170.152 162.291 169.887 162.245 169.595C158.763 151.01 134.216 127.537 121.882 116.738C121.79 117.887 120.777 119.778 116.052 123.163ZM95.8152 75.4227C88.5294 78.1181 59.1926 90.7381 55.1766 120.273C52.8186 137.586 57.4978 143.887 62.0203 149.976C63.9546 152.583 65.9258 155.234 67.3166 158.654C69.868 153.361 72.7971 148.809 75.7723 145.062C81.6949 132.893 90.3163 120.83 102.281 115.969C96.9298 110.614 93.3744 105.364 93.402 100.424C93.4204 97.048 95.1152 94.0963 98.4219 91.6395C99.9878 90.4817 101.379 89.324 102.604 88.1663C99.8404 84.6667 97.3351 79.1521 95.8152 75.4227ZM116.006 107.671C116.429 107.671 116.844 107.812 117.175 108.068C118.714 109.279 148.631 133.034 161.029 156.109C160.854 151.673 160.881 146.662 161.379 141.651C153.973 129.261 142.634 113.3 129.306 104.684C129.002 104.489 128.763 104.206 128.625 103.879C128.33 103.19 121.753 87.3356 129.398 79.2051C128.836 76.1562 127.501 66.6382 131.379 61.5301C132.889 59.5417 134.971 58.4016 137.578 58.1542C144.569 57.4825 147.949 61.5213 150.408 64.473C152.278 66.7089 153.411 67.9727 155.124 67.8313C157.492 67.6457 160.273 63.439 162.733 59.7361C165.726 55.2201 168.554 50.9604 172.358 50.0502C174.228 49.5995 176.927 44.624 179.101 40.6206C182.951 33.5241 187.28 25.535 193.838 24.6159C193.018 23.8028 192.162 23.1842 191.259 22.8484C187.096 21.3106 158.514 20.8334 136.638 32.9054C122.066 40.9476 113.279 52.7986 110.497 68.1405C111.446 69.5192 113.261 72.8067 112.773 77.3669C112.579 79.1344 112.082 80.8931 111.262 82.6341C111.879 84.9318 111.861 87.2384 110.709 89.2887C109.576 91.3036 108.011 91.5157 107.172 91.4539C106.509 91.4097 105.828 91.1357 105.155 90.685C103.829 91.9488 102.318 93.1949 100.651 94.4321C98.2469 96.2084 97.0771 98.1704 97.0587 100.433C97.0311 104.365 100.439 109.049 105.349 113.892C108.351 111.338 111.649 109.306 115.25 107.812C115.508 107.715 115.757 107.671 116.006 107.671ZM866.559 152.07L866.522 152.265C866.669 152.088 866.817 151.92 866.964 151.743C866.826 151.858 866.697 151.964 866.559 152.07ZM820.43 49.6702C818.966 51.4465 817.962 53.7885 817.897 56.8904C817.732 64.2521 817.142 68.494 816.746 71.2955C816.405 73.7524 816.276 74.7864 816.589 75.785C816.903 76.8013 817.815 77.6939 818.874 78.7367C820.228 80.0712 821.766 81.5912 822.687 83.9066C823.424 85.736 823.636 89.0236 823.903 93.186C824.244 98.4267 824.668 104.94 826.344 108.74C827.707 111.815 830.489 115.898 833.169 119.84C836.439 124.639 839.525 129.172 840.252 132.151C840.584 133.512 840.676 135.067 840.759 136.72C841.072 142.402 841.68 146.185 847.041 147.015C850.256 147.51 854.161 145.778 857.937 144.099C862.395 142.119 866.605 140.246 870.289 141.66C871.045 141.951 871.735 142.367 872.353 142.915C883.277 134.51 901.155 121.563 908.552 120.733C911.72 120.379 914.668 119.672 917.799 118.921C921.41 118.055 925.094 117.171 929.156 116.853C926.844 113.344 924.938 109.076 924.155 104.038C924.081 103.773 923.888 103.022 923.676 101.97C920.627 106.009 914.391 110.216 901.652 109.871C880.044 109.306 871.431 105.647 864.781 94.2377C858.573 83.5885 848.975 75.564 844.25 77.0841C840.289 78.3479 841.385 86.8584 842.085 89.7394C842.196 90.1989 842.113 90.685 841.846 91.0827C841.588 91.4804 841.164 91.7632 840.685 91.8692L835.159 93.0446C834.634 93.1595 834.081 93.0446 833.648 92.7265C833.215 92.4083 832.948 91.9311 832.921 91.4185C832.497 83.9332 830.424 71.1011 826.694 68.5559C826.178 68.2024 825.708 68.1229 825.128 68.282C824.575 68.4322 823.977 68.3261 823.516 67.9903C823.056 67.6545 822.779 67.1331 822.779 66.5763C822.807 61.6273 822.134 53.7885 820.43 49.6702ZM165.183 140.82C165.864 141.978 166.509 143.091 167.117 144.17C166.703 139.212 166.813 134.501 166.979 131.355C166.122 134.351 165.542 137.568 165.183 140.82ZM664.379 113.141C665.088 114.617 665.631 116.111 665.889 117.533C666.995 123.622 671.416 143.533 681.972 144.055C687.903 144.337 701.692 138.637 711.087 127.555C715.693 122.12 720.501 113.76 719.451 103.199C716.107 109.421 709.964 119.336 703.7 121.563C695.917 124.329 686.236 127.767 679.429 124.047C676.298 122.314 670.237 119 664.379 113.141ZM384.219 128.306C384.707 128.306 385.186 128.386 385.656 128.563C389.874 130.136 395.585 136.428 398.809 140.308C400.135 134.21 401.545 124.815 400.366 118.559C392.619 119.937 384.661 122.111 381.704 123.976C379.623 125.293 377.421 129.729 375.542 134.846C378.296 131.161 381.363 128.306 384.219 128.306ZM131.858 102.077C144.246 110.269 154.756 124.082 162.18 135.88C164.151 125.01 168.876 115.209 179.11 112.593C179.358 112.531 179.626 112.514 179.883 112.558C186.359 113.574 197.78 114.325 200.903 112.019C204.974 109.005 204.596 102.474 204.256 96.7122C203.998 92.3111 203.795 88.838 205.444 86.7258C207.304 84.3485 209.708 84.1983 211.459 84.0834C213.384 83.9597 214.627 83.8801 215.815 81.6001C213.163 78.4362 205.186 68.3438 205.693 62.025C205.84 60.1868 206.19 58.4988 206.531 56.8551C207.461 52.3921 208.189 48.866 204.762 44.1114C203.454 42.2997 202.192 39.5424 200.857 36.6172C199.558 33.7892 198.103 30.6077 196.454 27.9918C196.049 28.0448 195.607 28.0713 195.128 28.0713C190.08 28.0713 185.815 35.9367 182.389 42.2555C179.239 48.0618 176.752 52.6573 173.27 53.488C170.894 54.0624 168.222 58.0923 165.864 61.645C162.668 66.4703 159.647 71.0304 155.456 71.3663C151.707 71.6667 149.506 69.0243 147.553 66.6912C145.195 63.8632 142.966 61.1943 137.965 61.6803C136.426 61.8306 135.256 62.458 134.372 63.6157C131.388 67.5396 132.521 76.3506 133.202 79.4172C133.341 80.027 133.129 80.6545 132.659 81.0787C126.423 86.664 130.844 99.4342 131.858 102.077ZM97.6667 122.553C92.9783 125.841 88.9347 130.418 85.4714 135.544C87.1385 134.369 88.6491 133.565 89.911 133.14C90.6203 132.902 91.4493 132.584 92.3611 132.195C93.927 128.651 95.6955 125.434 97.6667 122.553ZM105.33 118.877C102.401 121.881 99.8128 125.522 97.5745 129.782C101.609 127.776 106.178 125.248 109.982 122.889C108.361 121.546 106.804 120.211 105.33 118.877ZM936.967 120.609C937.75 121.386 938.524 122.076 939.252 122.694L938.459 120.847C937.953 120.759 937.455 120.679 936.967 120.609ZM654.238 91.9134C655.011 91.9134 655.739 92.3818 655.997 93.1153C662.012 110.428 675.994 118.081 681.262 120.962C686.181 123.649 693.762 121.316 702.429 118.24C708.628 116.04 716.19 102.015 718.576 96.8006C718.889 96.1113 719.635 95.687 720.409 95.7489C720.584 95.7666 720.759 95.8019 720.925 95.8638C720.335 94.4409 719.921 93.2744 719.746 92.7707C719.644 92.479 719.626 92.1697 719.69 91.8692L720.915 85.9746C721.09 85.1174 721.901 84.5164 722.813 84.5518C723.798 84.596 724.738 83.4206 725.208 82.7136C728.22 78.1711 729.187 68.335 727.538 65.3479C726.949 64.2874 726.562 64.1283 726.553 64.1283C726.313 64.1902 725.622 64.959 725.282 65.6042C724.876 66.3907 723.927 66.7619 723.062 66.4968C722.196 66.2228 721.662 65.3921 721.818 64.526C721.864 64.1902 721.855 63.1474 721.8 61.6362C721.201 61.3092 720.823 60.6729 720.879 59.9747C721.137 56.5811 718.493 51.0665 714.827 49.3078C711.428 47.6729 707.827 41.2039 705.745 36.9177C700.182 46.3738 689.718 52.6926 675.192 55.2908C663.716 57.3411 653.666 56.422 652.322 56.2806C649.429 56.3778 648.794 57.5002 648.582 57.8714C646.823 60.991 650.378 68.6355 653.04 72.7184C653.455 73.3547 653.399 74.1766 652.911 74.7598C652.423 75.3431 651.594 75.5729 650.857 75.3166L646.556 73.8407C646.123 73.6905 645.754 73.39 645.542 72.9923L642.77 67.9019C641.6 68.1759 641.121 68.715 640.863 69.1392C638.561 72.904 643.792 83.3676 645.763 87.3091C648.647 93.0711 653.233 92.099 653.749 91.9665C653.924 91.9399 654.081 91.9134 654.238 91.9134ZM109.383 117.613C110.599 118.682 111.87 119.76 113.169 120.821C115.508 119.23 117.249 117.825 117.903 116.871C116.982 116.729 114.716 116.667 109.383 117.613ZM326.641 102.077C328.493 105.559 336.304 113.221 344.243 120.388C337.814 105.585 332.582 90.4729 331.744 88.0161C331.219 87.3268 330.713 86.6198 330.234 85.8951C330.234 85.9481 330.234 85.9923 330.224 86.0453C329.764 91.4627 327.351 99.7258 326.641 102.077ZM115.711 111.506C114.338 112.134 113.021 112.849 111.75 113.654C114.357 113.291 116.374 113.176 117.903 113.318C116.973 112.54 116.236 111.93 115.711 111.506ZM338.625 82.1922C338.726 82.1922 338.827 82.201 338.929 82.2187C339.666 82.3336 340.255 82.8638 340.421 83.562C340.458 83.7211 344.372 99.2751 355.656 104.153C371.895 111.161 384.845 114.431 390.307 112.903C395.889 111.338 399.113 94.3703 399.113 89.2622C399.113 86.8407 400.228 83.5355 401.314 80.3451C402.199 77.7469 403.101 75.0692 403.101 73.6463C403.101 69.9346 405.791 64.8 407.569 61.4064L407.9 60.7789C408.425 59.2324 406.38 50.6246 405.155 45.4812C404.722 43.643 404.345 42.0434 404.032 40.6648C396.663 39.9843 379.623 38.0577 371.434 34.3371C371.195 38.8177 370.052 46.9394 365.134 51.8796C364.867 52.1535 364.507 52.3303 364.121 52.401C363.55 52.4982 350.028 54.9638 350.295 66.2316C350.304 66.7707 350.056 67.2922 349.623 67.6368C349.18 67.9815 348.609 68.114 348.057 67.9991L339.767 66.2316C338.947 66.0549 338.348 65.3656 338.321 64.5525C338.293 63.6511 337.814 55.7239 330.399 55.9625C329.911 55.9801 328.705 56.0155 327.599 57.2174C326.982 64.3139 327.572 71.5518 330.289 78.18C330.501 78.4009 330.722 78.6042 330.943 78.7897C335.198 82.3601 336.994 82.6164 337.418 82.6252C337.741 82.3513 338.173 82.1922 338.625 82.1922ZM337.068 83.0141C337.068 83.0141 337.068 83.0229 337.059 83.0229C337.059 83.0141 337.068 83.0141 337.068 83.0141ZM102.604 69.528C103.562 70.4648 106.721 73.6817 109.042 77.5878C109.07 77.3934 109.097 77.199 109.116 77.0046C109.586 72.5858 107.191 69.7578 107.163 69.7313C106.813 69.3336 106.657 68.8122 106.739 68.2996C109.558 51.5084 118.999 38.5703 134.805 29.8477C158.1 16.9979 187.943 17.8375 192.585 19.552C194.022 20.0822 195.321 20.9925 196.5 22.1679C194.188 18.5799 186 12.6676 175.821 11.7485C168.388 11.0768 130.54 8.5493 115.775 24.4126C102.705 38.4731 97.5745 61.2208 102.604 69.528ZM341.858 63.0678L346.703 64.1018C347.78 54.5927 357.194 50.2004 362.85 49.0516C368.284 43.0509 367.796 31.4296 367.796 31.3147C367.777 31.0054 367.851 30.7049 367.989 30.4398C356.254 27.7708 345.026 24.2447 339.905 19.8436C337.123 24.881 330.409 38.1726 328.143 52.7987C328.815 52.5954 329.534 52.4717 330.28 52.454C333.365 52.3568 335.926 53.2317 337.934 55.0434C340.67 57.5002 341.563 61.1059 341.858 63.0678ZM358.741 6.49016C340.513 6.49016 332.103 14.9388 332.002 15.0449C331.79 15.2658 331.523 15.4337 331.228 15.5221C323.823 17.8905 319.005 29.5649 318.674 45.9938C318.573 51.1814 319.991 57.6504 321.861 63.8367C321.916 61.8217 322.239 59.904 322.865 58.2337C323.178 57.403 323.556 56.6518 323.989 55.989C324.449 51.3846 325.407 46.5329 326.881 41.469C331.044 27.1522 337.694 16.344 337.971 15.8932C338.293 15.363 338.883 15.036 339.527 15.0272C340.181 14.9918 340.762 15.3277 341.112 15.8402C347.025 24.6866 389.359 31.2351 405.174 33.0115C406.169 33.1264 406.887 33.9748 406.795 34.9292C406.758 35.3181 406.887 36.2107 407.117 37.3949C407.209 37.4037 407.311 37.4126 407.403 37.4126C413.5 36.8116 414.79 32.5078 415.048 30.2895C404.934 28.0271 400.78 24.0061 396.755 20.1176C392.085 15.6016 387.268 10.9354 372.346 7.92183C367.308 6.90552 362.776 6.49016 358.741 6.49016ZM658.106 53.0284C668.947 53.2052 692.785 51.6144 702.475 35.2827C690.694 45.2779 671.812 50.4479 658.106 53.0284ZM686.826 7.3474C681.566 7.3474 675.45 8.41673 668.404 11.174C643.608 20.8953 640.495 38.2521 642.586 51.694C652.414 50.6777 702.125 44.3147 708.969 19.5785C709.116 19.0394 709.522 18.5975 710.065 18.3943C710.608 18.191 711.216 18.2352 711.714 18.5268C711.714 18.5268 711.723 18.5268 711.723 18.5357C708.923 15.1244 701.011 7.3474 686.826 7.3474ZM706.685 31.1379C707.062 31.3235 707.366 31.6417 707.532 32.0394C709.724 37.1651 713.943 44.9333 716.476 46.1528C718.3 47.0278 719.884 48.4506 721.155 50.1386C721.063 48.7864 720.971 47.4255 720.879 46.091C720.869 45.985 720.869 45.8701 720.888 45.764C722.417 33.2059 715.297 25.8001 711.714 22.9279C710.544 25.9238 708.831 28.6546 706.685 31.1379ZM905.401 20.6213C905.742 20.6213 906.074 20.7097 906.368 20.8864C919.116 28.4425 925.5 38.9326 928.484 49.1223C927.839 42.6797 926.356 37.7661 924.763 34.1427C920.894 25.3582 915.561 22.1679 915.506 22.1414C914.935 21.8055 914.585 21.1957 914.612 20.5594C914.612 20.4622 914.179 7.46228 876.092 4.71382C836.54 1.85047 806.89 27.7709 803.326 36.0339C802.349 38.3052 803.003 39.5247 803.584 40.2406C805.822 43.0244 812.795 44.2616 817.649 43.6253C818.837 43.4663 819.97 43.7491 820.974 44.4295C824.87 41.8048 829.623 40.7797 832.874 40.6648C832.93 40.6648 832.985 40.6648 833.04 40.6648C863.363 42.282 904.103 21.0632 904.517 20.8511C904.793 20.692 905.097 20.6213 905.401 20.6213ZM374.658 31.8538C381.75 34.4608 395.005 36.2195 403.304 37.0502C403.267 36.8028 403.23 36.5642 403.203 36.3521C398.579 35.7953 386.927 34.2929 374.658 31.8538ZM715.813 21.726C718.714 24.4656 722.362 28.9904 723.964 35.4418C723.227 29.7504 720.971 24.5275 715.813 21.726Z"/>
</svg>
