<svg viewBox="0 0 991 670" fill="none" xmlns="http://www.w3.org/2000/svg">
<path class="result-two-two-svg" stroke="#E5E5E5" stroke-width="3" style="stroke-dasharray: 10839; stroke-dashoffset: 10839;" fill="transparent" d="M988.847 669.974H431.28C430.741 669.974 430.219 669.736 429.872 669.315C429.524 668.894 429.378 668.346 429.478 667.815C431.189 658.596 427.118 599.988 423.176 543.319C422.472 533.166 421.758 522.95 421.081 512.935C407.818 511.618 393.668 509.78 385.755 506.112C379.563 503.25 376.855 499.82 377.688 495.933C379.435 487.82 398.113 481.756 409.858 481.637C410.571 481.628 411.248 482.058 411.55 482.717C411.66 482.973 411.779 483.238 411.907 483.512C411.989 483.412 412.072 483.311 412.163 483.21C412.803 482.442 413.508 481.601 414.258 480.668L414.715 480.101C416.224 478.235 417.477 476.698 418.63 475.427C416.764 445.218 415.648 420.99 416.453 412.438C417.596 400.146 420.816 386.39 424.786 376.53C425.024 360.196 426.972 335.309 442.513 329.739C443.263 329.474 444.104 329.721 444.589 330.352C452.511 340.797 443.199 354.251 435.717 365.061C433.009 368.976 430.448 372.671 429.14 375.616C428.902 376.146 428.673 376.686 428.436 377.244C428.408 379.366 428.408 381.296 428.408 382.951V383.143C428.408 393.496 426.954 400.896 425.106 410.252L424.804 411.789C423.597 417.917 424.338 423.322 425.124 429.038C425.536 432.029 425.957 435.12 426.103 438.413C426.259 441.861 425.646 445.163 425.042 448.355C423.935 454.263 422.975 459.367 427.073 464.086C428.865 466.153 431.052 467.26 433.448 467.808C434.134 467.653 434.857 467.497 435.616 467.342C441.022 466.199 443.949 463.94 447.05 461.543C449.922 459.33 452.886 457.034 457.779 455.543C465.646 453.147 480.235 455.9 485.412 462.394C487.516 465.037 488.266 468.083 488.925 470.763C488.952 470.872 488.98 470.982 489.007 471.083C491.87 471.046 494.925 471.659 498.035 472.619C498.2 467.973 495.95 464.059 493.407 459.641C490.379 454.382 486.949 448.419 488.111 440.59C488.403 438.614 488.788 436.776 489.154 435.001C490.141 430.236 491.001 426.13 489.83 420.971C488.943 417.066 486.977 413.636 484.9 410.014C483.29 407.206 481.626 404.307 480.482 401.133C477.089 391.695 477.701 382.887 478.296 374.372C478.973 364.604 479.622 355.366 474.692 345.059C474.299 344.226 473.915 343.431 473.54 342.663C469.359 334.001 466.597 328.276 467.155 317.09C467.219 315.855 467.292 314.703 467.356 313.605C467.832 305.895 468.07 302.026 463.606 294.892C447.443 269.091 412.392 250.406 380.432 234.922C378.731 237.574 377.075 240.29 375.447 243.034C373.901 255.921 367.772 267.29 357.116 276.774C357.061 276.866 356.988 276.957 356.915 277.039C355.607 278.448 354.564 277.936 354.061 277.506C353.558 277.076 352.89 276.125 354.079 274.625C354.116 274.579 354.152 274.533 354.198 274.497C359.595 264.07 365.541 252.628 372.053 241.617C372.931 232.754 371.468 223.087 367.663 212.669C367.745 213.126 367.836 213.584 367.928 214.05C368.641 217.727 369.391 221.523 368.349 225.83C366.666 232.791 362.22 238.214 358.186 242.751C347 255.345 340.359 263.942 344.603 281.256C344.841 282.216 344.265 283.186 343.313 283.451L342.719 283.615C340.844 285.006 338.474 285.609 335.794 285.609C321.863 285.609 299.444 269.421 293.691 264.034C282.586 253.616 279.897 245.193 281.004 235.681C280.162 233.129 279.741 230.449 279.833 227.632C280.016 222.282 281.379 217.553 282.687 212.98C283.327 210.767 283.949 208.599 284.434 206.404C282.12 209.505 280.391 213.163 278.589 216.959C276.613 221.129 274.573 225.446 271.628 229.123C265.728 236.513 258.072 239.248 249.218 242.421L246.995 243.217C242.037 245.01 236.86 246.665 231.39 248.412C215.255 253.57 198.571 258.903 186.277 268.296C183.002 270.793 180.789 274.369 178.648 277.817C176.7 280.954 174.688 284.192 171.907 286.533C168.276 289.588 165.239 290.548 162.568 291.399C159.174 292.478 156.723 293.255 153.704 298.075C150.503 303.188 148.399 309.828 146.368 316.249C145.271 319.724 144.228 323.017 143.021 326.071C140.661 332.062 137.642 337.769 134.724 343.284C132.026 348.388 129.227 353.674 127.013 359.098C123.656 367.32 123.666 372.278 123.675 379.137C123.675 381.131 123.684 383.198 123.611 385.548C123.364 393.56 119.888 397.877 116.22 402.441C114.025 405.176 111.747 408.002 109.899 411.926C106.606 418.923 107.402 427.2 112.25 436.529C113.375 438.696 114.537 441.285 115.763 444.038C118.305 449.736 121.159 456.129 124.315 459.915C127.901 458.406 130.965 459.321 133.727 460.903C137.569 456.687 142.435 453.55 149.68 453.129C159.714 452.544 159.714 452.544 168.477 448.464L168.779 448.318C176.005 444.952 182.71 442.492 191.509 446.544C194.674 447.998 197.272 450.092 199.76 452.159C200.491 451.4 201.196 450.541 201.873 449.562C201.086 444.486 201.26 439.382 202.028 434.279C201.681 434.032 201.333 433.794 200.995 433.547C197.491 431.096 194.18 428.782 193.851 425.8C193.576 423.34 194.052 421.383 195.25 419.993C197.308 417.606 200.857 417.477 204.297 417.359C204.992 417.331 205.687 417.304 206.373 417.267C207.187 414.807 208.047 412.356 208.916 409.923C208.395 402.798 206.83 396.231 205.193 389.381C204.105 384.835 202.989 380.143 202.175 375.195C200.354 364.119 204.91 351.232 211.038 350.117C214.139 349.559 218.346 351.488 220.825 363.918C223.844 379.091 218.429 394.228 213.178 408.871C212.986 409.402 212.803 409.923 212.611 410.453C212.776 413.014 212.803 415.648 212.666 418.374C212.63 419.087 212.181 419.709 211.532 419.974C210.773 420.285 209.959 420.496 209.126 420.642C207.837 424.694 206.739 428.7 206.007 432.66C207.132 433.538 208.093 434.416 208.733 435.34C211.276 438.989 211.413 445.053 211.55 451.464C211.614 454.236 211.678 457.171 211.989 459.76C215.493 461.278 218.813 462.943 221.914 467.927C222.078 468.193 222.17 468.485 222.188 468.787C254.066 464.644 278.497 461.507 279.147 461.424C279.897 461.315 280.638 461.708 280.995 462.385C281.351 463.062 281.251 463.885 280.748 464.452C276.942 468.769 271.225 471.814 265.71 474.75C258.987 478.336 252.035 482.031 248.312 488.021C247.69 489.018 247.105 489.969 246.538 490.902C239.613 502.17 235.424 508.975 220.816 512.085C210.334 514.316 199.119 515.569 188.271 516.777C175.054 518.249 161.424 519.777 149.35 523.078C162.632 530.468 193.686 527.944 203.226 517.755C203.748 517.206 204.544 517.033 205.248 517.307C205.952 517.591 206.4 518.277 206.391 519.027C206.08 539.377 199.33 666.964 199.266 668.254C199.211 669.224 198.415 669.983 197.436 669.983H-21.0862C-22.0924 669.983 -22.9156 669.16 -22.9156 668.154C-22.9156 667.147 -22.0924 666.324 -21.0862 666.324H195.644C196.412 651.782 201.735 550.388 202.577 523.042C188.225 533.102 155.424 534.09 143.926 523.737C143.441 523.298 143.222 522.63 143.359 521.99C143.496 521.35 143.972 520.828 144.594 520.636C157.848 516.475 173.078 514.774 187.805 513.127C198.571 511.929 209.693 510.685 220.002 508.49C233.082 505.71 236.522 500.112 243.373 488.972C243.949 488.04 244.534 487.079 245.156 486.082C249.401 479.259 256.791 475.317 263.944 471.513C267.439 469.647 270.814 467.854 273.677 465.805C251.797 468.622 173.965 478.656 121.781 485.744C117.921 494.863 123.162 500.643 135.237 510.832C135.977 511.463 136.106 512.56 135.52 513.328C134.935 514.106 133.846 514.289 133.041 513.74C131.678 512.826 130.37 511.911 129.09 511.024C123.281 506.99 118.269 503.506 111.573 501.493C109.908 501 106.122 500.652 102.106 500.295C89.5197 499.17 75.2595 497.89 74.9302 490.399C74.8936 489.475 75.543 488.661 76.4577 488.515C83.8577 487.29 99.6637 485.058 119.348 482.378C120.153 480.823 121.15 479.195 122.376 477.476C123.83 475.427 125.193 473.241 126.51 471.11C128.056 468.622 129.611 466.107 131.358 463.784C129.145 462.632 127.169 462.385 124.791 463.748C124.068 464.168 123.153 464.04 122.568 463.446C118.607 459.403 115.323 452.031 112.415 445.529C111.207 442.83 110.073 440.288 109.003 438.221C103.679 427.968 102.838 418.337 106.588 410.371C108.619 406.063 111.143 402.926 113.366 400.155C116.924 395.728 119.732 392.234 119.952 385.439C120.025 383.143 120.016 381.113 120.016 379.146C120.007 372.14 119.988 366.607 123.629 357.717C125.916 352.129 128.751 346.769 131.495 341.583C134.368 336.15 137.34 330.544 139.618 324.736C140.78 321.791 141.795 318.563 142.883 315.142C144.987 308.502 147.155 301.642 150.604 296.136C154.336 290.173 157.958 289.021 161.461 287.914C163.931 287.127 166.474 286.323 169.556 283.734C171.889 281.777 173.663 278.914 175.538 275.887C177.853 272.155 180.249 268.296 184.054 265.387C196.851 255.61 213.837 250.177 230.274 244.927C235.717 243.19 240.857 241.543 245.751 239.769L247.983 238.964C256.663 235.854 263.515 233.403 268.774 226.827C271.445 223.48 273.393 219.364 275.278 215.376C277.885 209.861 280.574 204.172 285.312 200.038C285.422 197.706 285.257 195.273 284.699 192.676C284.379 191.194 284.05 189.484 283.684 187.645C282.888 183.575 281.946 178.765 280.748 174.283C278.799 173.185 276.448 172.417 273.22 171.375L271.454 170.798C253.581 164.927 241.607 152.323 238.625 136.217C237.866 132.12 238.141 128.031 238.406 124.071C238.744 118.958 239.074 114.129 237.299 109.401C235.954 105.797 233.585 103.008 231.07 100.053C228.692 97.2455 226.222 94.3462 224.63 90.6512C218.356 76.0998 224.996 65.3257 231.408 54.9083C234.162 50.445 236.997 45.8262 238.754 40.9788C244.406 25.3664 258.895 12.4156 278.507 5.4371C300.341 -2.32793 323.931 -1.14808 340.066 8.52848C347.74 13.129 356.265 15.26 364.516 17.327C374.624 19.8605 385.069 22.4763 394.198 29.5919C411.02 42.7166 425.39 55.4845 430.978 78.8619C435.79 98.9924 436.887 118.382 437.83 141.631C438.607 160.774 431.271 182.835 408.349 187.334C397.628 189.438 386.89 187.472 376.49 185.569C375.529 185.396 374.569 185.222 373.617 185.048C373.599 185.075 373.581 185.103 373.562 185.121C373.261 185.514 372.803 186.109 371.971 186.475C371.267 186.786 370.443 186.63 369.913 186.072C369.858 186.017 369.803 185.953 369.748 185.899C361.653 201.273 349.378 214.965 335.511 218.642C324.031 221.687 312.918 217.727 302.472 206.871C300.094 204.392 298.182 201.794 296.535 199.142C295.593 202.81 294.203 206.13 292.758 209.55C292.264 210.712 291.77 211.892 291.285 213.108C295.3 220.16 303.139 226.818 309.039 231.83C309.762 232.443 310.457 233.028 311.116 233.595C327.251 247.461 331.056 254.211 327.096 275.274C326.967 275.951 326.474 276.5 325.806 276.692C325.147 276.884 324.434 276.692 323.958 276.189C320.766 272.786 315.442 269.082 309.808 265.168C300.99 259.031 290.764 251.915 284.818 243.226C285.769 249.171 289.135 254.723 296.179 261.326C304.045 268.716 332.328 287.246 340.67 280.524C336.874 262.854 344.091 253.049 355.433 240.281C359.174 236.074 363.281 231.071 364.772 224.934C365.623 221.404 364.992 218.157 364.324 214.718C363.601 211.005 362.851 207.163 363.812 202.645C363.976 201.877 364.608 201.301 365.394 201.209C366.181 201.118 366.922 201.538 367.26 202.252C372.794 214.023 375.648 225.108 375.831 235.361C376.627 234.08 377.432 232.818 378.246 231.565C378.749 230.788 379.746 230.513 380.578 230.916C413.38 246.757 449.794 265.927 466.716 292.944C471.802 301.075 471.509 305.877 471.015 313.825C470.951 314.904 470.878 316.038 470.814 317.264C470.302 327.507 472.762 332.611 476.842 341.062C477.217 341.839 477.601 342.635 478.003 343.467C483.345 354.644 482.632 364.796 481.955 374.61C481.36 383.125 480.802 391.164 483.94 399.871C484.973 402.743 486.492 405.377 488.092 408.167C490.215 411.862 492.419 415.694 493.425 420.13C494.77 426.066 493.791 430.748 492.757 435.715C492.401 437.434 492.026 439.218 491.751 441.093C490.782 447.669 493.608 452.58 496.599 457.784C499.389 462.632 502.261 467.616 501.639 473.827C504.639 474.97 507.649 476.314 510.539 477.622C513.073 478.765 515.46 479.836 517.619 480.659C519.732 481.464 523.464 482.552 527.772 483.814C546.88 489.412 564.351 495.036 568.092 502.372C568.934 504.018 569.062 505.756 568.486 507.393C564.635 518.176 547.31 521.066 528.184 521.212C520.994 531.145 509.003 537.136 493.855 538.05C466.743 539.688 447.324 536.303 436.146 527.971C432.241 525.063 428.5 520.719 424.969 515.624C425.591 524.688 426.231 533.889 426.862 543.044C430.759 599.091 434.445 652.212 433.366 666.297H988.883C989.89 666.297 990.713 667.12 990.713 668.126C990.713 669.132 989.862 669.974 988.847 669.974ZM427.996 513.585C431.253 518.286 434.738 522.411 438.296 525.054C448.614 532.737 467.731 535.974 493.599 534.41C500.304 534.008 514.363 531.831 523.519 521.212C518.086 521.139 512.588 520.883 507.283 520.554C506.094 520.481 505.06 520.417 504.21 520.371C486.693 519.456 464.905 518.322 445.403 515.405C441.461 514.819 436.101 514.325 429.89 513.758C429.268 513.704 428.637 513.64 427.996 513.585ZM425.426 509.67C427.054 509.826 428.664 509.972 430.238 510.118C436.503 510.694 441.909 511.188 445.952 511.792C465.271 514.682 486.967 515.816 504.402 516.722C505.261 516.767 506.304 516.831 507.512 516.905C511.664 517.161 518.552 517.581 526.144 517.581C526.172 517.581 526.199 517.581 526.227 517.581C527.69 515.295 528.952 512.697 529.922 509.752C530.699 507.411 530.992 505.161 530.809 503.039C530.773 503.515 530.718 503.99 530.644 504.484C530.562 505.106 530.16 505.637 529.593 505.893C520.391 510.073 508.92 512.917 499.682 513.328C482.513 514.088 463.88 510.914 446.3 507.374C444.443 506.999 442.54 506.652 440.61 506.295C435.085 505.289 429.442 504.256 424.054 502.5C424.173 504.338 424.301 506.185 424.429 508.033C424.749 508.591 425.088 509.13 425.426 509.67ZM521.744 485.881C525.915 488.241 529.465 491.204 531.751 494.817C534.788 499.6 535.337 505.015 533.389 510.905C532.611 513.246 531.641 515.46 530.489 517.536C545.572 517.188 561.909 514.828 565.001 506.185C565.248 505.49 565.184 504.814 564.799 504.064C561.47 497.524 539.709 491.158 526.711 487.354C524.9 486.814 523.235 486.329 521.744 485.881ZM423.78 498.558C429.359 500.524 435.378 501.631 441.26 502.701C443.208 503.057 445.138 503.414 447.013 503.789C464.365 507.283 482.741 510.42 499.508 509.679C507.878 509.313 518.598 506.698 527.132 502.984C527.489 499.28 526.794 496.527 525.019 494.588C520.491 489.649 508.939 490.262 498.749 490.802C488.907 491.323 479.604 491.817 475.012 487.857C474.527 487.436 474.29 486.787 474.409 486.156C474.939 483.146 475.771 480.576 476.887 478.464C475.845 477.933 474.747 477.311 473.585 476.589C465.179 471.321 461.246 470.369 450.205 470.918C448.65 470.991 447.022 471.174 445.293 471.366C441.433 471.796 437.299 472.244 433.411 471.558C427.539 472.894 425.152 473.9 422.353 476.735C422.81 483.723 423.286 491.049 423.78 498.558ZM408.705 485.305C396.878 485.808 382.325 491.753 381.264 496.683C380.706 499.298 384.804 501.622 387.292 502.783C394.601 506.167 408.038 507.941 420.834 509.231V509.222C418.822 505.838 416.892 502.271 415.063 498.667C410.663 496.299 408.175 494.433 407.681 491.954C407.333 490.207 408.019 488.598 409.355 486.723C409.126 486.247 408.916 485.771 408.705 485.305ZM79.3573 491.744C82.6045 494.872 95.2183 495.997 102.426 496.646C106.991 497.058 110.594 497.378 112.616 497.981C115.369 498.805 117.875 499.865 120.235 501.091C117.08 496.591 115.891 491.945 117.702 486.293C100.88 488.579 87.114 490.518 79.3573 491.744ZM417.788 495.969C417.862 496.006 417.935 496.042 417.999 496.079C418.657 496.427 419.334 496.747 420.02 497.058C419.645 491.46 419.289 485.973 418.959 480.659C418.52 481.198 418.063 481.765 417.56 482.387L417.102 482.954C416.343 483.896 415.63 484.756 414.971 485.534C414.486 486.119 414.02 486.677 413.59 487.207C414.761 489.759 416.178 492.768 417.788 495.969ZM411.257 490.866C411.239 490.994 411.239 491.122 411.257 491.222C411.321 491.515 411.55 491.854 411.889 492.201C411.678 491.753 411.468 491.305 411.257 490.866ZM478.232 485.68C482.165 488.021 490.489 487.582 498.566 487.152C504.63 486.832 510.795 486.503 516.119 487.171C510.411 484.656 503.935 483.119 498.465 482.451C495.84 482.131 493.562 481.976 491.559 481.839C487.461 481.555 484.104 481.326 480.253 479.927C479.385 481.473 478.717 483.384 478.232 485.68ZM134.432 465.741C132.758 467.955 131.221 470.443 129.611 473.031C128.267 475.198 126.876 477.448 125.349 479.589C124.818 480.329 124.333 481.052 123.894 481.747C150.86 478.089 184.091 473.726 212.877 469.967C212.739 469.875 212.602 469.784 212.474 469.683C210.334 468.083 209.227 465.467 208.623 462.284C207.26 461.681 205.769 460.985 204.178 460.043C202.632 459.129 201.196 458.059 199.815 456.943C193.814 461.342 186.625 461.251 179.618 461.15C174.569 461.077 169.346 461.004 164.525 462.623C162.028 463.455 160.062 464.863 157.967 466.354C154.454 468.86 150.814 471.449 144.896 470.918C141.109 470.571 138.008 468.321 135.264 466.336C134.99 466.135 134.706 465.933 134.432 465.741ZM497.505 478.656C497.962 478.701 498.419 478.756 498.904 478.811C501.822 479.168 504.923 479.735 508.024 480.531C505.582 479.433 503.066 478.317 500.569 477.366C500.432 477.485 500.276 477.576 500.103 477.65C499.179 478.043 498.319 478.381 497.505 478.656ZM482.677 476.881C484.461 477.421 486.181 477.695 488.056 477.887C487.288 477.11 486.757 476.122 486.355 475.052C485.595 475.235 484.873 475.5 484.196 475.857C483.656 476.141 483.153 476.479 482.677 476.881ZM490.242 474.75C490.498 475.18 490.8 475.5 491.175 475.692C491.779 475.994 492.922 476.141 495.081 475.564C493.407 475.134 491.779 474.842 490.242 474.75ZM454.852 467.122C463.277 467.122 467.868 468.677 475.534 473.479C476.768 474.256 477.903 474.888 478.973 475.409C479.997 474.247 481.168 473.314 482.485 472.619C483.4 472.135 484.361 471.778 485.348 471.531C484.763 469.126 484.141 466.647 482.559 464.662C478.387 459.431 465.454 457.016 458.849 459.028C454.596 460.327 452.017 462.312 449.291 464.424C447.818 465.559 446.327 466.72 444.562 467.763C444.681 467.754 444.79 467.735 444.909 467.726C446.611 467.534 448.367 467.342 450.041 467.26C451.788 467.168 453.379 467.122 454.852 467.122ZM421.484 461.882C421.676 465.193 421.877 468.622 422.087 472.125C423.661 470.936 425.353 470.086 427.603 469.336C426.441 468.595 425.335 467.653 424.31 466.473C422.993 464.973 422.087 463.437 421.484 461.882ZM212.959 464.251C213.38 465.348 213.938 466.217 214.669 466.757C215.31 467.232 216.105 467.479 217.084 467.507C215.785 465.997 214.45 465.046 212.959 464.251ZM136.792 462.934C137.002 463.089 137.212 463.235 137.414 463.382C140.002 465.257 142.454 467.031 145.234 467.287C149.799 467.708 152.607 465.705 155.854 463.391C158.068 461.809 160.354 460.181 163.373 459.165C168.779 457.354 174.322 457.428 179.682 457.501C186.167 457.592 192.012 457.675 196.888 454.528C194.683 452.708 192.524 451.035 189.982 449.864C182.582 446.452 177.167 448.446 170.325 451.629L170.023 451.766C160.711 456.101 160.528 456.147 149.899 456.769C144.054 457.117 140.066 459.476 136.792 462.934ZM202.595 454.483C203.72 455.37 204.855 456.193 206.044 456.897C206.757 457.318 207.443 457.684 208.12 458.013C207.974 455.946 207.919 453.751 207.873 451.519C207.745 445.931 207.617 440.151 205.705 437.398C205.605 437.251 205.477 437.096 205.339 436.94C204.855 441.202 204.864 445.428 205.596 449.644C205.678 450.102 205.577 450.559 205.33 450.952C204.461 452.306 203.547 453.467 202.595 454.483ZM424.594 388.548C422.453 396.213 420.825 404.783 420.084 412.749C419.526 418.694 419.929 432.541 420.871 450.824C421.036 449.772 421.237 448.721 421.438 447.669C421.996 444.678 422.581 441.596 422.444 438.568C422.298 435.45 421.886 432.44 421.493 429.523C420.706 423.761 419.892 417.798 421.209 411.066L421.511 409.53C422.975 402.103 424.191 395.938 424.594 388.548ZM205.175 420.971C204.919 420.98 204.672 420.99 204.416 420.999C201.763 421.099 199.028 421.191 198.013 422.371C197.5 422.956 197.327 423.971 197.482 425.38C197.619 426.642 200.583 428.773 202.742 430.291C203.382 427.181 204.223 424.072 205.175 420.971ZM211.88 353.693C211.806 353.693 211.742 353.702 211.678 353.711C208.349 354.315 204.169 364.869 205.769 374.591C206.565 379.402 207.672 384.039 208.742 388.521C209.803 392.966 210.883 397.475 211.651 402.194C216.005 389.728 219.691 376.997 217.221 364.622C215.694 357.004 213.48 353.693 211.88 353.693ZM442.44 333.699C432.369 338.538 429.524 355.119 428.719 368.866C429.917 366.982 431.289 364.997 432.707 362.958C439.54 353.08 447.251 341.94 442.44 333.699ZM284.781 235.525C288.751 246.08 300.908 254.54 311.884 262.186C316.412 265.332 320.738 268.351 324.059 271.268C326.812 254.046 323.135 248.796 308.701 236.394C308.051 235.836 307.356 235.251 306.643 234.638C301.191 230.001 294.194 224.065 289.648 217.434C289.62 217.507 289.602 217.581 289.574 217.654C287.233 224.705 285.431 230.422 284.781 235.525ZM368.861 254.54C367.196 257.567 365.568 260.604 363.976 263.595C365.961 260.704 367.589 257.686 368.861 254.54ZM286.702 212.166C286.528 212.77 286.355 213.373 286.19 213.968C285.33 216.94 284.461 219.986 283.931 223.178C284.598 221.047 285.339 218.824 286.117 216.492C286.483 215.404 286.858 214.361 287.251 213.346C287.05 212.962 286.867 212.569 286.702 212.166ZM297.514 193.554C299.536 197.349 301.831 200.962 305.097 204.355C314.555 214.178 324.461 217.8 334.56 215.12C354.445 209.834 369.785 182.085 374.322 164.076C374.45 163.564 374.797 163.125 375.273 162.887C375.749 162.649 376.307 162.631 376.801 162.832C378.355 163.481 379.773 163.783 381.081 163.765C381.109 163.445 381.136 163.125 381.155 162.786C381.447 157.875 380.779 153.21 380.075 148.262C379.289 142.756 378.484 137.068 379.069 130.921C379.087 130.738 379.106 130.556 379.124 130.373C379.106 130.309 379.087 130.245 379.069 130.171C376.38 117.413 366.656 107.041 351.701 100.986C338.264 95.5444 321.498 94.0261 306.853 96.9346C299.389 98.4162 277.756 104.279 274.765 122.608C286.647 130.94 291.468 148.015 294.349 162.539C296.563 173.716 297.688 182.935 297.679 189.959C297.688 191.212 297.624 192.401 297.514 193.554ZM288.962 199.846C289.181 200.258 289.236 200.743 289.108 201.209C288.422 203.605 288.541 206.038 289.245 208.462C289.291 208.361 289.327 208.261 289.373 208.16C291.34 203.486 293.096 199.316 293.755 194.258C292.886 192.593 292.081 190.92 291.276 189.264C290.26 187.17 289.209 185.002 288.065 182.88C287.187 181.252 286.382 179.917 285.586 178.801C286.217 181.636 286.766 184.426 287.251 186.932C287.608 188.743 287.937 190.426 288.248 191.898C288.861 194.706 289.053 197.34 288.962 199.846ZM283.885 171.914C286.51 173.725 288.733 176.387 291.294 181.143C292.236 182.889 293.105 184.646 293.938 186.365C293.636 180.109 292.575 172.362 290.764 163.262C288.175 150.22 284.004 135.028 274.427 126.97C274.427 128.864 274.61 130.876 275.012 133.007C275.159 133.784 274.784 134.571 274.089 134.946C273.393 135.321 272.534 135.211 271.957 134.662C270.375 133.153 268.152 131.598 266.579 132.741C263.359 135.074 262.572 146.141 266.213 153.832C267.987 157.582 271.363 161.716 277.4 160.125C278.159 159.924 278.964 160.235 279.394 160.893C281.214 163.692 282.678 167.643 283.885 171.914ZM374.651 181.527C375.474 181.673 376.307 181.829 377.148 181.984C387.21 183.822 397.601 185.725 407.644 183.758C428.289 179.698 434.884 159.421 434.171 141.796C433.238 118.739 432.149 99.5321 427.411 79.7216C422.097 57.4966 408.202 45.1769 391.939 32.4821C383.423 25.842 373.809 23.4275 363.62 20.8848C355.113 18.7538 346.313 16.5496 338.173 11.6747C322.952 2.54694 300.551 1.47685 279.723 8.88518C261.145 15.4978 247.461 27.6438 242.184 42.2227C240.299 47.4268 237.354 52.201 234.509 56.829C228.317 66.8897 222.463 76.3924 227.978 89.2061C229.35 92.3981 231.537 94.9681 233.842 97.6937C236.439 100.758 239.129 103.931 240.702 108.129C242.751 113.59 242.385 119.05 242.028 124.318C241.763 128.223 241.516 131.909 242.193 135.558C244.974 150.521 255.758 161.799 272.57 167.323L274.317 167.89C276.201 168.503 277.848 169.033 279.33 169.609C278.616 167.487 277.83 165.558 276.942 163.966C271.015 164.936 265.948 161.881 262.883 155.406C258.996 147.183 258.932 133.748 264.411 129.787C265.609 128.918 267.804 127.995 270.85 129.449C270.741 127.766 270.759 126.111 270.896 124.51C270.036 124.016 269.149 123.568 268.216 123.175C267.576 122.909 267.137 122.288 267.1 121.592C266.963 119.242 266.844 116.873 266.725 114.495C266.46 109.126 266.185 103.565 265.655 98.3156C265.408 95.8462 264.74 92.8188 264.045 89.6177C262.856 84.1849 261.63 78.5692 262.124 74.362C263.926 59.0972 284.15 51.4328 296.233 46.8597L296.334 46.8232C322.211 37.0185 352.049 43.5031 380.34 65.0787C380.624 65.2983 380.844 65.5909 380.962 65.9293C387.493 84.6148 385.435 104.553 383.441 123.842C383.377 124.446 383.313 125.059 383.249 125.662C385.81 124.537 387.804 125.397 388.957 126.22C395.515 130.903 396.723 150.558 391.079 160.71C389.305 163.902 386.99 165.988 384.283 166.893C383.066 172.856 379.993 176.002 376.526 179.542C375.932 180.191 375.291 180.841 374.651 181.527ZM377.358 166.893C376.425 170.231 375.255 173.661 373.855 177.073C373.883 177.045 373.91 177.018 373.938 176.981C376.91 173.935 379.261 171.539 380.423 167.414C379.444 167.369 378.42 167.195 377.358 166.893ZM382.801 130.428C382.774 130.711 382.746 130.995 382.719 131.278C382.179 136.985 382.956 142.464 383.707 147.75C384.383 152.515 385.088 157.436 384.841 162.549C385.993 161.744 387.018 160.536 387.914 158.918C392.899 149.964 391.536 132.513 386.862 129.184C386.451 128.9 385.234 128.031 382.801 130.428ZM322.412 91.7853C346.789 91.7853 371.175 102.056 380.039 121.455C381.895 103.383 383.542 84.7886 377.715 67.6488C350.594 47.1341 322.184 40.9514 297.66 50.2346L297.56 50.2712C286.254 54.5516 267.338 61.7221 265.792 74.7827C265.371 78.3772 266.533 83.691 267.649 88.8311C268.372 92.1329 269.058 95.2608 269.323 97.9406C269.863 103.282 270.137 108.888 270.402 114.303C270.503 116.288 270.594 118.272 270.704 120.248C270.979 120.376 271.244 120.504 271.509 120.641C274.5 107.187 286.83 97.1724 306.14 93.3401C311.445 92.3066 316.933 91.7853 322.412 91.7853Z" />
</svg>
