<svg viewBox="0 0 773 648" fill="none" xmlns="http://www.w3.org/2000/svg">
<path class="result-two-three-svg" style="stroke-dasharray: 14701; stroke-dashoffset: 14701;" d="M254.465 257.246C255.278 255.164 256.092 253.078 256.137 250.996C256.183 248.914 255.458 246.829 253.74 244.926C252.021 243.024 249.303 241.305 247.314 240.216C245.321 239.128 244.053 238.677 243.874 237.317C243.694 235.957 244.599 233.692 244.824 231.67C245.05 229.648 244.595 227.866 243.057 227.232C241.518 226.597 238.891 227.112 237.624 226.823C236.356 226.538 236.448 225.449 236.395 224.029C236.342 222.61 236.145 220.859 235.627 219.696C235.106 218.534 234.261 217.96 232.367 217.385C230.472 216.811 227.532 216.241 225.948 215.265C224.363 214.289 224.142 212.912 223.916 211.534M185.477 200.998C185.477 200.092 185.477 199.187 185.656 197.059C185.836 194.931 186.199 191.578 187.966 190.207C189.73 188.833 192.899 189.439 194.801 190.979C196.702 192.518 197.336 194.995 198.558 196.64C199.779 198.285 201.589 199.099 201.864 199.916C202.135 200.73 200.867 201.547 198.966 201.956C197.065 202.364 194.529 202.364 192.132 202.093C189.734 201.822 187.47 201.279 186.836 200.871C186.202 200.462 187.199 200.191 188.737 200.145C190.276 200.099 192.357 200.282 194.575 199.965C196.794 199.648 199.146 198.835 201.293 197.982C203.441 197.133 205.378 196.249 205.966 195.523C206.554 194.797 205.79 194.234 203.779 193.498C201.769 192.761 198.508 191.856 196.065 190.045C193.621 188.235 191.991 185.515 190.181 182.979C188.371 180.442 186.378 178.089 183.755 177.635C181.128 177.18 177.871 178.631 175.787 181.802C173.706 184.972 172.801 189.862 173.343 190.045C173.886 190.225 175.878 185.698 178.505 183.162C181.132 180.625 184.389 180.083 186.019 179.357C187.649 178.631 187.649 177.726 184.118 175.553C180.586 173.379 173.526 169.937 166.301 166.161C159.076 162.384 151.685 158.277 144.622 154.11C137.562 149.942 130.83 145.718 122.031 145.327C113.232 144.936 102.369 148.378 92.683 153.268C82.9965 158.157 74.4862 164.498 68.0602 170.659C61.6343 176.817 57.2893 182.795 53.1239 188.502C48.9585 194.209 44.9762 199.641 41.3566 210.692C37.7334 221.743 34.4764 238.409 31.7582 256.161C29.0434 273.912 26.8709 292.751 23.4309 312.317C19.9908 331.882 15.2832 352.17 10.9382 373.726C6.59319 395.282 2.61088 418.109 2.06511 442.744C1.52287 467.379 4.42071 493.827 8.76569 514.481C13.1107 535.132 18.9063 549.987 22.8886 565.202C26.8709 580.421 29.0434 595.998 27.2336 610.128C25.4238 624.258 19.6281 636.94 18.3606 642.555C17.093 648.17 20.3535 646.723 25.7829 639.656C31.2159 632.589 38.8179 619.911 41.5361 602.882C44.2509 585.853 42.0784 564.477 36.4658 541.11C30.8533 517.74 21.8006 492.38 19.0824 467.199C16.3676 442.018 19.9873 417.021 24.3323 390.934C28.6772 364.848 33.7476 337.677 35.7405 309.055C37.7334 280.432 36.6454 250.362 40.4481 227.355C44.2509 204.348 52.9408 188.407 62.8984 178.262C72.8559 168.116 84.0846 163.769 86.4366 163.043C88.7922 162.318 82.2712 165.217 76.4791 171.375C70.6834 177.532 65.6166 186.952 62.8984 199.092C60.1836 211.228 59.821 226.083 60.5463 245.828C61.2716 265.573 63.0815 290.208 60.5463 314.483C58.0111 338.759 51.131 362.671 47.5114 387.486C43.8917 412.304 43.5291 438.027 46.6065 464.655C49.6839 491.284 56.2013 518.818 60.909 543.093C65.6166 567.369 68.5145 588.382 67.4264 602.149C66.342 615.916 61.2716 622.437 62.7188 624.251C64.166 626.062 72.1341 623.166 77.7467 615.919C83.3592 608.673 86.6197 597.08 84.2641 580.776C81.9085 564.473 73.9439 543.46 69.2363 517.011C64.5286 490.562 63.0815 458.681 65.6166 427.522C68.1518 396.363 74.6692 365.93 75.9368 335.497C77.2044 305.064 73.2221 274.63 72.6763 247.459C72.1341 220.288 75.0319 196.376 82.0916 180.072C89.1549 163.769 100.38 155.075 108.345 150.907C116.313 146.74 121.02 147.103 118.485 150.907C115.95 154.712 106.172 161.958 99.6547 173.368C93.1372 184.782 89.8767 200.36 88.9718 214.853C88.0669 229.345 89.514 242.749 91.3274 268.11C93.1372 293.47 95.3097 330.787 92.2323 364.662C89.1549 398.537 80.8241 428.97 79.5565 462.665C78.2889 496.36 84.0846 533.314 92.4119 555.233C100.739 577.151 111.605 584.035 118.302 593.275C125.003 602.515 127.538 614.109 130.07 616.645C132.605 619.182 135.14 612.661 130.974 598.348C126.809 584.038 115.947 561.937 107.616 536.939C99.2885 511.942 93.4928 484.045 95.1231 454.697C96.7533 425.348 105.806 394.556 110.693 363.397C115.58 332.238 116.306 300.72 115.763 269.924C115.221 239.128 113.411 209.058 117.211 188.587C121.013 168.116 130.429 157.248 137.488 154.529C144.552 151.813 149.259 157.245 150.523 157.065C151.791 156.885 149.618 151.087 146.904 151.27C144.189 151.45 140.928 157.611 142.016 164.857C143.104 172.104 148.534 180.435 147.629 189.855C146.724 199.275 139.481 209.783 136.221 226.087C132.96 242.39 133.686 264.492 136.312 289.761C138.939 315.029 143.464 343.472 141.383 369.646C139.302 395.824 130.608 419.733 126.084 442.106C121.556 464.479 121.196 485.309 123.457 504.875C125.721 524.44 130.608 542.734 138.393 553.968C146.178 565.199 156.861 569.366 166.368 570.906C175.875 572.445 184.202 571.356 198.417 569.003C212.631 566.65 232.729 563.025 250.835 558.949C268.94 554.873 285.056 550.343 282.066 550.255C279.077 550.163 256.989 554.511 238.613 557.41C220.237 560.309 205.568 561.757 196.607 561.486C187.646 561.214 184.385 559.221 180.491 555.962C176.597 552.7 172.072 548.173 170.262 539.838C168.453 531.507 169.357 519.367 170.988 506.869C172.618 494.37 174.97 481.508 175.516 468.555C176.058 455.602 174.79 442.561 178.322 438.393C181.854 434.226 190.181 438.936 194.801 444.734C199.417 450.529 200.322 457.416 200.413 467.47C200.505 477.524 199.779 490.749 198.512 501.616C197.244 512.484 195.434 520.999 192.174 526.071C188.913 531.144 184.206 532.775 184.206 530.51C184.206 528.245 188.913 522.087 193.167 518.374C197.42 514.661 201.223 513.393 207.832 513.756C214.441 514.119 223.856 516.112 236.891 517.652C249.926 519.191 266.584 520.28 277.489 521.442C288.394 522.605 293.545 523.848 295.263 521.756C296.982 519.663 295.267 514.242 293.566 508.612C291.869 502.983 290.186 497.153 284.756 492.63C279.327 488.11 270.148 484.901 256.327 478.856C242.504 472.814 224.036 463.937 209.188 455.243C194.339 446.548 183.114 438.034 174.604 427.888C166.093 417.743 160.301 405.97 157.583 399.9C154.868 393.83 155.231 393.471 155.139 399.992C155.048 406.512 154.506 419.92 150.161 436.766C145.816 453.612 137.668 473.903 134.679 498.086C131.693 522.27 133.865 550.347 139.478 568.464C145.09 586.578 154.143 594.73 161.928 598.897C169.713 603.065 176.231 603.245 177.319 602.068C178.407 600.891 174.058 598.355 170.53 590.929C166.998 583.503 164.284 571.184 160.481 555.423C156.678 539.662 151.791 520.46 150.523 492.2C149.256 463.94 151.611 426.624 155.231 397.096C158.851 367.568 163.741 345.829 161.115 323.91C158.488 301.992 148.351 279.89 145.633 266.031C142.918 252.173 147.626 246.557 150.882 239.494C154.143 232.428 155.953 223.917 155.136 219.295C154.323 214.676 150.882 213.951 150.428 218.298C149.978 222.645 152.509 232.065 157.4 241.034C162.287 249.999 169.53 258.514 177.59 264.404C185.646 270.29 194.519 273.552 202.304 277.808C210.089 282.063 216.79 287.319 224.032 294.294C231.275 301.27 239.06 309.964 239.602 310.506C240.145 311.049 233.448 303.44 229.825 297.824C226.201 292.209 225.659 288.584 225.751 285.142C225.842 281.701 226.564 278.438 230.367 275.268C234.17 272.097 241.05 269.019 246.12 265.485C251.19 261.952 254.451 257.968 254.451 257.242C254.451 256.516 251.19 259.053 246.937 260.867C242.683 262.678 237.43 263.766 232.272 264.943C227.11 266.119 222.043 267.388 217.244 269.29C212.445 271.192 207.92 273.729 201.403 273.908C194.885 274.088 186.375 271.914 180.942 268.201C175.509 264.488 173.157 259.236 172.523 259.778C171.889 260.321 172.977 266.662 175.329 275.539C177.685 284.417 181.304 295.827 189.815 305.972C198.325 316.118 211.723 324.992 221.68 327.169C231.638 329.342 238.155 324.812 246.215 319.468C254.271 314.124 263.87 307.966 266.042 305.881C268.215 303.799 262.965 305.789 257.532 310.954C252.099 316.118 246.486 324.449 245.641 334.426C244.796 344.399 248.722 356.017 252.433 357.828C256.144 359.638 259.644 351.645 263.929 342.123C268.215 332.601 273.285 321.55 280.253 314.575C287.225 307.6 296.098 304.701 295.644 303.616C295.189 302.527 285.415 303.253 277.401 306.966C269.391 310.679 263.144 317.383 258.57 329.61C254 341.838 251.102 359.589 253.275 373.902C255.447 388.211 262.69 399.083 268.665 415.929C274.64 432.774 279.348 455.602 284.781 477.158C290.214 498.714 296.369 519.005 303.795 540.018C311.217 561.031 319.911 582.77 326.608 598.711C333.308 614.651 338.016 624.797 343.808 630.232C349.604 635.668 356.484 636.39 370.244 635.122C384.004 633.854 404.645 630.592 428.908 627.513C453.172 624.434 481.055 621.535 502.963 619.182C524.871 616.828 540.804 615.014 550.582 611.03C560.36 607.046 563.98 600.884 563.62 600.705C563.258 600.525 558.913 606.32 558.913 609.219C558.913 612.118 563.258 612.118 571.948 612.118C580.638 612.118 593.676 612.118 603.996 612.844C614.317 613.57 621.922 615.018 627.264 615.877C632.605 616.737 635.682 617.008 640.527 617.688C645.372 618.368 651.981 619.453 656.914 619.861C661.847 620.27 665.108 619.995 666.872 619.136C668.636 618.276 668.911 616.825 668.502 615.694C668.094 614.563 667.009 613.746 665.65 613.203C664.291 612.661 662.664 612.39 661.259 612.206C659.854 612.027 658.678 611.935 658.136 612.569C657.594 613.203 657.685 614.563 658.995 615.602C660.309 616.645 662.844 617.367 664.608 617.413C666.372 617.459 667.368 616.825 667.868 616.053C668.365 615.282 668.365 614.377 667.46 613.471C666.555 612.566 664.745 611.66 662.256 610.889C659.766 610.117 656.597 609.483 653.429 608.807C650.26 608.127 647.091 607.401 644.555 606.408C642.02 605.411 640.119 604.143 637.404 603.012C634.689 601.881 631.158 600.884 627.718 600.342C624.278 599.799 620.929 599.708 619.39 600.025C617.852 600.342 618.123 601.067 620.838 601.293C623.552 601.518 628.714 601.247 634.056 602.29C639.397 603.333 644.918 605.686 650.939 607.859C656.96 610.033 663.478 612.027 669.044 613.158C674.611 614.288 679.231 614.563 682.896 614.743C686.562 614.923 689.28 615.014 690.681 614.155C692.086 613.295 692.174 611.484 691.857 610.17C691.54 608.856 690.815 608.043 689.547 607.542C688.28 607.046 686.47 606.862 684.702 606.412C682.938 605.957 681.217 605.235 680.266 605.552C679.315 605.869 679.136 607.229 679.769 608.451C680.403 609.674 681.85 610.762 683.843 611.484C685.836 612.21 688.371 612.573 689.681 611.801C690.995 611.03 691.086 609.128 689.139 607.408C687.192 605.686 683.21 604.146 679.09 603.466C674.97 602.787 670.717 602.97 666.326 602.424C661.935 601.881 657.407 600.613 652.837 599.524C648.267 598.436 643.647 597.531 639.619 596.763C635.591 595.991 632.151 595.357 629.887 594.815C627.623 594.272 626.538 593.818 629.433 594.36C632.33 594.903 639.21 596.442 646.453 597.802C653.696 599.162 661.302 600.338 668.227 601.606C675.153 602.875 681.4 604.234 685.653 605.094C689.907 605.954 692.171 606.316 693.801 606.225C695.431 606.133 696.428 605.591 696.745 604.731C697.061 603.872 696.699 602.691 695.748 601.969C694.797 601.244 693.259 600.972 691.674 600.839C690.09 600.701 688.459 600.701 687.6 601.247C686.741 601.79 686.65 602.878 687.509 603.646C688.368 604.418 690.181 604.869 691.991 604.96C693.801 605.052 695.611 604.78 695.973 604.009C696.336 603.238 695.248 601.969 693.03 601.064C690.812 600.159 687.463 599.616 684.023 599.116C680.583 598.619 677.051 598.165 672.481 597.351C667.911 596.537 662.294 595.357 657.228 594.589C652.157 593.818 647.633 593.458 643.105 592.866C638.577 592.278 634.052 591.461 632.197 591.056C630.341 590.647 631.154 590.647 634.323 591.056C637.492 591.464 643.013 592.278 648.084 593.05C653.154 593.821 657.77 594.543 662.206 595.177C666.643 595.812 670.896 596.354 672.664 595.945C674.428 595.537 673.706 594.18 672.21 593.455C670.717 592.729 668.453 592.641 666.914 592.866C665.375 593.092 664.562 593.638 664.787 594.36C665.013 595.086 666.28 595.991 667.819 596.262C669.358 596.534 671.168 596.171 671.439 595.311C671.71 594.452 670.442 593.092 667.861 592.278C665.28 591.464 661.39 591.19 657.45 590.556C653.513 589.921 649.527 588.925 645.453 587.748C641.379 586.571 637.214 585.212 632.869 584.577C628.524 583.943 623.996 584.035 619.243 583.535C614.489 583.034 609.51 581.949 603.76 580.635C598.011 579.321 591.493 577.782 583.12 575.563C574.747 573.343 564.515 570.444 555.916 568.996C547.314 567.548 540.346 567.548 520.745 566.368C501.143 565.192 468.915 562.835 445.739 560.21C422.563 557.582 408.441 554.687 401.74 555.772C395.039 556.857 395.765 561.93 395.944 571.533C396.124 581.132 395.765 595.262 389.075 606.676C382.388 618.089 369.374 626.784 360.773 630.257C352.171 633.731 347.984 631.976 346.343 629.26C344.702 626.541 345.607 622.859 342.741 617.607C339.875 612.354 333.234 605.531 334.865 603.537C336.495 601.543 346.393 604.382 353.695 608.338C360.998 612.295 365.706 617.367 373.853 614.285C382.001 611.206 393.589 599.975 401.011 588.924C408.434 577.874 411.694 567.006 408.617 561.391C405.539 555.775 396.124 555.412 390.874 550.34C385.624 545.267 384.536 535.484 381.279 519.001C378.019 502.515 372.589 479.328 367.882 462.482C363.174 445.636 359.192 435.128 355.206 417.556C351.223 399.984 347.238 375.35 343.435 357.595C339.632 339.844 336.012 328.973 331.305 321.363C326.597 313.754 320.805 309.407 322.432 312.123C324.062 314.839 333.115 324.622 343.389 328.606C353.664 332.59 365.163 330.78 378.244 331.685C391.325 332.59 405.993 336.215 416.039 345.089C426.088 353.967 431.521 368.096 433.694 379.869C435.866 391.643 434.782 401.062 428.623 405.593C422.468 410.123 411.24 409.76 402.187 405.23C393.135 400.7 386.254 392.005 389.152 388.564C392.05 385.122 404.722 386.933 412.69 382.948C420.659 378.964 423.916 369.181 422.468 360.847C421.021 352.515 414.863 345.628 415.046 342.007C415.226 338.385 421.747 338.023 423.556 340.739C425.366 343.455 422.472 349.253 414.504 350.158C406.536 351.064 393.501 347.08 382.638 346.354C371.776 345.628 363.082 348.165 360.188 355.231C357.29 362.298 360.188 373.891 367.248 386.027C374.311 398.163 385.536 410.845 398.208 415.372C410.884 419.902 425.007 416.277 434.785 419.177C444.563 422.076 449.993 431.496 456.33 437.837C462.668 444.178 469.911 447.436 472.626 456.856C475.341 466.276 473.531 481.854 470.453 498.157C467.376 514.46 463.031 531.489 458.7 541.948C454.369 552.411 450.056 556.304 451.003 558.569C451.95 560.83 458.161 561.465 464.404 562.049C470.647 562.634 476.929 563.173 479.059 557.287C481.189 551.4 479.171 539.088 477.439 522.246C475.707 505.403 474.256 484.027 473.534 466.998C472.809 449.969 472.809 437.291 476.249 421.709C479.689 406.132 486.569 387.655 489.83 373.525C493.09 359.395 492.728 349.612 487.837 341.281C482.95 332.95 473.534 326.063 466.291 311.933C459.049 297.803 453.978 276.427 451.806 258.493C449.633 240.558 450.359 226.066 446.01 211.214C441.665 196.358 432.25 181.143 425.37 165.562C418.49 149.984 414.145 134.04 418.127 118.283C422.109 102.522 434.422 86.9444 447.461 77.1617C460.496 67.379 474.26 63.3948 489.104 66.4737C503.953 69.5526 519.885 79.6981 530.385 94.5536C540.889 109.409 545.955 128.971 549.395 142.379C552.835 155.786 554.645 163.029 547.586 167.376C540.526 171.723 524.59 173.171 514.452 180.78C504.312 188.39 499.967 202.157 503.407 215.381C506.847 228.605 518.072 241.284 528.392 244.729C538.713 248.171 548.128 242.376 553.198 231.868C558.268 221.359 558.994 206.144 558.811 194.551C558.631 182.957 557.543 174.985 558.268 178.973C558.994 182.957 561.529 198.901 561.888 216.473C562.251 234.045 560.441 253.247 558.448 267.377C556.455 281.507 554.283 290.564 549.033 295.637C543.783 300.709 535.452 301.794 526.942 294.368C518.431 286.942 509.741 271.002 499.421 257.052C489.101 243.102 477.15 231.145 472.443 235.859C467.735 240.569 470.27 261.945 476.971 281.87C483.671 301.798 494.534 320.275 506.122 329.512C517.709 338.752 530.023 338.752 538.892 333.316C547.765 327.881 553.195 317.013 555.913 307.05C558.628 297.088 558.628 288.031 558.811 293.826C558.99 299.621 559.353 320.275 560.983 334.947C562.613 349.619 565.511 358.314 564.603 365.38C563.698 372.447 558.99 377.879 553.92 380.599C548.85 383.315 543.42 383.315 543.237 378.246C543.058 373.173 548.124 363.027 552.832 357.232C557.54 351.434 561.885 349.986 563.152 355.964C564.42 361.942 562.61 375.346 559.533 393.464C556.455 411.578 552.11 434.402 546.857 456.867C541.607 479.328 535.449 501.43 527.48 519.392C519.512 537.355 509.731 551.175 508.305 558.315C506.879 565.456 513.808 565.914 531.737 564.801C549.663 563.687 578.588 561 603.553 554.042C628.517 547.085 649.52 535.851 668.893 525.346C688.266 514.841 706.012 505.058 727.195 497.086C748.377 489.114 773.004 482.956 791.109 477.883C809.214 472.811 820.802 468.826 820.985 471.542C821.164 474.258 809.939 483.678 795.454 492.919C780.968 502.159 763.226 511.216 743.307 521.904C723.388 532.592 701.301 544.911 682.53 555.627C663.759 566.344 648.309 575.464 648.672 578.543C649.034 581.622 665.206 578.663 686.15 578.088C707.093 577.514 732.804 579.325 750.729 577.877C768.655 576.429 778.796 571.719 795.633 553.059C812.471 534.399 836.009 501.792 851.762 478.063C867.516 454.334 875.48 439.478 877.473 428.248C879.466 417.017 875.48 409.408 870.956 403.609C866.431 397.811 861.361 393.827 854.84 390.565C848.322 387.303 840.354 384.77 828.404 385.312C816.453 385.855 800.521 389.48 774.81 398.353C749.099 407.231 713.61 421.361 681.199 431.503C648.788 441.648 619.457 447.806 597.729 452.336C576 456.867 561.878 459.762 555.36 459.403C548.843 459.04 549.927 455.419 554.272 457.592C558.617 459.766 566.223 467.738 570.205 480.053C574.187 492.373 574.55 509.039 587.588 515.376C600.623 521.717 626.334 517.729 653.858 506.862C681.379 495.994 710.713 478.239 723.931 464.472C737.149 450.705 734.251 440.923 729.001 433.497C723.751 426.071 716.146 420.998 711.075 410.31C706.005 399.622 703.47 383.318 698.22 369.551C692.97 355.784 685.002 344.554 677.579 335.676C670.157 326.799 663.277 320.278 653.862 309.773C644.446 299.265 632.496 284.776 624.169 274.268C615.841 263.759 611.134 257.238 604.433 241.84C597.732 226.442 589.043 202.167 580.895 180.432C572.747 158.693 565.142 139.49 554.821 120.291C544.501 101.088 531.466 81.8858 516.076 70.4755C500.685 59.0618 482.943 55.4404 465.739 55.8032C448.538 56.166 431.88 60.5131 417.215 67.3966C402.55 74.2801 389.874 83.7 380.642 89.3153C371.406 94.9306 365.614 96.7413 362.716 97.6466C359.818 98.552 359.818 98.552 357.554 95.1102C355.29 91.6685 350.762 84.785 345.329 74.3682C339.896 63.9513 333.558 50.0047 323.784 38.6826C314.006 27.3604 300.788 18.6662 288.749 12.3252C276.707 5.98425 265.845 2 254.708 2C243.574 2 232.166 5.98424 226.37 9.60917C220.575 13.2306 220.395 16.4926 219.761 18.3033C219.128 20.1141 218.04 20.4769 218.131 18.7543C218.223 17.0316 219.49 13.2306 218.311 11.7792C217.135 10.3313 213.511 11.2367 208.895 13.3186C204.279 15.4006 198.667 18.6627 194.681 22.2841C190.699 25.9055 188.343 29.8933 188.706 33.335C189.068 36.7767 192.146 39.676 192.146 41.4867C192.146 43.2974 189.068 44.0231 188.163 42.3004C187.258 40.5778 188.526 36.4139 187.258 35.1457C185.991 33.8775 182.188 35.5085 179.653 38.4958C177.118 41.4832 175.85 45.8338 176.213 47.19C176.576 48.5498 178.565 46.9188 179.924 47.5529C181.283 48.187 182.005 51.0862 182.91 51.5371C183.815 51.9916 184.903 49.9977 184.269 48.4582C183.635 46.9188 181.283 45.8302 178.565 47.3697C175.85 48.9091 172.769 53.0766 169.692 58.4206C166.615 63.7646 163.537 70.2853 160.185 75.4497C156.837 80.614 153.213 84.4151 150.861 91.1189C148.506 97.8227 147.421 107.422 149.231 114.214C151.041 121.006 155.749 124.994 160.094 129.341C164.439 133.688 168.421 138.398 175.664 140.3C182.906 142.203 193.41 141.297 201.283 139.575C209.159 137.852 214.409 135.319 214.592 134.051C214.772 132.783 209.885 132.783 204.635 133.508C199.385 134.234 193.772 135.682 189.515 133.417C185.262 131.152 182.364 125.174 181.91 124.177C181.456 123.18 183.449 127.164 190.963 129.429C198.477 131.694 211.512 132.237 220.568 135.499C229.62 138.761 234.691 144.739 238.493 150.442C242.296 156.149 244.831 161.581 250.352 165.298C255.873 169.011 264.384 171.005 269.362 172.002C274.341 172.999 275.792 172.999 278.598 169.828C281.404 166.658 285.57 160.317 287.742 154.793C289.915 149.269 290.094 144.559 291.274 140.663C292.45 136.767 294.622 133.688 298.337 131.698C302.048 129.704 307.298 128.798 311.918 129.887C316.534 130.975 320.52 134.054 322.421 138.401C324.323 142.749 324.143 148.364 322.963 152.711C321.787 157.058 319.615 160.137 319.161 163.307C318.706 166.478 319.974 169.736 318.347 172.093C316.717 174.446 312.193 175.898 309.112 175.443C306.034 174.989 304.404 172.636 304.496 170.554C304.587 168.472 306.397 166.658 308.932 165.389C311.467 164.121 314.728 163.396 316.809 160.045C318.89 156.695 319.795 150.717 319.073 146.37C318.347 142.023 315.995 139.303 312.193 137.855C308.39 136.408 303.14 136.224 299.879 138.127C296.619 140.029 295.355 144.013 296.619 147.547C297.886 151.08 301.689 154.159 302.865 156.787C304.041 159.415 302.594 161.588 300.964 160.771C299.334 159.957 297.524 156.153 295.351 151.622C293.179 147.092 290.644 141.84 291.006 137.672C291.369 133.505 294.626 130.426 299.334 128.795C304.041 127.164 310.196 126.984 315.538 129.158C320.879 131.331 325.407 135.862 330.023 136.041C334.639 136.221 339.347 132.057 343.421 127.347C347.495 122.637 350.935 117.385 352.928 110.952C354.921 104.523 355.463 96.9139 356.276 96.0085C357.09 95.1032 358.178 100.898 363.065 104.34C367.952 107.782 376.645 108.87 383.254 109.955C389.863 111.04 394.392 112.129 394.751 118.561C395.113 124.99 391.311 136.767 385.607 147.184C379.902 157.601 372.297 166.658 363.065 172.999C353.829 179.34 342.967 182.961 334.998 187.037C327.03 191.113 321.963 195.643 317.435 200.353C312.907 205.063 308.925 209.952 304.126 214.662C299.327 219.372 293.714 223.903 288.915 227.344C284.116 230.786 280.133 233.139 275.968 234.048C271.803 234.953 267.458 234.411 264.109 232.96C260.76 231.512 258.405 229.155 255.961 228.07C253.518 226.981 250.983 227.165 248.902 227.256C246.821 227.348 245.19 227.348 244.102 226.08C243.014 224.811 242.472 222.275 242.201 221.007C241.93 219.739 241.93 219.739 240.888 219.784C239.845 219.83 237.764 219.918 235.909 219.105C234.053 218.291 232.423 216.568 231.339 215.074C230.293 213.588 229.747 212.32 228.708 211.552C227.666 210.78 226.127 210.509 225.719 208.878C225.311 207.247 226.036 204.26 226.895 202.266C227.754 200.272 228.751 199.278 230.155 199.867C231.557 200.455 233.37 202.629 234.184 204.485C234.997 206.342 234.817 207.881 233.37 208.741C231.923 209.6 229.205 209.783 226.899 210.417C224.589 211.052 222.687 212.14 221.103 213.045C219.518 213.951 218.251 214.676 216.621 214.176C214.99 213.679 212.997 211.957 211.233 210.055C209.469 208.152 207.931 206.07 207.476 202.128C207.026 198.19 207.659 192.395 207.026 188.59C206.392 184.786 204.491 182.975 205.35 182.024C206.209 181.073 209.832 180.981 214.719 180.439C219.606 179.896 225.765 178.899 230.201 178.628C234.638 178.357 237.353 178.808 236.627 179.442C235.902 180.076 231.74 180.89 227.846 181.887C223.951 182.883 220.332 184.06 217.888 184.014C215.445 183.968 214.177 182.7 214.131 181.841C214.085 180.981 215.261 180.527 216.575 181.661C217.888 182.792 219.335 185.511 220.511 187.46C221.687 189.408 222.592 190.584 222.504 191.581C222.413 192.578 221.328 193.392 222.008 193.621C222.687 193.846 225.131 193.483 227.17 192.849C229.208 192.215 230.835 191.31 232.691 189.545C234.546 187.78 236.627 185.152 236.222 184.789C235.814 184.426 232.92 186.329 230.113 187.734C227.307 189.14 224.592 190.045 221.24 189.999C217.892 189.954 213.906 188.957 211.054 187.555C208.202 186.149 206.483 184.338 203.36 181.714C200.237 179.086 195.709 175.644 191.906 172.069C188.104 168.489 185.026 164.776 183.297 159.609C181.568 154.437 181.192 147.811 181.329 145.232C181.466 142.65 182.114 144.115 183.889 145.842C185.663 147.571 188.558 149.562 198.836 154.272C209.107 158.971 226.761 166.397 236.585 175.003C246.409 183.609 248.398 193.388 251.296 201.226C254.194 209.061 257.993 214.948 264.824 218.682C271.655 222.416 281.51 224.001 292.101 220.38C302.693 216.758 314.023 207.927 323.263 202.833C332.502 197.739 339.657 196.379 347.079 196.742C354.502 197.105 362.199 199.187 366.181 201.043C370.163 202.9 370.434 204.531 366.952 204.802C363.466 205.073 356.223 203.988 348.801 203.943C341.379 203.897 333.773 204.894 325.946 207.198C318.118 209.501 310.066 213.116 302.643 217.466C295.221 221.814 288.429 226.897 283.63 231.61C278.831 236.324 276.021 240.671 278.235 248.46C280.454 256.249 287.697 267.479 295.799 275.768C303.9 284.057 312.865 289.401 319.245 291.529C325.629 293.657 329.432 292.572 333.505 295.742C337.579 298.913 341.924 306.339 349.431 313.043C356.938 319.746 367.607 325.725 377.836 327.898C388.064 330.072 397.856 328.441 407.37 330.797C416.884 333.151 426.116 339.492 433.813 345.382C441.507 351.268 447.665 356.704 456.447 359.783C465.228 362.862 476.636 363.587 483.425 361.865C490.214 360.142 492.386 355.978 488.766 349.729C485.147 343.479 475.731 335.144 467.401 329.804C459.073 324.46 451.831 322.107 446.852 315.583C441.873 309.062 439.158 298.374 432.275 290.944C425.394 283.518 414.349 279.351 404.846 271.925C395.342 264.499 387.374 253.811 377.688 250.186C368.001 246.564 356.593 250.006 349.984 256.798C343.375 263.59 341.565 273.736 336.858 280.077C332.15 286.418 324.544 288.954 323.006 292.575C321.467 296.197 325.992 300.907 331.252 307.35C336.512 313.793 342.505 321.966 347.537 326.253C352.568 330.54 356.635 330.942 360.702 331.343L185.477 200.998Z" stroke="#E5E5E5" stroke-width="4" stroke-miterlimit="22.9256"/>
</svg>
