<svg viewBox="0 0 917 740" fill="none" xmlns="http://www.w3.org/2000/svg">
<path class="result-two-four-svg" stroke="#E5E5E5" stroke-width="3" style="stroke-dasharray: 19015; stroke-dashoffset: 19015;" fill="transparent" d="M916.952 406.25C900.755 429.123 885.469 450.735 862.175 468.068C840.873 483.927 812.231 491.885 785.579 489.395C773.317 488.25 761.754 484.013 750.555 479.92C742.016 476.799 733.948 473.851 725.682 472.205C705.047 468.083 677.469 472.978 660.132 483.827C656.394 486.16 649.724 493.302 642.658 500.874C631.49 512.839 622.115 522.515 614.639 527.496C613.788 532.992 611.844 538.36 609.959 543.584C608.698 547.062 607.513 550.354 606.632 553.675C603.881 563.98 604.991 569.004 607.984 580.383C609.549 586.351 609.944 592.334 610.324 598.117C610.658 603.097 610.992 608.25 612.087 613.26C613.12 617.997 616.432 623.479 619.623 628.775C624.653 637.134 629.864 645.765 627.069 652.807C625.488 656.786 621.629 659.734 615.277 661.838C605.431 665.087 592.85 666.561 580.679 667.978C572.109 668.98 563.236 670.011 555.578 671.657L554.241 671.943C547.433 673.417 541.006 674.82 536.356 672.029C535.475 671.499 534.685 670.841 534.001 670.04C515.874 672.673 497.838 675.063 479.27 677.525C471.733 678.527 464.121 679.529 456.417 680.56C433.534 683.637 411.016 687.773 393.937 691.022C392.144 691.366 390.093 691.867 387.935 692.382C387.479 692.497 387.023 692.597 386.567 692.711C418.112 690.836 449.853 687.487 480.941 682.707C498.537 680.016 515.935 678.026 532.755 676.094C546.628 674.505 560.972 672.874 575.437 670.841C584.706 669.539 593.975 668.279 603.243 667.034C637.857 662.353 673.655 657.501 709.272 649.987C712.402 649.329 715.501 648.685 718.586 648.055C735.801 644.519 752.075 641.185 768.394 634.643C770.719 633.713 773.94 632.21 777.648 630.478C794.392 622.663 819.691 610.841 829.735 619.2C830.282 619.658 830.449 620.402 830.145 621.046C823.703 634.2 806.122 650.975 790.989 658.417C779.137 664.243 763.167 665.66 747.699 667.034C742.031 667.535 736.683 668.007 731.744 668.694C681.192 675.65 160.137 738.441 139.214 739.515C137.36 739.615 135.354 739.658 133.227 739.658C115.616 739.658 89.8158 736.209 77.0826 725.803C76.9307 725.674 76.7939 725.517 76.7028 725.345C73.8158 720.149 73.3752 716.571 75.3353 714.41C78.6477 710.746 87.0504 713.007 96.1064 715.87C97.2916 716.242 98.3552 716.586 99.2061 716.829C110.298 719.978 120.6 720.708 134.777 719.348C176.334 715.383 217.39 709.572 263.947 701.027C280.053 698.079 280.022 692.225 279.977 683.365C279.946 677.912 279.916 671.729 283.654 665.159C287.665 658.102 295.612 653.107 305.458 651.461C316.809 649.572 328.493 652.263 335.939 658.503C338.917 661.008 340.68 664.83 342.381 668.522C344.417 672.945 346.332 677.124 350.009 678.599C351.301 679.114 352.455 679.372 353.474 679.372C353.474 679.329 353.474 679.286 353.474 679.243C353.337 676.352 353.2 673.346 351.984 670.054C347.684 658.374 338.917 656.127 328.752 653.522C321.641 651.705 314.302 649.815 307.965 644.505C301.265 638.88 301.979 632.224 302.678 625.784C303.012 622.692 303.362 619.5 302.936 616.323C301.933 608.766 298.317 603.241 294.473 597.387C292.816 594.853 291.099 592.234 289.504 589.343C285.66 582.344 279.141 556.365 286.966 550.697C290.248 548.321 295.035 549.781 301.189 555.034C308.33 561.132 312.129 570.278 315.791 579.109C319.346 587.682 323.039 596.528 329.739 602.897C337.018 609.796 342.792 613.102 346.894 612.716C348.763 612.544 350.283 611.571 351.559 609.753C354.4 605.702 350.693 595.698 348.247 589.071C347.259 586.408 346.408 584.104 345.998 582.372C345.709 581.17 345.344 579.753 344.949 578.178C341.698 565.44 335.665 541.737 343.718 530.402C346.18 526.924 349.781 524.82 354.4 524.147C359.369 523.417 364.809 525.335 370.081 527.238C369.838 523.717 369.458 520.297 368.926 516.976C366.708 517.047 364.505 516.79 362.302 516.203C349.553 512.839 340.512 499.786 336.638 489.624C332.642 479.161 332.231 473.636 335.24 471.146C337.504 469.271 341.257 469.643 346.712 472.291C354.689 476.155 362.013 484.657 366.313 495.02C368.698 500.759 370.507 506.943 371.737 513.526C375.354 512.882 378.925 511.222 382.45 508.546C395.927 498.269 402.811 475.296 403.145 456.647C398.237 454.857 393.527 452.868 389.059 450.792C361.755 438.068 297.846 408.268 276.528 447.515C268.794 461.742 272.653 480.721 276.057 497.453C276.938 501.804 277.774 505.926 278.397 509.834C281.496 529.629 278.473 548.822 268.596 572.081C257.063 599.247 240.349 612.587 214.397 615.335C188.915 618.04 163.692 613.947 145.185 604.114C132.71 597.487 122.408 587.496 112.441 577.835C106.834 572.396 101.029 566.771 95.0124 561.962C76.6268 547.248 58.0741 537.945 32.9573 530.831C1.85388 522.029 -31.6199 523.732 -75.5781 536.384C-107.943 545.702 -136.98 554.791 -164.497 571.781C-184.691 584.247 -201.572 598.446 -218.499 613.117C-222.586 616.652 -227.297 619.615 -231.855 622.463C-237.158 625.784 -242.172 628.918 -246.244 632.897C-246.883 633.513 -247.946 633.541 -248.615 632.926C-249.283 632.325 -249.299 631.323 -248.66 630.707C-244.33 626.485 -238.936 623.107 -233.724 619.844C-229.272 617.053 -224.668 614.176 -220.778 610.798C-203.73 596.041 -186.757 581.742 -166.336 569.147C-138.454 551.928 -109.173 542.754 -76.5657 533.364C-46.5259 524.719 -6.80707 516.275 33.9146 527.797C59.5024 535.039 78.4198 544.529 97.17 559.543C103.293 564.452 109.159 570.12 114.826 575.617C124.627 585.12 134.762 594.939 146.811 601.337C164.467 610.712 189.584 614.763 214.017 612.172C238.587 609.567 254.465 596.828 265.481 570.879C275.13 548.164 278.093 529.471 275.084 510.263C274.476 506.427 273.656 502.334 272.775 498.011C269.265 480.778 265.299 461.241 273.55 446.041C296.357 404.032 362.362 434.791 390.533 447.93C394.545 449.791 398.754 451.58 403.114 453.211C403.099 452.496 403.069 451.794 403.023 451.093C402.886 448.603 402.613 446.27 402.218 444.08C392.676 442.162 384.501 437.854 379.259 429.924C374.883 423.311 373.576 413.421 372.695 402.586C372.193 402.071 371.677 401.541 371.16 400.997C369.169 398.922 366.769 396.589 364.231 394.113C351.787 382.004 334.754 365.43 336.501 350.172C336.577 349.456 337.17 348.884 337.929 348.784C348.11 347.395 355.905 348.869 361.755 353.321C373.029 361.894 374.351 379.628 375.612 396.775C375.718 398.292 375.84 399.781 375.946 401.269C378.089 403.445 380.186 405.506 382.237 407.51C392.904 417.958 401.701 426.575 405.044 441.246C429.705 445.182 464.744 434.018 484.71 425.029L487.293 423.87C497.975 419.089 510.267 413.564 520.584 406.422C531.524 379.943 533.181 348.025 518.411 327.414C500.269 302.094 448.455 319.771 414.176 331.479C407.46 333.769 401.671 335.744 396.809 337.176C382.191 341.455 354.978 349.442 338.659 342.114C330.712 338.55 326.108 331.508 321.671 324.695C317.356 318.082 313.284 311.827 306.431 308.707C301.888 314.232 310.275 323.65 317.082 331.279C320.06 334.628 322.643 337.519 324.026 339.909C324.239 340.282 324.284 340.74 324.148 341.14C324.011 341.555 323.692 341.885 323.282 342.071C312.813 346.808 303.802 337.047 295.096 327.615C288.243 320.186 281.162 312.514 273.458 311.441C274.78 316.379 279.278 320.272 284.003 324.365C289.732 329.332 295.658 334.456 296.326 341.97C296.387 342.729 295.886 343.416 295.096 343.616C280.311 347.409 260.664 343.488 243.327 340.01C238.283 338.993 233.512 338.049 229.166 337.347C219.35 335.773 208.137 332.395 198.458 329.289C193.869 327.815 189.569 325.482 185.421 323.235C181.196 320.945 176.82 318.569 172.308 317.238C166.397 315.477 160.076 315.162 153.968 314.876C140.946 314.232 127.468 313.573 119.856 298.13C119.111 296.627 118.61 294.222 118.047 291.445C116.771 285.305 114.963 276.889 110.055 276.975C107.928 277.018 106.515 277.533 105.877 278.507C103.871 281.512 107.669 289.27 110.192 294.408C112.228 298.573 113.383 301.007 113.367 302.738C113.322 306.446 112.106 308.936 109.751 310.153C103.916 313.144 92.9611 306.689 84.1481 301.508C81.9601 300.219 79.8937 299.003 78.2375 298.144C73.7398 295.797 68.133 294.437 62.2071 292.991C52.1938 290.558 41.831 288.039 36.4217 280.31C35.9203 279.58 36.1179 278.607 36.8928 278.134C42.0134 274.928 48.0153 275.873 53.8196 276.803C56.1596 277.175 58.5452 277.548 60.8548 277.648C60.87 276.932 60.8548 276.231 60.8244 275.486C48.775 270.534 35.8444 264.036 29.7513 253.616C29.4626 253.129 29.4778 252.528 29.7817 252.042C30.0855 251.555 30.6478 251.24 31.2404 251.283C32.2888 251.297 33.2157 251.254 34.0362 251.212C34.4464 251.183 34.8415 251.169 35.2214 251.154C31.8026 247.805 28.7332 244.155 27.7912 239.36C27.6848 238.831 27.8824 238.287 28.2926 237.929C28.7029 237.557 29.2954 237.428 29.8425 237.557C34.3097 238.645 38.549 240.863 42.6667 243.01C43.6088 243.511 44.5661 244.012 45.5385 244.499C45.0523 244.069 44.5661 243.654 44.0798 243.239C40.4939 240.162 36.7864 236.97 36.2242 232.719C36.1179 231.946 36.6345 231.231 37.4246 231.016C44.0038 229.227 48.8054 233.091 53.4398 236.841C55.1264 238.201 56.7522 239.518 58.4236 240.534C57.3296 238.144 56.9193 235.768 57.2536 233.592C57.6639 230.916 59.153 228.697 61.6753 226.965C62.2679 226.564 63.0732 226.564 63.6506 226.98C70.0779 231.503 74.6059 237.757 78.982 243.797C85.4701 252.743 91.5784 261.188 103.461 264.895C108.946 266.598 114.735 266.183 120.858 265.754C126.101 265.381 131.525 264.981 136.782 266.054C141.797 267.07 146.431 269.389 150.898 271.636C155.062 273.726 158.997 275.701 163.145 276.646C175.468 279.465 188.034 278.235 200.175 277.047C210.765 276.016 221.736 274.943 232.554 276.531C238.845 277.447 244.3 280.21 249.572 282.872C253.523 284.876 257.626 286.937 261.986 288.168C270.784 290.644 278.944 289.299 287.589 287.882C289.458 287.581 291.343 287.266 293.242 286.994C303.24 285.563 311.247 287.266 318.997 288.926C329.542 291.174 338.643 293.106 351.133 287.094C351.726 286.808 352.44 286.88 352.942 287.28C358.685 291.674 363.35 297.285 367.848 302.724C373.53 309.566 378.894 316.035 386.112 320.029C394.134 324.466 403.388 325.31 411.471 322.347C414.358 321.288 416.987 319.8 419.297 317.925C403.631 324.795 386.826 319.055 370.431 301.135C368.805 299.361 366.799 297.385 364.687 295.31C354.112 284.933 339.631 270.735 350.906 257.81C361.906 245.214 380.824 244.67 397.523 244.198C401.063 244.098 404.452 243.998 407.566 243.783C403.646 236.598 399.422 232.576 394.681 231.531C386.75 229.785 376.964 236.512 366.814 244.155C366.191 244.628 365.325 244.613 364.717 244.141C361.04 241.293 356.771 244.155 351.133 248.492C347.365 251.398 344.098 253.917 341.181 252.557C338.385 251.254 337.367 246.903 337.686 237.514C338.081 225.706 348.003 201.216 362.362 198.239C363.244 198.053 364.125 198.568 364.353 199.398C364.429 199.699 364.505 199.999 364.581 200.3C366.313 200.014 368.622 199.184 370.871 198.396C376.25 196.479 381.812 194.503 385.473 196.922C387.266 198.096 388.254 200.1 388.482 202.991C394.241 202.762 401.489 202.805 406.898 206.512C407.445 206.884 407.688 207.528 407.551 208.129C406.518 212.366 409.8 217.705 412.961 222.886C414.206 224.933 415.392 226.865 416.319 228.74C417.139 230.4 417.732 232.376 418.37 234.465C419.206 237.242 420.072 240.105 421.439 241.965C422.351 243.211 423.916 243.983 425.557 244.799C427.715 245.858 430.161 247.075 431.604 249.594C435.661 256.636 433.473 262.361 431.376 267.901C430.115 271.235 428.915 274.399 428.961 277.891C429.006 281.04 429.857 284.089 430.769 287.323C432.197 292.404 433.656 297.657 432.121 303.755C437.09 296.827 438.959 288.554 440.919 279.981C442.073 274.857 443.289 269.561 445.204 264.58C446.905 260.143 448.577 258.368 450.674 256.121C451.449 255.291 452.239 254.446 453.135 253.358C454.381 251.856 456.159 251.67 457.572 251.512C458.833 251.383 459.639 251.269 460.201 250.668C460.93 249.866 460.976 249.079 460.976 247.748C460.976 246.503 460.976 244.942 462.115 243.511C463.194 242.151 463.832 240.82 464.455 239.546C465.61 237.142 466.826 234.666 470.639 232.562C472.919 231.302 475.016 232.003 476.687 232.562C478.662 233.22 480.227 233.735 482.674 232.089C486.472 229.527 488.22 224.274 490.058 218.721C491.684 213.826 493.371 208.773 496.683 205.41C499.099 202.962 502.731 201.717 505.937 200.615C507.958 199.914 509.887 199.27 510.693 198.525C513.473 195.992 514.187 194.031 515.281 191.068C515.722 189.866 516.223 188.52 516.922 186.946C520.128 179.747 524.064 177.013 528.212 174.122C530.567 172.49 532.983 170.801 535.612 168.139C538.955 164.761 540.96 160.166 543.088 155.3C544.607 151.822 546.187 148.229 548.284 145.123C555.38 134.661 564.618 125.486 573.553 116.612C578.932 111.273 584.493 105.734 589.416 100.08C600.204 87.6708 604.748 74.6889 609.549 60.9484C611.008 56.7833 612.512 52.4894 614.214 48.1382C614.958 46.2203 616.113 44.6029 617.238 43.0428C618.423 41.3968 619.532 39.8367 620.033 38.1048C620.717 35.7718 620.474 33.7536 620.201 31.6067C619.942 29.4454 619.638 26.9836 620.322 24.078C622.343 15.4329 630.806 7.71822 637.431 3.7392C638.191 3.28118 639.209 3.48155 639.726 4.1972C640.06 4.66953 640.622 5.09893 641.26 5.58557C641.792 5.98633 642.385 6.44436 642.962 7.00257C643.691 6.31554 644.497 5.64282 645.348 4.95579C646.958 3.62468 648.615 2.23633 649.389 0.948159C649.648 0.518768 650.119 0.21819 650.635 0.160938C651.167 0.103686 651.684 0.275437 652.049 0.647576C656.926 5.49969 652.216 15.4186 648.417 23.3767C647.779 24.7078 647.171 26.0103 646.654 27.1696C647.764 26.3824 648.888 25.9387 649.936 25.5379C650.818 25.1944 651.654 24.8652 652.444 24.3357C652.991 23.9778 653.72 23.9635 654.297 24.307C654.86 24.6505 655.163 25.266 655.057 25.8958C654.069 31.4063 654.085 38.3767 654.1 45.7623C654.13 64.7127 654.161 86.1823 637.644 94.4695C637.234 94.6699 636.747 94.7128 636.307 94.5697C635.866 94.4266 635.502 94.1117 635.319 93.6966C634.377 91.6069 633.693 88.9733 632.964 86.1966C631.126 79.1403 629.226 71.8549 623.088 70.5954C621.523 76.5496 622.89 82.1603 624.333 88.0716C626.354 96.3445 628.436 104.904 621.993 114.365C617.42 121.077 612.132 127.017 607.012 132.786C602.423 137.938 597.697 143.263 593.443 149.16C587.806 156.975 584.174 166.264 580.649 175.252C578.263 181.335 575.817 187.619 572.732 193.501C570.362 198.01 568.417 203.206 566.366 208.702C562.43 219.222 558.343 230.114 550.791 237.299C550.381 237.686 549.788 237.843 549.226 237.729C548.664 237.614 548.208 237.228 548.011 236.712C545.109 228.84 546.993 219.093 548.801 209.661C549.652 205.224 550.457 201.044 550.746 197.208C551.308 189.594 550.32 187.59 550.001 187.161C548.36 187.819 544.425 194.231 542.647 202.576C541.082 209.961 540.748 219.494 540.398 229.599C539.73 249.036 539.031 269.131 529.792 280.653C529.519 280.997 529.093 281.226 528.637 281.269C528.182 281.312 527.726 281.183 527.361 280.897C521.116 275.83 522.484 262.691 523.942 248.793C525.31 235.668 526.723 222.142 521.222 217.848C505.906 256.107 523.654 299.547 537.952 334.556L538.286 335.372C545.61 353.306 552.326 374.032 539.289 393.054C535.186 399.037 529.58 404.146 523.243 408.612C518.579 419.69 512.334 429.795 504.995 437.753C475.122 470.201 437.378 468.383 406.442 457.892C405.834 477.114 398.541 500.401 384.547 511.079C380.611 514.085 376.463 515.96 372.269 516.704C372.862 520.511 373.287 524.462 373.515 528.527C377.025 529.729 380.566 530.745 383.863 530.774C388.467 530.802 392.767 530.459 396.945 530.115C402.841 529.629 408.417 529.156 414.617 529.758C424.66 530.731 434.643 532.72 444.292 534.653C455.901 536.971 467.92 539.376 479.878 539.934C489.283 540.378 499.692 540.607 509.629 539.877C514.096 537.458 517.849 534.395 520.432 530.516C526.374 521.599 527.164 510.077 527.939 498.942C528.531 490.354 529.139 481.494 532.117 473.836C532.299 473.378 532.512 472.806 532.755 472.119C536.919 460.912 541.614 450.621 547.98 450.764C550.594 450.85 552.66 451.823 554.134 453.655C558.586 459.223 556.17 471.06 553.572 480.764L553.42 481.336C551.308 489.28 547.798 497.381 544.41 505.225C540.444 514.385 536.356 523.861 534.594 532.906C534.442 533.651 534.336 534.366 534.275 535.068C536.979 534.037 539.471 532.82 541.72 531.375C557.705 521.112 570.271 495.592 577.017 481.88C578.871 478.102 581.485 473.908 584.25 469.457C591.635 457.591 600.007 444.137 597.773 433.03C596.573 427.033 592.941 422.424 586.985 419.332C576.379 413.822 561.002 414.609 551.293 418.216C532.922 425.058 522.818 439.256 512.121 454.285L510.753 456.188C497.625 474.595 479.589 495.678 468.315 491.628C467.646 491.384 467.221 490.783 467.236 490.11C467.449 482.224 475.152 477 481.96 472.377C484.846 470.416 487.566 468.569 489.375 466.737C494.206 461.842 497.99 455.63 501.637 449.633C503.445 446.656 505.314 443.579 507.289 440.73C521.663 419.862 533.363 408.612 557.371 404.962C585.253 400.726 600.28 407.61 610.977 429.495C618.392 444.652 616.599 460.983 614.852 476.785C614.305 481.709 613.758 486.804 613.484 491.756C613.211 497.067 613.743 502.362 614.244 507.486C614.761 512.61 615.293 517.892 615.019 523.245C622.753 517.362 632.341 507.1 640.105 498.784C647.627 490.726 654.13 483.77 658.233 481.208C676.254 469.929 704.896 464.848 726.32 469.127C734.859 470.831 743.429 473.965 751.71 477C762.696 481.007 774.046 485.172 785.853 486.275C811.668 488.693 839.399 480.964 860.048 465.606C882.931 448.588 898.08 427.176 914.126 404.504L916.952 406.25ZM79.529 723.628C91.624 733.275 119.141 737.397 139.046 736.38C159.939 735.307 680.736 672.544 731.273 665.588C736.303 664.901 741.697 664.415 747.41 663.914C762.544 662.568 778.195 661.18 789.454 655.641C803.6 648.685 819.934 633.312 826.544 620.889C817.351 615.478 793.572 626.585 779.152 633.327C775.384 635.087 772.132 636.604 769.716 637.578C753.093 644.233 736.683 647.611 719.3 651.175C716.216 651.805 713.131 652.435 710.001 653.093C674.263 660.636 638.404 665.488 603.729 670.183C594.476 671.442 585.207 672.687 575.938 673.99C561.428 676.037 547.053 677.668 533.166 679.257C516.375 681.175 499.008 683.165 481.473 685.841C448.957 690.822 415.756 694.286 382.784 696.104C381.903 696.189 381.128 695.545 381.021 694.715C380.991 694.472 380.961 694.243 380.945 694C374.001 695.402 366.678 696.089 361.116 693.198C355.479 690.264 354.142 686.557 353.701 682.535C352.288 682.535 350.632 682.277 348.718 681.504C343.81 679.543 341.53 674.591 339.327 669.782C337.777 666.39 336.167 662.897 333.736 660.851C327.141 655.311 316.277 652.85 306.051 654.553C297.223 656.027 290.127 660.435 286.602 666.633C283.259 672.501 283.289 678.269 283.32 683.336C283.365 692.239 283.411 700.655 264.585 704.105C217.922 712.664 176.79 718.503 135.111 722.468C120.463 723.857 109.766 723.098 98.2336 719.835C97.3523 719.577 96.2583 719.233 95.0275 718.847C90.1501 717.301 79.9848 714.081 77.8576 716.442C77.4625 716.929 76.7788 718.575 79.529 723.628ZM356.999 681.819C357.318 685.455 358.275 688.103 362.742 690.436C367.468 692.897 374.26 692.153 380.748 690.808C380.672 687.802 380.915 684.796 381.356 681.791C379.547 685.183 377.116 687.759 374.108 688.002C370.643 688.289 367.696 685.44 365.31 679.572C364.095 676.552 363.502 673.36 363.183 670.097C362.955 674.104 361.785 678.012 359.187 680.388C358.609 680.917 357.88 681.433 356.999 681.819ZM364.717 598.761C366.632 600.822 368.607 602.84 370.552 604.829C379.502 613.961 388.755 623.408 391.126 636.805C392.98 647.253 390.366 657.616 387.829 667.635C385.868 675.378 384.015 682.764 384.075 690.063C385.109 689.82 386.127 689.577 387.099 689.333C389.318 688.79 391.399 688.289 393.283 687.931C410.393 684.667 432.987 680.517 455.946 677.439C463.65 676.409 471.262 675.393 478.799 674.405C496.911 672.015 514.506 669.682 532.178 667.12C531.707 666.075 531.327 664.915 531.038 663.613C528.926 654.224 537.8 638.122 545.716 633.398C558.601 625.712 575.437 631.108 590.282 635.86C595.98 637.678 601.405 639.424 606.191 640.297C607.331 633.642 606.297 628.732 603.122 625.698C595.479 618.427 576.637 621.776 561.488 624.467C554.271 625.755 548.041 626.857 543.908 626.657C543.118 626.614 542.465 626.056 542.343 625.326C540.839 615.922 555.958 613.074 569.298 610.555C576.835 609.138 586.21 607.377 586.939 604.858C587.167 604.056 586.271 602.725 584.463 601.208C579.494 597.029 573.538 599.033 567.247 601.165C563.312 602.496 559.589 603.742 556.17 603.326C551.278 602.74 548.254 601.451 546.658 599.276C544.516 596.356 545.473 592.692 546.567 588.441C547.19 586.036 547.828 583.56 547.995 580.927C548.542 572.568 544.258 566.127 539.714 559.314C535.703 553.288 531.585 547.105 530.917 539.476C524.763 541.265 517.91 542.324 510.829 542.883C497.716 549.824 479.24 551.571 463.194 552.186C449.868 552.716 438.381 548.908 427.289 545.244C419.19 542.568 411.517 540.034 403.16 539.032C398.829 538.517 394.924 539.404 390.792 540.335C385.473 541.537 379.988 542.782 373.682 540.779C373.47 547.749 372.771 555.034 371.601 562.649C370.841 567.544 369.656 572.525 368.516 577.32C366.799 584.648 365.113 591.747 364.717 598.761ZM324.923 622.678C333.675 622.678 344.569 625.97 346.636 626.786C358.533 631.523 361.253 637.735 364.307 647.411C365.796 652.148 365.964 657.344 366.115 662.382C366.283 667.893 366.465 673.589 368.44 678.456C370.142 682.664 372.102 684.954 373.834 684.868C376.174 684.682 379.547 679.987 381.158 672.444C384.759 655.598 378.286 644.004 370.811 630.593C369.245 627.773 367.62 624.868 366.039 621.819C362.241 614.505 361.116 607.177 361.359 599.92C360.159 598.603 358.989 597.258 357.88 595.884C349.796 585.95 350.328 577.95 351.954 567.73C352.531 564.109 352.334 559.514 352.106 554.648C351.817 548.336 351.529 541.809 353.063 537.057C354.659 532.133 356.33 529.758 358.655 529.128C361.42 528.383 363.867 530.416 366.693 532.763C367.848 533.722 369.094 534.753 370.431 535.654C370.431 533.98 370.385 532.32 370.324 530.688C369.96 530.559 369.61 530.43 369.246 530.301C364.049 528.426 359.141 526.652 354.963 527.267C351.255 527.811 348.505 529.414 346.545 532.162C339.312 542.339 345.132 565.182 348.247 577.448C348.657 579.037 349.021 580.469 349.31 581.685C349.675 583.231 350.51 585.464 351.453 588.04C354.431 596.098 358.153 606.132 354.4 611.485C352.562 614.104 350.161 615.578 347.274 615.85C342.047 616.351 335.544 612.83 327.415 605.116C320.212 598.288 316.398 589.114 312.721 580.254C309.029 571.365 305.534 562.978 298.985 557.367C294.336 553.388 290.811 551.914 289.048 553.188C283.836 556.967 288.273 580.168 292.513 587.897C294.047 590.688 295.734 593.25 297.36 595.741C301.386 601.895 305.2 607.706 306.294 615.936C306.765 619.472 306.4 622.849 306.051 626.113C305.382 632.282 304.805 637.606 310.245 642.172C315.988 646.996 322.947 648.785 329.679 650.502C339.829 653.107 350.328 655.784 355.19 669.038C356.421 672.387 356.68 675.45 356.816 678.184C356.831 678.169 356.862 678.141 356.877 678.126C360.478 674.834 360.661 665.645 358.427 660.221C356.71 656.056 345.891 650.517 336.364 645.636C324.953 639.796 315.092 634.744 313.891 629.734C313.572 628.403 313.861 627.1 314.727 625.984C316.596 623.522 320.486 622.678 324.923 622.678ZM538.241 669.424C541.72 671.442 547.433 670.197 553.496 668.88L554.848 668.594C562.674 666.919 571.623 665.86 580.284 664.858C592.273 663.456 604.672 662.01 614.183 658.861C619.547 657.086 622.738 654.753 623.954 651.705C626.202 646.051 621.386 638.064 616.736 630.335C615.581 628.432 614.427 626.499 613.348 624.567C616.523 635.33 616.311 642.83 612.755 648.498C608.561 655.211 599.946 659.176 583.05 662.182C567.779 664.901 552.949 667.248 538.241 669.424ZM561.033 632.711C556.155 632.711 551.551 633.641 547.509 636.06C540.656 640.154 532.527 655.025 534.32 662.955C534.639 664.4 535.08 665.617 535.627 666.619C551.004 664.357 566.487 661.924 582.427 659.09C598.275 656.27 606.237 652.749 609.883 646.91C613.348 641.356 612.953 633.083 608.653 620.846C606.738 615.392 604.504 610.44 602.362 605.66C596.223 591.991 590.905 580.182 595.342 563.35C596.147 560.259 597.074 557.21 597.956 554.276C599.232 550.01 600.569 545.602 601.557 541.065C598.852 542.825 597.013 545.688 595.069 548.708C592.136 553.259 589.097 557.969 582.837 558.584C582.092 558.656 581.409 558.269 581.12 557.625C577.291 549.066 584.949 532.677 593.063 515.344C594.901 511.408 596.801 507.358 598.533 503.393C599.824 496.809 601.678 489.924 603.319 483.784C603.927 481.537 604.489 479.404 604.975 477.501C604.656 476.542 604.155 475.74 603.456 475.11C601.541 476.198 599.824 477.672 598.153 479.104C594.719 482.038 591.164 485.072 585.785 485.215C585.769 485.215 585.754 485.215 585.739 485.215C584.919 485.215 584.22 484.657 584.098 483.899C583.642 481.294 583.84 478.359 584.508 475.368C582.822 478.145 581.287 480.778 580.087 483.197C573.203 497.181 560.379 523.202 543.635 533.966C540.824 535.769 537.663 537.243 534.214 538.46C534.579 545.688 538.469 551.556 542.556 557.682C547.175 564.624 551.961 571.795 551.338 581.17C551.156 584.076 550.442 586.809 549.819 589.228C548.907 592.735 548.132 595.769 549.424 597.53C550.427 598.904 552.767 599.791 556.611 600.249C559.224 600.564 562.582 599.433 566.138 598.231C572.763 595.998 580.254 593.479 586.712 598.904C589.659 601.38 590.799 603.613 590.191 605.731C588.915 610.125 580.558 611.685 569.982 613.689C558.966 615.765 546.567 618.098 545.671 623.565C549.424 623.451 554.803 622.506 560.896 621.418C576.82 618.584 596.634 615.063 605.523 623.522C609.777 627.573 611.008 633.942 609.2 642.458C609.017 643.288 608.197 643.832 607.3 643.704C601.83 642.902 595.707 640.941 589.219 638.866C580.026 635.903 570.058 632.711 561.033 632.711ZM324.771 625.855C321.306 625.855 318.511 626.399 317.401 627.83C317.097 628.231 317.006 628.589 317.113 629.033C317.979 632.64 328.569 638.079 337.929 642.859C348.945 648.498 359.354 653.823 361.511 659.076C362.058 660.407 362.514 662.024 362.818 663.785C362.803 663.341 362.788 662.897 362.773 662.468C362.621 657.415 362.469 652.649 361.101 648.312C358.001 638.494 355.57 633.77 345.329 629.691C341.044 627.988 331.593 625.855 324.771 625.855ZM364.657 603.441C364.854 609.109 366.085 614.763 369.033 620.431C370.598 623.436 372.208 626.328 373.758 629.119C380.003 640.311 385.549 650.273 385.534 663.04C387.616 654.539 389.333 645.836 387.813 637.32C385.595 624.853 377.086 616.165 368.076 606.962C366.951 605.803 365.796 604.629 364.657 603.441ZM601.906 537.444C602.362 537.444 602.818 537.615 603.152 537.959C603.593 538.417 604.049 538.846 604.52 539.276C604.945 539.648 605.127 540.192 605.021 540.721C603.973 545.716 602.544 550.497 601.146 555.12C600.265 558.04 599.369 561.06 598.563 564.094C594.4 579.91 599.505 591.261 605.416 604.414C606.358 606.49 607.3 608.608 608.242 610.784C607.543 606.576 607.27 602.382 606.996 598.303C606.617 592.663 606.237 586.824 604.748 581.127C601.906 570.321 600.341 564.381 603.395 552.902C604.307 549.467 605.583 545.96 606.799 542.568C608.318 538.345 609.883 534.023 610.841 529.686C608.045 531.003 605.583 531.461 603.441 530.888C597.88 529.4 596.406 523.073 596.907 514.858C596.634 515.444 596.36 516.017 596.087 516.604C588.991 531.761 581.682 547.42 583.749 555.22C587.532 554.261 589.705 550.898 592.182 547.062C594.537 543.426 596.968 539.648 601.146 537.615C601.374 537.501 601.648 537.444 601.906 537.444ZM359.794 532.119C359.703 532.119 359.627 532.133 359.551 532.148C359.08 532.277 357.804 533.092 356.239 537.959C354.871 542.195 355.16 548.45 355.434 554.49C355.661 559.514 355.874 564.252 355.251 568.174C353.686 577.907 353.215 584.963 360.524 593.937C360.904 594.395 361.284 594.867 361.679 595.326C362.332 589.042 363.821 582.802 365.28 576.647C366.404 571.895 367.574 566.986 368.319 562.205C369.549 554.233 370.248 546.618 370.4 539.362C368.121 538.102 366.146 536.485 364.49 535.096C362.697 533.651 360.858 532.119 359.794 532.119ZM400.577 535.769C401.565 535.769 402.567 535.826 403.601 535.941C412.322 536.986 420.497 539.691 428.414 542.296C439.202 545.86 450.385 549.552 463.073 549.066C474.894 548.608 489.466 547.448 501.424 543.383C494.024 543.57 486.624 543.369 479.741 543.04C467.509 542.467 455.369 540.034 443.623 537.687C434.051 535.769 424.159 533.794 414.298 532.835C408.417 532.262 402.993 532.72 397.265 533.193C393.025 533.55 388.634 533.908 383.863 533.865C380.49 533.837 377.071 532.964 373.713 531.862C373.774 533.708 373.789 535.569 373.773 537.472C373.971 537.558 374.169 537.63 374.381 537.701C379.943 539.619 384.835 538.503 390.032 537.315C393.375 536.556 396.824 535.769 400.577 535.769ZM547.844 453.884C543.088 453.884 537.724 468.355 535.946 473.135C535.688 473.822 535.46 474.423 535.293 474.896C532.482 482.124 531.92 490.382 531.312 499.113C530.522 510.65 529.701 522.572 523.304 532.162C521.526 534.839 519.293 537.157 516.71 539.161C521.709 538.531 526.495 537.587 530.856 536.241C530.917 534.982 531.069 533.665 531.327 532.32C533.166 522.959 537.314 513.326 541.34 504.023C544.683 496.279 548.147 488.278 550.199 480.549L550.351 479.977C551.642 475.182 555.547 460.597 551.49 455.53C550.639 454.457 549.5 453.941 547.904 453.898C547.889 453.884 547.859 453.884 547.844 453.884ZM601.739 504.266C599.49 515.759 598.852 526.38 604.352 527.868C606.161 528.355 608.622 527.496 611.509 525.721C611.57 525.263 611.616 524.791 611.646 524.333C612.071 518.808 611.524 513.469 610.962 507.801C610.43 502.563 609.883 497.152 610.187 491.613C610.445 486.589 611.023 481.437 611.57 476.47C613.257 461.098 615.004 445.196 607.984 430.811C597.925 410.215 584.356 404.046 557.933 408.068C535.156 411.532 523.973 422.353 510.13 442.448C508.216 445.225 506.453 448.13 504.584 451.208C500.846 457.362 496.972 463.731 491.866 468.898C489.83 470.96 486.974 472.892 483.95 474.939C478.191 478.846 471.718 483.24 470.746 488.951C478.161 489.796 491.866 477.086 508.034 454.428L509.386 452.524C520.387 437.081 530.765 422.481 550.108 415.282C560.212 411.518 576.592 410.301 588.641 416.556C595.418 420.062 599.718 425.559 601.101 432.429C602.56 439.657 600.113 447.5 596.299 455.244C596.953 454.686 597.621 454.185 598.29 453.77C601.937 451.422 604.474 451.923 605.963 452.753C609.579 454.772 610.81 460.711 609.747 470.902C609.579 472.491 609.093 474.71 608.425 477.443C609.868 483.698 606.51 493.388 601.739 504.266ZM338.947 473.149C338.127 473.149 337.686 473.364 337.489 473.536C336.531 474.337 335.544 477.343 339.829 488.579C344.585 501.031 353.777 510.693 363.259 513.183C364.991 513.641 366.708 513.841 368.44 513.856C367.24 507.558 365.508 501.675 363.244 496.193C359.232 486.518 352.501 478.646 345.238 475.11C342.032 473.565 340.102 473.149 338.947 473.149ZM603.228 455.201C602.21 455.201 601.055 455.788 600.159 456.36C594.263 460.168 586.575 472.691 587.183 481.909C590.525 481.322 593.032 479.19 595.874 476.756C597.971 474.967 600.128 473.121 602.803 471.818C603.334 471.561 603.957 471.589 604.459 471.89C605.021 472.233 605.523 472.606 605.978 473.035C606.176 472.076 606.313 471.246 606.389 470.573C607.665 458.364 605.051 455.902 604.231 455.444C603.927 455.272 603.593 455.201 603.228 455.201ZM406.518 454.5C436.619 464.934 473.511 467.124 502.503 435.635C508.596 429.008 513.929 420.864 518.184 411.918C508.672 417.844 498.096 422.582 488.736 426.775L486.168 427.935C483.631 429.08 438.244 449.204 405.728 444.738C406.047 446.713 406.26 448.789 406.396 450.993C406.472 452.152 406.503 453.312 406.518 454.5ZM376.417 406.379C377.283 415.225 378.651 423.111 382.131 428.35C386.461 434.876 393.268 438.712 401.489 440.63C398.161 427.677 390.153 419.848 379.851 409.771C378.727 408.655 377.572 407.524 376.417 406.379ZM486.639 311.441C501.181 311.441 513.671 315.234 521.192 325.74C535.657 345.95 535.05 376.479 525.507 402.844C529.807 399.38 533.576 395.558 536.508 391.293C548.71 373.516 542.222 353.664 535.202 336.446L534.867 335.63C520.919 301.479 501.819 254.718 518.867 214.885C519.034 214.499 519.369 214.184 519.779 214.012C520.189 213.855 520.66 213.855 521.071 214.026C530.552 217.862 528.896 233.707 527.3 249.036C526.115 260.343 524.9 272.008 528.334 277.075C535.809 265.997 536.493 246.617 537.086 229.427C537.435 219.208 537.77 209.546 539.395 201.889C541.082 193.974 545.823 183.339 550.548 183.912C553.663 184.298 554.757 188.449 554.104 197.352C553.815 201.345 552.995 205.625 552.113 210.147C550.594 218.077 549.014 226.235 550.427 232.919C556.231 226.235 559.787 216.774 563.221 207.585C565.317 202.003 567.293 196.722 569.739 192.041C572.748 186.302 575.179 180.09 577.519 174.093C581.105 164.933 584.812 155.457 590.677 147.313C595.023 141.287 599.825 135.906 604.459 130.696C609.747 124.756 614.746 119.145 619.198 112.604C624.88 104.26 623.042 96.7167 621.097 88.7157C619.517 82.2462 617.891 75.562 620.307 68.3196C620.535 67.6326 621.249 67.1745 622.009 67.2175C631.657 67.79 634.195 77.5372 636.246 85.3807C636.747 87.2987 637.219 89.1307 637.766 90.7052C650.848 82.6326 650.818 63.0524 650.787 45.705C650.772 39.4502 650.772 33.496 651.35 28.3433C651.319 28.3576 651.289 28.3719 651.258 28.3719C649.602 29.016 648.311 29.5313 647.034 31.2918C646.761 31.6782 646.305 31.9216 645.819 31.9645C645.348 32.0074 644.846 31.85 644.482 31.5208C643.995 31.0628 643.494 30.6191 642.992 30.1754C642.506 29.7603 642.339 29.1162 642.537 28.5294C643.144 26.7545 644.193 24.5503 645.409 22.0026C647.992 16.5637 651.714 8.74876 650.635 4.52642C649.709 5.47108 648.63 6.35849 647.581 7.23158C646.244 8.348 644.983 9.39284 644.223 10.3518C643.889 10.7955 643.327 11.0245 642.749 10.9959C642.172 10.953 641.655 10.6381 641.397 10.1657C640.865 9.22107 640.06 8.60562 639.194 7.96154C638.814 7.67528 638.434 7.38901 638.069 7.05981C632.204 10.8671 625.306 17.4654 623.619 24.6791C623.057 27.0694 623.3 29.0733 623.559 31.1773C623.847 33.5246 624.136 35.9578 623.285 38.8777C622.632 41.1105 621.31 42.9569 620.033 44.746C618.985 46.2203 617.982 47.6086 617.374 49.1688C615.688 53.4627 614.199 57.7423 612.755 61.8644C607.847 75.8912 603.213 89.1451 592.03 102.012C587.031 107.752 581.424 113.334 575.999 118.716C567.171 127.49 558.039 136.55 551.126 146.755C549.181 149.632 547.661 153.096 546.203 156.431C544.045 161.34 541.826 166.421 538.073 170.214C535.232 173.091 532.573 174.937 530.218 176.583C526.115 179.446 522.864 181.693 520.022 188.105C519.354 189.594 518.882 190.896 518.457 192.041C517.302 195.176 516.391 197.666 513.033 200.729C511.711 201.932 509.583 202.662 507.107 203.506C504.25 204.48 501.029 205.582 499.175 207.485C496.379 210.319 494.814 215.043 493.295 219.594C491.365 225.405 489.359 231.402 484.664 234.58C480.789 237.199 477.796 236.197 475.608 235.467C474.058 234.952 473.268 234.723 472.356 235.224C469.454 236.813 468.603 238.573 467.54 240.792C466.871 242.166 466.127 243.712 464.835 245.343C464.379 245.901 464.364 246.574 464.364 247.691C464.364 249.136 464.364 250.94 462.784 252.657C461.34 254.232 459.411 254.432 457.997 254.575C456.843 254.704 456.174 254.79 455.825 255.219C454.867 256.393 453.986 257.323 453.226 258.139C451.281 260.214 449.868 261.717 448.379 265.596C446.541 270.377 445.371 275.572 444.231 280.582C441.633 292.004 438.974 303.755 428.474 312.328C424.828 318.34 419.418 322.82 412.733 325.267C403.677 328.588 393.375 327.672 384.471 322.734C376.721 318.44 370.902 311.441 365.265 304.656C361.086 299.633 356.786 294.437 351.696 290.372C338.613 296.341 328.737 294.237 318.283 292.004C310.837 290.415 303.149 288.783 293.774 290.114C291.905 290.386 290.051 290.687 288.197 290.987C279.551 292.404 270.602 293.864 261.06 291.188C256.38 289.871 252.125 287.724 248.023 285.649C242.765 282.986 237.797 280.482 232.068 279.637C221.66 278.12 210.932 279.165 200.539 280.181C188.11 281.398 175.255 282.657 162.37 279.709C157.827 278.664 153.512 276.503 149.348 274.413C145.079 272.266 140.657 270.062 136.099 269.131C131.328 268.158 126.374 268.516 121.147 268.888C114.963 269.332 108.566 269.79 102.443 267.886C89.4967 263.85 82.7654 254.561 76.2621 245.572C72.0988 239.833 68.1482 234.379 62.7237 230.257C61.5385 231.331 60.8091 232.605 60.5964 234.05C60.1862 236.67 61.3714 239.919 63.8481 242.967C64.2736 243.497 64.304 244.212 63.9393 244.771C63.5594 245.329 62.8604 245.601 62.1767 245.472C57.9981 244.628 54.5945 241.894 51.2973 239.232C47.4379 236.126 44.0494 233.377 39.9469 233.75C40.9497 236.269 43.5936 238.53 46.359 240.906C48.8206 243.024 51.3733 245.214 53.1055 247.848C53.2118 247.934 53.303 248.02 53.379 248.12C54.2451 249.193 54.2603 250.066 53.4246 250.711C52.6344 251.326 51.7835 251.197 50.8871 250.338C47.4987 249.136 44.2318 247.419 41.0713 245.773C37.9564 244.141 34.9783 242.581 31.9545 241.493C33.5652 245.171 36.756 248.163 40.0988 251.312C41.1473 252.299 42.1957 253.287 43.2289 254.317C43.8519 254.933 43.8368 255.906 43.1986 256.507C42.5604 257.109 41.5424 257.137 40.8738 256.565C38.1084 254.174 36.9839 254.232 34.2489 254.375C34.2337 254.375 34.2033 254.375 34.1881 254.375C40.4939 262.948 52.2394 268.588 63.1187 273.01C63.6961 273.239 64.076 273.755 64.1216 274.341C64.2584 276.102 64.2735 277.662 64.152 279.38C64.0912 280.195 63.3923 280.84 62.511 280.854C59.4265 280.911 56.2964 280.41 53.2878 279.938C48.5623 279.194 44.0646 278.478 40.3268 279.995C45.3258 285.663 54.3363 287.853 63.058 289.971C68.9383 291.403 75.0162 292.877 79.8784 295.425C81.6107 296.326 83.7076 297.571 85.9412 298.874C93.1586 303.125 104.053 309.551 108.156 307.433C109.371 306.803 109.994 305.229 110.025 302.753C110.04 301.665 108.505 298.53 107.168 295.782C103.856 289.012 100.103 281.34 103.066 276.889C104.357 274.957 106.682 273.955 110.009 273.883C110.07 273.883 110.116 273.883 110.177 273.883C117.835 273.883 119.871 283.716 121.36 290.902C121.877 293.378 122.363 295.711 122.925 296.87C129.702 310.596 141.052 311.155 154.18 311.799C160.501 312.114 167.035 312.428 173.356 314.303C178.218 315.749 182.746 318.211 187.122 320.587C191.149 322.762 195.297 325.024 199.582 326.398C209.139 329.461 220.201 332.796 229.774 334.342C234.18 335.057 238.982 336.016 244.057 337.032C260.452 340.31 278.974 344.017 292.847 341.012C291.738 335.401 286.89 331.207 281.77 326.784C276.239 321.989 270.511 317.037 269.812 309.981C269.766 309.537 269.918 309.108 270.237 308.779C270.556 308.449 270.997 308.263 271.453 308.263C281.451 308.149 289.701 317.037 297.633 325.639C305.276 333.927 312.539 341.799 320.076 339.938C318.693 338.049 316.657 335.759 314.53 333.383C306.507 324.38 296.509 313.173 304.881 305.744C305.367 305.315 306.066 305.2 306.674 305.444C315.168 308.779 319.924 316.078 324.543 323.149C328.919 329.862 333.067 336.202 340.117 339.38C355.266 346.179 382.678 338.149 395.836 334.284C400.622 332.882 406.381 330.921 413.052 328.631C434.765 321.188 463.316 311.441 486.639 311.441ZM339.768 351.818C339.251 365.329 355.039 380.702 366.678 392.009C368.699 393.97 370.628 395.859 372.345 397.605C372.33 397.434 372.315 397.247 372.3 397.076C371.084 380.601 369.823 363.555 359.673 355.854C354.841 352.176 348.322 350.859 339.768 351.818ZM391.977 228.11C393.147 228.11 394.317 228.225 395.456 228.482C401.686 229.856 406.989 235.095 411.669 244.499C411.897 244.957 411.882 245.501 411.608 245.944C411.335 246.388 410.864 246.689 410.317 246.732C406.442 247.104 402.157 247.218 397.629 247.347C381.644 247.805 363.517 248.32 353.489 259.814C344.098 270.577 356.847 283.087 367.103 293.134C369.261 295.238 371.282 297.228 372.968 299.074C389.804 317.467 406.153 322.204 421.576 313.173C423.111 312.271 424.508 311.312 425.785 310.31C426.879 308.435 427.791 306.403 428.505 304.213C430.419 298.344 429.021 293.363 427.532 288.068C426.621 284.804 425.663 281.412 425.618 277.877C425.557 273.812 426.909 270.234 428.231 266.784C430.267 261.445 432.015 256.837 428.672 251.04C427.715 249.365 425.906 248.478 424.007 247.533C422.077 246.574 420.072 245.587 418.689 243.712C417.002 241.421 416.06 238.301 415.149 235.281C414.556 233.32 413.994 231.46 413.28 230.028C412.414 228.268 411.259 226.407 410.043 224.418C406.792 219.107 403.433 213.611 404.072 208.487C399.513 205.854 393.359 205.882 386.932 206.168C386.476 206.197 386.02 206.025 385.686 205.725C385.352 205.424 385.169 205.009 385.169 204.565C385.215 201.917 384.653 200.186 383.544 199.456C381.325 197.996 376.174 199.828 372.041 201.302C368.729 202.49 365.599 203.592 363.183 203.521C362.408 203.492 361.739 202.962 361.603 202.247C361.572 202.075 361.542 201.917 361.496 201.746C350.146 205.825 341.394 227.151 341.044 237.6C340.695 247.977 342.199 249.494 342.67 249.723C343.642 250.181 346.879 247.691 349.021 246.045C353.671 242.466 359.931 237.643 365.72 240.949C375.202 233.878 383.848 228.11 391.977 228.11Z"/>
</svg>
